G04 Layer_Color=8388736*
%FSLAX42Y42*%
%MOMM*%
G71*
G01*
G75*
%ADD17C,2.69*%
%ADD18C,2.50*%
%ADD19C,2.00*%
%ADD20C,1.39*%
%ADD21C,10.90*%
D17*
X5005Y11619D02*
D03*
Y6920D02*
D03*
X1422D02*
D03*
Y11619D02*
D03*
D18*
X5259Y10984D02*
D03*
X5005D02*
D03*
X4751D02*
D03*
X4497D02*
D03*
Y10730D02*
D03*
X4751D02*
D03*
X5005D02*
D03*
X5259D02*
D03*
Y10349D02*
D03*
X5005D02*
D03*
X4751D02*
D03*
X4497D02*
D03*
Y10095D02*
D03*
X4751D02*
D03*
X5005D02*
D03*
X5265D02*
D03*
X5259Y9714D02*
D03*
X5005D02*
D03*
X4751D02*
D03*
X4497D02*
D03*
Y9460D02*
D03*
X4751D02*
D03*
X5005D02*
D03*
X5259D02*
D03*
Y9079D02*
D03*
X5005D02*
D03*
X4751D02*
D03*
X4490D02*
D03*
Y8814D02*
D03*
X4751Y8825D02*
D03*
X5005D02*
D03*
X5259D02*
D03*
Y7809D02*
D03*
X5005D02*
D03*
X4751D02*
D03*
X4497D02*
D03*
Y7555D02*
D03*
X4751D02*
D03*
X5005D02*
D03*
X5259D02*
D03*
Y8190D02*
D03*
X5005D02*
D03*
X4751D02*
D03*
X4497D02*
D03*
Y8444D02*
D03*
X4751D02*
D03*
X5005D02*
D03*
X5259D02*
D03*
X1168Y7555D02*
D03*
X1422D02*
D03*
X1676D02*
D03*
X1930D02*
D03*
Y7809D02*
D03*
X1676D02*
D03*
X1422D02*
D03*
X1168D02*
D03*
Y8190D02*
D03*
X1422D02*
D03*
X1676D02*
D03*
X1930D02*
D03*
Y8444D02*
D03*
X1676D02*
D03*
X1422D02*
D03*
X1168D02*
D03*
Y8825D02*
D03*
X1422D02*
D03*
X1676D02*
D03*
X1930D02*
D03*
Y9079D02*
D03*
X1676D02*
D03*
X1422D02*
D03*
X1168D02*
D03*
Y9460D02*
D03*
X1422D02*
D03*
X1676D02*
D03*
X1930D02*
D03*
Y9714D02*
D03*
X1676D02*
D03*
X1422D02*
D03*
X1168D02*
D03*
Y10095D02*
D03*
X1422D02*
D03*
X1676D02*
D03*
X1930D02*
D03*
Y10349D02*
D03*
X1676D02*
D03*
X1422D02*
D03*
X1168D02*
D03*
Y10730D02*
D03*
X1422D02*
D03*
X1676D02*
D03*
X1930D02*
D03*
Y10984D02*
D03*
X1676D02*
D03*
X1422D02*
D03*
X1168D02*
D03*
D19*
X1276Y4644D02*
D03*
Y4456D02*
D03*
X1784Y4644D02*
D03*
X1530Y4456D02*
D03*
X1784D02*
D03*
X1530Y4644D02*
D03*
Y4144D02*
D03*
X1276D02*
D03*
X1784D02*
D03*
Y3956D02*
D03*
X1530D02*
D03*
X1276D02*
D03*
Y3644D02*
D03*
X1530D02*
D03*
X1784D02*
D03*
Y3456D02*
D03*
X1526D02*
D03*
X1276D02*
D03*
Y3144D02*
D03*
X1530D02*
D03*
X1784D02*
D03*
Y2956D02*
D03*
X1530D02*
D03*
X1276D02*
D03*
Y2644D02*
D03*
X1530D02*
D03*
X1784D02*
D03*
Y2456D02*
D03*
X1530D02*
D03*
X1276D02*
D03*
Y2144D02*
D03*
X1530D02*
D03*
X1784D02*
D03*
Y1956D02*
D03*
X1530D02*
D03*
X1276D02*
D03*
D20*
X1238Y4932D02*
D03*
Y1668D02*
D03*
D21*
X3146Y10600D02*
D03*
Y2000D02*
D03*
M02*
