G04 Layer_Physical_Order=2*
G04 Layer_Color=16711680*
%FSLAX42Y42*%
%MOMM*%
G71*
G01*
G75*
%ADD10C,2.00*%
%ADD11C,2.49*%
%ADD12C,2.30*%
%ADD13C,1.80*%
%ADD14C,1.19*%
%ADD15C,10.70*%
G36*
X2050Y9260D02*
X2050Y8650D01*
X1020Y8650D01*
Y9260D01*
X2050Y9260D01*
D02*
G37*
G36*
X5530Y7980D02*
Y7400D01*
X3594Y3906D01*
X2330Y1810D01*
X980D01*
Y7981D01*
X989Y7990D01*
X5530Y7980D01*
D02*
G37*
G36*
X5425Y9950D02*
X4375D01*
X3925Y9500D01*
X3226Y9500D01*
D01*
X2525Y9500D01*
X2075Y9950D01*
Y9950D01*
X1000D01*
Y10500D01*
X2075D01*
Y10485D01*
X2087Y10490D01*
X2718Y9950D01*
X3825Y9950D01*
X4363Y10488D01*
X4375Y10483D01*
Y10500D01*
X5425D01*
Y9950D01*
D02*
G37*
G36*
X5480Y8675D02*
X4300D01*
Y9230D01*
X5480D01*
Y8675D01*
D02*
G37*
%LPC*%
G36*
X1276Y3760D02*
X1246Y3756D01*
X1218Y3745D01*
X1194Y3726D01*
X1175Y3702D01*
X1164Y3674D01*
X1160Y3644D01*
X1164Y3614D01*
X1175Y3586D01*
X1194Y3562D01*
X1201Y3556D01*
Y3544D01*
X1194Y3538D01*
X1175Y3514D01*
X1164Y3486D01*
X1160Y3456D01*
X1164Y3426D01*
X1175Y3398D01*
X1194Y3374D01*
X1218Y3355D01*
X1246Y3344D01*
X1276Y3340D01*
X1306Y3344D01*
X1334Y3355D01*
X1358Y3374D01*
X1377Y3398D01*
X1388Y3426D01*
X1392Y3456D01*
X1388Y3486D01*
X1377Y3514D01*
X1358Y3538D01*
X1351Y3544D01*
Y3556D01*
X1358Y3562D01*
X1377Y3586D01*
X1388Y3614D01*
X1392Y3644D01*
X1388Y3674D01*
X1377Y3702D01*
X1358Y3726D01*
X1334Y3745D01*
X1306Y3756D01*
X1276Y3760D01*
D02*
G37*
G36*
X1784Y3260D02*
X1754Y3256D01*
X1726Y3245D01*
X1702Y3226D01*
X1683Y3202D01*
X1672Y3174D01*
X1668Y3144D01*
X1672Y3114D01*
X1683Y3086D01*
X1702Y3062D01*
X1709Y3056D01*
Y3044D01*
X1702Y3038D01*
X1683Y3014D01*
X1672Y2986D01*
X1668Y2956D01*
X1672Y2926D01*
X1683Y2898D01*
X1702Y2874D01*
X1726Y2855D01*
X1754Y2844D01*
X1784Y2840D01*
X1814Y2844D01*
X1842Y2855D01*
X1866Y2874D01*
X1885Y2898D01*
X1896Y2926D01*
X1900Y2956D01*
X1896Y2986D01*
X1885Y3014D01*
X1866Y3038D01*
X1859Y3044D01*
Y3056D01*
X1866Y3062D01*
X1885Y3086D01*
X1896Y3114D01*
X1900Y3144D01*
X1896Y3174D01*
X1885Y3202D01*
X1866Y3226D01*
X1842Y3245D01*
X1814Y3256D01*
X1784Y3260D01*
D02*
G37*
G36*
Y3760D02*
X1754Y3756D01*
X1726Y3745D01*
X1702Y3726D01*
X1683Y3702D01*
X1672Y3674D01*
X1668Y3644D01*
X1672Y3614D01*
X1683Y3586D01*
X1702Y3562D01*
X1709Y3556D01*
Y3544D01*
X1702Y3538D01*
X1683Y3514D01*
X1672Y3486D01*
X1668Y3456D01*
X1672Y3426D01*
X1683Y3398D01*
X1702Y3374D01*
X1726Y3355D01*
X1754Y3344D01*
X1784Y3340D01*
X1814Y3344D01*
X1842Y3355D01*
X1866Y3374D01*
X1885Y3398D01*
X1896Y3426D01*
X1900Y3456D01*
X1896Y3486D01*
X1885Y3514D01*
X1866Y3538D01*
X1859Y3544D01*
Y3556D01*
X1866Y3562D01*
X1885Y3586D01*
X1896Y3614D01*
X1900Y3644D01*
X1896Y3674D01*
X1885Y3702D01*
X1866Y3726D01*
X1842Y3745D01*
X1814Y3756D01*
X1784Y3760D01*
D02*
G37*
G36*
X1530D02*
X1500Y3756D01*
X1472Y3745D01*
X1448Y3726D01*
X1429Y3702D01*
X1418Y3674D01*
X1414Y3644D01*
X1418Y3614D01*
X1429Y3586D01*
X1448Y3562D01*
X1453Y3558D01*
Y3545D01*
X1444Y3538D01*
X1425Y3514D01*
X1414Y3486D01*
X1410Y3456D01*
X1414Y3426D01*
X1425Y3398D01*
X1444Y3374D01*
X1468Y3355D01*
X1496Y3344D01*
X1526Y3340D01*
X1556Y3344D01*
X1584Y3355D01*
X1608Y3374D01*
X1627Y3398D01*
X1638Y3426D01*
X1642Y3456D01*
X1638Y3486D01*
X1627Y3514D01*
X1608Y3538D01*
X1603Y3542D01*
Y3555D01*
X1612Y3562D01*
X1631Y3586D01*
X1642Y3614D01*
X1646Y3644D01*
X1642Y3674D01*
X1631Y3702D01*
X1612Y3726D01*
X1588Y3745D01*
X1560Y3756D01*
X1530Y3760D01*
D02*
G37*
G36*
Y2760D02*
X1500Y2756D01*
X1472Y2745D01*
X1448Y2726D01*
X1429Y2702D01*
X1418Y2674D01*
X1414Y2644D01*
X1418Y2614D01*
X1429Y2586D01*
X1448Y2562D01*
X1455Y2556D01*
Y2544D01*
X1448Y2538D01*
X1429Y2514D01*
X1418Y2486D01*
X1414Y2462D01*
X1402D01*
X1398Y2489D01*
X1386Y2519D01*
X1365Y2545D01*
X1360Y2549D01*
X1361Y2565D01*
X1377Y2586D01*
X1388Y2614D01*
X1392Y2644D01*
X1388Y2674D01*
X1377Y2702D01*
X1358Y2726D01*
X1334Y2745D01*
X1306Y2756D01*
X1276Y2760D01*
X1246Y2756D01*
X1218Y2745D01*
X1194Y2726D01*
X1175Y2702D01*
X1164Y2674D01*
X1160Y2644D01*
X1164Y2614D01*
X1175Y2586D01*
X1179Y2581D01*
X1176Y2569D01*
X1168Y2566D01*
X1142Y2545D01*
X1121Y2519D01*
X1109Y2489D01*
X1105Y2456D01*
X1109Y2423D01*
X1121Y2393D01*
X1142Y2367D01*
X1168Y2346D01*
X1198Y2334D01*
X1231Y2330D01*
X1276D01*
X1309Y2334D01*
X1339Y2346D01*
X1365Y2367D01*
X1386Y2393D01*
X1398Y2423D01*
X1402Y2450D01*
X1414D01*
X1418Y2426D01*
X1429Y2398D01*
X1448Y2374D01*
X1472Y2355D01*
X1500Y2344D01*
X1530Y2340D01*
X1560Y2344D01*
X1588Y2355D01*
X1612Y2374D01*
X1631Y2398D01*
X1642Y2426D01*
X1646Y2456D01*
X1642Y2486D01*
X1631Y2514D01*
X1612Y2538D01*
X1605Y2544D01*
Y2556D01*
X1612Y2562D01*
X1631Y2586D01*
X1642Y2614D01*
X1646Y2644D01*
X1642Y2674D01*
X1631Y2702D01*
X1612Y2726D01*
X1588Y2745D01*
X1560Y2756D01*
X1530Y2760D01*
D02*
G37*
G36*
X1784D02*
X1754Y2756D01*
X1726Y2745D01*
X1702Y2726D01*
X1683Y2702D01*
X1672Y2674D01*
X1668Y2644D01*
X1672Y2614D01*
X1683Y2586D01*
X1702Y2562D01*
X1709Y2556D01*
Y2544D01*
X1702Y2538D01*
X1683Y2514D01*
X1672Y2486D01*
X1668Y2456D01*
X1672Y2426D01*
X1683Y2398D01*
X1702Y2374D01*
X1726Y2355D01*
X1754Y2344D01*
X1784Y2340D01*
X1814Y2344D01*
X1842Y2355D01*
X1866Y2374D01*
X1885Y2398D01*
X1896Y2426D01*
X1900Y2456D01*
X1896Y2486D01*
X1885Y2514D01*
X1866Y2538D01*
X1859Y2544D01*
Y2556D01*
X1866Y2562D01*
X1885Y2586D01*
X1896Y2614D01*
X1900Y2644D01*
X1896Y2674D01*
X1885Y2702D01*
X1866Y2726D01*
X1842Y2745D01*
X1814Y2756D01*
X1784Y2760D01*
D02*
G37*
G36*
X1530Y3260D02*
X1500Y3256D01*
X1472Y3245D01*
X1448Y3226D01*
X1429Y3202D01*
X1418Y3174D01*
X1414Y3144D01*
X1418Y3114D01*
X1429Y3086D01*
X1448Y3062D01*
X1455Y3056D01*
Y3044D01*
X1448Y3038D01*
X1429Y3014D01*
X1418Y2986D01*
X1414Y2956D01*
X1418Y2926D01*
X1429Y2898D01*
X1448Y2874D01*
X1472Y2855D01*
X1500Y2844D01*
X1530Y2840D01*
X1560Y2844D01*
X1588Y2855D01*
X1612Y2874D01*
X1631Y2898D01*
X1642Y2926D01*
X1646Y2956D01*
X1642Y2986D01*
X1631Y3014D01*
X1612Y3038D01*
X1605Y3044D01*
Y3056D01*
X1612Y3062D01*
X1631Y3086D01*
X1642Y3114D01*
X1646Y3144D01*
X1642Y3174D01*
X1631Y3202D01*
X1612Y3226D01*
X1588Y3245D01*
X1560Y3256D01*
X1530Y3260D01*
D02*
G37*
G36*
X1276D02*
X1246Y3256D01*
X1218Y3245D01*
X1194Y3226D01*
X1175Y3202D01*
X1164Y3174D01*
X1160Y3144D01*
X1164Y3114D01*
X1175Y3086D01*
X1194Y3062D01*
X1201Y3056D01*
Y3044D01*
X1194Y3038D01*
X1175Y3014D01*
X1164Y2986D01*
X1160Y2956D01*
X1164Y2926D01*
X1175Y2898D01*
X1194Y2874D01*
X1218Y2855D01*
X1246Y2844D01*
X1276Y2840D01*
X1306Y2844D01*
X1334Y2855D01*
X1358Y2874D01*
X1377Y2898D01*
X1388Y2926D01*
X1392Y2956D01*
X1388Y2986D01*
X1377Y3014D01*
X1358Y3038D01*
X1351Y3044D01*
Y3056D01*
X1358Y3062D01*
X1377Y3086D01*
X1388Y3114D01*
X1392Y3144D01*
X1388Y3174D01*
X1377Y3202D01*
X1358Y3226D01*
X1334Y3245D01*
X1306Y3256D01*
X1276Y3260D01*
D02*
G37*
G36*
X1238Y5018D02*
X1216Y5015D01*
X1195Y5006D01*
X1177Y4993D01*
X1164Y4975D01*
X1155Y4954D01*
X1152Y4932D01*
X1155Y4910D01*
X1164Y4889D01*
X1177Y4871D01*
X1195Y4858D01*
X1216Y4849D01*
X1238Y4846D01*
X1260Y4849D01*
X1281Y4858D01*
X1299Y4871D01*
X1312Y4889D01*
X1321Y4910D01*
X1324Y4932D01*
X1321Y4954D01*
X1312Y4975D01*
X1299Y4993D01*
X1281Y5006D01*
X1260Y5015D01*
X1238Y5018D01*
D02*
G37*
G36*
X1784Y4760D02*
X1754Y4756D01*
X1726Y4745D01*
X1702Y4726D01*
X1683Y4702D01*
X1672Y4674D01*
X1668Y4644D01*
X1672Y4614D01*
X1683Y4586D01*
X1702Y4562D01*
X1709Y4556D01*
Y4544D01*
X1702Y4538D01*
X1683Y4514D01*
X1672Y4486D01*
X1668Y4456D01*
X1672Y4426D01*
X1683Y4398D01*
X1702Y4374D01*
X1726Y4355D01*
X1754Y4344D01*
X1784Y4340D01*
X1814Y4344D01*
X1842Y4355D01*
X1866Y4374D01*
X1885Y4398D01*
X1896Y4426D01*
X1900Y4456D01*
X1896Y4486D01*
X1885Y4514D01*
X1866Y4538D01*
X1859Y4544D01*
Y4556D01*
X1866Y4562D01*
X1885Y4586D01*
X1896Y4614D01*
X1900Y4644D01*
X1896Y4674D01*
X1885Y4702D01*
X1866Y4726D01*
X1842Y4745D01*
X1814Y4756D01*
X1784Y4760D01*
D02*
G37*
G36*
X5005Y7071D02*
X4976Y7068D01*
X4947Y7059D01*
X4921Y7045D01*
X4898Y7027D01*
X4880Y7004D01*
X4866Y6978D01*
X4857Y6949D01*
X4854Y6920D01*
X4857Y6891D01*
X4866Y6862D01*
X4880Y6836D01*
X4898Y6813D01*
X4921Y6795D01*
X4947Y6781D01*
X4976Y6772D01*
X5005Y6769D01*
X5034Y6772D01*
X5063Y6781D01*
X5089Y6795D01*
X5112Y6813D01*
X5130Y6836D01*
X5144Y6862D01*
X5153Y6891D01*
X5156Y6920D01*
X5153Y6949D01*
X5144Y6978D01*
X5130Y7004D01*
X5112Y7027D01*
X5089Y7045D01*
X5063Y7059D01*
X5034Y7068D01*
X5005Y7071D01*
D02*
G37*
G36*
X1422D02*
X1393Y7068D01*
X1364Y7059D01*
X1338Y7045D01*
X1315Y7027D01*
X1297Y7004D01*
X1283Y6978D01*
X1274Y6949D01*
X1271Y6920D01*
X1274Y6891D01*
X1283Y6862D01*
X1297Y6836D01*
X1315Y6813D01*
X1338Y6795D01*
X1364Y6781D01*
X1393Y6772D01*
X1422Y6769D01*
X1451Y6772D01*
X1480Y6781D01*
X1506Y6795D01*
X1529Y6813D01*
X1547Y6836D01*
X1561Y6862D01*
X1570Y6891D01*
X1573Y6920D01*
X1570Y6949D01*
X1561Y6978D01*
X1547Y7004D01*
X1529Y7027D01*
X1506Y7045D01*
X1480Y7059D01*
X1451Y7068D01*
X1422Y7071D01*
D02*
G37*
G36*
X1530Y4760D02*
X1500Y4756D01*
X1472Y4745D01*
X1448Y4726D01*
X1429Y4702D01*
X1418Y4674D01*
X1414Y4644D01*
X1418Y4614D01*
X1429Y4586D01*
X1448Y4562D01*
X1455Y4556D01*
Y4544D01*
X1448Y4538D01*
X1429Y4514D01*
X1418Y4486D01*
X1414Y4456D01*
X1418Y4426D01*
X1429Y4398D01*
X1448Y4374D01*
X1472Y4355D01*
X1500Y4344D01*
X1530Y4340D01*
X1560Y4344D01*
X1588Y4355D01*
X1612Y4374D01*
X1631Y4398D01*
X1642Y4426D01*
X1646Y4456D01*
X1642Y4486D01*
X1631Y4514D01*
X1612Y4538D01*
X1605Y4544D01*
Y4556D01*
X1612Y4562D01*
X1631Y4586D01*
X1642Y4614D01*
X1646Y4644D01*
X1642Y4674D01*
X1631Y4702D01*
X1612Y4726D01*
X1588Y4745D01*
X1560Y4756D01*
X1530Y4760D01*
D02*
G37*
G36*
Y4260D02*
X1500Y4256D01*
X1472Y4245D01*
X1448Y4226D01*
X1429Y4202D01*
X1418Y4174D01*
X1414Y4144D01*
X1418Y4114D01*
X1429Y4086D01*
X1448Y4062D01*
X1455Y4056D01*
Y4044D01*
X1448Y4038D01*
X1429Y4014D01*
X1418Y3986D01*
X1414Y3956D01*
X1418Y3926D01*
X1429Y3898D01*
X1448Y3874D01*
X1472Y3855D01*
X1500Y3844D01*
X1530Y3840D01*
X1560Y3844D01*
X1588Y3855D01*
X1612Y3874D01*
X1631Y3898D01*
X1642Y3926D01*
X1646Y3956D01*
X1642Y3986D01*
X1631Y4014D01*
X1612Y4038D01*
X1605Y4044D01*
Y4056D01*
X1612Y4062D01*
X1631Y4086D01*
X1642Y4114D01*
X1646Y4144D01*
X1642Y4174D01*
X1631Y4202D01*
X1612Y4226D01*
X1588Y4245D01*
X1560Y4256D01*
X1530Y4260D01*
D02*
G37*
G36*
X1276D02*
X1246Y4256D01*
X1218Y4245D01*
X1194Y4226D01*
X1175Y4202D01*
X1164Y4174D01*
X1160Y4144D01*
X1164Y4114D01*
X1175Y4086D01*
X1194Y4062D01*
X1201Y4056D01*
Y4044D01*
X1194Y4038D01*
X1175Y4014D01*
X1164Y3986D01*
X1160Y3956D01*
X1164Y3926D01*
X1175Y3898D01*
X1194Y3874D01*
X1218Y3855D01*
X1246Y3844D01*
X1276Y3840D01*
X1306Y3844D01*
X1334Y3855D01*
X1358Y3874D01*
X1377Y3898D01*
X1388Y3926D01*
X1392Y3956D01*
X1388Y3986D01*
X1377Y4014D01*
X1358Y4038D01*
X1351Y4044D01*
Y4056D01*
X1358Y4062D01*
X1377Y4086D01*
X1388Y4114D01*
X1392Y4144D01*
X1388Y4174D01*
X1377Y4202D01*
X1358Y4226D01*
X1334Y4245D01*
X1306Y4256D01*
X1276Y4260D01*
D02*
G37*
G36*
Y4760D02*
X1246Y4756D01*
X1218Y4745D01*
X1194Y4726D01*
X1175Y4702D01*
X1164Y4674D01*
X1160Y4644D01*
X1164Y4614D01*
X1175Y4586D01*
X1194Y4562D01*
X1201Y4556D01*
Y4544D01*
X1194Y4538D01*
X1175Y4514D01*
X1164Y4486D01*
X1160Y4456D01*
X1164Y4426D01*
X1175Y4398D01*
X1194Y4374D01*
X1218Y4355D01*
X1246Y4344D01*
X1276Y4340D01*
X1306Y4344D01*
X1334Y4355D01*
X1358Y4374D01*
X1377Y4398D01*
X1388Y4426D01*
X1392Y4456D01*
X1388Y4486D01*
X1377Y4514D01*
X1358Y4538D01*
X1351Y4544D01*
Y4556D01*
X1358Y4562D01*
X1377Y4586D01*
X1388Y4614D01*
X1392Y4644D01*
X1388Y4674D01*
X1377Y4702D01*
X1358Y4726D01*
X1334Y4745D01*
X1306Y4756D01*
X1276Y4760D01*
D02*
G37*
G36*
X1784Y4260D02*
X1754Y4256D01*
X1726Y4245D01*
X1702Y4226D01*
X1683Y4202D01*
X1672Y4174D01*
X1668Y4144D01*
X1672Y4114D01*
X1683Y4086D01*
X1702Y4062D01*
X1709Y4056D01*
Y4044D01*
X1702Y4038D01*
X1683Y4014D01*
X1672Y3986D01*
X1668Y3956D01*
X1672Y3926D01*
X1683Y3898D01*
X1702Y3874D01*
X1726Y3855D01*
X1754Y3844D01*
X1784Y3840D01*
X1814Y3844D01*
X1842Y3855D01*
X1866Y3874D01*
X1885Y3898D01*
X1896Y3926D01*
X1900Y3956D01*
X1896Y3986D01*
X1885Y4014D01*
X1866Y4038D01*
X1859Y4044D01*
Y4056D01*
X1866Y4062D01*
X1885Y4086D01*
X1896Y4114D01*
X1900Y4144D01*
X1896Y4174D01*
X1885Y4202D01*
X1866Y4226D01*
X1842Y4245D01*
X1814Y4256D01*
X1784Y4260D01*
D02*
G37*
%LPD*%
D10*
X1231Y2456D02*
X1276D01*
X1930Y9079D02*
X4490D01*
X1930Y8444D02*
X4497D01*
D11*
X5005Y11619D02*
D03*
Y6920D02*
D03*
X1422D02*
D03*
Y11619D02*
D03*
D12*
X5259Y10984D02*
D03*
X5005D02*
D03*
X4751D02*
D03*
X4497D02*
D03*
Y10730D02*
D03*
X4751D02*
D03*
X5005D02*
D03*
X5259D02*
D03*
Y10349D02*
D03*
X5005D02*
D03*
X4751D02*
D03*
X4497D02*
D03*
Y10095D02*
D03*
X4751D02*
D03*
X5005D02*
D03*
X5265D02*
D03*
X5259Y9714D02*
D03*
X5005D02*
D03*
X4751D02*
D03*
X4497D02*
D03*
Y9460D02*
D03*
X4751D02*
D03*
X5005D02*
D03*
X5259D02*
D03*
Y9079D02*
D03*
X5005D02*
D03*
X4751D02*
D03*
X4490D02*
D03*
Y8814D02*
D03*
X4751Y8825D02*
D03*
X5005D02*
D03*
X5259D02*
D03*
Y7809D02*
D03*
X5005D02*
D03*
X4751D02*
D03*
X4497D02*
D03*
Y7555D02*
D03*
X4751D02*
D03*
X5005D02*
D03*
X5259D02*
D03*
Y8190D02*
D03*
X5005D02*
D03*
X4751D02*
D03*
X4497D02*
D03*
Y8444D02*
D03*
X4751D02*
D03*
X5005D02*
D03*
X5259D02*
D03*
X1168Y7555D02*
D03*
X1422D02*
D03*
X1676D02*
D03*
X1930D02*
D03*
Y7809D02*
D03*
X1676D02*
D03*
X1422D02*
D03*
X1168D02*
D03*
Y8190D02*
D03*
X1422D02*
D03*
X1676D02*
D03*
X1930D02*
D03*
Y8444D02*
D03*
X1676D02*
D03*
X1422D02*
D03*
X1168D02*
D03*
Y8825D02*
D03*
X1422D02*
D03*
X1676D02*
D03*
X1930D02*
D03*
Y9079D02*
D03*
X1676D02*
D03*
X1422D02*
D03*
X1168D02*
D03*
Y9460D02*
D03*
X1422D02*
D03*
X1676D02*
D03*
X1930D02*
D03*
Y9714D02*
D03*
X1676D02*
D03*
X1422D02*
D03*
X1168D02*
D03*
Y10095D02*
D03*
X1422D02*
D03*
X1676D02*
D03*
X1930D02*
D03*
Y10349D02*
D03*
X1676D02*
D03*
X1422D02*
D03*
X1168D02*
D03*
Y10730D02*
D03*
X1422D02*
D03*
X1676D02*
D03*
X1930D02*
D03*
Y10984D02*
D03*
X1676D02*
D03*
X1422D02*
D03*
X1168D02*
D03*
D13*
X1276Y4644D02*
D03*
Y4456D02*
D03*
X1784Y4644D02*
D03*
X1530Y4456D02*
D03*
X1784D02*
D03*
X1530Y4644D02*
D03*
Y4144D02*
D03*
X1276D02*
D03*
X1784D02*
D03*
Y3956D02*
D03*
X1530D02*
D03*
X1276D02*
D03*
Y3644D02*
D03*
X1530D02*
D03*
X1784D02*
D03*
Y3456D02*
D03*
X1526D02*
D03*
X1276D02*
D03*
Y3144D02*
D03*
X1530D02*
D03*
X1784D02*
D03*
Y2956D02*
D03*
X1530D02*
D03*
X1276D02*
D03*
Y2644D02*
D03*
X1530D02*
D03*
X1784D02*
D03*
Y2456D02*
D03*
X1530D02*
D03*
X1276D02*
D03*
Y2144D02*
D03*
X1530D02*
D03*
X1784D02*
D03*
Y1956D02*
D03*
X1530D02*
D03*
X1276D02*
D03*
D14*
X1238Y4932D02*
D03*
Y1668D02*
D03*
D15*
X3146Y10600D02*
D03*
Y2000D02*
D03*
M02*
