G04 Layer_Color=65535*
%FSLAX42Y42*%
%MOMM*%
G71*
G01*
G75*
%ADD16C,0.25*%
G36*
X2250Y10973D02*
X2152D01*
Y10993D01*
X2250D01*
Y10973D01*
D02*
G37*
G36*
Y10939D02*
X2229Y10925D01*
X2229Y10925D01*
X2228Y10925D01*
X2228Y10924D01*
X2227Y10924D01*
X2226Y10923D01*
X2225Y10923D01*
X2223Y10921D01*
X2220Y10919D01*
X2218Y10917D01*
X2216Y10916D01*
X2215Y10915D01*
X2214Y10915D01*
X2214Y10915D01*
X2214Y10914D01*
X2213Y10914D01*
X2213Y10913D01*
X2212Y10912D01*
X2212Y10911D01*
X2211Y10910D01*
X2210Y10909D01*
Y10909D01*
X2210Y10908D01*
X2210Y10907D01*
X2210Y10906D01*
X2210Y10905D01*
X2209Y10903D01*
X2209Y10901D01*
Y10899D01*
Y10895D01*
X2250D01*
Y10875D01*
X2152D01*
Y10917D01*
Y10917D01*
Y10917D01*
Y10918D01*
Y10919D01*
X2153Y10920D01*
Y10922D01*
X2153Y10924D01*
Y10925D01*
X2153Y10929D01*
X2154Y10933D01*
X2154Y10936D01*
X2155Y10938D01*
X2155Y10939D01*
Y10939D01*
X2155Y10940D01*
X2156Y10940D01*
X2156Y10942D01*
X2157Y10943D01*
X2159Y10945D01*
X2160Y10947D01*
X2162Y10949D01*
X2165Y10951D01*
X2165D01*
X2165Y10951D01*
X2165Y10951D01*
X2166Y10951D01*
X2167Y10952D01*
X2169Y10953D01*
X2171Y10954D01*
X2174Y10954D01*
X2177Y10955D01*
X2180Y10955D01*
X2181D01*
X2182Y10955D01*
X2183D01*
X2184Y10955D01*
X2186Y10954D01*
X2189Y10953D01*
X2192Y10952D01*
X2195Y10951D01*
X2197Y10950D01*
X2198Y10948D01*
X2198Y10948D01*
X2198Y10948D01*
X2199Y10948D01*
X2199Y10947D01*
X2200Y10947D01*
X2200Y10946D01*
X2201Y10945D01*
X2202Y10944D01*
X2203Y10942D01*
X2203Y10941D01*
X2204Y10939D01*
X2205Y10938D01*
X2205Y10936D01*
X2206Y10934D01*
X2207Y10932D01*
X2207Y10929D01*
Y10929D01*
X2207Y10929D01*
X2208Y10930D01*
X2208Y10931D01*
X2209Y10933D01*
X2211Y10935D01*
X2212Y10936D01*
X2213Y10938D01*
X2215Y10940D01*
X2215Y10940D01*
X2216Y10940D01*
X2217Y10941D01*
X2219Y10943D01*
X2221Y10944D01*
X2222Y10945D01*
X2224Y10946D01*
X2225Y10947D01*
X2227Y10948D01*
X2229Y10950D01*
X2231Y10951D01*
X2250Y10963D01*
Y10939D01*
D02*
G37*
G36*
X2221Y10858D02*
X2222Y10858D01*
X2223Y10857D01*
X2224Y10857D01*
X2226Y10856D01*
X2227Y10855D01*
X2229Y10855D01*
X2233Y10853D01*
X2237Y10850D01*
X2241Y10847D01*
X2242Y10845D01*
X2244Y10843D01*
X2244Y10843D01*
X2244Y10843D01*
X2245Y10842D01*
X2245Y10842D01*
X2246Y10841D01*
X2246Y10839D01*
X2247Y10838D01*
X2248Y10836D01*
X2249Y10835D01*
X2249Y10833D01*
X2250Y10830D01*
X2250Y10828D01*
X2251Y10826D01*
X2251Y10823D01*
X2252Y10820D01*
X2252Y10818D01*
Y10817D01*
Y10817D01*
X2252Y10816D01*
X2251Y10814D01*
X2251Y10813D01*
X2251Y10811D01*
X2251Y10809D01*
X2250Y10806D01*
X2249Y10804D01*
X2248Y10801D01*
X2247Y10799D01*
X2246Y10796D01*
X2245Y10793D01*
X2243Y10791D01*
X2241Y10788D01*
X2238Y10786D01*
X2238Y10786D01*
X2238Y10785D01*
X2237Y10785D01*
X2236Y10784D01*
X2235Y10783D01*
X2233Y10782D01*
X2231Y10781D01*
X2229Y10779D01*
X2226Y10778D01*
X2224Y10777D01*
X2221Y10776D01*
X2217Y10775D01*
X2214Y10774D01*
X2210Y10774D01*
X2206Y10773D01*
X2202Y10773D01*
X2201D01*
X2200Y10773D01*
X2198D01*
X2196Y10774D01*
X2194Y10774D01*
X2191Y10774D01*
X2188Y10775D01*
X2185Y10776D01*
X2182Y10776D01*
X2179Y10777D01*
X2176Y10779D01*
X2173Y10780D01*
X2170Y10782D01*
X2167Y10784D01*
X2164Y10786D01*
X2164Y10786D01*
X2164Y10786D01*
X2163Y10787D01*
X2162Y10788D01*
X2161Y10789D01*
X2160Y10791D01*
X2159Y10793D01*
X2157Y10795D01*
X2156Y10797D01*
X2155Y10799D01*
X2154Y10802D01*
X2153Y10805D01*
X2152Y10808D01*
X2151Y10811D01*
X2151Y10815D01*
X2151Y10819D01*
Y10819D01*
Y10820D01*
Y10820D01*
X2151Y10822D01*
X2151Y10823D01*
X2151Y10825D01*
X2151Y10827D01*
X2152Y10829D01*
X2152Y10831D01*
X2153Y10834D01*
X2154Y10836D01*
X2155Y10839D01*
X2156Y10841D01*
X2158Y10843D01*
X2159Y10846D01*
X2161Y10848D01*
Y10848D01*
X2161Y10848D01*
X2162Y10849D01*
X2162Y10849D01*
X2163Y10850D01*
X2164Y10850D01*
X2166Y10852D01*
X2168Y10853D01*
X2171Y10855D01*
X2175Y10856D01*
X2179Y10858D01*
X2184Y10838D01*
X2184D01*
X2183Y10838D01*
X2183D01*
X2182Y10838D01*
X2181Y10838D01*
X2180Y10837D01*
X2178Y10836D01*
X2176Y10835D01*
X2174Y10833D01*
X2172Y10831D01*
X2172Y10831D01*
X2171Y10830D01*
X2170Y10829D01*
X2170Y10827D01*
X2169Y10825D01*
X2168Y10823D01*
X2168Y10821D01*
X2167Y10818D01*
Y10818D01*
Y10817D01*
Y10817D01*
X2168Y10816D01*
X2168Y10815D01*
X2168Y10814D01*
X2168Y10812D01*
X2169Y10809D01*
X2171Y10806D01*
X2172Y10804D01*
X2173Y10803D01*
X2174Y10801D01*
X2175Y10800D01*
X2175D01*
X2176Y10800D01*
X2176Y10800D01*
X2177Y10799D01*
X2178Y10799D01*
X2179Y10798D01*
X2180Y10797D01*
X2181Y10797D01*
X2183Y10796D01*
X2185Y10796D01*
X2187Y10795D01*
X2189Y10795D01*
X2192Y10794D01*
X2194Y10794D01*
X2197Y10794D01*
X2201Y10794D01*
X2202D01*
X2204Y10794D01*
X2205D01*
X2207Y10794D01*
X2209Y10794D01*
X2211Y10794D01*
X2215Y10795D01*
X2220Y10796D01*
X2222Y10797D01*
X2224Y10798D01*
X2226Y10799D01*
X2227Y10800D01*
X2227Y10800D01*
X2227Y10800D01*
X2228Y10801D01*
X2228Y10801D01*
X2230Y10803D01*
X2231Y10805D01*
X2233Y10807D01*
X2234Y10810D01*
X2235Y10814D01*
X2235Y10815D01*
X2235Y10817D01*
Y10818D01*
Y10818D01*
Y10818D01*
X2235Y10819D01*
X2235Y10820D01*
X2234Y10822D01*
X2234Y10824D01*
X2233Y10826D01*
X2232Y10829D01*
X2230Y10831D01*
X2230Y10831D01*
X2229Y10832D01*
X2228Y10833D01*
X2226Y10834D01*
X2224Y10835D01*
X2221Y10837D01*
X2218Y10838D01*
X2214Y10839D01*
X2220Y10858D01*
X2220D01*
X2221Y10858D01*
D02*
G37*
G36*
X2169Y11053D02*
X2250D01*
Y11033D01*
X2169D01*
Y11005D01*
X2152D01*
Y11082D01*
X2169D01*
Y11053D01*
D02*
G37*
G36*
X2196Y4533D02*
X2197Y4533D01*
X2198Y4532D01*
X2199Y4532D01*
X2201Y4531D01*
X2202Y4530D01*
X2204Y4530D01*
X2208Y4528D01*
X2212Y4525D01*
X2216Y4522D01*
X2217Y4520D01*
X2219Y4518D01*
X2219Y4518D01*
X2219Y4518D01*
X2220Y4517D01*
X2220Y4517D01*
X2221Y4516D01*
X2221Y4514D01*
X2222Y4513D01*
X2223Y4511D01*
X2224Y4510D01*
X2224Y4508D01*
X2225Y4505D01*
X2225Y4503D01*
X2226Y4501D01*
X2226Y4498D01*
X2227Y4495D01*
X2227Y4493D01*
Y4492D01*
Y4492D01*
X2227Y4491D01*
X2226Y4489D01*
X2226Y4488D01*
X2226Y4486D01*
X2226Y4484D01*
X2225Y4481D01*
X2224Y4479D01*
X2223Y4476D01*
X2222Y4474D01*
X2221Y4471D01*
X2220Y4468D01*
X2218Y4466D01*
X2216Y4463D01*
X2213Y4461D01*
X2213Y4461D01*
X2213Y4460D01*
X2212Y4460D01*
X2211Y4459D01*
X2210Y4458D01*
X2208Y4457D01*
X2206Y4456D01*
X2204Y4454D01*
X2201Y4453D01*
X2199Y4452D01*
X2196Y4451D01*
X2192Y4450D01*
X2189Y4449D01*
X2185Y4449D01*
X2181Y4448D01*
X2177Y4448D01*
X2176D01*
X2175Y4448D01*
X2173D01*
X2171Y4449D01*
X2169Y4449D01*
X2166Y4449D01*
X2163Y4450D01*
X2160Y4451D01*
X2157Y4451D01*
X2154Y4452D01*
X2151Y4454D01*
X2148Y4455D01*
X2145Y4457D01*
X2142Y4459D01*
X2139Y4461D01*
X2139Y4461D01*
X2139Y4461D01*
X2138Y4462D01*
X2137Y4463D01*
X2136Y4464D01*
X2135Y4466D01*
X2134Y4468D01*
X2132Y4470D01*
X2131Y4472D01*
X2130Y4474D01*
X2129Y4477D01*
X2128Y4480D01*
X2127Y4483D01*
X2126Y4486D01*
X2126Y4490D01*
X2126Y4494D01*
Y4494D01*
Y4495D01*
Y4495D01*
X2126Y4497D01*
X2126Y4498D01*
X2126Y4500D01*
X2126Y4502D01*
X2127Y4504D01*
X2127Y4506D01*
X2128Y4509D01*
X2129Y4511D01*
X2130Y4514D01*
X2131Y4516D01*
X2133Y4518D01*
X2134Y4521D01*
X2136Y4523D01*
Y4523D01*
X2136Y4523D01*
X2137Y4524D01*
X2137Y4524D01*
X2138Y4525D01*
X2139Y4525D01*
X2141Y4527D01*
X2143Y4528D01*
X2146Y4530D01*
X2150Y4531D01*
X2154Y4533D01*
X2159Y4513D01*
X2159D01*
X2158Y4513D01*
X2158D01*
X2157Y4513D01*
X2156Y4513D01*
X2155Y4512D01*
X2153Y4511D01*
X2151Y4510D01*
X2149Y4508D01*
X2147Y4506D01*
X2147Y4506D01*
X2146Y4505D01*
X2145Y4504D01*
X2145Y4502D01*
X2144Y4500D01*
X2143Y4498D01*
X2143Y4496D01*
X2142Y4493D01*
Y4493D01*
Y4492D01*
Y4492D01*
X2143Y4491D01*
X2143Y4490D01*
X2143Y4489D01*
X2143Y4487D01*
X2144Y4484D01*
X2146Y4481D01*
X2147Y4479D01*
X2148Y4478D01*
X2149Y4476D01*
X2150Y4475D01*
X2150D01*
X2151Y4475D01*
X2151Y4475D01*
X2152Y4474D01*
X2153Y4474D01*
X2154Y4473D01*
X2155Y4472D01*
X2156Y4472D01*
X2158Y4471D01*
X2160Y4471D01*
X2162Y4470D01*
X2164Y4470D01*
X2167Y4469D01*
X2169Y4469D01*
X2172Y4469D01*
X2176Y4469D01*
X2177D01*
X2179Y4469D01*
X2180D01*
X2182Y4469D01*
X2184Y4469D01*
X2186Y4469D01*
X2190Y4470D01*
X2195Y4471D01*
X2197Y4472D01*
X2199Y4473D01*
X2201Y4474D01*
X2202Y4475D01*
X2202Y4475D01*
X2202Y4475D01*
X2203Y4476D01*
X2203Y4476D01*
X2205Y4478D01*
X2206Y4480D01*
X2208Y4482D01*
X2209Y4485D01*
X2210Y4489D01*
X2210Y4490D01*
X2210Y4492D01*
Y4493D01*
Y4493D01*
Y4493D01*
X2210Y4494D01*
X2210Y4495D01*
X2209Y4497D01*
X2209Y4499D01*
X2208Y4501D01*
X2207Y4504D01*
X2205Y4506D01*
X2205Y4506D01*
X2204Y4507D01*
X2203Y4508D01*
X2201Y4509D01*
X2199Y4510D01*
X2196Y4512D01*
X2193Y4513D01*
X2189Y4514D01*
X2195Y4533D01*
X2195D01*
X2196Y4533D01*
D02*
G37*
G36*
X2252Y4365D02*
X2240D01*
Y4442D01*
X2252D01*
Y4365D01*
D02*
G37*
G36*
X2225Y4331D02*
Y4310D01*
X2127Y4275D01*
Y4296D01*
X2200Y4321D01*
X2127Y4345D01*
Y4366D01*
X2225Y4331D01*
D02*
G37*
G36*
X2277Y10690D02*
X2265D01*
Y10767D01*
X2277D01*
Y10690D01*
D02*
G37*
G36*
X4338Y10743D02*
Y10743D01*
Y10743D01*
Y10742D01*
Y10741D01*
X4337Y10740D01*
Y10738D01*
X4337Y10736D01*
Y10735D01*
X4337Y10731D01*
X4336Y10727D01*
X4336Y10724D01*
X4335Y10722D01*
X4335Y10721D01*
Y10721D01*
X4335Y10720D01*
X4334Y10720D01*
X4334Y10718D01*
X4333Y10717D01*
X4331Y10715D01*
X4330Y10713D01*
X4328Y10711D01*
X4325Y10709D01*
X4325D01*
X4325Y10709D01*
X4325Y10709D01*
X4324Y10709D01*
X4323Y10708D01*
X4321Y10707D01*
X4319Y10706D01*
X4316Y10706D01*
X4313Y10705D01*
X4310Y10705D01*
X4309D01*
X4308Y10705D01*
X4307D01*
X4306Y10705D01*
X4304Y10706D01*
X4301Y10707D01*
X4298Y10708D01*
X4295Y10709D01*
X4293Y10710D01*
X4292Y10712D01*
X4292Y10712D01*
X4292Y10712D01*
X4291Y10712D01*
X4291Y10713D01*
X4290Y10713D01*
X4290Y10714D01*
X4289Y10715D01*
X4288Y10716D01*
X4287Y10718D01*
X4287Y10719D01*
X4286Y10721D01*
X4285Y10722D01*
X4285Y10724D01*
X4284Y10726D01*
X4283Y10728D01*
X4283Y10731D01*
Y10731D01*
X4283Y10731D01*
X4282Y10730D01*
X4282Y10729D01*
X4281Y10727D01*
X4279Y10725D01*
X4278Y10724D01*
X4277Y10722D01*
X4275Y10720D01*
X4275Y10720D01*
X4274Y10720D01*
X4273Y10719D01*
X4271Y10717D01*
X4269Y10716D01*
X4268Y10715D01*
X4266Y10714D01*
X4265Y10713D01*
X4263Y10712D01*
X4261Y10710D01*
X4259Y10709D01*
X4240Y10697D01*
Y10721D01*
X4261Y10735D01*
X4261Y10735D01*
X4262Y10735D01*
X4262Y10736D01*
X4263Y10736D01*
X4264Y10737D01*
X4265Y10737D01*
X4267Y10739D01*
X4270Y10741D01*
X4272Y10743D01*
X4274Y10744D01*
X4275Y10745D01*
X4276Y10745D01*
X4276Y10745D01*
X4276Y10746D01*
X4277Y10746D01*
X4277Y10747D01*
X4278Y10748D01*
X4278Y10749D01*
X4279Y10750D01*
X4280Y10751D01*
Y10751D01*
X4280Y10752D01*
X4280Y10753D01*
X4280Y10754D01*
X4280Y10755D01*
X4281Y10757D01*
X4281Y10759D01*
Y10761D01*
Y10765D01*
X4240D01*
Y10785D01*
X4338D01*
Y10743D01*
D02*
G37*
G36*
Y10667D02*
X4240D01*
Y10687D01*
X4338D01*
Y10667D01*
D02*
G37*
G36*
Y10578D02*
X4321D01*
Y10607D01*
X4240D01*
Y10627D01*
X4321D01*
Y10655D01*
X4338D01*
Y10578D01*
D02*
G37*
G36*
X4290Y10887D02*
X4292D01*
X4294Y10886D01*
X4296Y10886D01*
X4299Y10886D01*
X4302Y10885D01*
X4305Y10884D01*
X4308Y10884D01*
X4311Y10883D01*
X4314Y10881D01*
X4317Y10880D01*
X4320Y10878D01*
X4323Y10876D01*
X4326Y10874D01*
X4326Y10874D01*
X4326Y10874D01*
X4327Y10873D01*
X4328Y10872D01*
X4329Y10871D01*
X4330Y10869D01*
X4331Y10867D01*
X4333Y10865D01*
X4334Y10863D01*
X4335Y10861D01*
X4336Y10858D01*
X4337Y10855D01*
X4338Y10852D01*
X4339Y10849D01*
X4339Y10845D01*
X4339Y10841D01*
Y10841D01*
Y10840D01*
Y10840D01*
X4339Y10838D01*
X4339Y10837D01*
X4339Y10835D01*
X4339Y10833D01*
X4338Y10831D01*
X4338Y10829D01*
X4337Y10826D01*
X4336Y10824D01*
X4335Y10821D01*
X4334Y10819D01*
X4332Y10817D01*
X4331Y10814D01*
X4329Y10812D01*
Y10812D01*
X4329Y10812D01*
X4328Y10811D01*
X4328Y10811D01*
X4327Y10810D01*
X4326Y10810D01*
X4324Y10808D01*
X4322Y10807D01*
X4319Y10805D01*
X4315Y10804D01*
X4311Y10802D01*
X4306Y10822D01*
X4306D01*
X4307Y10822D01*
X4307D01*
X4308Y10822D01*
X4309Y10822D01*
X4310Y10823D01*
X4312Y10824D01*
X4314Y10825D01*
X4316Y10827D01*
X4318Y10829D01*
X4318Y10829D01*
X4319Y10830D01*
X4320Y10831D01*
X4320Y10833D01*
X4321Y10835D01*
X4322Y10837D01*
X4322Y10839D01*
X4323Y10842D01*
Y10842D01*
Y10843D01*
Y10843D01*
X4322Y10844D01*
X4322Y10845D01*
X4322Y10846D01*
X4322Y10848D01*
X4321Y10851D01*
X4319Y10854D01*
X4318Y10856D01*
X4317Y10857D01*
X4316Y10859D01*
X4315Y10860D01*
X4315D01*
X4314Y10860D01*
X4314Y10860D01*
X4313Y10861D01*
X4312Y10861D01*
X4311Y10862D01*
X4310Y10863D01*
X4309Y10863D01*
X4307Y10864D01*
X4305Y10864D01*
X4303Y10865D01*
X4301Y10865D01*
X4298Y10866D01*
X4296Y10866D01*
X4293Y10866D01*
X4289Y10866D01*
X4288D01*
X4286Y10866D01*
X4285D01*
X4283Y10866D01*
X4281Y10866D01*
X4279Y10866D01*
X4275Y10865D01*
X4270Y10864D01*
X4268Y10863D01*
X4266Y10862D01*
X4264Y10861D01*
X4263Y10860D01*
X4263Y10860D01*
X4263Y10860D01*
X4262Y10859D01*
X4262Y10859D01*
X4260Y10857D01*
X4259Y10855D01*
X4257Y10853D01*
X4256Y10850D01*
X4255Y10846D01*
X4255Y10845D01*
X4255Y10843D01*
Y10842D01*
Y10842D01*
Y10842D01*
X4255Y10841D01*
X4255Y10840D01*
X4256Y10838D01*
X4256Y10836D01*
X4257Y10834D01*
X4258Y10831D01*
X4260Y10829D01*
X4260Y10829D01*
X4261Y10828D01*
X4262Y10827D01*
X4264Y10826D01*
X4266Y10825D01*
X4269Y10823D01*
X4272Y10822D01*
X4276Y10821D01*
X4270Y10802D01*
X4270D01*
X4269Y10802D01*
X4268Y10802D01*
X4267Y10803D01*
X4266Y10803D01*
X4264Y10804D01*
X4263Y10805D01*
X4261Y10805D01*
X4257Y10807D01*
X4253Y10810D01*
X4249Y10813D01*
X4248Y10815D01*
X4246Y10817D01*
X4246Y10817D01*
X4246Y10817D01*
X4245Y10818D01*
X4245Y10818D01*
X4244Y10819D01*
X4244Y10821D01*
X4243Y10822D01*
X4242Y10824D01*
X4241Y10825D01*
X4241Y10827D01*
X4240Y10830D01*
X4240Y10832D01*
X4239Y10834D01*
X4239Y10837D01*
X4238Y10840D01*
X4238Y10842D01*
Y10843D01*
Y10843D01*
X4238Y10844D01*
X4239Y10846D01*
X4239Y10847D01*
X4239Y10849D01*
X4239Y10851D01*
X4240Y10854D01*
X4241Y10856D01*
X4242Y10859D01*
X4243Y10861D01*
X4244Y10864D01*
X4245Y10867D01*
X4247Y10869D01*
X4249Y10872D01*
X4252Y10874D01*
X4252Y10874D01*
X4252Y10875D01*
X4253Y10875D01*
X4254Y10876D01*
X4255Y10877D01*
X4257Y10878D01*
X4259Y10879D01*
X4261Y10881D01*
X4264Y10882D01*
X4266Y10883D01*
X4269Y10884D01*
X4273Y10885D01*
X4276Y10886D01*
X4280Y10886D01*
X4284Y10887D01*
X4288Y10887D01*
X4289D01*
X4290Y10887D01*
D02*
G37*
G36*
X2250Y10656D02*
Y10635D01*
X2152Y10600D01*
Y10621D01*
X2225Y10646D01*
X2152Y10670D01*
Y10691D01*
X2250Y10656D01*
D02*
G37*
G36*
X4338Y11039D02*
X4265Y11014D01*
X4338Y10990D01*
Y10969D01*
X4240Y11004D01*
Y11025D01*
X4338Y11060D01*
Y11039D01*
D02*
G37*
G36*
X4225Y10893D02*
X4213D01*
Y10970D01*
X4225D01*
Y10893D01*
D02*
G37*
G36*
X4278Y7586D02*
Y7586D01*
Y7586D01*
Y7585D01*
Y7584D01*
Y7583D01*
X4277Y7582D01*
X4277Y7579D01*
X4277Y7576D01*
X4277Y7573D01*
X4276Y7570D01*
X4276Y7568D01*
Y7568D01*
X4275Y7567D01*
X4275Y7567D01*
X4275Y7566D01*
X4274Y7565D01*
X4273Y7563D01*
X4272Y7560D01*
X4271Y7558D01*
X4269Y7555D01*
X4267Y7553D01*
Y7553D01*
X4266Y7553D01*
X4265Y7552D01*
X4264Y7551D01*
X4262Y7550D01*
X4260Y7548D01*
X4257Y7547D01*
X4254Y7545D01*
X4251Y7544D01*
X4251D01*
X4250Y7544D01*
X4250Y7543D01*
X4249Y7543D01*
X4248Y7543D01*
X4247Y7543D01*
X4246Y7542D01*
X4244Y7542D01*
X4243Y7542D01*
X4241Y7541D01*
X4239Y7541D01*
X4237Y7541D01*
X4233Y7541D01*
X4228Y7540D01*
X4226D01*
X4225Y7541D01*
X4224D01*
X4222Y7541D01*
X4221Y7541D01*
X4217Y7541D01*
X4214Y7542D01*
X4210Y7543D01*
X4207Y7544D01*
X4207D01*
X4207Y7544D01*
X4206Y7544D01*
X4205Y7544D01*
X4204Y7545D01*
X4203Y7545D01*
X4201Y7546D01*
X4198Y7548D01*
X4195Y7549D01*
X4192Y7552D01*
X4190Y7554D01*
X4189Y7554D01*
X4189Y7555D01*
X4188Y7556D01*
X4187Y7558D01*
X4186Y7560D01*
X4184Y7562D01*
X4183Y7565D01*
X4182Y7568D01*
Y7568D01*
X4182Y7568D01*
Y7569D01*
X4182Y7569D01*
X4181Y7570D01*
X4181Y7572D01*
X4181Y7575D01*
X4180Y7578D01*
X4180Y7581D01*
X4180Y7585D01*
Y7622D01*
X4278D01*
Y7586D01*
D02*
G37*
G36*
X2225Y2092D02*
X2161Y2053D01*
X2225D01*
Y2035D01*
X2127D01*
Y2054D01*
X2193Y2094D01*
X2127D01*
Y2112D01*
X2225D01*
Y2092D01*
D02*
G37*
G36*
X2180Y2214D02*
X2181D01*
X2183Y2214D01*
X2184Y2214D01*
X2188Y2214D01*
X2191Y2213D01*
X2195Y2212D01*
X2198Y2211D01*
X2198D01*
X2198Y2211D01*
X2199Y2211D01*
X2200Y2211D01*
X2201Y2210D01*
X2202Y2210D01*
X2204Y2209D01*
X2207Y2207D01*
X2210Y2206D01*
X2213Y2203D01*
X2215Y2201D01*
X2216Y2201D01*
X2216Y2200D01*
X2217Y2199D01*
X2218Y2197D01*
X2219Y2195D01*
X2221Y2193D01*
X2222Y2190D01*
X2223Y2187D01*
Y2187D01*
X2223Y2187D01*
Y2186D01*
X2223Y2186D01*
X2224Y2185D01*
X2224Y2183D01*
X2224Y2180D01*
X2225Y2177D01*
X2225Y2174D01*
X2225Y2170D01*
Y2133D01*
X2127D01*
Y2169D01*
Y2169D01*
Y2169D01*
Y2170D01*
Y2171D01*
Y2172D01*
X2128Y2173D01*
X2128Y2176D01*
X2128Y2179D01*
X2128Y2182D01*
X2129Y2185D01*
X2129Y2187D01*
Y2187D01*
X2130Y2188D01*
X2130Y2188D01*
X2130Y2189D01*
X2131Y2190D01*
X2132Y2192D01*
X2133Y2195D01*
X2134Y2197D01*
X2136Y2200D01*
X2138Y2202D01*
Y2202D01*
X2139Y2202D01*
X2140Y2203D01*
X2141Y2204D01*
X2143Y2205D01*
X2145Y2207D01*
X2148Y2208D01*
X2151Y2210D01*
X2154Y2211D01*
X2154D01*
X2155Y2211D01*
X2155Y2212D01*
X2156Y2212D01*
X2157Y2212D01*
X2158Y2212D01*
X2159Y2213D01*
X2161Y2213D01*
X2162Y2213D01*
X2164Y2214D01*
X2166Y2214D01*
X2168Y2214D01*
X2172Y2214D01*
X2177Y2215D01*
X2179D01*
X2180Y2214D01*
D02*
G37*
G36*
X2212Y2016D02*
X2212Y2016D01*
X2213Y2015D01*
X2213Y2014D01*
X2214Y2014D01*
X2215Y2012D01*
X2217Y2009D01*
X2219Y2006D01*
X2221Y2002D01*
X2222Y1998D01*
Y1998D01*
X2222Y1998D01*
X2223Y1997D01*
X2223Y1996D01*
X2223Y1995D01*
X2224Y1994D01*
X2224Y1992D01*
X2225Y1991D01*
X2225Y1987D01*
X2226Y1983D01*
X2227Y1979D01*
X2227Y1974D01*
Y1974D01*
Y1974D01*
Y1973D01*
X2227Y1972D01*
Y1971D01*
X2227Y1969D01*
X2226Y1967D01*
X2226Y1965D01*
X2225Y1961D01*
X2224Y1957D01*
X2223Y1952D01*
X2222Y1950D01*
X2220Y1948D01*
X2220Y1948D01*
X2220Y1947D01*
X2220Y1947D01*
X2219Y1946D01*
X2219Y1945D01*
X2218Y1944D01*
X2217Y1943D01*
X2216Y1941D01*
X2213Y1939D01*
X2210Y1936D01*
X2206Y1933D01*
X2202Y1931D01*
X2202D01*
X2201Y1930D01*
X2201Y1930D01*
X2200Y1930D01*
X2199Y1929D01*
X2198Y1929D01*
X2196Y1928D01*
X2194Y1928D01*
X2192Y1927D01*
X2190Y1927D01*
X2186Y1926D01*
X2181Y1925D01*
X2176Y1925D01*
X2174D01*
X2173Y1925D01*
X2172D01*
X2170Y1925D01*
X2169Y1926D01*
X2167Y1926D01*
X2163Y1927D01*
X2158Y1928D01*
X2153Y1929D01*
X2151Y1930D01*
X2149Y1931D01*
X2149Y1931D01*
X2148Y1932D01*
X2148Y1932D01*
X2147Y1932D01*
X2146Y1933D01*
X2145Y1934D01*
X2144Y1935D01*
X2142Y1936D01*
X2141Y1937D01*
X2139Y1939D01*
X2138Y1940D01*
X2136Y1942D01*
X2135Y1944D01*
X2133Y1946D01*
X2131Y1950D01*
Y1950D01*
X2130Y1950D01*
X2130Y1951D01*
X2130Y1952D01*
X2129Y1953D01*
X2129Y1954D01*
X2129Y1955D01*
X2128Y1956D01*
X2128Y1958D01*
X2127Y1960D01*
X2127Y1962D01*
X2126Y1964D01*
X2126Y1968D01*
X2126Y1973D01*
Y1973D01*
Y1974D01*
Y1975D01*
X2126Y1976D01*
X2126Y1978D01*
X2126Y1980D01*
X2126Y1982D01*
X2127Y1984D01*
X2127Y1988D01*
X2129Y1993D01*
X2130Y1995D01*
X2131Y1998D01*
X2132Y2000D01*
X2133Y2002D01*
X2133Y2002D01*
X2134Y2002D01*
X2134Y2003D01*
X2135Y2003D01*
X2135Y2004D01*
X2136Y2005D01*
X2137Y2006D01*
X2139Y2007D01*
X2140Y2008D01*
X2142Y2009D01*
X2143Y2011D01*
X2145Y2012D01*
X2147Y2013D01*
X2149Y2014D01*
X2152Y2014D01*
X2154Y2015D01*
X2158Y1995D01*
X2158D01*
X2158Y1995D01*
X2157Y1995D01*
X2156Y1994D01*
X2154Y1994D01*
X2152Y1993D01*
X2150Y1991D01*
X2148Y1989D01*
X2147Y1987D01*
X2146Y1987D01*
X2146Y1986D01*
X2145Y1985D01*
X2145Y1984D01*
X2144Y1982D01*
X2143Y1979D01*
X2143Y1976D01*
X2142Y1973D01*
Y1973D01*
Y1973D01*
Y1972D01*
X2143Y1971D01*
X2143Y1970D01*
X2143Y1969D01*
X2143Y1967D01*
X2143Y1966D01*
X2144Y1963D01*
X2145Y1961D01*
X2146Y1959D01*
X2147Y1958D01*
X2148Y1956D01*
X2149Y1954D01*
X2151Y1953D01*
X2151Y1953D01*
X2151Y1952D01*
X2152Y1952D01*
X2152Y1952D01*
X2153Y1951D01*
X2154Y1950D01*
X2155Y1950D01*
X2157Y1949D01*
X2158Y1948D01*
X2160Y1948D01*
X2162Y1947D01*
X2164Y1946D01*
X2167Y1946D01*
X2169Y1946D01*
X2172Y1945D01*
X2175Y1945D01*
X2177D01*
X2178Y1945D01*
X2179Y1946D01*
X2181Y1946D01*
X2183Y1946D01*
X2185Y1946D01*
X2189Y1947D01*
X2194Y1949D01*
X2196Y1949D01*
X2198Y1950D01*
X2200Y1952D01*
X2201Y1953D01*
X2201Y1953D01*
X2202Y1953D01*
X2202Y1954D01*
X2203Y1954D01*
X2203Y1955D01*
X2204Y1956D01*
X2205Y1957D01*
X2206Y1958D01*
X2207Y1960D01*
X2207Y1961D01*
X2209Y1965D01*
X2209Y1967D01*
X2210Y1969D01*
X2210Y1971D01*
X2210Y1973D01*
Y1973D01*
Y1973D01*
Y1974D01*
X2210Y1975D01*
X2210Y1977D01*
X2209Y1979D01*
X2209Y1981D01*
X2209Y1983D01*
X2208Y1986D01*
Y1986D01*
X2208Y1986D01*
X2207Y1987D01*
X2207Y1988D01*
X2206Y1989D01*
X2205Y1991D01*
X2204Y1993D01*
X2203Y1995D01*
X2202Y1996D01*
X2189D01*
Y1974D01*
X2173D01*
Y2016D01*
X2212D01*
X2212Y2016D01*
D02*
G37*
G36*
X4232Y7830D02*
X4233D01*
X4235Y7830D01*
X4236Y7829D01*
X4238Y7829D01*
X4242Y7828D01*
X4247Y7827D01*
X4252Y7826D01*
X4254Y7825D01*
X4256Y7824D01*
X4256Y7824D01*
X4257Y7823D01*
X4257Y7823D01*
X4258Y7823D01*
X4259Y7822D01*
X4260Y7821D01*
X4261Y7820D01*
X4263Y7819D01*
X4264Y7818D01*
X4266Y7816D01*
X4267Y7815D01*
X4269Y7813D01*
X4270Y7811D01*
X4272Y7809D01*
X4274Y7805D01*
Y7805D01*
X4275Y7805D01*
X4275Y7804D01*
X4275Y7803D01*
X4276Y7802D01*
X4276Y7801D01*
X4276Y7800D01*
X4277Y7799D01*
X4277Y7797D01*
X4278Y7795D01*
X4278Y7793D01*
X4279Y7791D01*
X4279Y7787D01*
X4279Y7782D01*
Y7782D01*
Y7781D01*
Y7780D01*
X4279Y7779D01*
X4279Y7777D01*
X4279Y7775D01*
X4279Y7773D01*
X4278Y7771D01*
X4278Y7767D01*
X4276Y7762D01*
X4275Y7760D01*
X4274Y7757D01*
X4273Y7755D01*
X4272Y7753D01*
X4272Y7753D01*
X4271Y7753D01*
X4271Y7752D01*
X4270Y7752D01*
X4270Y7751D01*
X4269Y7750D01*
X4268Y7749D01*
X4266Y7748D01*
X4265Y7747D01*
X4263Y7746D01*
X4262Y7744D01*
X4260Y7743D01*
X4258Y7742D01*
X4256Y7741D01*
X4253Y7741D01*
X4251Y7740D01*
X4247Y7760D01*
X4247D01*
X4247Y7760D01*
X4248Y7760D01*
X4249Y7761D01*
X4251Y7761D01*
X4253Y7762D01*
X4255Y7764D01*
X4257Y7766D01*
X4258Y7768D01*
X4259Y7768D01*
X4259Y7769D01*
X4260Y7770D01*
X4260Y7771D01*
X4261Y7773D01*
X4262Y7776D01*
X4262Y7779D01*
X4263Y7782D01*
Y7782D01*
Y7782D01*
Y7783D01*
X4262Y7784D01*
X4262Y7785D01*
X4262Y7786D01*
X4262Y7788D01*
X4262Y7789D01*
X4261Y7792D01*
X4260Y7794D01*
X4259Y7796D01*
X4258Y7797D01*
X4257Y7799D01*
X4256Y7801D01*
X4254Y7802D01*
X4254Y7802D01*
X4254Y7803D01*
X4253Y7803D01*
X4253Y7803D01*
X4252Y7804D01*
X4251Y7805D01*
X4250Y7805D01*
X4248Y7806D01*
X4247Y7807D01*
X4245Y7807D01*
X4243Y7808D01*
X4241Y7809D01*
X4238Y7809D01*
X4236Y7809D01*
X4233Y7810D01*
X4230Y7810D01*
X4228D01*
X4227Y7810D01*
X4226Y7809D01*
X4224Y7809D01*
X4222Y7809D01*
X4220Y7809D01*
X4216Y7808D01*
X4211Y7806D01*
X4209Y7806D01*
X4207Y7805D01*
X4205Y7803D01*
X4204Y7802D01*
X4204Y7802D01*
X4203Y7802D01*
X4203Y7801D01*
X4202Y7801D01*
X4202Y7800D01*
X4201Y7799D01*
X4200Y7798D01*
X4199Y7797D01*
X4198Y7795D01*
X4198Y7794D01*
X4196Y7790D01*
X4196Y7788D01*
X4195Y7786D01*
X4195Y7784D01*
X4195Y7782D01*
Y7782D01*
Y7782D01*
Y7781D01*
X4195Y7780D01*
X4195Y7778D01*
X4196Y7776D01*
X4196Y7774D01*
X4196Y7772D01*
X4197Y7769D01*
Y7769D01*
X4197Y7769D01*
X4198Y7768D01*
X4198Y7767D01*
X4199Y7766D01*
X4200Y7764D01*
X4201Y7762D01*
X4202Y7760D01*
X4203Y7759D01*
X4216D01*
Y7781D01*
X4232D01*
Y7739D01*
X4193D01*
X4193Y7739D01*
X4193Y7739D01*
X4192Y7740D01*
X4192Y7741D01*
X4191Y7741D01*
X4190Y7743D01*
X4188Y7746D01*
X4186Y7749D01*
X4184Y7753D01*
X4183Y7757D01*
Y7757D01*
X4183Y7757D01*
X4182Y7758D01*
X4182Y7759D01*
X4182Y7760D01*
X4181Y7761D01*
X4181Y7763D01*
X4180Y7764D01*
X4180Y7768D01*
X4179Y7772D01*
X4178Y7776D01*
X4178Y7781D01*
Y7781D01*
Y7781D01*
Y7782D01*
X4178Y7783D01*
Y7784D01*
X4178Y7786D01*
X4179Y7788D01*
X4179Y7790D01*
X4180Y7794D01*
X4181Y7798D01*
X4182Y7803D01*
X4183Y7805D01*
X4185Y7807D01*
X4185Y7807D01*
X4185Y7808D01*
X4185Y7808D01*
X4186Y7809D01*
X4186Y7810D01*
X4187Y7811D01*
X4188Y7812D01*
X4189Y7814D01*
X4192Y7816D01*
X4195Y7819D01*
X4199Y7822D01*
X4203Y7824D01*
X4203D01*
X4204Y7825D01*
X4204Y7825D01*
X4205Y7825D01*
X4206Y7826D01*
X4207Y7826D01*
X4209Y7827D01*
X4211Y7827D01*
X4213Y7828D01*
X4215Y7828D01*
X4219Y7829D01*
X4224Y7830D01*
X4229Y7830D01*
X4231D01*
X4232Y7830D01*
D02*
G37*
G36*
X4278Y7701D02*
X4212Y7661D01*
X4278D01*
Y7643D01*
X4180D01*
Y7663D01*
X4244Y7702D01*
X4180D01*
Y7720D01*
X4278D01*
Y7701D01*
D02*
G37*
G36*
X2205Y7839D02*
X2206D01*
X2208Y7839D01*
X2209Y7839D01*
X2213Y7839D01*
X2216Y7838D01*
X2220Y7837D01*
X2223Y7836D01*
X2223D01*
X2223Y7836D01*
X2224Y7836D01*
X2225Y7836D01*
X2226Y7835D01*
X2227Y7835D01*
X2229Y7834D01*
X2232Y7832D01*
X2235Y7831D01*
X2238Y7828D01*
X2240Y7826D01*
X2241Y7826D01*
X2241Y7825D01*
X2242Y7824D01*
X2243Y7822D01*
X2244Y7820D01*
X2246Y7818D01*
X2247Y7815D01*
X2248Y7812D01*
Y7812D01*
X2248Y7812D01*
Y7811D01*
X2248Y7811D01*
X2249Y7810D01*
X2249Y7808D01*
X2249Y7805D01*
X2250Y7802D01*
X2250Y7799D01*
X2250Y7795D01*
Y7758D01*
X2152D01*
Y7794D01*
Y7794D01*
Y7794D01*
Y7795D01*
Y7796D01*
Y7797D01*
X2153Y7798D01*
X2153Y7801D01*
X2153Y7804D01*
X2153Y7807D01*
X2154Y7810D01*
X2154Y7812D01*
Y7812D01*
X2155Y7813D01*
X2155Y7813D01*
X2155Y7814D01*
X2156Y7815D01*
X2157Y7817D01*
X2158Y7820D01*
X2159Y7822D01*
X2161Y7825D01*
X2163Y7827D01*
Y7827D01*
X2164Y7827D01*
X2165Y7828D01*
X2166Y7829D01*
X2168Y7830D01*
X2170Y7832D01*
X2173Y7833D01*
X2176Y7835D01*
X2179Y7836D01*
X2179D01*
X2180Y7836D01*
X2180Y7837D01*
X2181Y7837D01*
X2182Y7837D01*
X2183Y7837D01*
X2184Y7838D01*
X2186Y7838D01*
X2187Y7838D01*
X2189Y7839D01*
X2191Y7839D01*
X2193Y7839D01*
X2197Y7839D01*
X2202Y7840D01*
X2204D01*
X2205Y7839D01*
D02*
G37*
G36*
X2225Y4648D02*
X2127D01*
Y4668D01*
X2225D01*
Y4648D01*
D02*
G37*
G36*
Y4614D02*
X2204Y4600D01*
X2204Y4600D01*
X2203Y4600D01*
X2203Y4599D01*
X2202Y4599D01*
X2201Y4598D01*
X2200Y4598D01*
X2198Y4596D01*
X2195Y4594D01*
X2193Y4592D01*
X2191Y4591D01*
X2190Y4590D01*
X2189Y4590D01*
X2189Y4590D01*
X2189Y4589D01*
X2188Y4589D01*
X2188Y4588D01*
X2187Y4587D01*
X2187Y4586D01*
X2186Y4585D01*
X2185Y4584D01*
Y4584D01*
X2185Y4583D01*
X2185Y4582D01*
X2185Y4581D01*
X2185Y4580D01*
X2184Y4578D01*
X2184Y4576D01*
Y4574D01*
Y4570D01*
X2225D01*
Y4550D01*
X2127D01*
Y4592D01*
Y4592D01*
Y4592D01*
Y4593D01*
Y4594D01*
X2128Y4595D01*
Y4597D01*
X2128Y4599D01*
Y4600D01*
X2128Y4604D01*
X2129Y4608D01*
X2129Y4611D01*
X2130Y4613D01*
X2130Y4614D01*
Y4614D01*
X2130Y4615D01*
X2131Y4615D01*
X2131Y4617D01*
X2132Y4618D01*
X2134Y4620D01*
X2135Y4622D01*
X2137Y4624D01*
X2140Y4626D01*
X2140D01*
X2140Y4626D01*
X2140Y4626D01*
X2141Y4626D01*
X2142Y4627D01*
X2144Y4628D01*
X2146Y4629D01*
X2149Y4629D01*
X2152Y4630D01*
X2155Y4630D01*
X2156D01*
X2157Y4630D01*
X2158D01*
X2159Y4630D01*
X2161Y4629D01*
X2164Y4628D01*
X2167Y4627D01*
X2170Y4626D01*
X2172Y4625D01*
X2173Y4623D01*
X2173Y4623D01*
X2173Y4623D01*
X2174Y4623D01*
X2174Y4622D01*
X2175Y4622D01*
X2175Y4621D01*
X2176Y4620D01*
X2177Y4619D01*
X2178Y4617D01*
X2178Y4616D01*
X2179Y4614D01*
X2180Y4613D01*
X2180Y4611D01*
X2181Y4609D01*
X2182Y4607D01*
X2182Y4604D01*
Y4604D01*
X2182Y4604D01*
X2183Y4605D01*
X2183Y4606D01*
X2184Y4608D01*
X2186Y4610D01*
X2187Y4611D01*
X2188Y4613D01*
X2190Y4615D01*
X2190Y4615D01*
X2191Y4615D01*
X2192Y4616D01*
X2194Y4618D01*
X2196Y4619D01*
X2197Y4620D01*
X2199Y4621D01*
X2200Y4622D01*
X2202Y4623D01*
X2204Y4625D01*
X2206Y4626D01*
X2225Y4638D01*
Y4614D01*
D02*
G37*
G36*
X2144Y4728D02*
X2225D01*
Y4708D01*
X2144D01*
Y4680D01*
X2127D01*
Y4757D01*
X2144D01*
Y4728D01*
D02*
G37*
G36*
X2250Y7717D02*
X2186Y7678D01*
X2250D01*
Y7660D01*
X2152D01*
Y7679D01*
X2218Y7719D01*
X2152D01*
Y7737D01*
X2250D01*
Y7717D01*
D02*
G37*
G36*
X2237Y7641D02*
X2237Y7641D01*
X2238Y7640D01*
X2238Y7639D01*
X2239Y7639D01*
X2240Y7637D01*
X2242Y7634D01*
X2244Y7631D01*
X2246Y7627D01*
X2247Y7623D01*
Y7623D01*
X2247Y7623D01*
X2248Y7622D01*
X2248Y7621D01*
X2248Y7620D01*
X2249Y7619D01*
X2249Y7617D01*
X2250Y7616D01*
X2250Y7612D01*
X2251Y7608D01*
X2252Y7604D01*
X2252Y7599D01*
Y7599D01*
Y7599D01*
Y7598D01*
X2252Y7597D01*
Y7596D01*
X2252Y7594D01*
X2251Y7592D01*
X2251Y7590D01*
X2250Y7586D01*
X2249Y7582D01*
X2248Y7577D01*
X2247Y7575D01*
X2245Y7573D01*
X2245Y7573D01*
X2245Y7572D01*
X2245Y7572D01*
X2244Y7571D01*
X2244Y7570D01*
X2243Y7569D01*
X2242Y7568D01*
X2241Y7566D01*
X2238Y7564D01*
X2235Y7561D01*
X2231Y7558D01*
X2227Y7556D01*
X2227D01*
X2226Y7555D01*
X2226Y7555D01*
X2225Y7555D01*
X2224Y7554D01*
X2223Y7554D01*
X2221Y7553D01*
X2219Y7553D01*
X2217Y7552D01*
X2215Y7552D01*
X2211Y7551D01*
X2206Y7550D01*
X2201Y7550D01*
X2199D01*
X2198Y7550D01*
X2197D01*
X2195Y7550D01*
X2194Y7551D01*
X2192Y7551D01*
X2188Y7552D01*
X2183Y7553D01*
X2178Y7554D01*
X2176Y7555D01*
X2174Y7556D01*
X2174Y7556D01*
X2173Y7557D01*
X2173Y7557D01*
X2172Y7557D01*
X2171Y7558D01*
X2170Y7559D01*
X2169Y7560D01*
X2167Y7561D01*
X2166Y7562D01*
X2164Y7564D01*
X2163Y7565D01*
X2161Y7567D01*
X2160Y7569D01*
X2158Y7571D01*
X2156Y7575D01*
Y7575D01*
X2155Y7575D01*
X2155Y7576D01*
X2155Y7577D01*
X2154Y7578D01*
X2154Y7579D01*
X2154Y7580D01*
X2153Y7581D01*
X2153Y7583D01*
X2152Y7585D01*
X2152Y7587D01*
X2151Y7589D01*
X2151Y7593D01*
X2151Y7598D01*
Y7598D01*
Y7599D01*
Y7600D01*
X2151Y7601D01*
X2151Y7603D01*
X2151Y7605D01*
X2151Y7607D01*
X2152Y7609D01*
X2152Y7613D01*
X2154Y7618D01*
X2155Y7620D01*
X2156Y7623D01*
X2157Y7625D01*
X2158Y7627D01*
X2158Y7627D01*
X2159Y7627D01*
X2159Y7628D01*
X2160Y7628D01*
X2160Y7629D01*
X2161Y7630D01*
X2162Y7631D01*
X2164Y7632D01*
X2165Y7633D01*
X2167Y7634D01*
X2168Y7636D01*
X2170Y7637D01*
X2172Y7638D01*
X2174Y7639D01*
X2177Y7639D01*
X2179Y7640D01*
X2183Y7620D01*
X2183D01*
X2183Y7620D01*
X2182Y7620D01*
X2181Y7619D01*
X2179Y7619D01*
X2177Y7618D01*
X2175Y7616D01*
X2173Y7614D01*
X2172Y7612D01*
X2171Y7612D01*
X2171Y7611D01*
X2170Y7610D01*
X2170Y7609D01*
X2169Y7607D01*
X2168Y7604D01*
X2168Y7601D01*
X2167Y7598D01*
Y7598D01*
Y7598D01*
Y7597D01*
X2168Y7596D01*
X2168Y7595D01*
X2168Y7594D01*
X2168Y7592D01*
X2168Y7591D01*
X2169Y7588D01*
X2170Y7586D01*
X2171Y7584D01*
X2172Y7583D01*
X2173Y7581D01*
X2174Y7579D01*
X2176Y7578D01*
X2176Y7578D01*
X2176Y7577D01*
X2177Y7577D01*
X2177Y7577D01*
X2178Y7576D01*
X2179Y7575D01*
X2180Y7575D01*
X2182Y7574D01*
X2183Y7573D01*
X2185Y7573D01*
X2187Y7572D01*
X2189Y7571D01*
X2192Y7571D01*
X2194Y7571D01*
X2197Y7570D01*
X2200Y7570D01*
X2202D01*
X2203Y7570D01*
X2204Y7571D01*
X2206Y7571D01*
X2208Y7571D01*
X2210Y7571D01*
X2214Y7572D01*
X2219Y7574D01*
X2221Y7574D01*
X2223Y7575D01*
X2225Y7577D01*
X2226Y7578D01*
X2226Y7578D01*
X2227Y7578D01*
X2227Y7579D01*
X2228Y7579D01*
X2228Y7580D01*
X2229Y7581D01*
X2230Y7582D01*
X2231Y7583D01*
X2232Y7585D01*
X2232Y7586D01*
X2234Y7590D01*
X2234Y7592D01*
X2235Y7594D01*
X2235Y7596D01*
X2235Y7598D01*
Y7598D01*
Y7598D01*
Y7599D01*
X2235Y7600D01*
X2235Y7602D01*
X2234Y7604D01*
X2234Y7606D01*
X2234Y7608D01*
X2233Y7611D01*
Y7611D01*
X2233Y7611D01*
X2232Y7612D01*
X2232Y7613D01*
X2231Y7614D01*
X2230Y7616D01*
X2229Y7618D01*
X2228Y7620D01*
X2227Y7621D01*
X2214D01*
Y7599D01*
X2198D01*
Y7641D01*
X2237D01*
X2237Y7641D01*
D02*
G37*
%LPC*%
G36*
X2181Y10935D02*
X2180D01*
X2180Y10935D01*
X2178Y10934D01*
X2177Y10934D01*
X2176Y10934D01*
X2174Y10933D01*
X2173Y10932D01*
X2173Y10932D01*
X2173Y10932D01*
X2172Y10931D01*
X2172Y10930D01*
X2171Y10929D01*
X2170Y10928D01*
X2170Y10926D01*
X2169Y10925D01*
Y10924D01*
X2169Y10924D01*
Y10923D01*
X2169Y10922D01*
Y10921D01*
Y10920D01*
Y10919D01*
X2169Y10917D01*
Y10916D01*
Y10914D01*
Y10912D01*
Y10910D01*
Y10895D01*
X2194D01*
Y10909D01*
Y10910D01*
Y10910D01*
Y10911D01*
Y10912D01*
Y10913D01*
Y10914D01*
X2194Y10917D01*
X2193Y10920D01*
X2193Y10923D01*
X2193Y10924D01*
X2193Y10925D01*
X2193Y10926D01*
X2193Y10927D01*
Y10927D01*
X2192Y10928D01*
X2192Y10928D01*
X2192Y10929D01*
X2190Y10931D01*
X2190Y10932D01*
X2189Y10933D01*
X2188Y10933D01*
X2188Y10933D01*
X2187Y10933D01*
X2187Y10934D01*
X2185Y10934D01*
X2184Y10934D01*
X2183Y10935D01*
X2181Y10935D01*
D02*
G37*
G36*
X4321Y10765D02*
X4296D01*
Y10751D01*
Y10750D01*
Y10750D01*
Y10749D01*
Y10748D01*
Y10747D01*
Y10746D01*
X4296Y10743D01*
X4297Y10740D01*
X4297Y10737D01*
X4297Y10736D01*
X4297Y10735D01*
X4297Y10734D01*
X4297Y10733D01*
Y10733D01*
X4298Y10732D01*
X4298Y10732D01*
X4298Y10731D01*
X4300Y10729D01*
X4300Y10728D01*
X4301Y10727D01*
X4302Y10727D01*
X4302Y10727D01*
X4303Y10727D01*
X4303Y10726D01*
X4305Y10726D01*
X4306Y10726D01*
X4307Y10725D01*
X4309Y10725D01*
X4310D01*
X4310Y10725D01*
X4312Y10726D01*
X4313Y10726D01*
X4314Y10726D01*
X4316Y10727D01*
X4317Y10728D01*
X4317Y10728D01*
X4317Y10728D01*
X4318Y10729D01*
X4318Y10730D01*
X4319Y10731D01*
X4320Y10732D01*
X4320Y10734D01*
X4321Y10735D01*
Y10736D01*
X4321Y10736D01*
Y10737D01*
X4321Y10738D01*
Y10739D01*
Y10740D01*
Y10741D01*
X4321Y10743D01*
Y10744D01*
Y10746D01*
Y10748D01*
Y10750D01*
Y10765D01*
D02*
G37*
G36*
X4261Y7602D02*
X4196D01*
Y7588D01*
Y7588D01*
Y7587D01*
Y7587D01*
Y7586D01*
Y7585D01*
X4197Y7583D01*
Y7581D01*
X4197Y7579D01*
X4197Y7577D01*
X4197Y7576D01*
Y7576D01*
X4198Y7575D01*
X4198Y7574D01*
X4198Y7573D01*
X4199Y7572D01*
X4200Y7570D01*
X4200Y7569D01*
X4201Y7568D01*
X4202Y7568D01*
X4202Y7567D01*
X4203Y7567D01*
X4204Y7566D01*
X4205Y7565D01*
X4207Y7564D01*
X4208Y7564D01*
X4211Y7563D01*
X4211D01*
X4211Y7563D01*
X4211D01*
X4212Y7563D01*
X4213Y7562D01*
X4213Y7562D01*
X4216Y7562D01*
X4218Y7561D01*
X4221Y7561D01*
X4225Y7561D01*
X4229Y7561D01*
X4231D01*
X4233Y7561D01*
X4235Y7561D01*
X4238Y7561D01*
X4241Y7562D01*
X4243Y7562D01*
X4246Y7563D01*
X4246D01*
X4246Y7563D01*
X4247Y7563D01*
X4248Y7564D01*
X4249Y7564D01*
X4251Y7565D01*
X4252Y7566D01*
X4254Y7567D01*
X4255Y7569D01*
X4256Y7569D01*
X4256Y7569D01*
X4257Y7570D01*
X4257Y7571D01*
X4258Y7572D01*
X4259Y7574D01*
X4260Y7576D01*
X4260Y7578D01*
Y7578D01*
X4260Y7578D01*
X4260Y7579D01*
X4261Y7581D01*
Y7582D01*
X4261Y7583D01*
Y7585D01*
X4261Y7586D01*
Y7588D01*
X4261Y7590D01*
Y7591D01*
Y7594D01*
Y7602D01*
D02*
G37*
G36*
X2176Y2194D02*
X2174D01*
X2172Y2194D01*
X2170Y2194D01*
X2167Y2194D01*
X2164Y2193D01*
X2162Y2193D01*
X2159Y2192D01*
X2159D01*
X2159Y2192D01*
X2158Y2192D01*
X2157Y2191D01*
X2156Y2191D01*
X2154Y2190D01*
X2153Y2189D01*
X2151Y2188D01*
X2150Y2186D01*
X2149Y2186D01*
X2149Y2186D01*
X2148Y2185D01*
X2148Y2184D01*
X2147Y2183D01*
X2146Y2181D01*
X2145Y2179D01*
X2145Y2177D01*
Y2177D01*
X2145Y2177D01*
X2145Y2176D01*
X2144Y2174D01*
Y2173D01*
X2144Y2172D01*
Y2170D01*
X2144Y2169D01*
Y2167D01*
X2144Y2165D01*
Y2164D01*
Y2161D01*
Y2153D01*
X2209D01*
Y2167D01*
Y2167D01*
Y2168D01*
Y2168D01*
Y2169D01*
Y2170D01*
X2208Y2172D01*
Y2174D01*
X2208Y2176D01*
X2208Y2178D01*
X2208Y2179D01*
Y2179D01*
X2207Y2180D01*
X2207Y2181D01*
X2207Y2182D01*
X2206Y2183D01*
X2205Y2185D01*
X2205Y2186D01*
X2204Y2187D01*
X2203Y2187D01*
X2203Y2188D01*
X2202Y2188D01*
X2201Y2189D01*
X2200Y2190D01*
X2198Y2191D01*
X2197Y2191D01*
X2194Y2192D01*
X2194D01*
X2194Y2192D01*
X2194D01*
X2193Y2192D01*
X2192Y2193D01*
X2192Y2193D01*
X2189Y2193D01*
X2187Y2194D01*
X2184Y2194D01*
X2180Y2194D01*
X2176Y2194D01*
D02*
G37*
G36*
X2201Y7819D02*
X2199D01*
X2197Y7819D01*
X2195Y7819D01*
X2192Y7819D01*
X2189Y7818D01*
X2187Y7818D01*
X2184Y7817D01*
X2184D01*
X2184Y7817D01*
X2183Y7817D01*
X2182Y7816D01*
X2181Y7816D01*
X2179Y7815D01*
X2178Y7814D01*
X2176Y7813D01*
X2175Y7811D01*
X2174Y7811D01*
X2174Y7811D01*
X2173Y7810D01*
X2173Y7809D01*
X2172Y7808D01*
X2171Y7806D01*
X2170Y7804D01*
X2170Y7802D01*
Y7802D01*
X2170Y7802D01*
X2170Y7801D01*
X2169Y7799D01*
Y7798D01*
X2169Y7797D01*
Y7795D01*
X2169Y7794D01*
Y7792D01*
X2169Y7790D01*
Y7789D01*
Y7786D01*
Y7778D01*
X2234D01*
Y7792D01*
Y7792D01*
Y7793D01*
Y7793D01*
Y7794D01*
Y7795D01*
X2233Y7797D01*
Y7799D01*
X2233Y7801D01*
X2233Y7803D01*
X2233Y7804D01*
Y7804D01*
X2232Y7805D01*
X2232Y7806D01*
X2232Y7807D01*
X2231Y7808D01*
X2230Y7810D01*
X2230Y7811D01*
X2229Y7812D01*
X2228Y7812D01*
X2228Y7813D01*
X2227Y7813D01*
X2226Y7814D01*
X2225Y7815D01*
X2223Y7816D01*
X2222Y7816D01*
X2219Y7817D01*
X2219D01*
X2219Y7817D01*
X2219D01*
X2218Y7817D01*
X2217Y7818D01*
X2217Y7818D01*
X2214Y7818D01*
X2212Y7819D01*
X2209Y7819D01*
X2205Y7819D01*
X2201Y7819D01*
D02*
G37*
G36*
X2156Y4610D02*
X2155D01*
X2155Y4610D01*
X2153Y4609D01*
X2152Y4609D01*
X2151Y4609D01*
X2149Y4608D01*
X2148Y4607D01*
X2148Y4607D01*
X2148Y4607D01*
X2147Y4606D01*
X2147Y4605D01*
X2146Y4604D01*
X2145Y4603D01*
X2145Y4601D01*
X2144Y4600D01*
Y4599D01*
X2144Y4599D01*
Y4598D01*
X2144Y4597D01*
Y4596D01*
Y4595D01*
Y4594D01*
X2144Y4592D01*
Y4591D01*
Y4589D01*
Y4587D01*
Y4585D01*
Y4570D01*
X2169D01*
Y4584D01*
Y4585D01*
Y4585D01*
Y4586D01*
Y4587D01*
Y4588D01*
Y4589D01*
X2169Y4592D01*
X2168Y4595D01*
X2168Y4598D01*
X2168Y4599D01*
X2168Y4600D01*
X2168Y4601D01*
X2168Y4602D01*
Y4602D01*
X2167Y4603D01*
X2167Y4603D01*
X2167Y4604D01*
X2165Y4606D01*
X2165Y4607D01*
X2164Y4608D01*
X2163Y4608D01*
X2163Y4608D01*
X2162Y4608D01*
X2162Y4609D01*
X2160Y4609D01*
X2159Y4609D01*
X2158Y4610D01*
X2156Y4610D01*
D02*
G37*
%LPD*%
D16*
X5640Y6539D02*
Y12000D01*
X4453Y6539D02*
X5640D01*
X4448Y12000D02*
X5635D01*
X4453Y6539D02*
Y12000D01*
X1022Y1423D02*
Y5178D01*
X2038D01*
Y1423D02*
Y5178D01*
X1022Y1423D02*
X2038D01*
X660Y6539D02*
Y12000D01*
X1974D01*
Y6539D02*
Y12000D01*
X660Y6539D02*
X1974D01*
X4440Y12090D02*
Y12242D01*
X4516D01*
X4542Y12217D01*
Y12166D01*
X4516Y12141D01*
X4440D01*
X4694Y12242D02*
X4592D01*
Y12090D01*
X4694D01*
X4592Y12166D02*
X4643D01*
X4846Y12217D02*
X4821Y12242D01*
X4770D01*
X4745Y12217D01*
Y12192D01*
X4770Y12166D01*
X4821D01*
X4846Y12141D01*
Y12115D01*
X4821Y12090D01*
X4770D01*
X4745Y12115D01*
X1520Y12100D02*
Y12252D01*
X1596D01*
X1622Y12227D01*
Y12176D01*
X1596Y12151D01*
X1520D01*
X1774Y12252D02*
X1672D01*
Y12100D01*
X1774D01*
X1672Y12176D02*
X1723D01*
X1825Y12252D02*
X1926D01*
X1875D01*
Y12100D01*
X1035Y5266D02*
Y5419D01*
X1086Y5368D01*
X1137Y5419D01*
Y5266D01*
X1188D02*
Y5419D01*
X1264D01*
X1289Y5393D01*
Y5342D01*
X1264Y5317D01*
X1188D01*
X1442Y5393D02*
X1416Y5419D01*
X1365D01*
X1340Y5393D01*
Y5368D01*
X1365Y5342D01*
X1416D01*
X1442Y5317D01*
Y5292D01*
X1416Y5266D01*
X1365D01*
X1340Y5292D01*
M02*
