M48
;Layer_Color=9474304
;FILE_FORMAT=2:3
INCH,LZ
;TYPE=PLATED
T1F00S00C0.041
T2F00S00C0.052
%
T01
X00502Y0077
X00602
X00702
Y00844
X00602
X00502
Y00967
Y01041
X00602
Y00967
X00702
Y01041
Y01164
Y01238
X00602
Y01164
X00502
Y01238
Y01361
Y01435
X00602
X00601Y01361
X00702
Y01435
Y01557
Y01631
X00602
Y01557
X00502
Y01631
Y01754
Y01828
X00602
Y01754
X00702
Y01828
T02
X0197Y02974
Y03074
X0207
Y02974
Y03224
X0197
Y03324
X0207
Y03474
Y03574
X0197
Y03474
Y03724
Y03824
X0207
Y03724
X0187
Y03824
X0177
Y03724
X01768Y03574
X0187
Y03474
X01768Y0347
X0177Y03324
Y03224
X0187
Y03324
Y03074
X0177
Y02974
X0187
X0076
X0066
X0056
X0046
Y03074
X0056
X0066
X0076
Y03224
X0066
X0056
X0046
Y03324
X0056
X0066
X0076
Y03474
X0066
X0056
X0046
Y03574
X0056
X0066
X0076
Y03724
X0066
X0056
X0046
Y03824
X0056
X0066
X0076
Y03974
X0066
X0056
X0046
Y04074
X0056
X0066
X0076
Y04224
X0066
X0056
X0046
Y04324
X0056
X0066
X0076
X0177
X0187
Y04224
X0177
Y04074
X0187
Y03974
X0177
X0197
Y04074
X0207
X02073Y03974
X0207Y04224
Y04324
X0197
Y04224
M30
