M48
;Layer_Color=9474304
;FILE_FORMAT=2:3
INCH,LZ
;TYPE=PLATED
T1F00S00C0.041
T2F00S00C0.052
%
T01
X00502Y0077
X00602
X00702
Y00844
X00602
X00502
Y00967
Y01041
X00602
Y00967
X00702
Y01041
Y01164
Y01238
X00602
Y01164
X00502
Y01238
Y01361
Y01435
X00602
X00601Y01361
X00702
Y01435
Y01557
Y01631
X00602
Y01557
X00502
Y01631
Y01754
Y01828
X00602
Y01754
X00702
Y01828
T02
X01989Y02778
Y02878
X02089
X02189
Y02778
X02089
Y03028
X02189
Y03128
X02089
X01989
Y03028
Y03278
Y03378
X02089
X02189
Y03278
X02089
Y03528
Y03628
X02189
Y03528
X01989
Y03628
Y03778
Y03878
X02089
X02189
X02191Y03778
X02089
X01889
Y03878
Y03628
Y03528
X01886Y03378
Y03273
X01889Y03128
Y03028
Y02878
Y02778
X0076
X0066
X0056
X0046
Y02878
X0056
X0066
X0076
Y03028
X0066
X0056
X0046
Y03128
X0056
X0066
X0076
Y03278
X0066
X0056
X0046
Y03378
X0056
X0066
X0076
Y03528
X0066
X0056
X0046
Y03628
X0056
X0066
X0076
Y03778
X0066
X0056
X0046
Y03878
X0056
X0066
X0076
Y04028
X0066
X0056
X0046
Y04128
X0056
X0066
X0076
X01889
Y04028
X01989
Y04128
X02089
X02189
Y04028
X02089
M30
