G04 Layer_Physical_Order=1*
G04 Layer_Color=255*
%FSLAX23Y23*%
%MOIN*%
G70*
G01*
G75*
%ADD10C,0.079*%
%ADD11C,0.138*%
%ADD12C,0.421*%
%ADD13C,0.047*%
%ADD14C,0.071*%
%ADD15C,0.098*%
%ADD16C,0.091*%
G36*
X838Y4202D02*
X842Y4204D01*
X1008Y4038D01*
Y3971D01*
Y3732D01*
X1224Y3732D01*
X1696Y4204D01*
X1701Y4202D01*
X1701Y3963D01*
X1291Y3553D01*
Y3551D01*
X1008D01*
Y1933D01*
X772Y1698D01*
X768Y1699D01*
Y1693D01*
X443D01*
Y1870D01*
X768D01*
X837Y1939D01*
X837Y3962D01*
X395D01*
Y4209D01*
X838D01*
Y4202D01*
D02*
G37*
G36*
X776Y1276D02*
Y1106D01*
X449D01*
Y1280D01*
X774D01*
X776Y1276D01*
D02*
G37*
G36*
X778Y906D02*
X453D01*
Y1083D01*
X778D01*
Y906D01*
D02*
G37*
G36*
X818Y2969D02*
X395D01*
Y3176D01*
X818D01*
Y2969D01*
D02*
G37*
G36*
X2250Y3963D02*
X1701D01*
Y3972D01*
Y4209D01*
X2250D01*
Y3963D01*
D02*
G37*
G36*
X2264Y3709D02*
X1843Y3709D01*
X1539Y3406D01*
X1539Y2161D01*
X874Y1496D01*
X441Y1496D01*
Y1673D01*
X776Y1673D01*
X1343Y2240D01*
X1343Y3531D01*
X1744Y3933D01*
X2264D01*
X2264Y3709D01*
D02*
G37*
G36*
X2233Y3159D02*
Y2975D01*
X1831D01*
Y3182D01*
X2211Y3182D01*
X2233Y3159D01*
D02*
G37*
D10*
X325Y1127D02*
X411Y1041D01*
X952Y1238D02*
X2283Y2569D01*
X325Y1127D02*
Y2993D01*
X2283Y2569D02*
Y3183D01*
X2189Y3278D02*
X2283Y3183D01*
X702Y1238D02*
X952D01*
X411Y1041D02*
X502D01*
X325Y2993D02*
X460Y3128D01*
D11*
X197Y4764D02*
D03*
X2283D02*
D03*
Y197D02*
D03*
X197D02*
D03*
D12*
X1239Y787D02*
D03*
Y4173D02*
D03*
D13*
X487Y657D02*
D03*
Y1942D02*
D03*
D14*
X502Y770D02*
D03*
X602D02*
D03*
X702D02*
D03*
Y844D02*
D03*
X602D02*
D03*
X502D02*
D03*
Y967D02*
D03*
X602D02*
D03*
X702D02*
D03*
Y1041D02*
D03*
X602D02*
D03*
X502D02*
D03*
Y1164D02*
D03*
X602D02*
D03*
X702D02*
D03*
Y1238D02*
D03*
X602D02*
D03*
X502D02*
D03*
Y1361D02*
D03*
X601D02*
D03*
X702D02*
D03*
Y1435D02*
D03*
X602D02*
D03*
X502D02*
D03*
Y1557D02*
D03*
X602D02*
D03*
X702D02*
D03*
Y1631D02*
D03*
X502D02*
D03*
X602D02*
D03*
Y1828D02*
D03*
X702Y1754D02*
D03*
X602D02*
D03*
X702Y1828D02*
D03*
X502Y1754D02*
D03*
Y1828D02*
D03*
D15*
X2089Y4378D02*
D03*
Y2528D02*
D03*
X560D02*
D03*
Y4378D02*
D03*
D16*
X2189Y4128D02*
D03*
X2089D02*
D03*
X1989D02*
D03*
X1889D02*
D03*
Y4028D02*
D03*
X1989D02*
D03*
X2089D02*
D03*
X2189D02*
D03*
Y3878D02*
D03*
X2089D02*
D03*
X1989D02*
D03*
X1889D02*
D03*
Y3778D02*
D03*
X1989D02*
D03*
X2089D02*
D03*
X2191D02*
D03*
X2189Y3628D02*
D03*
X2089D02*
D03*
X1989D02*
D03*
X1889D02*
D03*
Y3528D02*
D03*
X1989D02*
D03*
X2089D02*
D03*
X2189D02*
D03*
Y3378D02*
D03*
X2089D02*
D03*
X1989D02*
D03*
X1886D02*
D03*
Y3273D02*
D03*
X1989Y3278D02*
D03*
X2089D02*
D03*
X2189D02*
D03*
Y2878D02*
D03*
X2089D02*
D03*
X1989D02*
D03*
X1889D02*
D03*
Y2778D02*
D03*
X1989D02*
D03*
X2089D02*
D03*
X2189D02*
D03*
Y3028D02*
D03*
X2089D02*
D03*
X1989D02*
D03*
X1889D02*
D03*
Y3128D02*
D03*
X1989D02*
D03*
X2089D02*
D03*
X2189D02*
D03*
X460Y2778D02*
D03*
X560D02*
D03*
X660D02*
D03*
X760D02*
D03*
Y2878D02*
D03*
X660D02*
D03*
X560D02*
D03*
X460D02*
D03*
Y3028D02*
D03*
X560D02*
D03*
X660D02*
D03*
X760D02*
D03*
Y3128D02*
D03*
X660D02*
D03*
X560D02*
D03*
X460D02*
D03*
Y3278D02*
D03*
X560D02*
D03*
X660D02*
D03*
X760D02*
D03*
Y3378D02*
D03*
X660D02*
D03*
X560D02*
D03*
X460D02*
D03*
Y3528D02*
D03*
X560D02*
D03*
X660D02*
D03*
X760D02*
D03*
Y3628D02*
D03*
X660D02*
D03*
X560D02*
D03*
X460D02*
D03*
Y3778D02*
D03*
X560D02*
D03*
X660D02*
D03*
X760D02*
D03*
Y3878D02*
D03*
X660D02*
D03*
X560D02*
D03*
X460D02*
D03*
Y4028D02*
D03*
X560D02*
D03*
X660D02*
D03*
X760D02*
D03*
Y4128D02*
D03*
X660D02*
D03*
X560D02*
D03*
X460D02*
D03*
M02*
