G04 Layer_Color=8388736*
%FSLAX23Y23*%
%MOIN*%
G70*
G01*
G75*
%ADD18C,0.146*%
%ADD19C,0.429*%
%ADD20C,0.055*%
%ADD21C,0.079*%
%ADD22C,0.106*%
%ADD23C,0.099*%
D18*
X197Y4764D02*
D03*
X2283D02*
D03*
Y197D02*
D03*
X197D02*
D03*
D19*
X1239Y787D02*
D03*
Y4173D02*
D03*
D20*
X487Y657D02*
D03*
Y1942D02*
D03*
D21*
X502Y770D02*
D03*
X602D02*
D03*
X702D02*
D03*
Y844D02*
D03*
X602D02*
D03*
X502D02*
D03*
Y967D02*
D03*
X602D02*
D03*
X702D02*
D03*
Y1041D02*
D03*
X602D02*
D03*
X502D02*
D03*
Y1164D02*
D03*
X602D02*
D03*
X702D02*
D03*
Y1238D02*
D03*
X602D02*
D03*
X502D02*
D03*
Y1361D02*
D03*
X601D02*
D03*
X702D02*
D03*
Y1435D02*
D03*
X602D02*
D03*
X502D02*
D03*
Y1557D02*
D03*
X602D02*
D03*
X702D02*
D03*
Y1631D02*
D03*
X502D02*
D03*
X602D02*
D03*
Y1828D02*
D03*
X702Y1754D02*
D03*
X602D02*
D03*
X702Y1828D02*
D03*
X502Y1754D02*
D03*
Y1828D02*
D03*
D22*
X2089Y4378D02*
D03*
Y2528D02*
D03*
X560D02*
D03*
Y4378D02*
D03*
D23*
X2189Y4128D02*
D03*
X2089D02*
D03*
X1989D02*
D03*
X1889D02*
D03*
Y4028D02*
D03*
X1989D02*
D03*
X2089D02*
D03*
X2189D02*
D03*
Y3878D02*
D03*
X2089D02*
D03*
X1989D02*
D03*
X1889D02*
D03*
Y3778D02*
D03*
X1989D02*
D03*
X2089D02*
D03*
X2191D02*
D03*
X2189Y3628D02*
D03*
X2089D02*
D03*
X1989D02*
D03*
X1889D02*
D03*
Y3528D02*
D03*
X1989D02*
D03*
X2089D02*
D03*
X2189D02*
D03*
Y3378D02*
D03*
X2089D02*
D03*
X1989D02*
D03*
X1886D02*
D03*
Y3273D02*
D03*
X1989Y3278D02*
D03*
X2089D02*
D03*
X2189D02*
D03*
Y2878D02*
D03*
X2089D02*
D03*
X1989D02*
D03*
X1889D02*
D03*
Y2778D02*
D03*
X1989D02*
D03*
X2089D02*
D03*
X2189D02*
D03*
Y3028D02*
D03*
X2089D02*
D03*
X1989D02*
D03*
X1889D02*
D03*
Y3128D02*
D03*
X1989D02*
D03*
X2089D02*
D03*
X2189D02*
D03*
X460Y2778D02*
D03*
X560D02*
D03*
X660D02*
D03*
X760D02*
D03*
Y2878D02*
D03*
X660D02*
D03*
X560D02*
D03*
X460D02*
D03*
Y3028D02*
D03*
X560D02*
D03*
X660D02*
D03*
X760D02*
D03*
Y3128D02*
D03*
X660D02*
D03*
X560D02*
D03*
X460D02*
D03*
Y3278D02*
D03*
X560D02*
D03*
X660D02*
D03*
X760D02*
D03*
Y3378D02*
D03*
X660D02*
D03*
X560D02*
D03*
X460D02*
D03*
Y3528D02*
D03*
X560D02*
D03*
X660D02*
D03*
X760D02*
D03*
Y3628D02*
D03*
X660D02*
D03*
X560D02*
D03*
X460D02*
D03*
Y3778D02*
D03*
X560D02*
D03*
X660D02*
D03*
X760D02*
D03*
Y3878D02*
D03*
X660D02*
D03*
X560D02*
D03*
X460D02*
D03*
Y4028D02*
D03*
X560D02*
D03*
X660D02*
D03*
X760D02*
D03*
Y4128D02*
D03*
X660D02*
D03*
X560D02*
D03*
X460D02*
D03*
M02*
