G04 Layer_Physical_Order=2*
G04 Layer_Color=16711680*
%FSLAX23Y23*%
%MOIN*%
G70*
G01*
G75*
%ADD10C,0.079*%
%ADD11C,0.138*%
%ADD12C,0.421*%
%ADD13C,0.047*%
%ADD14C,0.071*%
%ADD15C,0.098*%
%ADD16C,0.091*%
G36*
X806Y3448D02*
X806Y3207D01*
X401Y3207D01*
Y3448D01*
X806Y3448D01*
D02*
G37*
G36*
X2268Y2955D02*
Y2709D01*
X2149Y2546D01*
X2144Y2547D01*
X2143Y2550D01*
X2138Y2561D01*
X2131Y2569D01*
X2122Y2577D01*
X2111Y2582D01*
X2100Y2586D01*
X2089Y2587D01*
X2077Y2586D01*
X2066Y2582D01*
X2056Y2577D01*
X2047Y2569D01*
X2039Y2561D01*
X2034Y2550D01*
X2030Y2539D01*
X2029Y2528D01*
X2030Y2516D01*
X2034Y2505D01*
X2039Y2495D01*
X2047Y2486D01*
X2056Y2478D01*
X2066Y2473D01*
X2077Y2469D01*
X2087Y2468D01*
X2089Y2464D01*
X1415Y1538D01*
X917Y713D01*
X386D01*
Y2955D01*
X389Y2959D01*
X2268Y2955D01*
D02*
G37*
G36*
X2252Y3729D02*
X1718D01*
X1544Y3555D01*
X1271Y3555D01*
X1271Y3555D01*
X995Y3555D01*
X818Y3732D01*
Y3724D01*
X395D01*
Y3941D01*
X817D01*
Y3942D01*
X822Y3945D01*
X1070Y3732D01*
X1505Y3732D01*
X1716Y3943D01*
X1717Y3943D01*
Y3945D01*
X2252D01*
Y3729D01*
D02*
G37*
G36*
X2261Y3218D02*
X1797D01*
Y3436D01*
X2261D01*
Y3218D01*
D02*
G37*
%LPC*%
G36*
X502Y1480D02*
X491Y1479D01*
X479Y1474D01*
X470Y1467D01*
X463Y1458D01*
X458Y1447D01*
X457Y1435D01*
X458Y1423D01*
X463Y1412D01*
X470Y1402D01*
X473Y1400D01*
Y1395D01*
X470Y1393D01*
X463Y1384D01*
X458Y1372D01*
X457Y1361D01*
X458Y1349D01*
X463Y1338D01*
X470Y1328D01*
X479Y1321D01*
X491Y1316D01*
X502Y1315D01*
X514Y1316D01*
X525Y1321D01*
X535Y1328D01*
X542Y1338D01*
X547Y1349D01*
X548Y1361D01*
X547Y1372D01*
X542Y1384D01*
X535Y1393D01*
X532Y1395D01*
Y1400D01*
X535Y1402D01*
X542Y1412D01*
X547Y1423D01*
X548Y1435D01*
X547Y1447D01*
X542Y1458D01*
X535Y1467D01*
X525Y1474D01*
X514Y1479D01*
X502Y1480D01*
D02*
G37*
G36*
X702Y1284D02*
X691Y1282D01*
X679Y1277D01*
X670Y1270D01*
X663Y1261D01*
X658Y1250D01*
X657Y1238D01*
X658Y1226D01*
X663Y1215D01*
X670Y1205D01*
X673Y1203D01*
Y1198D01*
X670Y1196D01*
X663Y1187D01*
X658Y1176D01*
X657Y1164D01*
X658Y1152D01*
X663Y1141D01*
X670Y1131D01*
X679Y1124D01*
X691Y1120D01*
X702Y1118D01*
X714Y1120D01*
X725Y1124D01*
X735Y1131D01*
X742Y1141D01*
X747Y1152D01*
X748Y1164D01*
X747Y1176D01*
X742Y1187D01*
X735Y1196D01*
X732Y1198D01*
Y1203D01*
X735Y1205D01*
X742Y1215D01*
X747Y1226D01*
X748Y1238D01*
X747Y1250D01*
X742Y1261D01*
X735Y1270D01*
X725Y1277D01*
X714Y1282D01*
X702Y1284D01*
D02*
G37*
G36*
Y1480D02*
X691Y1479D01*
X679Y1474D01*
X670Y1467D01*
X663Y1458D01*
X658Y1447D01*
X657Y1435D01*
X658Y1423D01*
X663Y1412D01*
X670Y1402D01*
X673Y1400D01*
Y1395D01*
X670Y1393D01*
X663Y1384D01*
X658Y1372D01*
X657Y1361D01*
X658Y1349D01*
X663Y1338D01*
X670Y1328D01*
X679Y1321D01*
X691Y1316D01*
X702Y1315D01*
X714Y1316D01*
X725Y1321D01*
X735Y1328D01*
X742Y1338D01*
X747Y1349D01*
X748Y1361D01*
X747Y1372D01*
X742Y1384D01*
X735Y1393D01*
X732Y1395D01*
Y1400D01*
X735Y1402D01*
X742Y1412D01*
X747Y1423D01*
X748Y1435D01*
X747Y1447D01*
X742Y1458D01*
X735Y1467D01*
X725Y1474D01*
X714Y1479D01*
X702Y1480D01*
D02*
G37*
G36*
X602D02*
X591Y1479D01*
X579Y1474D01*
X570Y1467D01*
X563Y1458D01*
X558Y1447D01*
X557Y1435D01*
X558Y1423D01*
X563Y1412D01*
X570Y1402D01*
X572Y1401D01*
Y1396D01*
X568Y1393D01*
X561Y1384D01*
X557Y1372D01*
X555Y1361D01*
X557Y1349D01*
X561Y1338D01*
X568Y1328D01*
X578Y1321D01*
X589Y1316D01*
X601Y1315D01*
X613Y1316D01*
X624Y1321D01*
X633Y1328D01*
X640Y1338D01*
X645Y1349D01*
X647Y1361D01*
X645Y1372D01*
X640Y1384D01*
X633Y1393D01*
X631Y1395D01*
Y1400D01*
X635Y1402D01*
X642Y1412D01*
X647Y1423D01*
X648Y1435D01*
X647Y1447D01*
X642Y1458D01*
X635Y1467D01*
X625Y1474D01*
X614Y1479D01*
X602Y1480D01*
D02*
G37*
G36*
Y1087D02*
X591Y1085D01*
X579Y1081D01*
X570Y1073D01*
X563Y1064D01*
X558Y1053D01*
X557Y1041D01*
X558Y1029D01*
X563Y1018D01*
X570Y1009D01*
X573Y1006D01*
Y1001D01*
X570Y999D01*
X563Y990D01*
X558Y979D01*
X557Y969D01*
X552D01*
X550Y980D01*
X545Y992D01*
X538Y1002D01*
X536Y1004D01*
X536Y1010D01*
X542Y1018D01*
X547Y1029D01*
X548Y1041D01*
X547Y1053D01*
X542Y1064D01*
X535Y1073D01*
X525Y1081D01*
X514Y1085D01*
X502Y1087D01*
X491Y1085D01*
X479Y1081D01*
X470Y1073D01*
X463Y1064D01*
X458Y1053D01*
X457Y1041D01*
X458Y1029D01*
X463Y1018D01*
X464Y1016D01*
X463Y1011D01*
X460Y1010D01*
X449Y1002D01*
X442Y992D01*
X437Y980D01*
X435Y967D01*
X437Y954D01*
X442Y942D01*
X449Y932D01*
X460Y924D01*
X472Y919D01*
X485Y917D01*
X502D01*
X515Y919D01*
X527Y924D01*
X538Y932D01*
X545Y942D01*
X550Y954D01*
X552Y964D01*
X557D01*
X558Y955D01*
X563Y944D01*
X570Y935D01*
X579Y927D01*
X591Y923D01*
X602Y921D01*
X614Y923D01*
X625Y927D01*
X635Y935D01*
X642Y944D01*
X647Y955D01*
X648Y967D01*
X647Y979D01*
X642Y990D01*
X635Y999D01*
X632Y1001D01*
Y1006D01*
X635Y1009D01*
X642Y1018D01*
X647Y1029D01*
X648Y1041D01*
X647Y1053D01*
X642Y1064D01*
X635Y1073D01*
X625Y1081D01*
X614Y1085D01*
X602Y1087D01*
D02*
G37*
G36*
X702D02*
X691Y1085D01*
X679Y1081D01*
X670Y1073D01*
X663Y1064D01*
X658Y1053D01*
X657Y1041D01*
X658Y1029D01*
X663Y1018D01*
X670Y1009D01*
X673Y1006D01*
Y1001D01*
X670Y999D01*
X663Y990D01*
X658Y979D01*
X657Y967D01*
X658Y955D01*
X663Y944D01*
X670Y935D01*
X679Y927D01*
X691Y923D01*
X702Y921D01*
X714Y923D01*
X725Y927D01*
X735Y935D01*
X742Y944D01*
X747Y955D01*
X748Y967D01*
X747Y979D01*
X742Y990D01*
X735Y999D01*
X732Y1001D01*
Y1006D01*
X735Y1009D01*
X742Y1018D01*
X747Y1029D01*
X748Y1041D01*
X747Y1053D01*
X742Y1064D01*
X735Y1073D01*
X725Y1081D01*
X714Y1085D01*
X702Y1087D01*
D02*
G37*
G36*
X602Y1284D02*
X591Y1282D01*
X579Y1277D01*
X570Y1270D01*
X563Y1261D01*
X558Y1250D01*
X557Y1238D01*
X558Y1226D01*
X563Y1215D01*
X570Y1205D01*
X573Y1203D01*
Y1198D01*
X570Y1196D01*
X563Y1187D01*
X558Y1176D01*
X557Y1164D01*
X558Y1152D01*
X563Y1141D01*
X570Y1131D01*
X579Y1124D01*
X591Y1120D01*
X602Y1118D01*
X614Y1120D01*
X625Y1124D01*
X635Y1131D01*
X642Y1141D01*
X647Y1152D01*
X648Y1164D01*
X647Y1176D01*
X642Y1187D01*
X635Y1196D01*
X632Y1198D01*
Y1203D01*
X635Y1205D01*
X642Y1215D01*
X647Y1226D01*
X648Y1238D01*
X647Y1250D01*
X642Y1261D01*
X635Y1270D01*
X625Y1277D01*
X614Y1282D01*
X602Y1284D01*
D02*
G37*
G36*
X502D02*
X491Y1282D01*
X479Y1277D01*
X470Y1270D01*
X463Y1261D01*
X458Y1250D01*
X457Y1238D01*
X458Y1226D01*
X463Y1215D01*
X470Y1205D01*
X473Y1203D01*
Y1198D01*
X470Y1196D01*
X463Y1187D01*
X458Y1176D01*
X457Y1164D01*
X458Y1152D01*
X463Y1141D01*
X470Y1131D01*
X479Y1124D01*
X491Y1120D01*
X502Y1118D01*
X514Y1120D01*
X525Y1124D01*
X535Y1131D01*
X542Y1141D01*
X547Y1152D01*
X548Y1164D01*
X547Y1176D01*
X542Y1187D01*
X535Y1196D01*
X532Y1198D01*
Y1203D01*
X535Y1205D01*
X542Y1215D01*
X547Y1226D01*
X548Y1238D01*
X547Y1250D01*
X542Y1261D01*
X535Y1270D01*
X525Y1277D01*
X514Y1282D01*
X502Y1284D01*
D02*
G37*
G36*
X702Y1874D02*
X691Y1873D01*
X679Y1868D01*
X670Y1861D01*
X663Y1851D01*
X658Y1840D01*
X657Y1828D01*
X658Y1816D01*
X663Y1805D01*
X670Y1796D01*
X673Y1794D01*
Y1789D01*
X670Y1787D01*
X663Y1777D01*
X658Y1766D01*
X657Y1754D01*
X658Y1742D01*
X663Y1731D01*
X670Y1722D01*
X679Y1715D01*
X691Y1710D01*
X702Y1709D01*
X714Y1710D01*
X725Y1715D01*
X735Y1722D01*
X742Y1731D01*
X747Y1742D01*
X748Y1754D01*
X747Y1766D01*
X742Y1777D01*
X735Y1787D01*
X732Y1789D01*
Y1794D01*
X735Y1796D01*
X742Y1805D01*
X747Y1816D01*
X748Y1828D01*
X747Y1840D01*
X742Y1851D01*
X735Y1861D01*
X725Y1868D01*
X714Y1873D01*
X702Y1874D01*
D02*
G37*
G36*
X602D02*
X591Y1873D01*
X579Y1868D01*
X570Y1861D01*
X563Y1851D01*
X558Y1840D01*
X557Y1828D01*
X558Y1816D01*
X563Y1805D01*
X570Y1796D01*
X573Y1794D01*
Y1789D01*
X570Y1787D01*
X563Y1777D01*
X558Y1766D01*
X557Y1754D01*
X558Y1742D01*
X563Y1731D01*
X570Y1722D01*
X579Y1715D01*
X591Y1710D01*
X602Y1709D01*
X614Y1710D01*
X625Y1715D01*
X635Y1722D01*
X642Y1731D01*
X647Y1742D01*
X648Y1754D01*
X647Y1766D01*
X642Y1777D01*
X635Y1787D01*
X632Y1789D01*
Y1794D01*
X635Y1796D01*
X642Y1805D01*
X647Y1816D01*
X648Y1828D01*
X647Y1840D01*
X642Y1851D01*
X635Y1861D01*
X625Y1868D01*
X614Y1873D01*
X602Y1874D01*
D02*
G37*
G36*
X560Y2587D02*
X548Y2586D01*
X537Y2582D01*
X527Y2577D01*
X518Y2569D01*
X511Y2561D01*
X505Y2550D01*
X502Y2539D01*
X501Y2528D01*
X502Y2516D01*
X505Y2505D01*
X511Y2495D01*
X518Y2486D01*
X527Y2478D01*
X537Y2473D01*
X548Y2469D01*
X560Y2468D01*
X571Y2469D01*
X583Y2473D01*
X593Y2478D01*
X602Y2486D01*
X609Y2495D01*
X615Y2505D01*
X618Y2516D01*
X619Y2528D01*
X618Y2539D01*
X615Y2550D01*
X609Y2561D01*
X602Y2569D01*
X593Y2577D01*
X583Y2582D01*
X571Y2586D01*
X560Y2587D01*
D02*
G37*
G36*
X487Y1975D02*
X479Y1974D01*
X471Y1971D01*
X464Y1966D01*
X458Y1959D01*
X455Y1950D01*
X454Y1942D01*
X455Y1933D01*
X458Y1925D01*
X464Y1918D01*
X471Y1913D01*
X479Y1909D01*
X487Y1908D01*
X496Y1909D01*
X504Y1913D01*
X511Y1918D01*
X517Y1925D01*
X520Y1933D01*
X521Y1942D01*
X520Y1950D01*
X517Y1959D01*
X511Y1966D01*
X504Y1971D01*
X496Y1974D01*
X487Y1975D01*
D02*
G37*
G36*
X602Y1677D02*
X591Y1676D01*
X579Y1671D01*
X570Y1664D01*
X563Y1654D01*
X558Y1643D01*
X557Y1631D01*
X558Y1620D01*
X563Y1609D01*
X570Y1599D01*
X573Y1597D01*
Y1592D01*
X570Y1590D01*
X563Y1580D01*
X558Y1569D01*
X557Y1557D01*
X558Y1546D01*
X563Y1535D01*
X570Y1525D01*
X579Y1518D01*
X591Y1513D01*
X602Y1512D01*
X614Y1513D01*
X625Y1518D01*
X635Y1525D01*
X642Y1535D01*
X647Y1546D01*
X648Y1557D01*
X647Y1569D01*
X642Y1580D01*
X635Y1590D01*
X632Y1592D01*
Y1597D01*
X635Y1599D01*
X642Y1609D01*
X647Y1620D01*
X648Y1631D01*
X647Y1643D01*
X642Y1654D01*
X635Y1664D01*
X625Y1671D01*
X614Y1676D01*
X602Y1677D01*
D02*
G37*
G36*
X502D02*
X491Y1676D01*
X479Y1671D01*
X470Y1664D01*
X463Y1654D01*
X458Y1643D01*
X457Y1631D01*
X458Y1620D01*
X463Y1609D01*
X470Y1599D01*
X473Y1597D01*
Y1592D01*
X470Y1590D01*
X463Y1580D01*
X458Y1569D01*
X457Y1557D01*
X458Y1546D01*
X463Y1535D01*
X470Y1525D01*
X479Y1518D01*
X491Y1513D01*
X502Y1512D01*
X514Y1513D01*
X525Y1518D01*
X535Y1525D01*
X542Y1535D01*
X547Y1546D01*
X548Y1557D01*
X547Y1569D01*
X542Y1580D01*
X535Y1590D01*
X532Y1592D01*
Y1597D01*
X535Y1599D01*
X542Y1609D01*
X547Y1620D01*
X548Y1631D01*
X547Y1643D01*
X542Y1654D01*
X535Y1664D01*
X525Y1671D01*
X514Y1676D01*
X502Y1677D01*
D02*
G37*
G36*
Y1874D02*
X491Y1873D01*
X479Y1868D01*
X470Y1861D01*
X463Y1851D01*
X458Y1840D01*
X457Y1828D01*
X458Y1816D01*
X463Y1805D01*
X470Y1796D01*
X473Y1794D01*
Y1789D01*
X470Y1787D01*
X463Y1777D01*
X458Y1766D01*
X457Y1754D01*
X458Y1742D01*
X463Y1731D01*
X470Y1722D01*
X479Y1715D01*
X491Y1710D01*
X502Y1709D01*
X514Y1710D01*
X525Y1715D01*
X535Y1722D01*
X542Y1731D01*
X547Y1742D01*
X548Y1754D01*
X547Y1766D01*
X542Y1777D01*
X535Y1787D01*
X532Y1789D01*
Y1794D01*
X535Y1796D01*
X542Y1805D01*
X547Y1816D01*
X548Y1828D01*
X547Y1840D01*
X542Y1851D01*
X535Y1861D01*
X525Y1868D01*
X514Y1873D01*
X502Y1874D01*
D02*
G37*
G36*
X702Y1677D02*
X691Y1676D01*
X679Y1671D01*
X670Y1664D01*
X663Y1654D01*
X658Y1643D01*
X657Y1631D01*
X658Y1620D01*
X663Y1609D01*
X670Y1599D01*
X673Y1597D01*
Y1592D01*
X670Y1590D01*
X663Y1580D01*
X658Y1569D01*
X657Y1557D01*
X658Y1546D01*
X663Y1535D01*
X670Y1525D01*
X679Y1518D01*
X691Y1513D01*
X702Y1512D01*
X714Y1513D01*
X725Y1518D01*
X735Y1525D01*
X742Y1535D01*
X747Y1546D01*
X748Y1557D01*
X747Y1569D01*
X742Y1580D01*
X735Y1590D01*
X732Y1592D01*
Y1597D01*
X735Y1599D01*
X742Y1609D01*
X747Y1620D01*
X748Y1631D01*
X747Y1643D01*
X742Y1654D01*
X735Y1664D01*
X725Y1671D01*
X714Y1676D01*
X702Y1677D01*
D02*
G37*
%LPD*%
D10*
X760Y3028D02*
X1889D01*
X760Y3278D02*
X1890D01*
X485Y967D02*
X502D01*
D11*
X197Y4764D02*
D03*
X2283D02*
D03*
Y197D02*
D03*
X197D02*
D03*
D12*
X1239Y787D02*
D03*
Y4173D02*
D03*
D13*
X487Y657D02*
D03*
Y1942D02*
D03*
D14*
X502Y770D02*
D03*
X602D02*
D03*
X702D02*
D03*
Y844D02*
D03*
X602D02*
D03*
X502D02*
D03*
Y967D02*
D03*
X602D02*
D03*
X702D02*
D03*
Y1041D02*
D03*
X602D02*
D03*
X502D02*
D03*
Y1164D02*
D03*
X602D02*
D03*
X702D02*
D03*
Y1238D02*
D03*
X602D02*
D03*
X502D02*
D03*
Y1361D02*
D03*
X601D02*
D03*
X702D02*
D03*
Y1435D02*
D03*
X602D02*
D03*
X502D02*
D03*
Y1557D02*
D03*
X602D02*
D03*
X702D02*
D03*
Y1631D02*
D03*
X502D02*
D03*
X602D02*
D03*
Y1828D02*
D03*
X702Y1754D02*
D03*
X602D02*
D03*
X702Y1828D02*
D03*
X502Y1754D02*
D03*
Y1828D02*
D03*
D15*
X2089Y4378D02*
D03*
Y2528D02*
D03*
X560D02*
D03*
Y4378D02*
D03*
D16*
X2189Y4128D02*
D03*
X2089D02*
D03*
X1989D02*
D03*
X1889D02*
D03*
Y4028D02*
D03*
X1989D02*
D03*
X2089D02*
D03*
X2189D02*
D03*
Y3878D02*
D03*
X2089D02*
D03*
X1989D02*
D03*
X1889D02*
D03*
Y3778D02*
D03*
X1989D02*
D03*
X2089D02*
D03*
X2191D02*
D03*
X2189Y3628D02*
D03*
X2089D02*
D03*
X1989D02*
D03*
X1889D02*
D03*
Y3528D02*
D03*
X1989D02*
D03*
X2089D02*
D03*
X2189D02*
D03*
Y3378D02*
D03*
X2089D02*
D03*
X1989D02*
D03*
X1886D02*
D03*
Y3273D02*
D03*
X1989Y3278D02*
D03*
X2089D02*
D03*
X2189D02*
D03*
Y2878D02*
D03*
X2089D02*
D03*
X1989D02*
D03*
X1889D02*
D03*
Y2778D02*
D03*
X1989D02*
D03*
X2089D02*
D03*
X2189D02*
D03*
Y3028D02*
D03*
X2089D02*
D03*
X1989D02*
D03*
X1889D02*
D03*
Y3128D02*
D03*
X1989D02*
D03*
X2089D02*
D03*
X2189D02*
D03*
X460Y2778D02*
D03*
X560D02*
D03*
X660D02*
D03*
X760D02*
D03*
Y2878D02*
D03*
X660D02*
D03*
X560D02*
D03*
X460D02*
D03*
Y3028D02*
D03*
X560D02*
D03*
X660D02*
D03*
X760D02*
D03*
Y3128D02*
D03*
X660D02*
D03*
X560D02*
D03*
X460D02*
D03*
Y3278D02*
D03*
X560D02*
D03*
X660D02*
D03*
X760D02*
D03*
Y3378D02*
D03*
X660D02*
D03*
X560D02*
D03*
X460D02*
D03*
Y3528D02*
D03*
X560D02*
D03*
X660D02*
D03*
X760D02*
D03*
Y3628D02*
D03*
X660D02*
D03*
X560D02*
D03*
X460D02*
D03*
Y3778D02*
D03*
X560D02*
D03*
X660D02*
D03*
X760D02*
D03*
Y3878D02*
D03*
X660D02*
D03*
X560D02*
D03*
X460D02*
D03*
Y4028D02*
D03*
X560D02*
D03*
X660D02*
D03*
X760D02*
D03*
Y4128D02*
D03*
X660D02*
D03*
X560D02*
D03*
X460D02*
D03*
M02*
