G75*
%MOIN*%
%OFA0B0*%
%FSLAX25Y25*%
%IPPOS*%
%LPD*%
%AMOC8*
5,1,8,0,0,1.08239X$1,22.5*
%
%ADD10C,0.00000*%
D10*
X0035095Y0032058D02*
X0035095Y0176433D01*
X0035097Y0176531D01*
X0035103Y0176629D01*
X0035112Y0176727D01*
X0035126Y0176824D01*
X0035143Y0176921D01*
X0035164Y0177017D01*
X0035189Y0177112D01*
X0035217Y0177206D01*
X0035250Y0177298D01*
X0035285Y0177390D01*
X0035325Y0177480D01*
X0035367Y0177568D01*
X0035414Y0177655D01*
X0035463Y0177739D01*
X0035516Y0177822D01*
X0035572Y0177902D01*
X0035632Y0177981D01*
X0035694Y0178057D01*
X0035759Y0178130D01*
X0035827Y0178201D01*
X0035898Y0178269D01*
X0035971Y0178334D01*
X0036047Y0178396D01*
X0036126Y0178456D01*
X0036206Y0178512D01*
X0036289Y0178565D01*
X0036373Y0178614D01*
X0036460Y0178661D01*
X0036548Y0178703D01*
X0036638Y0178743D01*
X0036730Y0178778D01*
X0036822Y0178811D01*
X0036916Y0178839D01*
X0037011Y0178864D01*
X0037107Y0178885D01*
X0037204Y0178902D01*
X0037301Y0178916D01*
X0037399Y0178925D01*
X0037497Y0178931D01*
X0037595Y0178933D01*
X0092595Y0178933D01*
X0092693Y0178931D01*
X0092791Y0178925D01*
X0092889Y0178916D01*
X0092986Y0178902D01*
X0093083Y0178885D01*
X0093179Y0178864D01*
X0093274Y0178839D01*
X0093368Y0178811D01*
X0093460Y0178778D01*
X0093552Y0178743D01*
X0093642Y0178703D01*
X0093730Y0178661D01*
X0093817Y0178614D01*
X0093901Y0178565D01*
X0093984Y0178512D01*
X0094064Y0178456D01*
X0094143Y0178396D01*
X0094219Y0178334D01*
X0094292Y0178269D01*
X0094363Y0178201D01*
X0094431Y0178130D01*
X0094496Y0178057D01*
X0094558Y0177981D01*
X0094618Y0177902D01*
X0094674Y0177822D01*
X0094727Y0177739D01*
X0094776Y0177655D01*
X0094823Y0177568D01*
X0094865Y0177480D01*
X0094905Y0177390D01*
X0094940Y0177298D01*
X0094973Y0177206D01*
X0095001Y0177112D01*
X0095026Y0177017D01*
X0095047Y0176921D01*
X0095064Y0176824D01*
X0095078Y0176727D01*
X0095087Y0176629D01*
X0095093Y0176531D01*
X0095095Y0176433D01*
X0095095Y0032058D01*
X0095093Y0031960D01*
X0095087Y0031862D01*
X0095078Y0031764D01*
X0095064Y0031667D01*
X0095047Y0031570D01*
X0095026Y0031474D01*
X0095001Y0031379D01*
X0094973Y0031285D01*
X0094940Y0031193D01*
X0094905Y0031101D01*
X0094865Y0031011D01*
X0094823Y0030923D01*
X0094776Y0030836D01*
X0094727Y0030752D01*
X0094674Y0030669D01*
X0094618Y0030589D01*
X0094558Y0030510D01*
X0094496Y0030434D01*
X0094431Y0030361D01*
X0094363Y0030290D01*
X0094292Y0030222D01*
X0094219Y0030157D01*
X0094143Y0030095D01*
X0094064Y0030035D01*
X0093984Y0029979D01*
X0093901Y0029926D01*
X0093817Y0029877D01*
X0093730Y0029830D01*
X0093642Y0029788D01*
X0093552Y0029748D01*
X0093460Y0029713D01*
X0093368Y0029680D01*
X0093274Y0029652D01*
X0093179Y0029627D01*
X0093083Y0029606D01*
X0092986Y0029589D01*
X0092889Y0029575D01*
X0092791Y0029566D01*
X0092693Y0029560D01*
X0092595Y0029558D01*
X0037595Y0029558D01*
X0037497Y0029560D01*
X0037399Y0029566D01*
X0037301Y0029575D01*
X0037204Y0029589D01*
X0037107Y0029606D01*
X0037011Y0029627D01*
X0036916Y0029652D01*
X0036822Y0029680D01*
X0036730Y0029713D01*
X0036638Y0029748D01*
X0036548Y0029788D01*
X0036460Y0029830D01*
X0036373Y0029877D01*
X0036289Y0029926D01*
X0036206Y0029979D01*
X0036126Y0030035D01*
X0036047Y0030095D01*
X0035971Y0030157D01*
X0035898Y0030222D01*
X0035827Y0030290D01*
X0035759Y0030361D01*
X0035694Y0030434D01*
X0035632Y0030510D01*
X0035572Y0030589D01*
X0035516Y0030669D01*
X0035463Y0030752D01*
X0035414Y0030836D01*
X0035367Y0030923D01*
X0035325Y0031011D01*
X0035285Y0031101D01*
X0035250Y0031193D01*
X0035217Y0031285D01*
X0035189Y0031379D01*
X0035164Y0031474D01*
X0035143Y0031570D01*
X0035126Y0031667D01*
X0035112Y0031764D01*
X0035103Y0031862D01*
X0035097Y0031960D01*
X0035095Y0032058D01*
M02*
