G75*
%MOIN*%
%OFA0B0*%
%FSLAX25Y25*%
%IPPOS*%
%LPD*%
%AMOC8*
5,1,8,0,0,1.08239X$1,22.5*
%
%ADD10C,0.00000*%
%ADD11C,0.00500*%
%ADD12R,0.00286X0.01140*%
%ADD13R,0.00285X0.01140*%
%ADD14R,0.00286X0.02280*%
%ADD15R,0.00286X0.03140*%
%ADD16R,0.00286X0.02570*%
%ADD17R,0.00286X0.01430*%
%ADD18R,0.00286X0.01420*%
%ADD19R,0.00286X0.01710*%
%ADD20R,0.00286X0.00860*%
%ADD21R,0.00286X0.02000*%
%ADD22R,0.00286X0.02860*%
%ADD23R,0.00286X0.03720*%
%ADD24R,0.00286X0.03430*%
%ADD25R,0.00286X0.02570*%
%ADD26R,0.00286X0.01150*%
%ADD27R,0.00286X0.03710*%
%ADD28R,0.00286X0.02290*%
%ADD29R,0.00285X0.03430*%
%ADD30R,0.00285X0.04000*%
%ADD31R,0.00285X0.00290*%
%ADD32R,0.00285X0.00280*%
%ADD33R,0.00285X0.03720*%
%ADD34R,0.00285X0.01430*%
%ADD35R,0.00285X0.01720*%
%ADD36R,0.00285X0.04290*%
%ADD37R,0.00285X0.02000*%
%ADD38R,0.00286X0.01720*%
%ADD39R,0.00286X0.00580*%
%ADD40R,0.00286X0.00280*%
%ADD41R,0.00286X0.01140*%
%ADD42R,0.00286X0.00570*%
%ADD43R,0.00285X0.01420*%
%ADD44R,0.00285X0.01150*%
%ADD45R,0.00286X0.04000*%
%ADD46R,0.00286X0.04290*%
%ADD47R,0.00285X0.02290*%
%ADD48R,0.00285X0.02570*%
%ADD49R,0.00285X0.01140*%
%ADD50R,0.00286X0.04570*%
%ADD51R,0.00285X0.02280*%
%ADD52R,0.00285X0.01710*%
%ADD53R,0.00285X0.04570*%
%ADD54R,0.00286X0.01720*%
%ADD55R,0.00286X0.02850*%
%ADD56R,0.00285X0.03140*%
%ADD57R,0.00285X0.02860*%
%ADD58R,0.00286X0.00570*%
%ADD59R,0.00286X0.00850*%
%ADD60R,0.00286X0.03420*%
%ADD61R,0.00285X0.05430*%
%ADD62R,0.00285X0.03710*%
%ADD63R,0.00285X0.05140*%
%ADD64R,0.00285X0.04860*%
%ADD65R,0.00286X0.06850*%
%ADD66R,0.00286X0.05140*%
%ADD67R,0.00286X0.06570*%
%ADD68R,0.00286X0.06280*%
%ADD69R,0.00286X0.08000*%
%ADD70R,0.00286X0.05710*%
%ADD71R,0.00286X0.07430*%
%ADD72R,0.00286X0.07150*%
%ADD73R,0.00285X0.08860*%
%ADD74R,0.00285X0.06290*%
%ADD75R,0.00285X0.08000*%
%ADD76R,0.00285X0.07710*%
%ADD77R,0.00286X0.09430*%
%ADD78R,0.00286X0.04280*%
%ADD79R,0.00286X0.09150*%
%ADD80R,0.00286X0.08570*%
%ADD81R,0.00286X0.09710*%
%ADD82R,0.00286X0.04570*%
%ADD83R,0.00286X0.11150*%
%ADD84R,0.00286X0.09720*%
%ADD85R,0.00286X0.03720*%
%ADD86R,0.00286X0.09140*%
%ADD87R,0.00286X0.10000*%
%ADD88R,0.00285X0.10000*%
%ADD89R,0.00285X0.04280*%
%ADD90R,0.00285X0.10570*%
%ADD91R,0.00285X0.10290*%
%ADD92R,0.00285X0.09720*%
%ADD93R,0.00286X0.04860*%
%ADD94R,0.00286X0.10570*%
%ADD95R,0.00285X0.03150*%
%ADD96R,0.00286X0.05430*%
%ADD97R,0.00286X0.04580*%
%ADD98R,0.00286X0.11430*%
%ADD99R,0.00286X0.05720*%
%ADD100R,0.00285X0.11430*%
%ADD101R,0.00285X0.05720*%
%ADD102R,0.00286X0.06000*%
%ADD103R,0.00285X0.10860*%
%ADD104R,0.00285X0.06000*%
%ADD105R,0.00286X0.10860*%
%ADD106R,0.00286X0.06290*%
%ADD107R,0.00286X0.10280*%
%ADD108R,0.00286X0.06570*%
%ADD109R,0.00285X0.10280*%
%ADD110R,0.00285X0.06570*%
%ADD111R,0.00285X0.05710*%
%ADD112R,0.00286X0.06860*%
%ADD113R,0.00286X0.11720*%
%ADD114R,0.00285X0.07140*%
%ADD115R,0.00285X0.11720*%
%ADD116R,0.00286X0.07140*%
%ADD117R,0.00285X0.07430*%
%ADD118R,0.00286X0.07720*%
%ADD119R,0.00285X0.03420*%
%ADD120R,0.00286X0.07720*%
%ADD121R,0.00286X0.05150*%
%ADD122R,0.00285X0.07150*%
%ADD123R,0.00285X0.09430*%
%ADD124R,0.00286X0.09420*%
%ADD125R,0.00286X0.08850*%
%ADD126R,0.00285X0.06860*%
%ADD127R,0.00285X0.06570*%
%ADD128R,0.00285X0.08290*%
%ADD129R,0.00286X0.07710*%
%ADD130R,0.00285X0.06280*%
%ADD131R,0.00286X0.05720*%
%ADD132R,0.00285X0.05720*%
%ADD133R,0.00285X0.09140*%
%ADD134R,0.00285X0.03140*%
%ADD135R,0.00286X0.09140*%
%ADD136R,0.00286X0.08860*%
%ADD137R,0.00286X0.04850*%
%ADD138R,0.00285X0.00570*%
%ADD139R,0.00285X0.00570*%
%ADD140R,0.00285X0.00860*%
%ADD141R,0.00286X0.08570*%
%ADD142R,0.00285X0.00850*%
%ADD143R,0.00285X0.02570*%
D10*
X0035095Y0032058D02*
X0035095Y0176433D01*
X0035097Y0176531D01*
X0035103Y0176629D01*
X0035112Y0176727D01*
X0035126Y0176824D01*
X0035143Y0176921D01*
X0035164Y0177017D01*
X0035189Y0177112D01*
X0035217Y0177206D01*
X0035250Y0177298D01*
X0035285Y0177390D01*
X0035325Y0177480D01*
X0035367Y0177568D01*
X0035414Y0177655D01*
X0035463Y0177739D01*
X0035516Y0177822D01*
X0035572Y0177902D01*
X0035632Y0177981D01*
X0035694Y0178057D01*
X0035759Y0178130D01*
X0035827Y0178201D01*
X0035898Y0178269D01*
X0035971Y0178334D01*
X0036047Y0178396D01*
X0036126Y0178456D01*
X0036206Y0178512D01*
X0036289Y0178565D01*
X0036373Y0178614D01*
X0036460Y0178661D01*
X0036548Y0178703D01*
X0036638Y0178743D01*
X0036730Y0178778D01*
X0036822Y0178811D01*
X0036916Y0178839D01*
X0037011Y0178864D01*
X0037107Y0178885D01*
X0037204Y0178902D01*
X0037301Y0178916D01*
X0037399Y0178925D01*
X0037497Y0178931D01*
X0037595Y0178933D01*
X0092595Y0178933D01*
X0092693Y0178931D01*
X0092791Y0178925D01*
X0092889Y0178916D01*
X0092986Y0178902D01*
X0093083Y0178885D01*
X0093179Y0178864D01*
X0093274Y0178839D01*
X0093368Y0178811D01*
X0093460Y0178778D01*
X0093552Y0178743D01*
X0093642Y0178703D01*
X0093730Y0178661D01*
X0093817Y0178614D01*
X0093901Y0178565D01*
X0093984Y0178512D01*
X0094064Y0178456D01*
X0094143Y0178396D01*
X0094219Y0178334D01*
X0094292Y0178269D01*
X0094363Y0178201D01*
X0094431Y0178130D01*
X0094496Y0178057D01*
X0094558Y0177981D01*
X0094618Y0177902D01*
X0094674Y0177822D01*
X0094727Y0177739D01*
X0094776Y0177655D01*
X0094823Y0177568D01*
X0094865Y0177480D01*
X0094905Y0177390D01*
X0094940Y0177298D01*
X0094973Y0177206D01*
X0095001Y0177112D01*
X0095026Y0177017D01*
X0095047Y0176921D01*
X0095064Y0176824D01*
X0095078Y0176727D01*
X0095087Y0176629D01*
X0095093Y0176531D01*
X0095095Y0176433D01*
X0095095Y0032058D01*
X0095093Y0031960D01*
X0095087Y0031862D01*
X0095078Y0031764D01*
X0095064Y0031667D01*
X0095047Y0031570D01*
X0095026Y0031474D01*
X0095001Y0031379D01*
X0094973Y0031285D01*
X0094940Y0031193D01*
X0094905Y0031101D01*
X0094865Y0031011D01*
X0094823Y0030923D01*
X0094776Y0030836D01*
X0094727Y0030752D01*
X0094674Y0030669D01*
X0094618Y0030589D01*
X0094558Y0030510D01*
X0094496Y0030434D01*
X0094431Y0030361D01*
X0094363Y0030290D01*
X0094292Y0030222D01*
X0094219Y0030157D01*
X0094143Y0030095D01*
X0094064Y0030035D01*
X0093984Y0029979D01*
X0093901Y0029926D01*
X0093817Y0029877D01*
X0093730Y0029830D01*
X0093642Y0029788D01*
X0093552Y0029748D01*
X0093460Y0029713D01*
X0093368Y0029680D01*
X0093274Y0029652D01*
X0093179Y0029627D01*
X0093083Y0029606D01*
X0092986Y0029589D01*
X0092889Y0029575D01*
X0092791Y0029566D01*
X0092693Y0029560D01*
X0092595Y0029558D01*
X0037595Y0029558D01*
X0037497Y0029560D01*
X0037399Y0029566D01*
X0037301Y0029575D01*
X0037204Y0029589D01*
X0037107Y0029606D01*
X0037011Y0029627D01*
X0036916Y0029652D01*
X0036822Y0029680D01*
X0036730Y0029713D01*
X0036638Y0029748D01*
X0036548Y0029788D01*
X0036460Y0029830D01*
X0036373Y0029877D01*
X0036289Y0029926D01*
X0036206Y0029979D01*
X0036126Y0030035D01*
X0036047Y0030095D01*
X0035971Y0030157D01*
X0035898Y0030222D01*
X0035827Y0030290D01*
X0035759Y0030361D01*
X0035694Y0030434D01*
X0035632Y0030510D01*
X0035572Y0030589D01*
X0035516Y0030669D01*
X0035463Y0030752D01*
X0035414Y0030836D01*
X0035367Y0030923D01*
X0035325Y0031011D01*
X0035285Y0031101D01*
X0035250Y0031193D01*
X0035217Y0031285D01*
X0035189Y0031379D01*
X0035164Y0031474D01*
X0035143Y0031570D01*
X0035126Y0031667D01*
X0035112Y0031764D01*
X0035103Y0031862D01*
X0035097Y0031960D01*
X0035095Y0032058D01*
D11*
X0036319Y0032308D02*
X0039022Y0032308D01*
X0039022Y0033659D01*
X0038571Y0034110D01*
X0037671Y0034110D01*
X0037220Y0033659D01*
X0037220Y0032308D01*
X0037220Y0035255D02*
X0039022Y0035255D01*
X0039022Y0036155D02*
X0038121Y0035255D01*
X0039022Y0036155D02*
X0039022Y0036606D01*
X0038571Y0037710D02*
X0037671Y0037710D01*
X0037220Y0038160D01*
X0037220Y0039061D01*
X0037671Y0039512D01*
X0038571Y0039512D01*
X0039022Y0039061D01*
X0039022Y0038160D01*
X0038571Y0037710D01*
X0039022Y0040657D02*
X0039022Y0041557D01*
X0039472Y0041107D02*
X0037671Y0041107D01*
X0037220Y0041557D01*
X0037671Y0042621D02*
X0037220Y0043071D01*
X0037220Y0043972D01*
X0037671Y0044422D01*
X0038571Y0044422D01*
X0039022Y0043972D01*
X0039022Y0043071D01*
X0038571Y0042621D01*
X0037671Y0042621D01*
X0038571Y0045567D02*
X0038571Y0046468D01*
X0039472Y0046018D02*
X0037220Y0046018D01*
X0037671Y0047532D02*
X0037220Y0047982D01*
X0037220Y0049333D01*
X0039022Y0049333D01*
X0038571Y0050478D02*
X0039022Y0050929D01*
X0039022Y0052280D01*
X0038121Y0051829D02*
X0038121Y0050929D01*
X0038571Y0050478D01*
X0037220Y0050478D02*
X0037220Y0051829D01*
X0037671Y0052280D01*
X0038121Y0051829D01*
X0039022Y0053425D02*
X0039022Y0053875D01*
X0037220Y0053875D01*
X0037220Y0053425D02*
X0037220Y0054326D01*
X0037671Y0055389D02*
X0037220Y0055840D01*
X0037220Y0056740D01*
X0037671Y0057191D01*
X0038571Y0057191D01*
X0039022Y0056740D01*
X0039022Y0055840D01*
X0038571Y0055389D01*
X0037671Y0055389D01*
X0039922Y0053875D02*
X0040373Y0053875D01*
X0039022Y0058336D02*
X0037220Y0058336D01*
X0037220Y0060137D02*
X0038571Y0060137D01*
X0039022Y0059687D01*
X0039022Y0058336D01*
X0037671Y0061282D02*
X0037671Y0061733D01*
X0037220Y0061733D01*
X0037220Y0061282D01*
X0037671Y0061282D01*
X0037671Y0062755D02*
X0037220Y0063206D01*
X0037220Y0064107D01*
X0037671Y0064557D01*
X0038571Y0064557D01*
X0039022Y0064107D01*
X0039022Y0063206D01*
X0038571Y0062755D01*
X0037671Y0062755D01*
X0038121Y0065702D02*
X0039022Y0066603D01*
X0039022Y0067053D01*
X0038571Y0068157D02*
X0037671Y0068157D01*
X0037220Y0068608D01*
X0037220Y0069959D01*
X0036770Y0069959D02*
X0039022Y0069959D01*
X0039022Y0068608D01*
X0038571Y0068157D01*
X0037220Y0071104D02*
X0039922Y0072905D01*
X0038571Y0074050D02*
X0039022Y0074501D01*
X0039022Y0075852D01*
X0039022Y0077447D02*
X0039022Y0078348D01*
X0038571Y0078798D01*
X0037220Y0078798D01*
X0037220Y0077447D01*
X0037671Y0076997D01*
X0038121Y0077447D01*
X0038121Y0078798D01*
X0039022Y0079943D02*
X0039022Y0081295D01*
X0038571Y0081745D01*
X0037220Y0081745D01*
X0037671Y0082890D02*
X0038121Y0083340D01*
X0038121Y0084691D01*
X0038571Y0084691D02*
X0037220Y0084691D01*
X0037220Y0083340D01*
X0037671Y0082890D01*
X0039022Y0083340D02*
X0039022Y0084241D01*
X0038571Y0084691D01*
X0039022Y0085836D02*
X0039022Y0087188D01*
X0038571Y0087638D01*
X0037671Y0087638D01*
X0037220Y0087188D01*
X0037220Y0085836D01*
X0039922Y0085836D01*
X0039922Y0088783D02*
X0039922Y0089233D01*
X0037220Y0089233D01*
X0037220Y0088783D02*
X0037220Y0089684D01*
X0037671Y0090747D02*
X0038571Y0090747D01*
X0039022Y0091198D01*
X0039022Y0092098D01*
X0038571Y0092549D01*
X0038121Y0092549D01*
X0038121Y0090747D01*
X0037671Y0090747D02*
X0037220Y0091198D01*
X0037220Y0092098D01*
X0037220Y0079943D02*
X0039022Y0079943D01*
X0037220Y0075852D02*
X0037220Y0074501D01*
X0037671Y0074050D01*
X0038571Y0074050D01*
X0036770Y0069959D02*
X0036319Y0069509D01*
X0036319Y0069058D01*
X0037220Y0065702D02*
X0039022Y0065702D01*
X0039022Y0047532D02*
X0037671Y0047532D01*
X0039472Y0046018D02*
X0039922Y0046468D01*
X0041595Y0157856D02*
X0041595Y0159207D01*
X0042496Y0158757D01*
X0042946Y0158757D01*
X0043397Y0159207D01*
X0043397Y0160108D01*
X0042946Y0160558D01*
X0042046Y0160558D01*
X0041595Y0160108D01*
X0041595Y0157856D02*
X0043397Y0157856D01*
X0044542Y0158757D02*
X0045442Y0160558D01*
X0046343Y0158757D01*
X0052845Y0158306D02*
X0052845Y0160108D01*
X0053296Y0160558D01*
X0054196Y0160558D01*
X0054647Y0160108D01*
X0055792Y0160558D02*
X0055792Y0158757D01*
X0056692Y0157856D01*
X0057593Y0158757D01*
X0057593Y0160558D01*
X0058738Y0160558D02*
X0058738Y0157856D01*
X0060540Y0160558D01*
X0060540Y0157856D01*
X0061685Y0157856D02*
X0061685Y0160558D01*
X0061685Y0159207D02*
X0063486Y0159207D01*
X0063486Y0157856D02*
X0063486Y0160558D01*
X0067220Y0160108D02*
X0067220Y0158306D01*
X0067671Y0157856D01*
X0068571Y0157856D01*
X0069022Y0158306D01*
X0070167Y0158757D02*
X0071067Y0157856D01*
X0071968Y0158757D01*
X0071968Y0160558D01*
X0073113Y0160558D02*
X0073113Y0157856D01*
X0074915Y0160558D01*
X0074915Y0157856D01*
X0076060Y0157856D02*
X0076060Y0160558D01*
X0077861Y0160558D01*
X0082845Y0160108D02*
X0082845Y0158306D01*
X0083296Y0157856D01*
X0084196Y0157856D01*
X0084647Y0158306D01*
X0084647Y0159207D02*
X0083746Y0159207D01*
X0084647Y0159207D02*
X0084647Y0160108D01*
X0084196Y0160558D01*
X0083296Y0160558D01*
X0082845Y0160108D01*
X0085792Y0160558D02*
X0085792Y0157856D01*
X0087593Y0160558D01*
X0087593Y0157856D01*
X0088738Y0157856D02*
X0090089Y0157856D01*
X0090540Y0158306D01*
X0090540Y0160108D01*
X0090089Y0160558D01*
X0088738Y0160558D01*
X0088738Y0157856D01*
X0071968Y0159207D02*
X0070167Y0159207D01*
X0070167Y0158757D02*
X0070167Y0160558D01*
X0069022Y0160108D02*
X0068571Y0160558D01*
X0067671Y0160558D01*
X0067220Y0160108D01*
X0057593Y0159207D02*
X0055792Y0159207D01*
X0054647Y0158306D02*
X0054196Y0157856D01*
X0053296Y0157856D01*
X0052845Y0158306D01*
D12*
X0052845Y0120238D03*
X0052559Y0120238D03*
X0051988Y0120238D03*
X0051702Y0120238D03*
X0051131Y0120238D03*
X0050845Y0120238D03*
X0051702Y0117378D03*
X0053131Y0120238D03*
X0053702Y0120238D03*
X0053988Y0120238D03*
X0054559Y0120238D03*
X0054845Y0120238D03*
X0054845Y0117668D03*
X0055131Y0117668D03*
X0055131Y0111378D03*
X0054845Y0111378D03*
X0054559Y0111378D03*
X0053988Y0111378D03*
X0053702Y0111378D03*
X0053131Y0111378D03*
X0052845Y0111378D03*
X0052559Y0111378D03*
X0051988Y0111378D03*
X0051702Y0111378D03*
X0050845Y0105378D03*
X0050559Y0105378D03*
X0049988Y0105378D03*
X0049702Y0105378D03*
X0049131Y0105378D03*
X0048845Y0105378D03*
X0052559Y0105378D03*
X0052845Y0105378D03*
X0053131Y0105378D03*
X0053702Y0105378D03*
X0053988Y0105378D03*
X0054559Y0105378D03*
X0054845Y0105378D03*
X0054845Y0102238D03*
X0054559Y0102238D03*
X0055131Y0102238D03*
X0053131Y0102238D03*
X0052845Y0102238D03*
X0052559Y0102238D03*
X0052559Y0099378D03*
X0051988Y0099378D03*
X0052559Y0093668D03*
X0052845Y0093668D03*
X0053131Y0093668D03*
X0053702Y0093668D03*
X0053988Y0093668D03*
X0054559Y0093668D03*
X0055131Y0093948D03*
X0055131Y0090238D03*
X0055702Y0090238D03*
X0052559Y0087948D03*
X0051988Y0087668D03*
X0051702Y0087668D03*
X0051131Y0087378D03*
X0050845Y0087378D03*
X0051702Y0091378D03*
X0050845Y0091668D03*
X0054845Y0079668D03*
X0055131Y0079668D03*
X0057988Y0078238D03*
X0055702Y0074238D03*
X0057702Y0073668D03*
X0057988Y0073668D03*
X0055131Y0066238D03*
X0054845Y0066238D03*
X0054559Y0066238D03*
X0053988Y0066238D03*
X0053702Y0066238D03*
X0053131Y0066238D03*
X0051702Y0069378D03*
X0051988Y0075378D03*
X0051131Y0075668D03*
X0052559Y0053378D03*
X0052845Y0053378D03*
X0053131Y0053378D03*
X0051988Y0047378D03*
X0052559Y0041948D03*
X0052845Y0041948D03*
X0053131Y0041948D03*
X0057988Y0041948D03*
X0064845Y0045948D03*
X0057131Y0111378D03*
X0056845Y0111378D03*
X0056559Y0111378D03*
X0081131Y0125948D03*
D13*
X0076274Y0129948D03*
X0056274Y0120238D03*
X0054274Y0120238D03*
X0053417Y0120238D03*
X0052274Y0120238D03*
X0051417Y0120238D03*
X0052274Y0111378D03*
X0053417Y0111378D03*
X0054274Y0111378D03*
X0054274Y0105378D03*
X0053417Y0105378D03*
X0050274Y0105378D03*
X0049417Y0105378D03*
X0052274Y0099378D03*
X0053417Y0093668D03*
X0054274Y0093668D03*
X0055417Y0090238D03*
X0054274Y0079948D03*
X0052274Y0075378D03*
X0051417Y0075668D03*
X0052274Y0071948D03*
X0051417Y0071668D03*
X0053417Y0066238D03*
X0054274Y0066238D03*
X0055417Y0066238D03*
X0055417Y0062238D03*
X0053417Y0053378D03*
X0053417Y0041948D03*
X0056274Y0105378D03*
D14*
X0055988Y0089378D03*
X0071702Y0080808D03*
X0050845Y0040238D03*
D15*
X0051131Y0040378D03*
X0050845Y0051238D03*
X0061131Y0117238D03*
X0075988Y0133238D03*
D16*
X0051131Y0100383D03*
X0061131Y0082093D03*
X0050845Y0068383D03*
X0064559Y0045523D03*
D17*
X0057702Y0042093D03*
X0057131Y0042093D03*
X0056845Y0042093D03*
X0056559Y0042093D03*
X0055988Y0042093D03*
X0055702Y0042093D03*
X0055131Y0042093D03*
X0054845Y0042093D03*
X0054559Y0042093D03*
X0053988Y0042093D03*
X0053702Y0042093D03*
X0055988Y0044663D03*
X0056559Y0044663D03*
X0057131Y0047233D03*
X0056845Y0050093D03*
X0056559Y0050093D03*
X0055988Y0050093D03*
X0055702Y0050093D03*
X0055131Y0050093D03*
X0053988Y0050093D03*
X0053702Y0050093D03*
X0053131Y0050093D03*
X0052845Y0050093D03*
X0052559Y0050093D03*
X0051988Y0050093D03*
X0052559Y0047523D03*
X0052845Y0047523D03*
X0053131Y0047523D03*
X0053702Y0053233D03*
X0053702Y0055523D03*
X0052845Y0056093D03*
X0052559Y0056383D03*
X0051988Y0056953D03*
X0051988Y0062383D03*
X0052559Y0062953D03*
X0052845Y0063233D03*
X0053131Y0063523D03*
X0053988Y0063523D03*
X0054559Y0062953D03*
X0054845Y0062663D03*
X0055131Y0062383D03*
X0055702Y0066383D03*
X0055988Y0066383D03*
X0056559Y0066663D03*
X0056845Y0066953D03*
X0052845Y0066383D03*
X0052559Y0066383D03*
X0051988Y0066663D03*
X0051131Y0071523D03*
X0050845Y0071523D03*
X0052559Y0072093D03*
X0052845Y0072093D03*
X0052845Y0074953D03*
X0052559Y0075233D03*
X0051702Y0075523D03*
X0051702Y0078093D03*
X0051988Y0078093D03*
X0052559Y0078093D03*
X0052845Y0078093D03*
X0053131Y0078093D03*
X0053702Y0078093D03*
X0053988Y0078093D03*
X0054559Y0078093D03*
X0054845Y0078093D03*
X0055131Y0078093D03*
X0054559Y0074663D03*
X0051131Y0078093D03*
X0050845Y0078093D03*
X0050845Y0081523D03*
X0051131Y0081523D03*
X0054559Y0081523D03*
X0054845Y0081523D03*
X0055131Y0081523D03*
X0055702Y0081523D03*
X0055988Y0081523D03*
X0056559Y0081523D03*
X0056845Y0081523D03*
X0057131Y0081523D03*
X0057702Y0081523D03*
X0053988Y0088383D03*
X0052845Y0088093D03*
X0053988Y0090663D03*
X0052845Y0090953D03*
X0051988Y0091233D03*
X0051131Y0091523D03*
X0051702Y0094093D03*
X0051988Y0096663D03*
X0051702Y0099523D03*
X0051988Y0102093D03*
X0051131Y0102663D03*
X0050845Y0102953D03*
X0051988Y0105523D03*
X0051702Y0108093D03*
X0051988Y0108383D03*
X0053131Y0108663D03*
X0053702Y0108663D03*
X0053988Y0108663D03*
X0055131Y0108383D03*
X0055131Y0105523D03*
X0054845Y0114663D03*
X0051702Y0114953D03*
X0055131Y0120383D03*
X0057131Y0089523D03*
X0057702Y0089523D03*
X0056559Y0052953D03*
X0056845Y0052663D03*
X0055988Y0052953D03*
X0051988Y0038953D03*
X0052559Y0038663D03*
X0081702Y0133233D03*
D18*
X0054845Y0093808D03*
X0051988Y0093808D03*
X0052845Y0099808D03*
X0054559Y0079808D03*
X0050845Y0075808D03*
X0051702Y0071808D03*
X0051988Y0071808D03*
X0053702Y0063808D03*
X0053988Y0055808D03*
X0053131Y0055808D03*
X0051988Y0041808D03*
D19*
X0051702Y0039093D03*
X0051702Y0047093D03*
X0051988Y0053093D03*
X0054845Y0056523D03*
X0051702Y0067093D03*
X0056845Y0073663D03*
X0057131Y0073663D03*
X0050845Y0095093D03*
X0051702Y0101953D03*
X0051702Y0105663D03*
X0057131Y0045093D03*
D20*
X0051702Y0056948D03*
X0051702Y0062378D03*
X0071131Y0080378D03*
X0075131Y0098668D03*
X0075131Y0117808D03*
X0076559Y0125808D03*
X0076559Y0129808D03*
X0075988Y0129808D03*
X0076845Y0132378D03*
X0077131Y0132378D03*
X0077702Y0132948D03*
X0077988Y0133238D03*
X0078845Y0133808D03*
X0079702Y0134378D03*
X0079988Y0134378D03*
X0080559Y0134378D03*
X0080845Y0134378D03*
X0081131Y0127238D03*
X0081702Y0126668D03*
X0079988Y0125238D03*
X0050845Y0097238D03*
D21*
X0051702Y0096668D03*
X0053131Y0100098D03*
X0053988Y0101808D03*
X0050845Y0100378D03*
X0050845Y0107238D03*
X0050845Y0112098D03*
X0050845Y0116098D03*
X0064559Y0120668D03*
X0056559Y0089518D03*
X0061131Y0088098D03*
X0057131Y0078378D03*
X0056845Y0078378D03*
X0056559Y0073518D03*
X0052559Y0081238D03*
X0051702Y0052668D03*
X0053988Y0052668D03*
X0053702Y0046948D03*
X0053988Y0046668D03*
X0054845Y0045518D03*
X0055131Y0045238D03*
X0057988Y0046098D03*
D22*
X0057702Y0046238D03*
X0051131Y0045948D03*
X0053988Y0080808D03*
X0053702Y0101378D03*
X0055702Y0111378D03*
X0055988Y0111378D03*
X0055988Y0116238D03*
X0051131Y0116238D03*
X0074845Y0098808D03*
D23*
X0066559Y0080378D03*
X0068559Y0058378D03*
X0068845Y0058378D03*
X0071702Y0053238D03*
X0068559Y0052378D03*
X0054559Y0051238D03*
X0051131Y0051238D03*
X0070559Y0121238D03*
X0070845Y0121238D03*
D24*
X0071131Y0121093D03*
X0061131Y0097383D03*
X0055702Y0101093D03*
X0055702Y0116233D03*
X0057702Y0068523D03*
X0051131Y0068523D03*
X0054845Y0051093D03*
X0057702Y0051093D03*
X0068845Y0052523D03*
X0070845Y0053093D03*
X0071131Y0053093D03*
X0071988Y0053383D03*
X0072559Y0053383D03*
X0072559Y0057383D03*
X0072845Y0057383D03*
X0071702Y0057663D03*
X0071131Y0057663D03*
X0070559Y0057953D03*
X0069131Y0058233D03*
X0070559Y0069953D03*
D25*
X0057988Y0050663D03*
X0055988Y0078663D03*
X0055702Y0078663D03*
X0053702Y0080953D03*
X0051131Y0094953D03*
X0055702Y0120953D03*
D26*
X0053131Y0114523D03*
X0052845Y0114523D03*
X0052559Y0114523D03*
X0052559Y0108523D03*
X0052845Y0108523D03*
X0054559Y0108523D03*
X0054845Y0108523D03*
X0051131Y0097093D03*
X0052559Y0091093D03*
X0054559Y0090523D03*
X0054845Y0090523D03*
X0054845Y0088523D03*
X0054559Y0088523D03*
X0055131Y0088523D03*
X0055131Y0074523D03*
X0054845Y0074523D03*
X0054559Y0072523D03*
X0053988Y0072523D03*
X0051702Y0045093D03*
X0052845Y0038523D03*
X0053131Y0038523D03*
X0053702Y0038523D03*
X0053988Y0038523D03*
X0054559Y0038523D03*
X0054845Y0038523D03*
X0055131Y0038523D03*
X0055702Y0038523D03*
X0055988Y0038523D03*
X0056559Y0038523D03*
X0056845Y0038523D03*
X0057131Y0038523D03*
X0057702Y0038523D03*
X0057988Y0038523D03*
X0075988Y0126523D03*
D27*
X0071702Y0120953D03*
X0071988Y0120663D03*
X0066559Y0113523D03*
X0065988Y0113523D03*
X0064559Y0107523D03*
X0061702Y0108093D03*
X0055988Y0106663D03*
X0051131Y0106663D03*
X0055702Y0095523D03*
X0055988Y0095523D03*
X0053702Y0089523D03*
X0061702Y0088093D03*
X0065702Y0086953D03*
X0065988Y0086953D03*
X0066559Y0086953D03*
X0066845Y0086953D03*
X0067131Y0086953D03*
X0070559Y0086953D03*
X0070845Y0086953D03*
X0071131Y0086953D03*
X0071988Y0081523D03*
X0065988Y0080093D03*
X0065702Y0080093D03*
X0065131Y0080093D03*
X0064845Y0080093D03*
X0064559Y0080093D03*
X0057131Y0068093D03*
X0053702Y0073523D03*
X0069702Y0058093D03*
X0069988Y0058093D03*
X0071988Y0057523D03*
X0072845Y0053523D03*
X0070559Y0052953D03*
X0069702Y0052663D03*
X0069131Y0052663D03*
X0078559Y0074093D03*
X0066845Y0101523D03*
D28*
X0056559Y0078523D03*
X0053131Y0081093D03*
X0052845Y0081093D03*
X0055988Y0073663D03*
X0057988Y0068523D03*
X0053988Y0059663D03*
X0053702Y0059663D03*
X0054559Y0045953D03*
X0051131Y0111953D03*
D29*
X0051417Y0116233D03*
X0053417Y0101093D03*
X0061417Y0088233D03*
X0068274Y0058523D03*
X0069417Y0058233D03*
X0070274Y0057953D03*
X0071417Y0057663D03*
X0072274Y0057383D03*
X0072274Y0053383D03*
X0071417Y0053093D03*
X0057417Y0046233D03*
X0051417Y0045953D03*
X0051417Y0040233D03*
D30*
X0051417Y0051378D03*
X0054274Y0051378D03*
X0062274Y0059948D03*
X0063417Y0059668D03*
X0064274Y0059378D03*
X0064274Y0065948D03*
X0063417Y0065948D03*
X0062274Y0065948D03*
X0061417Y0065948D03*
X0065417Y0065948D03*
X0066274Y0065948D03*
X0067417Y0065948D03*
X0068274Y0065948D03*
X0069417Y0065948D03*
X0070274Y0065948D03*
X0078274Y0055378D03*
X0070274Y0037668D03*
X0069417Y0037668D03*
X0067417Y0037948D03*
X0066274Y0038238D03*
X0053417Y0073668D03*
X0053417Y0089378D03*
X0051417Y0101098D03*
X0051417Y0106808D03*
X0062274Y0107948D03*
X0063417Y0107668D03*
X0065417Y0107378D03*
X0066274Y0107378D03*
X0067417Y0107378D03*
X0068274Y0107378D03*
X0069417Y0107378D03*
X0070274Y0107378D03*
X0071417Y0107378D03*
X0072274Y0107378D03*
X0073417Y0107378D03*
X0074274Y0107378D03*
X0075417Y0107378D03*
X0076274Y0107378D03*
X0077417Y0107378D03*
X0078274Y0107378D03*
X0079417Y0107378D03*
X0080274Y0107378D03*
X0080274Y0093948D03*
X0079417Y0093948D03*
X0078274Y0093948D03*
X0077417Y0093948D03*
X0076274Y0093948D03*
X0075417Y0093948D03*
X0074274Y0093948D03*
X0070274Y0093948D03*
X0069417Y0093948D03*
X0068274Y0093948D03*
X0067417Y0093948D03*
X0066274Y0093948D03*
X0065417Y0093948D03*
X0062274Y0087948D03*
X0065417Y0086808D03*
X0064274Y0080238D03*
X0065417Y0101098D03*
X0066274Y0101378D03*
X0067417Y0101668D03*
X0068274Y0101668D03*
X0069417Y0101668D03*
X0067417Y0113378D03*
X0065417Y0113668D03*
X0070274Y0113668D03*
X0071417Y0113948D03*
X0072274Y0120518D03*
D31*
X0055417Y0122093D03*
X0051417Y0056953D03*
D32*
X0051417Y0062378D03*
D33*
X0051417Y0068378D03*
X0057417Y0068378D03*
X0057417Y0051238D03*
X0068274Y0052378D03*
X0070274Y0121238D03*
D34*
X0055417Y0117523D03*
X0055417Y0114953D03*
X0052274Y0114663D03*
X0053417Y0108663D03*
X0054274Y0108663D03*
X0055417Y0108093D03*
X0052274Y0105523D03*
X0052274Y0102093D03*
X0054274Y0102093D03*
X0055417Y0102093D03*
X0055417Y0096663D03*
X0055417Y0094093D03*
X0057417Y0089523D03*
X0054274Y0088383D03*
X0051417Y0087523D03*
X0052274Y0091233D03*
X0051417Y0091523D03*
X0052274Y0096663D03*
X0054274Y0081523D03*
X0055417Y0081523D03*
X0056274Y0081523D03*
X0057417Y0081523D03*
X0054274Y0078093D03*
X0053417Y0078093D03*
X0052274Y0078093D03*
X0051417Y0078093D03*
X0057417Y0073523D03*
X0056274Y0066663D03*
X0054274Y0063233D03*
X0052274Y0062663D03*
X0052274Y0066663D03*
X0052274Y0056663D03*
X0053417Y0055523D03*
X0052274Y0053233D03*
X0052274Y0050093D03*
X0053417Y0050093D03*
X0052274Y0047523D03*
X0053417Y0047233D03*
X0055417Y0044953D03*
X0056274Y0044663D03*
X0056274Y0042093D03*
X0055417Y0042093D03*
X0054274Y0042093D03*
X0052274Y0038663D03*
X0057417Y0042093D03*
X0056274Y0050093D03*
X0055417Y0050093D03*
X0056274Y0052953D03*
X0055417Y0056953D03*
X0071417Y0080663D03*
D35*
X0057417Y0078238D03*
X0051417Y0081378D03*
D36*
X0051417Y0095523D03*
X0061417Y0082093D03*
X0062274Y0074093D03*
X0071417Y0074093D03*
X0072274Y0074093D03*
X0073417Y0074093D03*
X0074274Y0074093D03*
X0075417Y0074093D03*
X0076274Y0074093D03*
X0077417Y0074093D03*
X0078274Y0074093D03*
X0064274Y0051523D03*
X0062274Y0050953D03*
X0061417Y0050663D03*
X0061417Y0060093D03*
X0065417Y0038663D03*
X0072274Y0038093D03*
X0074274Y0038663D03*
X0070274Y0101523D03*
X0072274Y0114663D03*
D37*
X0076274Y0126668D03*
X0056274Y0107238D03*
X0051417Y0111808D03*
X0056274Y0089518D03*
X0052274Y0081238D03*
D38*
X0051988Y0081378D03*
X0051702Y0081378D03*
X0056845Y0089378D03*
X0057702Y0078238D03*
X0054559Y0056238D03*
X0055131Y0052238D03*
X0051702Y0050238D03*
X0051702Y0041378D03*
D39*
X0051988Y0044808D03*
X0055702Y0056808D03*
D40*
X0055702Y0062378D03*
X0051988Y0069808D03*
X0056559Y0095238D03*
X0056559Y0101238D03*
X0056559Y0107238D03*
X0056559Y0116378D03*
X0056559Y0121808D03*
X0080845Y0131808D03*
X0070845Y0080378D03*
D41*
X0058559Y0096808D03*
X0057988Y0096808D03*
X0057702Y0096808D03*
X0057131Y0096808D03*
X0056845Y0096808D03*
X0056559Y0096808D03*
X0055131Y0096808D03*
X0054845Y0096808D03*
X0054559Y0096808D03*
X0053988Y0096808D03*
X0053702Y0096808D03*
X0053131Y0096808D03*
X0052845Y0096808D03*
X0052559Y0096808D03*
X0055702Y0088808D03*
X0053988Y0074808D03*
X0054845Y0072808D03*
X0055131Y0072808D03*
X0055702Y0072808D03*
X0055702Y0052808D03*
X0055702Y0044808D03*
X0056845Y0044808D03*
X0055131Y0114808D03*
X0051988Y0114808D03*
X0064845Y0120808D03*
D42*
X0076845Y0127663D03*
X0077131Y0127663D03*
X0077702Y0127953D03*
X0077988Y0127953D03*
X0078559Y0127953D03*
X0079131Y0127953D03*
X0079702Y0127953D03*
X0079988Y0127953D03*
X0080559Y0127663D03*
X0080845Y0125663D03*
X0055131Y0099663D03*
X0051988Y0117663D03*
X0075131Y0045953D03*
D43*
X0053417Y0063808D03*
X0052274Y0041808D03*
X0052274Y0087808D03*
X0052274Y0093808D03*
X0055417Y0099808D03*
X0056274Y0121808D03*
D44*
X0053417Y0114523D03*
X0052274Y0108523D03*
X0054274Y0090523D03*
X0055417Y0074523D03*
X0054274Y0072523D03*
X0054274Y0038523D03*
X0053417Y0038523D03*
X0055417Y0038523D03*
X0056274Y0038523D03*
X0057417Y0038523D03*
D45*
X0057131Y0051378D03*
X0061702Y0050808D03*
X0062845Y0051098D03*
X0063702Y0051378D03*
X0063988Y0051378D03*
X0064845Y0051668D03*
X0064559Y0059378D03*
X0063131Y0059668D03*
X0063131Y0065948D03*
X0062845Y0065948D03*
X0062559Y0065948D03*
X0061988Y0065948D03*
X0061702Y0065948D03*
X0063702Y0065948D03*
X0063988Y0065948D03*
X0064559Y0065948D03*
X0064845Y0065948D03*
X0065131Y0065948D03*
X0065702Y0065948D03*
X0065988Y0065948D03*
X0066559Y0065948D03*
X0066845Y0065948D03*
X0067131Y0065948D03*
X0067702Y0065948D03*
X0067988Y0065948D03*
X0068559Y0065948D03*
X0068845Y0065948D03*
X0069131Y0065948D03*
X0069702Y0065948D03*
X0069988Y0065948D03*
X0070559Y0065948D03*
X0078559Y0055378D03*
X0073131Y0038238D03*
X0071988Y0037948D03*
X0071702Y0037948D03*
X0070559Y0037668D03*
X0069988Y0037668D03*
X0069702Y0037668D03*
X0069131Y0037668D03*
X0068845Y0037668D03*
X0067988Y0037948D03*
X0067702Y0037948D03*
X0067131Y0037948D03*
X0066559Y0038238D03*
X0053131Y0073668D03*
X0061702Y0074238D03*
X0065131Y0086808D03*
X0062559Y0087668D03*
X0061988Y0087948D03*
X0064845Y0093948D03*
X0065131Y0093948D03*
X0065702Y0093948D03*
X0065988Y0093948D03*
X0066559Y0093948D03*
X0066845Y0093948D03*
X0067131Y0093948D03*
X0067702Y0093948D03*
X0067988Y0093948D03*
X0068559Y0093948D03*
X0068845Y0093948D03*
X0069131Y0093948D03*
X0069702Y0093948D03*
X0069988Y0093948D03*
X0070559Y0093948D03*
X0073988Y0093948D03*
X0074559Y0093948D03*
X0074845Y0093948D03*
X0075131Y0093948D03*
X0075702Y0093948D03*
X0075988Y0093948D03*
X0076559Y0093948D03*
X0076845Y0093948D03*
X0077131Y0093948D03*
X0077702Y0093948D03*
X0077988Y0093948D03*
X0078559Y0093948D03*
X0078845Y0093948D03*
X0079131Y0093948D03*
X0079702Y0093948D03*
X0079988Y0093948D03*
X0074559Y0098808D03*
X0070845Y0101378D03*
X0070559Y0101378D03*
X0069988Y0101668D03*
X0069702Y0101668D03*
X0069131Y0101668D03*
X0068845Y0101668D03*
X0068559Y0101668D03*
X0067988Y0101668D03*
X0067702Y0101668D03*
X0067131Y0101668D03*
X0066559Y0101378D03*
X0065988Y0101378D03*
X0065702Y0101378D03*
X0065131Y0101098D03*
X0065131Y0107378D03*
X0064845Y0107378D03*
X0065702Y0107378D03*
X0065988Y0107378D03*
X0066559Y0107378D03*
X0066845Y0107378D03*
X0067131Y0107378D03*
X0067702Y0107378D03*
X0067988Y0107378D03*
X0068559Y0107378D03*
X0068845Y0107378D03*
X0069131Y0107378D03*
X0069702Y0107378D03*
X0069988Y0107378D03*
X0070559Y0107378D03*
X0070845Y0107378D03*
X0071131Y0107378D03*
X0071702Y0107378D03*
X0071988Y0107378D03*
X0072559Y0107378D03*
X0072845Y0107378D03*
X0073131Y0107378D03*
X0073702Y0107378D03*
X0073988Y0107378D03*
X0074559Y0107378D03*
X0074845Y0107378D03*
X0075131Y0107378D03*
X0075702Y0107378D03*
X0075988Y0107378D03*
X0076559Y0107378D03*
X0076845Y0107378D03*
X0077131Y0107378D03*
X0077702Y0107378D03*
X0077988Y0107378D03*
X0078559Y0107378D03*
X0078845Y0107378D03*
X0079131Y0107378D03*
X0079702Y0107378D03*
X0079988Y0107378D03*
X0074845Y0117668D03*
X0071702Y0114238D03*
X0071131Y0113948D03*
X0070559Y0113668D03*
X0067702Y0113378D03*
X0067131Y0113378D03*
X0066845Y0113378D03*
X0065702Y0113668D03*
X0065131Y0113948D03*
X0064845Y0113948D03*
X0063988Y0107668D03*
X0063702Y0107668D03*
X0063131Y0107668D03*
X0062559Y0107948D03*
X0061988Y0107948D03*
X0055702Y0106808D03*
X0074845Y0084238D03*
D46*
X0071702Y0086663D03*
X0070845Y0094093D03*
X0064559Y0094093D03*
X0064845Y0086663D03*
X0062559Y0074093D03*
X0061988Y0074093D03*
X0070559Y0074093D03*
X0070845Y0074093D03*
X0071131Y0074093D03*
X0071702Y0074093D03*
X0071988Y0074093D03*
X0072559Y0074093D03*
X0072845Y0074093D03*
X0073131Y0074093D03*
X0073702Y0074093D03*
X0073988Y0074093D03*
X0074559Y0074093D03*
X0074845Y0074093D03*
X0075131Y0074093D03*
X0075702Y0074093D03*
X0075988Y0074093D03*
X0076559Y0074093D03*
X0076845Y0074093D03*
X0077131Y0074093D03*
X0077702Y0074093D03*
X0077988Y0074093D03*
X0078559Y0066093D03*
X0077988Y0055523D03*
X0073988Y0038663D03*
X0072845Y0038093D03*
X0072559Y0038093D03*
X0066845Y0038093D03*
X0062559Y0050953D03*
X0061988Y0050953D03*
X0064559Y0051523D03*
X0063988Y0059523D03*
X0063702Y0059523D03*
X0061988Y0060093D03*
X0061702Y0060093D03*
X0053131Y0089523D03*
X0064559Y0100663D03*
X0064845Y0100953D03*
X0064559Y0114093D03*
X0053702Y0116093D03*
D47*
X0055417Y0111663D03*
X0056274Y0101093D03*
X0056274Y0078523D03*
X0056274Y0073663D03*
X0053417Y0059663D03*
D48*
X0055417Y0078663D03*
X0053417Y0080953D03*
D49*
X0054274Y0074808D03*
X0055417Y0072808D03*
X0055417Y0088808D03*
X0054274Y0096808D03*
X0053417Y0096808D03*
X0057417Y0096808D03*
X0058274Y0096808D03*
X0055417Y0052808D03*
D50*
X0064845Y0039093D03*
X0074845Y0039093D03*
X0077702Y0055383D03*
X0077988Y0066233D03*
X0069988Y0086523D03*
X0064559Y0086523D03*
X0071131Y0094233D03*
X0054559Y0116233D03*
X0053988Y0116233D03*
D51*
X0056274Y0116238D03*
X0054274Y0046238D03*
D52*
X0054274Y0055953D03*
X0075417Y0045663D03*
X0055417Y0105663D03*
X0055417Y0120523D03*
X0081417Y0126523D03*
D53*
X0064274Y0114523D03*
X0054274Y0116233D03*
X0078274Y0066233D03*
X0077417Y0055383D03*
D54*
X0055131Y0056808D03*
D55*
X0078845Y0043093D03*
X0055988Y0101093D03*
X0055988Y0121093D03*
D56*
X0056274Y0095808D03*
D57*
X0056274Y0111378D03*
D58*
X0065131Y0121093D03*
X0077131Y0125383D03*
X0077702Y0125093D03*
X0077988Y0125093D03*
X0078559Y0125093D03*
X0078845Y0125093D03*
X0079131Y0125093D03*
X0079702Y0125093D03*
X0080559Y0125383D03*
X0076559Y0127383D03*
X0065131Y0046233D03*
X0056845Y0047383D03*
D59*
X0057988Y0081523D03*
X0057988Y0089523D03*
X0075131Y0084093D03*
X0076845Y0125523D03*
X0078845Y0128093D03*
X0080845Y0127523D03*
X0081131Y0132093D03*
X0081131Y0134093D03*
X0079131Y0134093D03*
X0078559Y0133523D03*
X0076559Y0132093D03*
D60*
X0069988Y0052808D03*
X0061131Y0042808D03*
D61*
X0061417Y0042953D03*
X0076274Y0066663D03*
D62*
X0069417Y0052663D03*
X0061417Y0074093D03*
X0065417Y0080093D03*
X0066274Y0080093D03*
X0066274Y0086953D03*
X0067417Y0086953D03*
X0070274Y0086953D03*
X0071417Y0086953D03*
X0064274Y0107523D03*
X0061417Y0108093D03*
X0066274Y0113523D03*
X0071417Y0120953D03*
D63*
X0061417Y0097378D03*
X0064274Y0086238D03*
X0064274Y0073668D03*
X0076274Y0055378D03*
X0075417Y0039668D03*
D64*
X0077417Y0066378D03*
X0063417Y0073808D03*
X0064274Y0094378D03*
X0064274Y0100378D03*
X0071417Y0094378D03*
X0074274Y0098948D03*
X0061417Y0117238D03*
D65*
X0061702Y0043093D03*
D66*
X0064559Y0039378D03*
X0076559Y0055378D03*
X0076845Y0055378D03*
X0063988Y0073668D03*
X0061702Y0081948D03*
X0069702Y0086238D03*
X0071988Y0086238D03*
X0074559Y0117668D03*
D67*
X0061702Y0097233D03*
X0069131Y0085523D03*
X0062559Y0082093D03*
X0073702Y0067233D03*
X0073988Y0055523D03*
D68*
X0074559Y0055378D03*
X0074845Y0055378D03*
X0061702Y0117378D03*
D69*
X0068559Y0084808D03*
X0073702Y0083948D03*
X0077988Y0043378D03*
X0061988Y0043098D03*
D70*
X0061988Y0081953D03*
D71*
X0068845Y0085093D03*
X0073988Y0083953D03*
X0069131Y0072523D03*
X0071702Y0067663D03*
X0061988Y0097093D03*
D72*
X0061988Y0117523D03*
X0071988Y0067523D03*
X0073131Y0055523D03*
D73*
X0077417Y0043238D03*
X0062274Y0043238D03*
X0073417Y0083808D03*
X0068274Y0084378D03*
D74*
X0062274Y0081953D03*
X0074274Y0067093D03*
X0074274Y0117663D03*
D75*
X0062274Y0097098D03*
X0070274Y0072238D03*
D76*
X0062274Y0117523D03*
D77*
X0063131Y0117523D03*
X0063702Y0117233D03*
X0072559Y0117523D03*
X0072845Y0117523D03*
X0067988Y0084093D03*
X0062559Y0043233D03*
X0075988Y0042093D03*
D78*
X0073702Y0038378D03*
X0071131Y0037808D03*
X0070845Y0037808D03*
X0068559Y0037808D03*
X0065988Y0038378D03*
X0065702Y0038378D03*
X0063131Y0051238D03*
X0064845Y0059238D03*
X0062845Y0059808D03*
X0062559Y0059808D03*
X0071131Y0101238D03*
X0071988Y0114378D03*
D79*
X0062559Y0097093D03*
X0076559Y0042523D03*
D80*
X0062559Y0117663D03*
D81*
X0063988Y0117093D03*
X0067702Y0083953D03*
X0062845Y0043093D03*
D82*
X0062845Y0073953D03*
X0063131Y0073953D03*
D83*
X0063131Y0084093D03*
X0062845Y0084093D03*
X0071988Y0097523D03*
X0065988Y0055523D03*
D84*
X0063131Y0042808D03*
X0062845Y0096808D03*
D85*
X0062845Y0107808D03*
X0070845Y0113808D03*
X0070845Y0057808D03*
D86*
X0075702Y0041948D03*
X0073131Y0083668D03*
X0062845Y0117668D03*
D87*
X0063131Y0096948D03*
X0073702Y0096948D03*
X0067988Y0055518D03*
X0063702Y0042378D03*
X0063988Y0042098D03*
D88*
X0064274Y0042098D03*
X0063417Y0042668D03*
D89*
X0068274Y0037808D03*
X0071417Y0037808D03*
X0073417Y0038378D03*
X0063417Y0051238D03*
X0071417Y0101238D03*
D90*
X0063417Y0083523D03*
D91*
X0063417Y0097093D03*
X0073417Y0097093D03*
D92*
X0063417Y0117378D03*
D93*
X0067131Y0081238D03*
X0063702Y0073808D03*
X0077131Y0066378D03*
X0077702Y0066378D03*
X0075131Y0039238D03*
D94*
X0066845Y0055523D03*
X0063988Y0083523D03*
X0063702Y0083523D03*
X0063702Y0097233D03*
X0063988Y0097233D03*
X0072845Y0097233D03*
X0073131Y0097233D03*
D95*
X0064274Y0120093D03*
D96*
X0073988Y0098953D03*
X0074559Y0084093D03*
X0064845Y0073523D03*
X0064559Y0073523D03*
X0075988Y0066663D03*
X0075988Y0055523D03*
X0078559Y0043233D03*
D97*
X0074559Y0038808D03*
X0065131Y0038808D03*
X0066845Y0080808D03*
X0071702Y0100808D03*
D98*
X0069988Y0117383D03*
X0065702Y0055383D03*
X0065131Y0055383D03*
D99*
X0075702Y0055378D03*
X0065702Y0073378D03*
X0065131Y0073378D03*
D100*
X0065417Y0055383D03*
D101*
X0075417Y0055378D03*
X0065417Y0073378D03*
D102*
X0065988Y0073238D03*
X0074559Y0066948D03*
X0074845Y0066948D03*
X0075131Y0055518D03*
D103*
X0066274Y0055378D03*
X0072274Y0097378D03*
D104*
X0069417Y0085808D03*
X0066274Y0073238D03*
D105*
X0066559Y0055378D03*
X0072559Y0097378D03*
D106*
X0066845Y0073093D03*
X0066559Y0073093D03*
X0073988Y0067093D03*
D107*
X0067702Y0055378D03*
X0067131Y0055378D03*
D108*
X0067131Y0072953D03*
D109*
X0067417Y0055378D03*
D110*
X0067417Y0072953D03*
D111*
X0067417Y0081663D03*
D112*
X0067702Y0072808D03*
X0067988Y0072808D03*
X0072559Y0067378D03*
X0072845Y0067378D03*
X0073131Y0067378D03*
X0073702Y0055378D03*
X0073988Y0117668D03*
D113*
X0069702Y0117238D03*
X0069131Y0117238D03*
X0068845Y0117238D03*
X0068559Y0117238D03*
X0067988Y0117238D03*
D114*
X0068274Y0072668D03*
D115*
X0068274Y0117238D03*
X0069417Y0117238D03*
D116*
X0068845Y0072668D03*
X0068559Y0072668D03*
D117*
X0069417Y0072523D03*
X0071417Y0067663D03*
D118*
X0069988Y0072378D03*
X0069702Y0072378D03*
D119*
X0070274Y0052808D03*
D120*
X0070845Y0067808D03*
X0071131Y0067808D03*
D121*
X0076559Y0066523D03*
X0076845Y0066523D03*
X0071702Y0094523D03*
D122*
X0072274Y0067523D03*
D123*
X0072274Y0084093D03*
D124*
X0072559Y0083808D03*
X0072845Y0083808D03*
D125*
X0073131Y0117523D03*
D126*
X0073417Y0055378D03*
X0078274Y0043378D03*
D127*
X0073417Y0067233D03*
X0074274Y0084093D03*
D128*
X0073417Y0117523D03*
D129*
X0073702Y0117523D03*
D130*
X0074274Y0055378D03*
D131*
X0075131Y0066808D03*
X0075702Y0066808D03*
D132*
X0075417Y0066808D03*
D133*
X0076274Y0042238D03*
D134*
X0076274Y0133238D03*
D135*
X0076845Y0042808D03*
D136*
X0077131Y0042948D03*
D137*
X0077131Y0055523D03*
D138*
X0078274Y0125093D03*
X0077417Y0125383D03*
X0079417Y0125093D03*
X0080274Y0125383D03*
X0078274Y0133383D03*
D139*
X0078274Y0127953D03*
X0077417Y0127953D03*
X0079417Y0127953D03*
D140*
X0080274Y0127808D03*
X0077417Y0132668D03*
X0080274Y0134378D03*
D141*
X0077702Y0043383D03*
D142*
X0079417Y0134093D03*
D143*
X0081417Y0133233D03*
M02*
