G75*
%MOIN*%
%OFA0B0*%
%FSLAX25Y25*%
%IPPOS*%
%LPD*%
%AMOC8*
5,1,8,0,0,1.08239X$1,22.5*
%
%ADD10C,0.00000*%
%ADD11C,0.00500*%
%ADD12C,0.00800*%
%ADD13C,0.02200*%
%ADD14R,0.03000X0.01800*%
%ADD15C,0.00600*%
%ADD16C,0.00787*%
%ADD17C,0.01575*%
%ADD18C,0.00200*%
D10*
X0035095Y0032058D02*
X0035095Y0176433D01*
X0035097Y0176531D01*
X0035103Y0176629D01*
X0035112Y0176727D01*
X0035126Y0176824D01*
X0035143Y0176921D01*
X0035164Y0177017D01*
X0035189Y0177112D01*
X0035217Y0177206D01*
X0035250Y0177298D01*
X0035285Y0177390D01*
X0035325Y0177480D01*
X0035367Y0177568D01*
X0035414Y0177655D01*
X0035463Y0177739D01*
X0035516Y0177822D01*
X0035572Y0177902D01*
X0035632Y0177981D01*
X0035694Y0178057D01*
X0035759Y0178130D01*
X0035827Y0178201D01*
X0035898Y0178269D01*
X0035971Y0178334D01*
X0036047Y0178396D01*
X0036126Y0178456D01*
X0036206Y0178512D01*
X0036289Y0178565D01*
X0036373Y0178614D01*
X0036460Y0178661D01*
X0036548Y0178703D01*
X0036638Y0178743D01*
X0036730Y0178778D01*
X0036822Y0178811D01*
X0036916Y0178839D01*
X0037011Y0178864D01*
X0037107Y0178885D01*
X0037204Y0178902D01*
X0037301Y0178916D01*
X0037399Y0178925D01*
X0037497Y0178931D01*
X0037595Y0178933D01*
X0092595Y0178933D01*
X0092693Y0178931D01*
X0092791Y0178925D01*
X0092889Y0178916D01*
X0092986Y0178902D01*
X0093083Y0178885D01*
X0093179Y0178864D01*
X0093274Y0178839D01*
X0093368Y0178811D01*
X0093460Y0178778D01*
X0093552Y0178743D01*
X0093642Y0178703D01*
X0093730Y0178661D01*
X0093817Y0178614D01*
X0093901Y0178565D01*
X0093984Y0178512D01*
X0094064Y0178456D01*
X0094143Y0178396D01*
X0094219Y0178334D01*
X0094292Y0178269D01*
X0094363Y0178201D01*
X0094431Y0178130D01*
X0094496Y0178057D01*
X0094558Y0177981D01*
X0094618Y0177902D01*
X0094674Y0177822D01*
X0094727Y0177739D01*
X0094776Y0177655D01*
X0094823Y0177568D01*
X0094865Y0177480D01*
X0094905Y0177390D01*
X0094940Y0177298D01*
X0094973Y0177206D01*
X0095001Y0177112D01*
X0095026Y0177017D01*
X0095047Y0176921D01*
X0095064Y0176824D01*
X0095078Y0176727D01*
X0095087Y0176629D01*
X0095093Y0176531D01*
X0095095Y0176433D01*
X0095095Y0032058D01*
X0095093Y0031960D01*
X0095087Y0031862D01*
X0095078Y0031764D01*
X0095064Y0031667D01*
X0095047Y0031570D01*
X0095026Y0031474D01*
X0095001Y0031379D01*
X0094973Y0031285D01*
X0094940Y0031193D01*
X0094905Y0031101D01*
X0094865Y0031011D01*
X0094823Y0030923D01*
X0094776Y0030836D01*
X0094727Y0030752D01*
X0094674Y0030669D01*
X0094618Y0030589D01*
X0094558Y0030510D01*
X0094496Y0030434D01*
X0094431Y0030361D01*
X0094363Y0030290D01*
X0094292Y0030222D01*
X0094219Y0030157D01*
X0094143Y0030095D01*
X0094064Y0030035D01*
X0093984Y0029979D01*
X0093901Y0029926D01*
X0093817Y0029877D01*
X0093730Y0029830D01*
X0093642Y0029788D01*
X0093552Y0029748D01*
X0093460Y0029713D01*
X0093368Y0029680D01*
X0093274Y0029652D01*
X0093179Y0029627D01*
X0093083Y0029606D01*
X0092986Y0029589D01*
X0092889Y0029575D01*
X0092791Y0029566D01*
X0092693Y0029560D01*
X0092595Y0029558D01*
X0037595Y0029558D01*
X0037497Y0029560D01*
X0037399Y0029566D01*
X0037301Y0029575D01*
X0037204Y0029589D01*
X0037107Y0029606D01*
X0037011Y0029627D01*
X0036916Y0029652D01*
X0036822Y0029680D01*
X0036730Y0029713D01*
X0036638Y0029748D01*
X0036548Y0029788D01*
X0036460Y0029830D01*
X0036373Y0029877D01*
X0036289Y0029926D01*
X0036206Y0029979D01*
X0036126Y0030035D01*
X0036047Y0030095D01*
X0035971Y0030157D01*
X0035898Y0030222D01*
X0035827Y0030290D01*
X0035759Y0030361D01*
X0035694Y0030434D01*
X0035632Y0030510D01*
X0035572Y0030589D01*
X0035516Y0030669D01*
X0035463Y0030752D01*
X0035414Y0030836D01*
X0035367Y0030923D01*
X0035325Y0031011D01*
X0035285Y0031101D01*
X0035250Y0031193D01*
X0035217Y0031285D01*
X0035189Y0031379D01*
X0035164Y0031474D01*
X0035143Y0031570D01*
X0035126Y0031667D01*
X0035112Y0031764D01*
X0035103Y0031862D01*
X0035097Y0031960D01*
X0035095Y0032058D01*
D11*
X0042595Y0032058D02*
X0042597Y0032108D01*
X0042603Y0032157D01*
X0042613Y0032206D01*
X0042626Y0032253D01*
X0042644Y0032300D01*
X0042665Y0032345D01*
X0042689Y0032388D01*
X0042717Y0032429D01*
X0042748Y0032468D01*
X0042782Y0032504D01*
X0042819Y0032538D01*
X0042859Y0032568D01*
X0042900Y0032595D01*
X0042944Y0032619D01*
X0042989Y0032639D01*
X0043036Y0032655D01*
X0043084Y0032668D01*
X0043133Y0032677D01*
X0043183Y0032682D01*
X0043232Y0032683D01*
X0043282Y0032680D01*
X0043331Y0032673D01*
X0043380Y0032662D01*
X0043427Y0032648D01*
X0043473Y0032629D01*
X0043518Y0032607D01*
X0043561Y0032582D01*
X0043601Y0032553D01*
X0043639Y0032521D01*
X0043675Y0032487D01*
X0043708Y0032449D01*
X0043737Y0032409D01*
X0043763Y0032367D01*
X0043786Y0032323D01*
X0043805Y0032277D01*
X0043821Y0032230D01*
X0043833Y0032181D01*
X0043841Y0032132D01*
X0043845Y0032083D01*
X0043845Y0032033D01*
X0043841Y0031984D01*
X0043833Y0031935D01*
X0043821Y0031886D01*
X0043805Y0031839D01*
X0043786Y0031793D01*
X0043763Y0031749D01*
X0043737Y0031707D01*
X0043708Y0031667D01*
X0043675Y0031629D01*
X0043639Y0031595D01*
X0043601Y0031563D01*
X0043561Y0031534D01*
X0043518Y0031509D01*
X0043473Y0031487D01*
X0043427Y0031468D01*
X0043380Y0031454D01*
X0043331Y0031443D01*
X0043282Y0031436D01*
X0043232Y0031433D01*
X0043183Y0031434D01*
X0043133Y0031439D01*
X0043084Y0031448D01*
X0043036Y0031461D01*
X0042989Y0031477D01*
X0042944Y0031497D01*
X0042900Y0031521D01*
X0042859Y0031548D01*
X0042819Y0031578D01*
X0042782Y0031612D01*
X0042748Y0031648D01*
X0042717Y0031687D01*
X0042689Y0031728D01*
X0042665Y0031771D01*
X0042644Y0031816D01*
X0042626Y0031863D01*
X0042613Y0031910D01*
X0042603Y0031959D01*
X0042597Y0032008D01*
X0042595Y0032058D01*
X0042488Y0044808D02*
X0042488Y0046610D01*
X0042488Y0045709D02*
X0043389Y0046610D01*
X0043839Y0046610D01*
X0041343Y0046610D02*
X0041343Y0045258D01*
X0040893Y0044808D01*
X0040442Y0045258D01*
X0039992Y0044808D01*
X0039542Y0045258D01*
X0039542Y0046610D01*
X0038397Y0047060D02*
X0038397Y0046159D01*
X0037946Y0045709D01*
X0036595Y0045709D01*
X0036595Y0044808D02*
X0036595Y0047510D01*
X0037946Y0047510D01*
X0038397Y0047060D01*
X0052422Y0118042D02*
X0052422Y0119844D01*
X0052422Y0118943D02*
X0049720Y0118943D01*
X0050171Y0120988D02*
X0049720Y0121439D01*
X0049720Y0122340D01*
X0050171Y0122790D01*
X0051972Y0122790D01*
X0052422Y0122340D01*
X0052422Y0121439D01*
X0051972Y0120988D01*
X0050171Y0120988D01*
X0050171Y0123935D02*
X0051972Y0123935D01*
X0052422Y0124385D01*
X0052422Y0125286D01*
X0051972Y0125737D01*
X0050171Y0125737D01*
X0049720Y0125286D01*
X0049720Y0124385D01*
X0050171Y0123935D01*
X0050171Y0126882D02*
X0049720Y0127332D01*
X0049720Y0128683D01*
X0052422Y0128683D01*
X0052422Y0127332D01*
X0051972Y0126882D01*
X0051522Y0126882D01*
X0051071Y0127332D01*
X0051071Y0128683D01*
X0051071Y0127332D02*
X0050621Y0126882D01*
X0050171Y0126882D01*
X0052329Y0146606D02*
X0052329Y0149308D01*
X0052329Y0147957D02*
X0054131Y0147957D01*
X0054131Y0149308D02*
X0054131Y0146606D01*
X0055276Y0146606D02*
X0055276Y0149308D01*
X0057077Y0146606D01*
X0057077Y0149308D01*
X0058222Y0149308D02*
X0058222Y0147507D01*
X0059123Y0146606D01*
X0060024Y0147507D01*
X0060024Y0149308D01*
X0061169Y0148858D02*
X0061619Y0149308D01*
X0062520Y0149308D01*
X0062970Y0148858D01*
X0062970Y0147056D01*
X0062520Y0146606D01*
X0061619Y0146606D01*
X0061169Y0147056D01*
X0060024Y0147957D02*
X0058222Y0147957D01*
X0067954Y0149308D02*
X0069756Y0149308D01*
X0069756Y0146606D01*
X0070901Y0146606D02*
X0070901Y0149308D01*
X0072702Y0146606D01*
X0072702Y0149308D01*
X0073847Y0149308D02*
X0073847Y0147507D01*
X0074748Y0146606D01*
X0075649Y0147507D01*
X0075649Y0149308D01*
X0076794Y0148858D02*
X0077244Y0149308D01*
X0078145Y0149308D01*
X0078595Y0148858D01*
X0078595Y0147056D01*
X0078145Y0146606D01*
X0077244Y0146606D01*
X0076794Y0147056D01*
X0075649Y0147957D02*
X0073847Y0147957D01*
X0077768Y0140449D02*
X0080470Y0140449D01*
X0080470Y0138648D02*
X0077768Y0138648D01*
X0078669Y0139548D01*
X0077768Y0140449D01*
X0078218Y0137503D02*
X0079119Y0137503D01*
X0079569Y0137052D01*
X0079569Y0135701D01*
X0079569Y0136602D02*
X0080470Y0137503D01*
X0080470Y0135701D02*
X0077768Y0135701D01*
X0077768Y0137052D01*
X0078218Y0137503D01*
X0077768Y0134556D02*
X0077768Y0132755D01*
X0080470Y0132755D01*
X0080470Y0134556D01*
X0079119Y0133655D02*
X0079119Y0132755D01*
X0077768Y0131610D02*
X0077768Y0129808D01*
X0077768Y0130709D02*
X0080470Y0130709D01*
X0083851Y0146606D02*
X0085202Y0146606D01*
X0085202Y0149308D01*
X0083851Y0149308D01*
X0083401Y0148858D01*
X0083401Y0147056D01*
X0083851Y0146606D01*
X0086347Y0146606D02*
X0086347Y0149308D01*
X0088149Y0146606D01*
X0088149Y0149308D01*
X0089294Y0148858D02*
X0089294Y0147957D01*
X0090194Y0147957D01*
X0089294Y0148858D02*
X0089744Y0149308D01*
X0090645Y0149308D01*
X0091095Y0148858D01*
X0091095Y0147056D01*
X0090645Y0146606D01*
X0089744Y0146606D01*
X0089294Y0147056D01*
X0088845Y0098308D02*
X0093845Y0098308D01*
X0093845Y0078308D01*
X0093845Y0083308D01*
X0088845Y0083308D01*
X0088845Y0078308D01*
X0093845Y0078308D01*
X0088845Y0078308D01*
X0088845Y0098308D01*
X0088845Y0083271D02*
X0093845Y0083271D01*
X0093845Y0082772D02*
X0088845Y0082772D01*
X0088845Y0082274D02*
X0093845Y0082274D01*
X0093845Y0081775D02*
X0088845Y0081775D01*
X0088845Y0081277D02*
X0093845Y0081277D01*
X0093845Y0080778D02*
X0088845Y0080778D01*
X0088845Y0080280D02*
X0093845Y0080280D01*
X0093845Y0079781D02*
X0088845Y0079781D01*
X0088845Y0079283D02*
X0093845Y0079283D01*
X0093845Y0078784D02*
X0088845Y0078784D01*
X0091345Y0075808D02*
X0090095Y0074558D01*
X0091345Y0075808D02*
X0092595Y0074558D01*
X0091345Y0075808D02*
X0091345Y0070808D01*
X0087496Y0047510D02*
X0086595Y0046610D01*
X0086595Y0044808D01*
X0086595Y0046159D02*
X0088397Y0046159D01*
X0088397Y0046610D02*
X0088397Y0044808D01*
X0089542Y0045258D02*
X0089542Y0046159D01*
X0089992Y0046610D01*
X0091343Y0046610D01*
X0092488Y0046610D02*
X0093389Y0046610D01*
X0092939Y0047060D02*
X0092939Y0045258D01*
X0093389Y0044808D01*
X0091343Y0044808D02*
X0089992Y0044808D01*
X0089542Y0045258D01*
X0088397Y0046610D02*
X0087496Y0047510D01*
X0086345Y0032058D02*
X0086347Y0032108D01*
X0086353Y0032157D01*
X0086363Y0032206D01*
X0086376Y0032253D01*
X0086394Y0032300D01*
X0086415Y0032345D01*
X0086439Y0032388D01*
X0086467Y0032429D01*
X0086498Y0032468D01*
X0086532Y0032504D01*
X0086569Y0032538D01*
X0086609Y0032568D01*
X0086650Y0032595D01*
X0086694Y0032619D01*
X0086739Y0032639D01*
X0086786Y0032655D01*
X0086834Y0032668D01*
X0086883Y0032677D01*
X0086933Y0032682D01*
X0086982Y0032683D01*
X0087032Y0032680D01*
X0087081Y0032673D01*
X0087130Y0032662D01*
X0087177Y0032648D01*
X0087223Y0032629D01*
X0087268Y0032607D01*
X0087311Y0032582D01*
X0087351Y0032553D01*
X0087389Y0032521D01*
X0087425Y0032487D01*
X0087458Y0032449D01*
X0087487Y0032409D01*
X0087513Y0032367D01*
X0087536Y0032323D01*
X0087555Y0032277D01*
X0087571Y0032230D01*
X0087583Y0032181D01*
X0087591Y0032132D01*
X0087595Y0032083D01*
X0087595Y0032033D01*
X0087591Y0031984D01*
X0087583Y0031935D01*
X0087571Y0031886D01*
X0087555Y0031839D01*
X0087536Y0031793D01*
X0087513Y0031749D01*
X0087487Y0031707D01*
X0087458Y0031667D01*
X0087425Y0031629D01*
X0087389Y0031595D01*
X0087351Y0031563D01*
X0087311Y0031534D01*
X0087268Y0031509D01*
X0087223Y0031487D01*
X0087177Y0031468D01*
X0087130Y0031454D01*
X0087081Y0031443D01*
X0087032Y0031436D01*
X0086982Y0031433D01*
X0086933Y0031434D01*
X0086883Y0031439D01*
X0086834Y0031448D01*
X0086786Y0031461D01*
X0086739Y0031477D01*
X0086694Y0031497D01*
X0086650Y0031521D01*
X0086609Y0031548D01*
X0086569Y0031578D01*
X0086532Y0031612D01*
X0086498Y0031648D01*
X0086467Y0031687D01*
X0086439Y0031728D01*
X0086415Y0031771D01*
X0086394Y0031816D01*
X0086376Y0031863D01*
X0086363Y0031910D01*
X0086353Y0031959D01*
X0086347Y0032008D01*
X0086345Y0032058D01*
X0047345Y0146606D02*
X0045544Y0146606D01*
X0045994Y0147507D02*
X0045544Y0147957D01*
X0045544Y0148858D01*
X0045994Y0149308D01*
X0046895Y0149308D01*
X0047345Y0148858D01*
X0047345Y0147957D02*
X0046444Y0147507D01*
X0045994Y0147507D01*
X0047345Y0147957D02*
X0047345Y0146606D01*
X0044399Y0147507D02*
X0043498Y0149308D01*
X0042597Y0147507D01*
D12*
X0045095Y0143933D02*
X0040095Y0143933D01*
X0037595Y0141433D01*
X0037595Y0136433D01*
X0040095Y0133933D01*
X0037595Y0131433D01*
X0037595Y0126433D01*
X0040095Y0123933D01*
X0037595Y0121433D01*
X0037595Y0116433D01*
X0040095Y0113933D01*
X0045095Y0113933D01*
X0047595Y0116433D01*
X0047595Y0121433D01*
X0045095Y0123933D01*
X0047595Y0126433D01*
X0047595Y0131433D01*
X0045095Y0133933D01*
X0047595Y0136433D01*
X0047595Y0141433D01*
X0045095Y0143933D01*
X0035415Y0152260D02*
X0035415Y0155409D01*
X0094864Y0155409D01*
X0094864Y0152260D01*
X0035415Y0152260D01*
X0035415Y0155409D02*
X0035415Y0179819D01*
X0094864Y0179819D01*
X0094864Y0155409D01*
X0090095Y0143933D02*
X0085095Y0143933D01*
X0082595Y0141433D01*
X0082595Y0136433D01*
X0085095Y0133933D01*
X0082595Y0131433D01*
X0082595Y0126433D01*
X0085095Y0123933D01*
X0082595Y0121433D01*
X0082595Y0116433D01*
X0085095Y0113933D01*
X0090095Y0113933D01*
X0092595Y0116433D01*
X0092595Y0121433D01*
X0090095Y0123933D01*
X0092595Y0126433D01*
X0092595Y0131433D01*
X0090095Y0133933D01*
X0092595Y0136433D01*
X0092595Y0141433D01*
X0090095Y0143933D01*
X0053680Y0121283D02*
X0053682Y0121330D01*
X0053688Y0121377D01*
X0053698Y0121424D01*
X0053711Y0121469D01*
X0053729Y0121513D01*
X0053750Y0121555D01*
X0053774Y0121596D01*
X0053802Y0121634D01*
X0053833Y0121670D01*
X0053867Y0121703D01*
X0053903Y0121733D01*
X0053942Y0121760D01*
X0053983Y0121784D01*
X0054026Y0121804D01*
X0054070Y0121820D01*
X0054116Y0121833D01*
X0054162Y0121842D01*
X0054210Y0121847D01*
X0054257Y0121848D01*
X0054304Y0121845D01*
X0054351Y0121838D01*
X0054397Y0121827D01*
X0054442Y0121813D01*
X0054486Y0121794D01*
X0054527Y0121772D01*
X0054567Y0121747D01*
X0054605Y0121718D01*
X0054640Y0121687D01*
X0054673Y0121652D01*
X0054702Y0121615D01*
X0054728Y0121576D01*
X0054751Y0121534D01*
X0054770Y0121491D01*
X0054786Y0121446D01*
X0054798Y0121400D01*
X0054806Y0121354D01*
X0054810Y0121307D01*
X0054810Y0121259D01*
X0054806Y0121212D01*
X0054798Y0121166D01*
X0054786Y0121120D01*
X0054770Y0121075D01*
X0054751Y0121032D01*
X0054728Y0120990D01*
X0054702Y0120951D01*
X0054673Y0120914D01*
X0054640Y0120879D01*
X0054605Y0120848D01*
X0054567Y0120819D01*
X0054528Y0120794D01*
X0054486Y0120772D01*
X0054442Y0120753D01*
X0054397Y0120739D01*
X0054351Y0120728D01*
X0054304Y0120721D01*
X0054257Y0120718D01*
X0054210Y0120719D01*
X0054162Y0120724D01*
X0054116Y0120733D01*
X0054070Y0120746D01*
X0054026Y0120762D01*
X0053983Y0120782D01*
X0053942Y0120806D01*
X0053903Y0120833D01*
X0053867Y0120863D01*
X0053833Y0120896D01*
X0053802Y0120932D01*
X0053774Y0120970D01*
X0053750Y0121011D01*
X0053729Y0121053D01*
X0053711Y0121097D01*
X0053698Y0121142D01*
X0053688Y0121189D01*
X0053682Y0121236D01*
X0053680Y0121283D01*
X0064030Y0065783D02*
X0067411Y0065783D01*
X0068911Y0061240D02*
X0068911Y0059126D01*
X0067411Y0054583D02*
X0064030Y0054583D01*
X0056434Y0045779D02*
X0056434Y0040267D01*
X0073757Y0040267D01*
X0073757Y0045779D01*
X0078481Y0045779D01*
X0078481Y0039479D01*
X0078481Y0028849D02*
X0051709Y0028849D01*
X0051709Y0039479D02*
X0051709Y0045779D01*
X0056434Y0045779D01*
X0041906Y0037639D02*
X0040095Y0037639D01*
X0039175Y0038859D01*
X0038284Y0037639D02*
X0040095Y0037639D01*
X0040195Y0037699D02*
X0040955Y0038859D01*
X0088284Y0037639D02*
X0090095Y0037639D01*
X0089175Y0038859D01*
X0090095Y0037639D02*
X0091906Y0037639D01*
X0090955Y0038859D02*
X0090195Y0037699D01*
D13*
X0083965Y0060183D02*
X0083725Y0060183D01*
X0078028Y0060183D02*
X0077788Y0060183D01*
X0049470Y0063813D02*
X0049470Y0064053D01*
X0040215Y0079558D02*
X0039975Y0079558D01*
X0045095Y0108813D02*
X0045095Y0109053D01*
X0051850Y0136433D02*
X0052090Y0136433D01*
X0085095Y0109053D02*
X0085095Y0108813D01*
D14*
X0078845Y0122683D03*
X0090095Y0060183D03*
X0040095Y0060183D03*
X0040095Y0097683D03*
D15*
X0051709Y0101138D02*
X0051709Y0076728D01*
X0052890Y0075547D01*
X0077300Y0075547D01*
X0078481Y0076728D01*
X0078481Y0101138D01*
X0077300Y0102319D01*
X0052890Y0102319D01*
X0051709Y0101138D01*
X0055796Y0121835D02*
X0055796Y0136031D01*
X0074394Y0136031D02*
X0074394Y0121835D01*
D16*
X0045804Y0103516D02*
X0045806Y0103555D01*
X0045812Y0103594D01*
X0045822Y0103632D01*
X0045835Y0103669D01*
X0045852Y0103704D01*
X0045872Y0103738D01*
X0045896Y0103769D01*
X0045923Y0103798D01*
X0045952Y0103824D01*
X0045984Y0103847D01*
X0046018Y0103867D01*
X0046054Y0103883D01*
X0046091Y0103895D01*
X0046130Y0103904D01*
X0046169Y0103909D01*
X0046208Y0103910D01*
X0046247Y0103907D01*
X0046286Y0103900D01*
X0046323Y0103889D01*
X0046360Y0103875D01*
X0046395Y0103857D01*
X0046428Y0103836D01*
X0046459Y0103811D01*
X0046487Y0103784D01*
X0046512Y0103754D01*
X0046534Y0103721D01*
X0046553Y0103687D01*
X0046568Y0103651D01*
X0046580Y0103613D01*
X0046588Y0103575D01*
X0046592Y0103536D01*
X0046592Y0103496D01*
X0046588Y0103457D01*
X0046580Y0103419D01*
X0046568Y0103381D01*
X0046553Y0103345D01*
X0046534Y0103311D01*
X0046512Y0103278D01*
X0046487Y0103248D01*
X0046459Y0103221D01*
X0046428Y0103196D01*
X0046395Y0103175D01*
X0046360Y0103157D01*
X0046323Y0103143D01*
X0046286Y0103132D01*
X0046247Y0103125D01*
X0046208Y0103122D01*
X0046169Y0103123D01*
X0046130Y0103128D01*
X0046091Y0103137D01*
X0046054Y0103149D01*
X0046018Y0103165D01*
X0045984Y0103185D01*
X0045952Y0103208D01*
X0045923Y0103234D01*
X0045896Y0103263D01*
X0045872Y0103294D01*
X0045852Y0103328D01*
X0045835Y0103363D01*
X0045822Y0103400D01*
X0045812Y0103438D01*
X0045806Y0103477D01*
X0045804Y0103516D01*
D17*
X0054859Y0098185D02*
X0054861Y0098241D01*
X0054867Y0098296D01*
X0054877Y0098350D01*
X0054890Y0098404D01*
X0054908Y0098457D01*
X0054929Y0098508D01*
X0054953Y0098558D01*
X0054981Y0098606D01*
X0055013Y0098652D01*
X0055047Y0098696D01*
X0055085Y0098737D01*
X0055125Y0098775D01*
X0055168Y0098810D01*
X0055213Y0098842D01*
X0055261Y0098871D01*
X0055310Y0098897D01*
X0055361Y0098919D01*
X0055413Y0098937D01*
X0055467Y0098951D01*
X0055522Y0098962D01*
X0055577Y0098969D01*
X0055632Y0098972D01*
X0055688Y0098971D01*
X0055743Y0098966D01*
X0055798Y0098957D01*
X0055852Y0098945D01*
X0055905Y0098928D01*
X0055957Y0098908D01*
X0056007Y0098884D01*
X0056055Y0098857D01*
X0056102Y0098827D01*
X0056146Y0098793D01*
X0056188Y0098756D01*
X0056226Y0098716D01*
X0056263Y0098674D01*
X0056296Y0098629D01*
X0056325Y0098583D01*
X0056352Y0098534D01*
X0056374Y0098483D01*
X0056394Y0098431D01*
X0056409Y0098377D01*
X0056421Y0098323D01*
X0056429Y0098268D01*
X0056433Y0098213D01*
X0056433Y0098157D01*
X0056429Y0098102D01*
X0056421Y0098047D01*
X0056409Y0097993D01*
X0056394Y0097939D01*
X0056374Y0097887D01*
X0056352Y0097836D01*
X0056325Y0097787D01*
X0056296Y0097741D01*
X0056263Y0097696D01*
X0056226Y0097654D01*
X0056188Y0097614D01*
X0056146Y0097577D01*
X0056102Y0097543D01*
X0056055Y0097513D01*
X0056007Y0097486D01*
X0055957Y0097462D01*
X0055905Y0097442D01*
X0055852Y0097425D01*
X0055798Y0097413D01*
X0055743Y0097404D01*
X0055688Y0097399D01*
X0055632Y0097398D01*
X0055577Y0097401D01*
X0055522Y0097408D01*
X0055467Y0097419D01*
X0055413Y0097433D01*
X0055361Y0097451D01*
X0055310Y0097473D01*
X0055261Y0097499D01*
X0055213Y0097528D01*
X0055168Y0097560D01*
X0055125Y0097595D01*
X0055085Y0097633D01*
X0055047Y0097674D01*
X0055013Y0097718D01*
X0054981Y0097764D01*
X0054953Y0097812D01*
X0054929Y0097862D01*
X0054908Y0097913D01*
X0054890Y0097966D01*
X0054877Y0098020D01*
X0054867Y0098074D01*
X0054861Y0098129D01*
X0054859Y0098185D01*
D18*
X0049923Y0055902D02*
X0049923Y0051965D01*
X0044017Y0051965D02*
X0044017Y0055902D01*
M02*
