G75*
%MOIN*%
%OFA0B0*%
%FSLAX25Y25*%
%IPPOS*%
%LPD*%
%AMOC8*
5,1,8,0,0,1.08239X$1,22.5*
%
%ADD10C,0.00000*%
%ADD11R,0.01378X0.05512*%
%ADD12R,0.07087X0.07480*%
%ADD13R,0.07480X0.07480*%
%ADD14R,0.04724X0.02165*%
%ADD15C,0.01181*%
%ADD16R,0.04331X0.03937*%
%ADD17R,0.03937X0.04331*%
%ADD18R,0.02400X0.08700*%
%ADD19R,0.05906X0.00984*%
%ADD20R,0.00984X0.05906*%
%ADD21R,0.03500X0.03200*%
%ADD22C,0.07400*%
%ADD23R,0.08000X0.08000*%
%ADD24C,0.08000*%
%ADD25R,0.05906X0.03937*%
%ADD26C,0.01000*%
%ADD27C,0.02700*%
%ADD28C,0.01600*%
D10*
X0035095Y0032058D02*
X0035095Y0176433D01*
X0035097Y0176531D01*
X0035103Y0176629D01*
X0035112Y0176727D01*
X0035126Y0176824D01*
X0035143Y0176921D01*
X0035164Y0177017D01*
X0035189Y0177112D01*
X0035217Y0177206D01*
X0035250Y0177298D01*
X0035285Y0177390D01*
X0035325Y0177480D01*
X0035367Y0177568D01*
X0035414Y0177655D01*
X0035463Y0177739D01*
X0035516Y0177822D01*
X0035572Y0177902D01*
X0035632Y0177981D01*
X0035694Y0178057D01*
X0035759Y0178130D01*
X0035827Y0178201D01*
X0035898Y0178269D01*
X0035971Y0178334D01*
X0036047Y0178396D01*
X0036126Y0178456D01*
X0036206Y0178512D01*
X0036289Y0178565D01*
X0036373Y0178614D01*
X0036460Y0178661D01*
X0036548Y0178703D01*
X0036638Y0178743D01*
X0036730Y0178778D01*
X0036822Y0178811D01*
X0036916Y0178839D01*
X0037011Y0178864D01*
X0037107Y0178885D01*
X0037204Y0178902D01*
X0037301Y0178916D01*
X0037399Y0178925D01*
X0037497Y0178931D01*
X0037595Y0178933D01*
X0092595Y0178933D01*
X0092693Y0178931D01*
X0092791Y0178925D01*
X0092889Y0178916D01*
X0092986Y0178902D01*
X0093083Y0178885D01*
X0093179Y0178864D01*
X0093274Y0178839D01*
X0093368Y0178811D01*
X0093460Y0178778D01*
X0093552Y0178743D01*
X0093642Y0178703D01*
X0093730Y0178661D01*
X0093817Y0178614D01*
X0093901Y0178565D01*
X0093984Y0178512D01*
X0094064Y0178456D01*
X0094143Y0178396D01*
X0094219Y0178334D01*
X0094292Y0178269D01*
X0094363Y0178201D01*
X0094431Y0178130D01*
X0094496Y0178057D01*
X0094558Y0177981D01*
X0094618Y0177902D01*
X0094674Y0177822D01*
X0094727Y0177739D01*
X0094776Y0177655D01*
X0094823Y0177568D01*
X0094865Y0177480D01*
X0094905Y0177390D01*
X0094940Y0177298D01*
X0094973Y0177206D01*
X0095001Y0177112D01*
X0095026Y0177017D01*
X0095047Y0176921D01*
X0095064Y0176824D01*
X0095078Y0176727D01*
X0095087Y0176629D01*
X0095093Y0176531D01*
X0095095Y0176433D01*
X0095095Y0032058D01*
X0095093Y0031960D01*
X0095087Y0031862D01*
X0095078Y0031764D01*
X0095064Y0031667D01*
X0095047Y0031570D01*
X0095026Y0031474D01*
X0095001Y0031379D01*
X0094973Y0031285D01*
X0094940Y0031193D01*
X0094905Y0031101D01*
X0094865Y0031011D01*
X0094823Y0030923D01*
X0094776Y0030836D01*
X0094727Y0030752D01*
X0094674Y0030669D01*
X0094618Y0030589D01*
X0094558Y0030510D01*
X0094496Y0030434D01*
X0094431Y0030361D01*
X0094363Y0030290D01*
X0094292Y0030222D01*
X0094219Y0030157D01*
X0094143Y0030095D01*
X0094064Y0030035D01*
X0093984Y0029979D01*
X0093901Y0029926D01*
X0093817Y0029877D01*
X0093730Y0029830D01*
X0093642Y0029788D01*
X0093552Y0029748D01*
X0093460Y0029713D01*
X0093368Y0029680D01*
X0093274Y0029652D01*
X0093179Y0029627D01*
X0093083Y0029606D01*
X0092986Y0029589D01*
X0092889Y0029575D01*
X0092791Y0029566D01*
X0092693Y0029560D01*
X0092595Y0029558D01*
X0037595Y0029558D01*
X0037497Y0029560D01*
X0037399Y0029566D01*
X0037301Y0029575D01*
X0037204Y0029589D01*
X0037107Y0029606D01*
X0037011Y0029627D01*
X0036916Y0029652D01*
X0036822Y0029680D01*
X0036730Y0029713D01*
X0036638Y0029748D01*
X0036548Y0029788D01*
X0036460Y0029830D01*
X0036373Y0029877D01*
X0036289Y0029926D01*
X0036206Y0029979D01*
X0036126Y0030035D01*
X0036047Y0030095D01*
X0035971Y0030157D01*
X0035898Y0030222D01*
X0035827Y0030290D01*
X0035759Y0030361D01*
X0035694Y0030434D01*
X0035632Y0030510D01*
X0035572Y0030589D01*
X0035516Y0030669D01*
X0035463Y0030752D01*
X0035414Y0030836D01*
X0035367Y0030923D01*
X0035325Y0031011D01*
X0035285Y0031101D01*
X0035250Y0031193D01*
X0035217Y0031285D01*
X0035189Y0031379D01*
X0035164Y0031474D01*
X0035143Y0031570D01*
X0035126Y0031667D01*
X0035112Y0031764D01*
X0035103Y0031862D01*
X0035097Y0031960D01*
X0035095Y0032058D01*
D11*
X0059977Y0044991D03*
X0062536Y0044991D03*
X0065095Y0044991D03*
X0067654Y0044991D03*
X0070213Y0044991D03*
D12*
X0080843Y0034558D03*
X0049347Y0034558D03*
D13*
X0060095Y0034558D03*
X0070095Y0034558D03*
D14*
X0070839Y0056443D03*
X0070839Y0063923D03*
X0060602Y0063923D03*
X0060602Y0060183D03*
X0060602Y0056443D03*
D15*
X0041473Y0043139D02*
X0038717Y0043139D01*
X0041473Y0043139D02*
X0041473Y0040383D01*
X0038717Y0040383D01*
X0038717Y0043139D01*
X0038717Y0041563D02*
X0041473Y0041563D01*
X0041473Y0042743D02*
X0038717Y0042743D01*
X0038717Y0036233D02*
X0041473Y0036233D01*
X0041473Y0033477D01*
X0038717Y0033477D01*
X0038717Y0036233D01*
X0038717Y0034657D02*
X0041473Y0034657D01*
X0041473Y0035837D02*
X0038717Y0035837D01*
X0088717Y0036233D02*
X0091473Y0036233D01*
X0091473Y0033477D01*
X0088717Y0033477D01*
X0088717Y0036233D01*
X0088717Y0034657D02*
X0091473Y0034657D01*
X0091473Y0035837D02*
X0088717Y0035837D01*
X0088717Y0043139D02*
X0091473Y0043139D01*
X0091473Y0040383D01*
X0088717Y0040383D01*
X0088717Y0043139D01*
X0088717Y0041563D02*
X0091473Y0041563D01*
X0091473Y0042743D02*
X0088717Y0042743D01*
D16*
X0052817Y0063933D03*
X0046124Y0063933D03*
X0048442Y0108933D03*
X0041749Y0108933D03*
X0081749Y0108933D03*
X0088442Y0108933D03*
D17*
X0078845Y0119337D03*
X0078845Y0126030D03*
X0051970Y0133087D03*
X0051970Y0139780D03*
X0040095Y0101030D03*
X0040095Y0094337D03*
X0040095Y0082905D03*
X0040095Y0076212D03*
X0040095Y0063530D03*
X0040095Y0056837D03*
X0077908Y0056837D03*
X0077908Y0063530D03*
X0083845Y0063530D03*
X0083845Y0056837D03*
X0090095Y0056837D03*
X0090095Y0063530D03*
D18*
X0072595Y0118633D03*
X0067595Y0118633D03*
X0062595Y0118633D03*
X0057595Y0118633D03*
X0057595Y0139233D03*
X0062595Y0139233D03*
X0067595Y0139233D03*
X0072595Y0139233D03*
D19*
X0082024Y0099760D03*
X0082024Y0097791D03*
X0082024Y0095823D03*
X0082024Y0093854D03*
X0082024Y0091886D03*
X0082024Y0089917D03*
X0082024Y0087949D03*
X0082024Y0085980D03*
X0082024Y0084012D03*
X0082024Y0082043D03*
X0082024Y0080075D03*
X0082024Y0078106D03*
X0048166Y0078106D03*
X0048166Y0080075D03*
X0048166Y0082043D03*
X0048166Y0084012D03*
X0048166Y0085980D03*
X0048166Y0087949D03*
X0048166Y0089917D03*
X0048166Y0091886D03*
X0048166Y0093854D03*
X0048166Y0095823D03*
X0048166Y0097791D03*
X0048166Y0099760D03*
D20*
X0054268Y0105862D03*
X0056237Y0105862D03*
X0058205Y0105862D03*
X0060174Y0105862D03*
X0062142Y0105862D03*
X0064111Y0105862D03*
X0066079Y0105862D03*
X0068048Y0105862D03*
X0070016Y0105862D03*
X0071985Y0105862D03*
X0073953Y0105862D03*
X0075922Y0105862D03*
X0075922Y0072004D03*
X0073953Y0072004D03*
X0071985Y0072004D03*
X0070016Y0072004D03*
X0068048Y0072004D03*
X0066079Y0072004D03*
X0064111Y0072004D03*
X0062142Y0072004D03*
X0060174Y0072004D03*
X0058205Y0072004D03*
X0056237Y0072004D03*
X0054268Y0072004D03*
D21*
X0091345Y0080808D03*
X0091345Y0085808D03*
X0091345Y0090808D03*
X0091345Y0095808D03*
D22*
X0087095Y0118933D03*
X0088095Y0128933D03*
X0087095Y0138933D03*
X0043095Y0128933D03*
X0042095Y0118933D03*
X0042095Y0138933D03*
D23*
X0043770Y0166433D03*
D24*
X0058950Y0166433D03*
X0071329Y0166433D03*
X0086509Y0166433D03*
D25*
X0046970Y0058264D03*
X0046970Y0049602D03*
D26*
X0043479Y0046334D02*
X0050461Y0046334D01*
X0051223Y0047095D01*
X0051223Y0047458D01*
X0052350Y0047458D01*
X0055687Y0044121D01*
X0056917Y0042891D01*
X0057988Y0042891D01*
X0057988Y0041697D01*
X0058750Y0040935D01*
X0061204Y0040935D01*
X0061257Y0040987D01*
X0061309Y0040935D01*
X0063764Y0040935D01*
X0063816Y0040987D01*
X0063868Y0040935D01*
X0066323Y0040935D01*
X0066375Y0040987D01*
X0066427Y0040935D01*
X0068776Y0040935D01*
X0068945Y0040837D01*
X0069327Y0040735D01*
X0070213Y0040735D01*
X0070213Y0044991D01*
X0070213Y0044991D01*
X0070213Y0040735D01*
X0071100Y0040735D01*
X0071481Y0040837D01*
X0071823Y0041035D01*
X0072103Y0041314D01*
X0072300Y0041656D01*
X0072402Y0042038D01*
X0072402Y0044991D01*
X0070213Y0044991D01*
X0070213Y0049247D01*
X0069327Y0049247D01*
X0068945Y0049145D01*
X0068776Y0049047D01*
X0068743Y0049047D01*
X0068995Y0049656D01*
X0068995Y0050710D01*
X0068592Y0051684D01*
X0067846Y0052430D01*
X0066872Y0052833D01*
X0065818Y0052833D01*
X0064844Y0052430D01*
X0064158Y0051743D01*
X0063471Y0052430D01*
X0062497Y0052833D01*
X0061443Y0052833D01*
X0060469Y0052430D01*
X0059724Y0051684D01*
X0059320Y0050710D01*
X0059320Y0049656D01*
X0059572Y0049047D01*
X0058750Y0049047D01*
X0057988Y0048286D01*
X0057988Y0047760D01*
X0055320Y0050428D01*
X0054090Y0051658D01*
X0051223Y0051658D01*
X0051223Y0052109D01*
X0050461Y0052871D01*
X0043479Y0052871D01*
X0042717Y0052109D01*
X0042717Y0047095D01*
X0043479Y0046334D01*
X0042906Y0046906D02*
X0041895Y0046906D01*
X0041895Y0045908D02*
X0053901Y0045908D01*
X0054899Y0044909D02*
X0042376Y0044909D01*
X0042256Y0045029D02*
X0041895Y0045029D01*
X0041895Y0053371D01*
X0042602Y0053371D01*
X0043364Y0054133D01*
X0043364Y0055111D01*
X0043479Y0054995D01*
X0050461Y0054995D01*
X0051223Y0055757D01*
X0051223Y0056208D01*
X0051725Y0056208D01*
X0053600Y0054333D01*
X0057428Y0054333D01*
X0057701Y0054060D01*
X0063502Y0054060D01*
X0063775Y0054333D01*
X0064715Y0054333D01*
X0065945Y0055563D01*
X0067176Y0056795D01*
X0067176Y0054822D01*
X0067938Y0054060D01*
X0073739Y0054060D01*
X0074439Y0054760D01*
X0074439Y0054474D01*
X0074541Y0054092D01*
X0074739Y0053750D01*
X0075018Y0053471D01*
X0075360Y0053273D01*
X0075742Y0053171D01*
X0077423Y0053171D01*
X0077423Y0056352D01*
X0078392Y0056352D01*
X0078392Y0053171D01*
X0080074Y0053171D01*
X0080455Y0053273D01*
X0080797Y0053471D01*
X0080876Y0053550D01*
X0080956Y0053471D01*
X0081298Y0053273D01*
X0081679Y0053171D01*
X0083361Y0053171D01*
X0083361Y0056352D01*
X0084329Y0056352D01*
X0084329Y0053171D01*
X0086011Y0053171D01*
X0086393Y0053273D01*
X0086735Y0053471D01*
X0087014Y0053750D01*
X0087085Y0053874D01*
X0087588Y0053371D01*
X0088295Y0053371D01*
X0088295Y0045029D01*
X0087934Y0045029D01*
X0086827Y0043922D01*
X0086827Y0039600D01*
X0087934Y0038492D01*
X0092256Y0038492D01*
X0093364Y0039600D01*
X0093364Y0043922D01*
X0092256Y0045029D01*
X0091895Y0045029D01*
X0091895Y0053371D01*
X0092602Y0053371D01*
X0093364Y0054133D01*
X0093364Y0059540D01*
X0092721Y0060183D01*
X0093364Y0060826D01*
X0093364Y0066233D01*
X0092602Y0066995D01*
X0091895Y0066995D01*
X0091895Y0069679D01*
X0090841Y0070733D01*
X0085260Y0076314D01*
X0085516Y0076314D01*
X0086277Y0077076D01*
X0086277Y0088486D01*
X0087068Y0088158D01*
X0088122Y0088158D01*
X0088351Y0088253D01*
X0088197Y0087987D01*
X0088095Y0087606D01*
X0088095Y0086108D01*
X0091045Y0086108D01*
X0091045Y0085508D01*
X0088095Y0085508D01*
X0088095Y0084011D01*
X0088197Y0083629D01*
X0088395Y0083287D01*
X0088515Y0083167D01*
X0088295Y0082947D01*
X0088295Y0078670D01*
X0089057Y0077908D01*
X0089088Y0077908D01*
X0088695Y0076960D01*
X0088695Y0075906D01*
X0089099Y0074932D01*
X0089844Y0074187D01*
X0090818Y0073783D01*
X0091872Y0073783D01*
X0092846Y0074187D01*
X0093592Y0074932D01*
X0093595Y0074940D01*
X0093595Y0032058D01*
X0093561Y0031799D01*
X0093302Y0031351D01*
X0092854Y0031092D01*
X0092595Y0031058D01*
X0085886Y0031058D01*
X0085886Y0034058D01*
X0081343Y0034058D01*
X0081343Y0035058D01*
X0080343Y0035058D01*
X0080343Y0034058D01*
X0075800Y0034058D01*
X0075800Y0031058D01*
X0075135Y0031058D01*
X0075135Y0038837D01*
X0074374Y0039598D01*
X0065816Y0039598D01*
X0065095Y0038877D01*
X0064374Y0039598D01*
X0055816Y0039598D01*
X0055055Y0038837D01*
X0055055Y0031058D01*
X0054390Y0031058D01*
X0054390Y0034058D01*
X0049847Y0034058D01*
X0049847Y0035058D01*
X0048847Y0035058D01*
X0048847Y0034058D01*
X0044304Y0034058D01*
X0044304Y0031058D01*
X0037595Y0031058D01*
X0037336Y0031092D01*
X0036888Y0031351D01*
X0036629Y0031799D01*
X0036595Y0032058D01*
X0036595Y0101984D01*
X0036827Y0101752D01*
X0036827Y0098326D01*
X0037361Y0097792D01*
X0037206Y0097702D01*
X0036926Y0097423D01*
X0036729Y0097081D01*
X0036627Y0096699D01*
X0036627Y0094821D01*
X0039611Y0094821D01*
X0039611Y0093852D01*
X0040579Y0093852D01*
X0040579Y0090671D01*
X0042261Y0090671D01*
X0042643Y0090773D01*
X0042985Y0090971D01*
X0043264Y0091250D01*
X0043461Y0091592D01*
X0043564Y0091974D01*
X0043564Y0093852D01*
X0040579Y0093852D01*
X0040579Y0094821D01*
X0043564Y0094821D01*
X0043564Y0095991D01*
X0043913Y0095991D01*
X0043913Y0087221D01*
X0043815Y0087051D01*
X0043713Y0086670D01*
X0043713Y0085980D01*
X0043713Y0085812D01*
X0043160Y0085812D01*
X0042602Y0086370D01*
X0042420Y0086370D01*
X0042745Y0087156D01*
X0042745Y0088210D01*
X0042342Y0089184D01*
X0041596Y0089930D01*
X0040622Y0090333D01*
X0039568Y0090333D01*
X0038594Y0089930D01*
X0037849Y0089184D01*
X0037445Y0088210D01*
X0037445Y0087156D01*
X0037771Y0086370D01*
X0037588Y0086370D01*
X0036827Y0085608D01*
X0036827Y0080201D01*
X0037361Y0079667D01*
X0037206Y0079577D01*
X0036926Y0079298D01*
X0036729Y0078956D01*
X0036627Y0078574D01*
X0036627Y0076696D01*
X0039611Y0076696D01*
X0039611Y0075727D01*
X0040579Y0075727D01*
X0040579Y0072546D01*
X0042261Y0072546D01*
X0042643Y0072648D01*
X0042985Y0072846D01*
X0043264Y0073125D01*
X0043461Y0073467D01*
X0043564Y0073849D01*
X0043564Y0075727D01*
X0040579Y0075727D01*
X0040579Y0076696D01*
X0043564Y0076696D01*
X0043564Y0078574D01*
X0043461Y0078956D01*
X0043264Y0079298D01*
X0042985Y0079577D01*
X0042830Y0079667D01*
X0043364Y0080201D01*
X0043364Y0082212D01*
X0043913Y0082212D01*
X0043913Y0077076D01*
X0044675Y0076314D01*
X0049872Y0076314D01*
X0044290Y0070733D01*
X0040747Y0070733D01*
X0039350Y0069336D01*
X0038295Y0068281D01*
X0038295Y0066995D01*
X0037588Y0066995D01*
X0036827Y0066233D01*
X0036827Y0060826D01*
X0037469Y0060183D01*
X0036827Y0059540D01*
X0036827Y0054133D01*
X0037588Y0053371D01*
X0038295Y0053371D01*
X0038295Y0045029D01*
X0037934Y0045029D01*
X0036827Y0043922D01*
X0036827Y0039600D01*
X0037934Y0038492D01*
X0042256Y0038492D01*
X0043364Y0039600D01*
X0043364Y0043922D01*
X0042256Y0045029D01*
X0043364Y0043911D02*
X0055898Y0043911D01*
X0055687Y0044121D02*
X0055687Y0044121D01*
X0056896Y0042912D02*
X0043364Y0042912D01*
X0043364Y0041914D02*
X0057988Y0041914D01*
X0055136Y0038918D02*
X0054265Y0038918D01*
X0054288Y0038877D02*
X0054091Y0039219D01*
X0053811Y0039499D01*
X0053469Y0039696D01*
X0053088Y0039798D01*
X0049847Y0039798D01*
X0049847Y0035058D01*
X0054390Y0035058D01*
X0054390Y0038496D01*
X0054288Y0038877D01*
X0054390Y0037920D02*
X0055055Y0037920D01*
X0055055Y0036921D02*
X0054390Y0036921D01*
X0054390Y0035923D02*
X0055055Y0035923D01*
X0055055Y0034924D02*
X0049847Y0034924D01*
X0049847Y0035923D02*
X0048847Y0035923D01*
X0048847Y0035058D02*
X0048847Y0039798D01*
X0045606Y0039798D01*
X0045225Y0039696D01*
X0044883Y0039499D01*
X0044604Y0039219D01*
X0044406Y0038877D01*
X0044304Y0038496D01*
X0044304Y0035058D01*
X0048847Y0035058D01*
X0048847Y0034924D02*
X0040579Y0034924D01*
X0040579Y0035340D02*
X0043564Y0035340D01*
X0043564Y0036508D01*
X0043421Y0037040D01*
X0043146Y0037517D01*
X0042757Y0037906D01*
X0042280Y0038181D01*
X0041748Y0038324D01*
X0040579Y0038324D01*
X0040579Y0035340D01*
X0039611Y0035340D01*
X0039611Y0038324D01*
X0038442Y0038324D01*
X0037910Y0038181D01*
X0037434Y0037906D01*
X0037044Y0037517D01*
X0036769Y0037040D01*
X0036627Y0036508D01*
X0036627Y0035340D01*
X0039611Y0035340D01*
X0039611Y0034371D01*
X0040579Y0034371D01*
X0040579Y0031387D01*
X0041748Y0031387D01*
X0042280Y0031529D01*
X0042757Y0031805D01*
X0043146Y0032194D01*
X0043421Y0032670D01*
X0043564Y0033202D01*
X0043564Y0034371D01*
X0040579Y0034371D01*
X0040579Y0035340D01*
X0040579Y0035923D02*
X0039611Y0035923D01*
X0039611Y0036921D02*
X0040579Y0036921D01*
X0040579Y0037920D02*
X0039611Y0037920D01*
X0039611Y0034924D02*
X0036595Y0034924D01*
X0036627Y0034371D02*
X0036627Y0033202D01*
X0036769Y0032670D01*
X0037044Y0032194D01*
X0037434Y0031805D01*
X0037910Y0031529D01*
X0038442Y0031387D01*
X0039611Y0031387D01*
X0039611Y0034371D01*
X0036627Y0034371D01*
X0036627Y0033926D02*
X0036595Y0033926D01*
X0036595Y0032927D02*
X0036700Y0032927D01*
X0036612Y0031929D02*
X0037309Y0031929D01*
X0039611Y0031929D02*
X0040579Y0031929D01*
X0040579Y0032927D02*
X0039611Y0032927D01*
X0039611Y0033926D02*
X0040579Y0033926D01*
X0043564Y0033926D02*
X0044304Y0033926D01*
X0044304Y0032927D02*
X0043490Y0032927D01*
X0042881Y0031929D02*
X0044304Y0031929D01*
X0044304Y0035923D02*
X0043564Y0035923D01*
X0043453Y0036921D02*
X0044304Y0036921D01*
X0044304Y0037920D02*
X0042733Y0037920D01*
X0042682Y0038918D02*
X0044430Y0038918D01*
X0043364Y0039917D02*
X0086827Y0039917D01*
X0086827Y0040915D02*
X0071616Y0040915D01*
X0072369Y0041914D02*
X0086827Y0041914D01*
X0086827Y0042912D02*
X0072402Y0042912D01*
X0072402Y0043911D02*
X0086827Y0043911D01*
X0087814Y0044909D02*
X0072402Y0044909D01*
X0072402Y0044991D02*
X0072402Y0047945D01*
X0072300Y0048326D01*
X0072103Y0048668D01*
X0071823Y0048947D01*
X0071481Y0049145D01*
X0071100Y0049247D01*
X0070213Y0049247D01*
X0070213Y0044991D01*
X0070213Y0044991D01*
X0070213Y0044991D01*
X0072402Y0044991D01*
X0072402Y0045908D02*
X0088295Y0045908D01*
X0088295Y0046906D02*
X0072402Y0046906D01*
X0072402Y0047905D02*
X0088295Y0047905D01*
X0088295Y0048903D02*
X0071867Y0048903D01*
X0070213Y0048903D02*
X0070213Y0048903D01*
X0070213Y0047905D02*
X0070213Y0047905D01*
X0070213Y0046906D02*
X0070213Y0046906D01*
X0070213Y0045908D02*
X0070213Y0045908D01*
X0070213Y0044909D02*
X0070213Y0044909D01*
X0070213Y0043911D02*
X0070213Y0043911D01*
X0070213Y0042912D02*
X0070213Y0042912D01*
X0070213Y0041914D02*
X0070213Y0041914D01*
X0070213Y0040915D02*
X0070213Y0040915D01*
X0068811Y0040915D02*
X0043364Y0040915D01*
X0040095Y0041761D02*
X0040095Y0056837D01*
X0037173Y0059887D02*
X0036595Y0059887D01*
X0036595Y0060885D02*
X0036827Y0060885D01*
X0036827Y0061884D02*
X0036595Y0061884D01*
X0036595Y0062882D02*
X0036827Y0062882D01*
X0036827Y0063881D02*
X0036595Y0063881D01*
X0036595Y0064879D02*
X0036827Y0064879D01*
X0036827Y0065878D02*
X0036595Y0065878D01*
X0036595Y0066877D02*
X0037470Y0066877D01*
X0038295Y0067875D02*
X0036595Y0067875D01*
X0036595Y0068874D02*
X0038888Y0068874D01*
X0039886Y0069872D02*
X0036595Y0069872D01*
X0036595Y0070871D02*
X0044428Y0070871D01*
X0045427Y0071869D02*
X0036595Y0071869D01*
X0036595Y0072868D02*
X0037184Y0072868D01*
X0037206Y0072846D02*
X0037548Y0072648D01*
X0037929Y0072546D01*
X0039611Y0072546D01*
X0039611Y0075727D01*
X0036627Y0075727D01*
X0036627Y0073849D01*
X0036729Y0073467D01*
X0036926Y0073125D01*
X0037206Y0072846D01*
X0036627Y0073866D02*
X0036595Y0073866D01*
X0036595Y0074865D02*
X0036627Y0074865D01*
X0036595Y0075863D02*
X0039611Y0075863D01*
X0040579Y0075863D02*
X0049421Y0075863D01*
X0048422Y0074865D02*
X0043564Y0074865D01*
X0043564Y0073866D02*
X0047424Y0073866D01*
X0046425Y0072868D02*
X0043006Y0072868D01*
X0040579Y0072868D02*
X0039611Y0072868D01*
X0039611Y0073866D02*
X0040579Y0073866D01*
X0040579Y0074865D02*
X0039611Y0074865D01*
X0037170Y0079857D02*
X0036595Y0079857D01*
X0036595Y0078859D02*
X0036703Y0078859D01*
X0036627Y0077860D02*
X0036595Y0077860D01*
X0036595Y0076862D02*
X0036627Y0076862D01*
X0036595Y0080856D02*
X0036827Y0080856D01*
X0036827Y0081854D02*
X0036595Y0081854D01*
X0036595Y0082853D02*
X0036827Y0082853D01*
X0036827Y0083851D02*
X0036595Y0083851D01*
X0036595Y0084850D02*
X0036827Y0084850D01*
X0036595Y0085848D02*
X0037066Y0085848D01*
X0036595Y0086847D02*
X0037573Y0086847D01*
X0037445Y0087845D02*
X0036595Y0087845D01*
X0036595Y0088844D02*
X0037708Y0088844D01*
X0038507Y0089842D02*
X0036595Y0089842D01*
X0036595Y0090841D02*
X0037431Y0090841D01*
X0037548Y0090773D02*
X0037929Y0090671D01*
X0039611Y0090671D01*
X0039611Y0093852D01*
X0036627Y0093852D01*
X0036627Y0091974D01*
X0036729Y0091592D01*
X0036926Y0091250D01*
X0037206Y0090971D01*
X0037548Y0090773D01*
X0036663Y0091839D02*
X0036595Y0091839D01*
X0036595Y0092838D02*
X0036627Y0092838D01*
X0036595Y0093836D02*
X0036627Y0093836D01*
X0036595Y0094835D02*
X0036627Y0094835D01*
X0036595Y0095833D02*
X0036627Y0095833D01*
X0036595Y0096832D02*
X0036662Y0096832D01*
X0036595Y0097830D02*
X0037322Y0097830D01*
X0036827Y0098829D02*
X0036595Y0098829D01*
X0036595Y0099827D02*
X0036827Y0099827D01*
X0036827Y0100826D02*
X0036595Y0100826D01*
X0036595Y0101824D02*
X0036755Y0101824D01*
X0036970Y0104155D02*
X0040095Y0101030D01*
X0043333Y0097791D01*
X0048166Y0097791D01*
X0058953Y0097791D01*
X0062142Y0100980D01*
X0062142Y0105862D01*
X0060174Y0105862D02*
X0060174Y0109637D01*
X0061345Y0110808D01*
X0070720Y0110808D01*
X0072595Y0112683D01*
X0072595Y0118633D01*
X0070095Y0118799D02*
X0070095Y0118799D01*
X0070095Y0117801D02*
X0070095Y0117801D01*
X0070095Y0116802D02*
X0070095Y0116802D01*
X0070095Y0115804D02*
X0070095Y0115804D01*
X0070095Y0114805D02*
X0070095Y0114805D01*
X0070095Y0113807D02*
X0070095Y0113807D01*
X0070095Y0113745D02*
X0070095Y0123522D01*
X0069869Y0123748D01*
X0070245Y0124656D01*
X0070245Y0125710D01*
X0069842Y0126684D01*
X0069096Y0127430D01*
X0068122Y0127833D01*
X0067915Y0127833D01*
X0067820Y0127928D01*
X0066590Y0129158D01*
X0054090Y0129158D01*
X0054070Y0129178D01*
X0054070Y0129621D01*
X0054477Y0129621D01*
X0055239Y0130383D01*
X0055239Y0133918D01*
X0055474Y0133683D01*
X0055816Y0133485D01*
X0056198Y0133383D01*
X0057495Y0133383D01*
X0057495Y0139133D01*
X0057695Y0139133D01*
X0057695Y0133383D01*
X0058993Y0133383D01*
X0059374Y0133485D01*
X0059716Y0133683D01*
X0059995Y0133962D01*
X0060172Y0134268D01*
X0060795Y0133645D01*
X0060795Y0133187D01*
X0063295Y0130687D01*
X0064350Y0129633D01*
X0076850Y0129633D01*
X0076988Y0129495D01*
X0076338Y0129495D01*
X0075577Y0128733D01*
X0075577Y0123326D01*
X0076219Y0122683D01*
X0075577Y0122040D01*
X0075577Y0116633D01*
X0076338Y0115871D01*
X0081352Y0115871D01*
X0082114Y0116633D01*
X0082114Y0117894D01*
X0082856Y0116101D01*
X0084263Y0114694D01*
X0086101Y0113933D01*
X0088090Y0113933D01*
X0089927Y0114694D01*
X0091334Y0116101D01*
X0092095Y0117938D01*
X0092095Y0119928D01*
X0091334Y0121765D01*
X0089927Y0123172D01*
X0088090Y0123933D01*
X0086101Y0123933D01*
X0084395Y0123227D01*
X0084395Y0125562D01*
X0085263Y0124694D01*
X0087101Y0123933D01*
X0089090Y0123933D01*
X0090927Y0124694D01*
X0092334Y0126101D01*
X0093095Y0127938D01*
X0093095Y0129928D01*
X0092334Y0131765D01*
X0090927Y0133172D01*
X0089090Y0133933D01*
X0087101Y0133933D01*
X0085263Y0133172D01*
X0083856Y0131765D01*
X0083429Y0130733D01*
X0083100Y0130733D01*
X0082045Y0129679D01*
X0081607Y0129240D01*
X0081352Y0129495D01*
X0080645Y0129495D01*
X0080645Y0130929D01*
X0079395Y0132179D01*
X0078341Y0133233D01*
X0065841Y0133233D01*
X0064912Y0134162D01*
X0065095Y0134345D01*
X0065857Y0133583D01*
X0069334Y0133583D01*
X0070095Y0134345D01*
X0070857Y0133583D01*
X0074334Y0133583D01*
X0075095Y0134345D01*
X0075095Y0144122D01*
X0074334Y0144883D01*
X0070857Y0144883D01*
X0070095Y0144122D01*
X0070095Y0134345D01*
X0070095Y0144122D01*
X0069395Y0144822D01*
X0069395Y0147133D01*
X0076350Y0147133D01*
X0082523Y0140960D01*
X0082095Y0139928D01*
X0082095Y0137938D01*
X0082856Y0136101D01*
X0084263Y0134694D01*
X0086101Y0133933D01*
X0088090Y0133933D01*
X0089927Y0134694D01*
X0091334Y0136101D01*
X0092095Y0137938D01*
X0092095Y0139928D01*
X0091334Y0141765D01*
X0093595Y0141765D01*
X0093595Y0142763D02*
X0090336Y0142763D01*
X0089927Y0143172D02*
X0088090Y0143933D01*
X0086101Y0143933D01*
X0085068Y0143505D01*
X0077841Y0150733D01*
X0069395Y0150733D01*
X0069395Y0161498D01*
X0070275Y0161133D01*
X0072383Y0161133D01*
X0074331Y0161940D01*
X0075822Y0163431D01*
X0076629Y0165379D01*
X0076629Y0167487D01*
X0075822Y0169435D01*
X0074331Y0170926D01*
X0072383Y0171733D01*
X0070275Y0171733D01*
X0068327Y0170926D01*
X0066836Y0169435D01*
X0066029Y0167487D01*
X0066029Y0165379D01*
X0066527Y0164177D01*
X0065795Y0163445D01*
X0065795Y0144822D01*
X0065095Y0144122D01*
X0065095Y0134345D01*
X0065095Y0144122D01*
X0064395Y0144822D01*
X0064395Y0163533D01*
X0063752Y0164177D01*
X0064250Y0165379D01*
X0064250Y0167487D01*
X0063443Y0169435D01*
X0061952Y0170926D01*
X0060004Y0171733D01*
X0057895Y0171733D01*
X0055947Y0170926D01*
X0054457Y0169435D01*
X0053650Y0167487D01*
X0053650Y0165379D01*
X0054457Y0163431D01*
X0055947Y0161940D01*
X0057895Y0161133D01*
X0060004Y0161133D01*
X0060795Y0161461D01*
X0060795Y0144822D01*
X0060172Y0144198D01*
X0059995Y0144504D01*
X0059716Y0144783D01*
X0059374Y0144981D01*
X0058993Y0145083D01*
X0057695Y0145083D01*
X0057695Y0139333D01*
X0057495Y0139333D01*
X0057495Y0145083D01*
X0056198Y0145083D01*
X0055816Y0144981D01*
X0055474Y0144783D01*
X0055195Y0144504D01*
X0054997Y0144162D01*
X0054895Y0143781D01*
X0054895Y0143110D01*
X0054860Y0143145D01*
X0054518Y0143343D01*
X0054136Y0143445D01*
X0052454Y0143445D01*
X0052454Y0141933D01*
X0052388Y0141933D01*
X0052095Y0141640D01*
X0052095Y0140264D01*
X0051486Y0140264D01*
X0051486Y0143445D01*
X0049804Y0143445D01*
X0049423Y0143343D01*
X0049081Y0143145D01*
X0048801Y0142866D01*
X0048604Y0142524D01*
X0048502Y0142142D01*
X0048502Y0140264D01*
X0051486Y0140264D01*
X0051486Y0139295D01*
X0048502Y0139295D01*
X0048502Y0137417D01*
X0048604Y0137035D01*
X0048801Y0136693D01*
X0049081Y0136414D01*
X0049236Y0136324D01*
X0048702Y0135790D01*
X0048702Y0130383D01*
X0049463Y0129621D01*
X0049870Y0129621D01*
X0049870Y0127438D01*
X0051100Y0126208D01*
X0052350Y0124958D01*
X0064850Y0124958D01*
X0064945Y0124863D01*
X0064945Y0124656D01*
X0065321Y0123748D01*
X0065172Y0123598D01*
X0064995Y0123904D01*
X0064716Y0124183D01*
X0064374Y0124381D01*
X0063993Y0124483D01*
X0062695Y0124483D01*
X0062695Y0118733D01*
X0062495Y0118733D01*
X0062495Y0124483D01*
X0061198Y0124483D01*
X0060816Y0124381D01*
X0060474Y0124183D01*
X0060195Y0123904D01*
X0060018Y0123598D01*
X0059334Y0124283D01*
X0055857Y0124283D01*
X0055095Y0123522D01*
X0055095Y0113745D01*
X0055857Y0112983D01*
X0056405Y0112983D01*
X0056405Y0110315D01*
X0056237Y0110315D01*
X0056237Y0105862D01*
X0056237Y0101409D01*
X0056926Y0101409D01*
X0057308Y0101512D01*
X0057477Y0101609D01*
X0060226Y0101609D01*
X0058208Y0099591D01*
X0052419Y0099591D01*
X0052419Y0100790D01*
X0051657Y0101552D01*
X0050242Y0101552D01*
X0050242Y0102133D01*
X0052714Y0102133D01*
X0053238Y0101609D01*
X0054996Y0101609D01*
X0055166Y0101512D01*
X0055547Y0101409D01*
X0056237Y0101409D01*
X0056237Y0105862D01*
X0056237Y0105862D01*
X0056237Y0105862D01*
X0056237Y0110315D01*
X0055547Y0110315D01*
X0055166Y0110213D01*
X0054996Y0110115D01*
X0053238Y0110115D01*
X0052476Y0109353D01*
X0052476Y0106616D01*
X0052468Y0106608D01*
X0052468Y0105733D01*
X0051214Y0105733D01*
X0051907Y0106426D01*
X0051907Y0111440D01*
X0051145Y0112202D01*
X0050242Y0112202D01*
X0050242Y0113332D01*
X0046668Y0116906D01*
X0047095Y0117938D01*
X0047095Y0119928D01*
X0046334Y0121765D01*
X0044927Y0123172D01*
X0043090Y0123933D01*
X0041101Y0123933D01*
X0039462Y0123254D01*
X0040715Y0124507D01*
X0042101Y0123933D01*
X0044090Y0123933D01*
X0045927Y0124694D01*
X0047334Y0126101D01*
X0048095Y0127938D01*
X0048095Y0129928D01*
X0047334Y0131765D01*
X0045927Y0133172D01*
X0044090Y0133933D01*
X0042101Y0133933D01*
X0040263Y0133172D01*
X0038856Y0131765D01*
X0038095Y0129928D01*
X0038095Y0127938D01*
X0038376Y0127260D01*
X0036595Y0125479D01*
X0036595Y0176433D01*
X0036629Y0176692D01*
X0036888Y0177140D01*
X0037336Y0177399D01*
X0037595Y0177433D01*
X0092595Y0177433D01*
X0092854Y0177399D01*
X0093302Y0177140D01*
X0093561Y0176692D01*
X0093595Y0176433D01*
X0093595Y0098708D01*
X0089057Y0098708D01*
X0088295Y0097947D01*
X0088295Y0097623D01*
X0086477Y0097623D01*
X0086477Y0097791D01*
X0082024Y0097791D01*
X0077572Y0097791D01*
X0077572Y0097102D01*
X0077674Y0096720D01*
X0077772Y0096551D01*
X0077772Y0095654D01*
X0070521Y0095654D01*
X0069466Y0094600D01*
X0069350Y0094483D01*
X0069350Y0094483D01*
X0068295Y0093429D01*
X0068295Y0088187D01*
X0069545Y0086937D01*
X0069900Y0086583D01*
X0069568Y0086583D01*
X0068594Y0086180D01*
X0068226Y0085812D01*
X0052619Y0085812D01*
X0052619Y0085980D01*
X0048166Y0085980D01*
X0048166Y0085980D01*
X0043713Y0085980D01*
X0048166Y0085980D01*
X0048166Y0085980D01*
X0052619Y0085980D01*
X0052619Y0086670D01*
X0052517Y0087051D01*
X0052419Y0087221D01*
X0052419Y0095991D01*
X0059699Y0095991D01*
X0060753Y0097046D01*
X0063942Y0100235D01*
X0063942Y0101609D01*
X0074122Y0101609D01*
X0074122Y0101398D01*
X0073594Y0101180D01*
X0072849Y0100434D01*
X0072445Y0099460D01*
X0072445Y0098406D01*
X0072849Y0097432D01*
X0073594Y0096687D01*
X0074568Y0096283D01*
X0075622Y0096283D01*
X0076596Y0096687D01*
X0077342Y0097432D01*
X0077572Y0097987D01*
X0077572Y0097791D01*
X0082024Y0097791D01*
X0082024Y0097791D01*
X0082024Y0097791D01*
X0086477Y0097791D01*
X0086477Y0098481D01*
X0086375Y0098862D01*
X0086277Y0099032D01*
X0086277Y0100790D01*
X0085516Y0101552D01*
X0083824Y0101552D01*
X0083824Y0102040D01*
X0084217Y0102432D01*
X0084620Y0103406D01*
X0084620Y0104460D01*
X0084217Y0105434D01*
X0083986Y0105665D01*
X0084453Y0105665D01*
X0084986Y0106199D01*
X0085076Y0106044D01*
X0085355Y0105764D01*
X0085697Y0105567D01*
X0086079Y0105465D01*
X0087957Y0105465D01*
X0087957Y0108449D01*
X0088926Y0108449D01*
X0088926Y0109417D01*
X0092107Y0109417D01*
X0092107Y0111099D01*
X0092005Y0111481D01*
X0091807Y0111823D01*
X0091528Y0112102D01*
X0091186Y0112299D01*
X0090804Y0112402D01*
X0088926Y0112402D01*
X0088926Y0109417D01*
X0087957Y0109417D01*
X0087957Y0112402D01*
X0086079Y0112402D01*
X0085697Y0112299D01*
X0085355Y0112102D01*
X0085076Y0111823D01*
X0084986Y0111668D01*
X0084453Y0112202D01*
X0079045Y0112202D01*
X0078283Y0111440D01*
X0078283Y0106426D01*
X0079045Y0105665D01*
X0079954Y0105665D01*
X0079724Y0105434D01*
X0079320Y0104460D01*
X0079320Y0103406D01*
X0079724Y0102432D01*
X0080224Y0101931D01*
X0080224Y0101552D01*
X0078533Y0101552D01*
X0077772Y0100790D01*
X0077772Y0099032D01*
X0077745Y0098986D01*
X0077745Y0099460D01*
X0077722Y0099516D01*
X0077722Y0106608D01*
X0077714Y0106616D01*
X0077714Y0109353D01*
X0076953Y0110115D01*
X0072573Y0110115D01*
X0074395Y0111937D01*
X0074395Y0113045D01*
X0075095Y0113745D01*
X0075095Y0123522D01*
X0074334Y0124283D01*
X0070857Y0124283D01*
X0070095Y0123522D01*
X0070095Y0113745D01*
X0069334Y0112983D01*
X0065857Y0112983D01*
X0065172Y0113668D01*
X0064995Y0113362D01*
X0064716Y0113083D01*
X0064374Y0112885D01*
X0063993Y0112783D01*
X0062695Y0112783D01*
X0062695Y0118533D01*
X0062495Y0118533D01*
X0062495Y0112783D01*
X0061198Y0112783D01*
X0060816Y0112885D01*
X0060474Y0113083D01*
X0060195Y0113362D01*
X0060018Y0113668D01*
X0060005Y0113655D01*
X0060005Y0112014D01*
X0060600Y0112608D01*
X0069975Y0112608D01*
X0070603Y0113237D01*
X0070095Y0113745D01*
X0070175Y0112808D02*
X0064086Y0112808D01*
X0062695Y0112808D02*
X0062495Y0112808D01*
X0062495Y0113807D02*
X0062695Y0113807D01*
X0062695Y0114805D02*
X0062495Y0114805D01*
X0062495Y0115804D02*
X0062695Y0115804D01*
X0062695Y0116802D02*
X0062495Y0116802D01*
X0062495Y0117801D02*
X0062695Y0117801D01*
X0062695Y0118799D02*
X0062495Y0118799D01*
X0062495Y0119798D02*
X0062695Y0119798D01*
X0062695Y0120796D02*
X0062495Y0120796D01*
X0062495Y0121795D02*
X0062695Y0121795D01*
X0062695Y0122793D02*
X0062495Y0122793D01*
X0062495Y0123792D02*
X0062695Y0123792D01*
X0065060Y0123792D02*
X0065303Y0123792D01*
X0064945Y0124790D02*
X0046023Y0124790D01*
X0047022Y0125789D02*
X0051520Y0125789D01*
X0050521Y0126787D02*
X0047618Y0126787D01*
X0048032Y0127786D02*
X0049870Y0127786D01*
X0049870Y0128784D02*
X0048095Y0128784D01*
X0048095Y0129783D02*
X0049302Y0129783D01*
X0048702Y0130781D02*
X0047742Y0130781D01*
X0047320Y0131780D02*
X0048702Y0131780D01*
X0048702Y0132778D02*
X0046321Y0132778D01*
X0044467Y0133777D02*
X0048702Y0133777D01*
X0048702Y0134775D02*
X0045008Y0134775D01*
X0044927Y0134694D02*
X0046334Y0136101D01*
X0047095Y0137938D01*
X0047095Y0139928D01*
X0046334Y0141765D01*
X0048502Y0141765D01*
X0048502Y0140766D02*
X0046748Y0140766D01*
X0047095Y0139768D02*
X0051486Y0139768D01*
X0051970Y0139558D02*
X0057595Y0139558D01*
X0057495Y0139768D02*
X0057695Y0139768D01*
X0057695Y0140766D02*
X0057495Y0140766D01*
X0057495Y0141765D02*
X0057695Y0141765D01*
X0057695Y0142763D02*
X0057495Y0142763D01*
X0057495Y0143762D02*
X0057695Y0143762D01*
X0057695Y0144760D02*
X0057495Y0144760D01*
X0055451Y0144760D02*
X0036595Y0144760D01*
X0036595Y0143762D02*
X0040687Y0143762D01*
X0041101Y0143933D02*
X0039263Y0143172D01*
X0037856Y0141765D01*
X0036595Y0141765D01*
X0036595Y0142763D02*
X0038854Y0142763D01*
X0037856Y0141765D02*
X0037095Y0139928D01*
X0037095Y0137938D01*
X0037856Y0136101D01*
X0039263Y0134694D01*
X0041101Y0133933D01*
X0043090Y0133933D01*
X0044927Y0134694D01*
X0046007Y0135774D02*
X0048702Y0135774D01*
X0048756Y0136772D02*
X0046612Y0136772D01*
X0047026Y0137771D02*
X0048502Y0137771D01*
X0048502Y0138769D02*
X0047095Y0138769D01*
X0046334Y0141765D02*
X0044927Y0143172D01*
X0043090Y0143933D01*
X0041101Y0143933D01*
X0043503Y0143762D02*
X0054895Y0143762D01*
X0052454Y0142763D02*
X0051486Y0142763D01*
X0051486Y0141765D02*
X0052220Y0141765D01*
X0052095Y0140766D02*
X0051486Y0140766D01*
X0048742Y0142763D02*
X0045336Y0142763D01*
X0041723Y0133777D02*
X0036595Y0133777D01*
X0036595Y0134775D02*
X0039182Y0134775D01*
X0038183Y0135774D02*
X0036595Y0135774D01*
X0036595Y0136772D02*
X0037578Y0136772D01*
X0037165Y0137771D02*
X0036595Y0137771D01*
X0036595Y0138769D02*
X0037095Y0138769D01*
X0037095Y0139768D02*
X0036595Y0139768D01*
X0036595Y0140766D02*
X0037443Y0140766D01*
X0036595Y0145759D02*
X0060795Y0145759D01*
X0060795Y0146757D02*
X0036595Y0146757D01*
X0036595Y0147756D02*
X0060795Y0147756D01*
X0060795Y0148754D02*
X0036595Y0148754D01*
X0036595Y0149753D02*
X0060795Y0149753D01*
X0060795Y0150751D02*
X0036595Y0150751D01*
X0036595Y0151750D02*
X0060795Y0151750D01*
X0060795Y0152748D02*
X0036595Y0152748D01*
X0036595Y0153747D02*
X0060795Y0153747D01*
X0060795Y0154745D02*
X0036595Y0154745D01*
X0036595Y0155744D02*
X0060795Y0155744D01*
X0060795Y0156743D02*
X0036595Y0156743D01*
X0036595Y0157741D02*
X0060795Y0157741D01*
X0060795Y0158740D02*
X0036595Y0158740D01*
X0036595Y0159738D02*
X0060795Y0159738D01*
X0060795Y0160737D02*
X0036595Y0160737D01*
X0036595Y0161735D02*
X0038630Y0161735D01*
X0038470Y0161895D02*
X0039232Y0161133D01*
X0048309Y0161133D01*
X0049070Y0161895D01*
X0049070Y0170972D01*
X0048309Y0171733D01*
X0039232Y0171733D01*
X0038470Y0170972D01*
X0038470Y0161895D01*
X0038470Y0162734D02*
X0036595Y0162734D01*
X0036595Y0163732D02*
X0038470Y0163732D01*
X0038470Y0164731D02*
X0036595Y0164731D01*
X0036595Y0165729D02*
X0038470Y0165729D01*
X0038470Y0166728D02*
X0036595Y0166728D01*
X0036595Y0167726D02*
X0038470Y0167726D01*
X0038470Y0168725D02*
X0036595Y0168725D01*
X0036595Y0169723D02*
X0038470Y0169723D01*
X0038470Y0170722D02*
X0036595Y0170722D01*
X0036595Y0171720D02*
X0039219Y0171720D01*
X0036595Y0172719D02*
X0093595Y0172719D01*
X0093595Y0173717D02*
X0036595Y0173717D01*
X0036595Y0174716D02*
X0093595Y0174716D01*
X0093595Y0175714D02*
X0036595Y0175714D01*
X0036641Y0176713D02*
X0093549Y0176713D01*
X0093595Y0171720D02*
X0088035Y0171720D01*
X0087797Y0171798D02*
X0087009Y0171922D01*
X0087009Y0166933D01*
X0091998Y0166933D01*
X0091873Y0167721D01*
X0091606Y0168544D01*
X0091213Y0169316D01*
X0090704Y0170016D01*
X0090092Y0170628D01*
X0089391Y0171137D01*
X0088620Y0171530D01*
X0087797Y0171798D01*
X0087009Y0171720D02*
X0086009Y0171720D01*
X0086009Y0171922D02*
X0085221Y0171798D01*
X0084397Y0171530D01*
X0083626Y0171137D01*
X0082926Y0170628D01*
X0082314Y0170016D01*
X0081805Y0169316D01*
X0081412Y0168544D01*
X0081144Y0167721D01*
X0081019Y0166933D01*
X0086009Y0166933D01*
X0086009Y0171922D01*
X0084982Y0171720D02*
X0072415Y0171720D01*
X0070244Y0171720D02*
X0060035Y0171720D01*
X0057864Y0171720D02*
X0048321Y0171720D01*
X0049070Y0170722D02*
X0055743Y0170722D01*
X0054744Y0169723D02*
X0049070Y0169723D01*
X0049070Y0168725D02*
X0054162Y0168725D01*
X0053749Y0167726D02*
X0049070Y0167726D01*
X0049070Y0166728D02*
X0053650Y0166728D01*
X0053650Y0165729D02*
X0049070Y0165729D01*
X0049070Y0164731D02*
X0053918Y0164731D01*
X0054332Y0163732D02*
X0049070Y0163732D01*
X0049070Y0162734D02*
X0055154Y0162734D01*
X0056442Y0161735D02*
X0048911Y0161735D01*
X0058950Y0166433D02*
X0062595Y0162788D01*
X0062595Y0139233D01*
X0062595Y0133933D01*
X0065095Y0131433D01*
X0077595Y0131433D01*
X0078845Y0130183D01*
X0078845Y0126030D01*
X0080645Y0129783D02*
X0082149Y0129783D01*
X0083449Y0130781D02*
X0080645Y0130781D01*
X0079794Y0131780D02*
X0083871Y0131780D01*
X0084869Y0132778D02*
X0078796Y0132778D01*
X0082165Y0137771D02*
X0075095Y0137771D01*
X0075095Y0138769D02*
X0082095Y0138769D01*
X0082095Y0139768D02*
X0075095Y0139768D01*
X0075095Y0140766D02*
X0082443Y0140766D01*
X0081718Y0141765D02*
X0075095Y0141765D01*
X0075095Y0142763D02*
X0080719Y0142763D01*
X0079721Y0143762D02*
X0075095Y0143762D01*
X0074456Y0144760D02*
X0078722Y0144760D01*
X0077724Y0145759D02*
X0069395Y0145759D01*
X0069395Y0146757D02*
X0076725Y0146757D01*
X0077095Y0148933D02*
X0087095Y0138933D01*
X0085687Y0143762D02*
X0084812Y0143762D01*
X0083813Y0144760D02*
X0093595Y0144760D01*
X0093595Y0143762D02*
X0088503Y0143762D01*
X0089927Y0143172D02*
X0091334Y0141765D01*
X0091748Y0140766D02*
X0093595Y0140766D01*
X0093595Y0139768D02*
X0092095Y0139768D01*
X0092095Y0138769D02*
X0093595Y0138769D01*
X0093595Y0137771D02*
X0092026Y0137771D01*
X0091612Y0136772D02*
X0093595Y0136772D01*
X0093595Y0135774D02*
X0091007Y0135774D01*
X0090008Y0134775D02*
X0093595Y0134775D01*
X0093595Y0133777D02*
X0089467Y0133777D01*
X0091321Y0132778D02*
X0093595Y0132778D01*
X0093595Y0131780D02*
X0092320Y0131780D01*
X0092742Y0130781D02*
X0093595Y0130781D01*
X0093595Y0129783D02*
X0093095Y0129783D01*
X0093095Y0128784D02*
X0093595Y0128784D01*
X0093595Y0127786D02*
X0093032Y0127786D01*
X0092618Y0126787D02*
X0093595Y0126787D01*
X0093595Y0125789D02*
X0092022Y0125789D01*
X0091023Y0124790D02*
X0093595Y0124790D01*
X0093595Y0123792D02*
X0088431Y0123792D01*
X0090306Y0122793D02*
X0093595Y0122793D01*
X0093595Y0121795D02*
X0091305Y0121795D01*
X0091735Y0120796D02*
X0093595Y0120796D01*
X0093595Y0119798D02*
X0092095Y0119798D01*
X0092095Y0118799D02*
X0093595Y0118799D01*
X0093595Y0117801D02*
X0092038Y0117801D01*
X0091624Y0116802D02*
X0093595Y0116802D01*
X0093595Y0115804D02*
X0091037Y0115804D01*
X0090038Y0114805D02*
X0093595Y0114805D01*
X0093595Y0113807D02*
X0075095Y0113807D01*
X0075095Y0114805D02*
X0084152Y0114805D01*
X0083154Y0115804D02*
X0075095Y0115804D01*
X0075095Y0116802D02*
X0075577Y0116802D01*
X0075577Y0117801D02*
X0075095Y0117801D01*
X0075095Y0118799D02*
X0075577Y0118799D01*
X0075577Y0119798D02*
X0075095Y0119798D01*
X0075095Y0120796D02*
X0075577Y0120796D01*
X0075577Y0121795D02*
X0075095Y0121795D01*
X0075095Y0122793D02*
X0076109Y0122793D01*
X0075577Y0123792D02*
X0074825Y0123792D01*
X0075577Y0124790D02*
X0070245Y0124790D01*
X0070213Y0125789D02*
X0075577Y0125789D01*
X0075577Y0126787D02*
X0069739Y0126787D01*
X0068237Y0127786D02*
X0075577Y0127786D01*
X0075627Y0128784D02*
X0066964Y0128784D01*
X0065663Y0133777D02*
X0065297Y0133777D01*
X0065095Y0134775D02*
X0065095Y0134775D01*
X0065095Y0135774D02*
X0065095Y0135774D01*
X0065095Y0136772D02*
X0065095Y0136772D01*
X0065095Y0137771D02*
X0065095Y0137771D01*
X0065095Y0138769D02*
X0065095Y0138769D01*
X0065095Y0139768D02*
X0065095Y0139768D01*
X0065095Y0140766D02*
X0065095Y0140766D01*
X0065095Y0141765D02*
X0065095Y0141765D01*
X0065095Y0142763D02*
X0065095Y0142763D01*
X0065095Y0143762D02*
X0065095Y0143762D01*
X0064456Y0144760D02*
X0065734Y0144760D01*
X0065795Y0145759D02*
X0064395Y0145759D01*
X0064395Y0146757D02*
X0065795Y0146757D01*
X0065795Y0147756D02*
X0064395Y0147756D01*
X0064395Y0148754D02*
X0065795Y0148754D01*
X0065795Y0149753D02*
X0064395Y0149753D01*
X0064395Y0150751D02*
X0065795Y0150751D01*
X0065795Y0151750D02*
X0064395Y0151750D01*
X0064395Y0152748D02*
X0065795Y0152748D01*
X0065795Y0153747D02*
X0064395Y0153747D01*
X0064395Y0154745D02*
X0065795Y0154745D01*
X0065795Y0155744D02*
X0064395Y0155744D01*
X0064395Y0156743D02*
X0065795Y0156743D01*
X0065795Y0157741D02*
X0064395Y0157741D01*
X0064395Y0158740D02*
X0065795Y0158740D01*
X0065795Y0159738D02*
X0064395Y0159738D01*
X0064395Y0160737D02*
X0065795Y0160737D01*
X0065795Y0161735D02*
X0064395Y0161735D01*
X0064395Y0162734D02*
X0065795Y0162734D01*
X0066083Y0163732D02*
X0064196Y0163732D01*
X0063981Y0164731D02*
X0066298Y0164731D01*
X0066029Y0165729D02*
X0064250Y0165729D01*
X0064250Y0166728D02*
X0066029Y0166728D01*
X0066128Y0167726D02*
X0064151Y0167726D01*
X0063737Y0168725D02*
X0066542Y0168725D01*
X0067124Y0169723D02*
X0063155Y0169723D01*
X0062156Y0170722D02*
X0068122Y0170722D01*
X0071329Y0166433D02*
X0067595Y0162699D01*
X0067595Y0148933D01*
X0077095Y0148933D01*
X0078821Y0149753D02*
X0093595Y0149753D01*
X0093595Y0150751D02*
X0069395Y0150751D01*
X0069395Y0151750D02*
X0093595Y0151750D01*
X0093595Y0152748D02*
X0069395Y0152748D01*
X0069395Y0153747D02*
X0093595Y0153747D01*
X0093595Y0154745D02*
X0069395Y0154745D01*
X0069395Y0155744D02*
X0093595Y0155744D01*
X0093595Y0156743D02*
X0069395Y0156743D01*
X0069395Y0157741D02*
X0093595Y0157741D01*
X0093595Y0158740D02*
X0069395Y0158740D01*
X0069395Y0159738D02*
X0093595Y0159738D01*
X0093595Y0160737D02*
X0069395Y0160737D01*
X0073837Y0161735D02*
X0083618Y0161735D01*
X0083626Y0161729D02*
X0084397Y0161336D01*
X0085221Y0161069D01*
X0086009Y0160944D01*
X0086009Y0165933D01*
X0087009Y0165933D01*
X0087009Y0166933D01*
X0086009Y0166933D01*
X0086009Y0165933D01*
X0081019Y0165933D01*
X0081144Y0165145D01*
X0081412Y0164322D01*
X0081805Y0163550D01*
X0082314Y0162850D01*
X0082926Y0162238D01*
X0083626Y0161729D01*
X0082430Y0162734D02*
X0075125Y0162734D01*
X0075947Y0163732D02*
X0081712Y0163732D01*
X0081279Y0164731D02*
X0076361Y0164731D01*
X0076629Y0165729D02*
X0081052Y0165729D01*
X0081146Y0167726D02*
X0076530Y0167726D01*
X0076629Y0166728D02*
X0086009Y0166728D01*
X0086009Y0167726D02*
X0087009Y0167726D01*
X0087009Y0166728D02*
X0093595Y0166728D01*
X0093595Y0167726D02*
X0091872Y0167726D01*
X0091514Y0168725D02*
X0093595Y0168725D01*
X0093595Y0169723D02*
X0090917Y0169723D01*
X0089963Y0170722D02*
X0093595Y0170722D01*
X0093595Y0165729D02*
X0091966Y0165729D01*
X0091998Y0165933D02*
X0087009Y0165933D01*
X0087009Y0160944D01*
X0087797Y0161069D01*
X0088620Y0161336D01*
X0089391Y0161729D01*
X0090092Y0162238D01*
X0090704Y0162850D01*
X0091213Y0163550D01*
X0091606Y0164322D01*
X0091873Y0165145D01*
X0091998Y0165933D01*
X0091739Y0164731D02*
X0093595Y0164731D01*
X0093595Y0163732D02*
X0091305Y0163732D01*
X0090587Y0162734D02*
X0093595Y0162734D01*
X0093595Y0161735D02*
X0089400Y0161735D01*
X0087009Y0161735D02*
X0086009Y0161735D01*
X0086009Y0162734D02*
X0087009Y0162734D01*
X0087009Y0163732D02*
X0086009Y0163732D01*
X0086009Y0164731D02*
X0087009Y0164731D01*
X0087009Y0165729D02*
X0086009Y0165729D01*
X0086009Y0168725D02*
X0087009Y0168725D01*
X0087009Y0169723D02*
X0086009Y0169723D01*
X0086009Y0170722D02*
X0087009Y0170722D01*
X0083054Y0170722D02*
X0074536Y0170722D01*
X0075534Y0169723D02*
X0082101Y0169723D01*
X0081504Y0168725D02*
X0076117Y0168725D01*
X0079819Y0148754D02*
X0093595Y0148754D01*
X0093595Y0147756D02*
X0080818Y0147756D01*
X0081816Y0146757D02*
X0093595Y0146757D01*
X0093595Y0145759D02*
X0082815Y0145759D01*
X0082578Y0136772D02*
X0075095Y0136772D01*
X0075095Y0135774D02*
X0083183Y0135774D01*
X0084182Y0134775D02*
X0075095Y0134775D01*
X0074527Y0133777D02*
X0086723Y0133777D01*
X0088095Y0128933D02*
X0083845Y0128933D01*
X0082595Y0127683D01*
X0082595Y0122683D01*
X0079249Y0119337D01*
X0078845Y0119337D01*
X0082114Y0117801D02*
X0082152Y0117801D01*
X0082114Y0116802D02*
X0082566Y0116802D01*
X0084845Y0111810D02*
X0085068Y0111810D01*
X0087957Y0111810D02*
X0088926Y0111810D01*
X0088926Y0110811D02*
X0087957Y0110811D01*
X0087957Y0109812D02*
X0088926Y0109812D01*
X0088926Y0108814D02*
X0093595Y0108814D01*
X0093595Y0109812D02*
X0092107Y0109812D01*
X0092107Y0110811D02*
X0093595Y0110811D01*
X0093595Y0111810D02*
X0091815Y0111810D01*
X0093595Y0112808D02*
X0074395Y0112808D01*
X0074267Y0111810D02*
X0078653Y0111810D01*
X0078283Y0110811D02*
X0073269Y0110811D01*
X0077255Y0109812D02*
X0078283Y0109812D01*
X0078283Y0108814D02*
X0077714Y0108814D01*
X0077714Y0107815D02*
X0078283Y0107815D01*
X0078283Y0106817D02*
X0077714Y0106817D01*
X0077722Y0105818D02*
X0078891Y0105818D01*
X0079469Y0104820D02*
X0077722Y0104820D01*
X0077722Y0103821D02*
X0079320Y0103821D01*
X0079562Y0102823D02*
X0077722Y0102823D01*
X0077722Y0101824D02*
X0080224Y0101824D01*
X0081970Y0103933D02*
X0082024Y0103933D01*
X0082024Y0108657D01*
X0081749Y0108933D01*
X0084471Y0104820D02*
X0093595Y0104820D01*
X0093595Y0105818D02*
X0091582Y0105818D01*
X0091528Y0105764D02*
X0091807Y0106044D01*
X0092005Y0106386D01*
X0092107Y0106767D01*
X0092107Y0108449D01*
X0088926Y0108449D01*
X0088926Y0105465D01*
X0090804Y0105465D01*
X0091186Y0105567D01*
X0091528Y0105764D01*
X0092107Y0106817D02*
X0093595Y0106817D01*
X0093595Y0107815D02*
X0092107Y0107815D01*
X0093595Y0103821D02*
X0084620Y0103821D01*
X0084379Y0102823D02*
X0093595Y0102823D01*
X0093595Y0101824D02*
X0083824Y0101824D01*
X0086242Y0100826D02*
X0093595Y0100826D01*
X0093595Y0099827D02*
X0086277Y0099827D01*
X0086384Y0098829D02*
X0093595Y0098829D01*
X0091330Y0095823D02*
X0091345Y0095808D01*
X0091330Y0095823D02*
X0082024Y0095823D01*
X0082024Y0093854D02*
X0071266Y0093854D01*
X0070095Y0092683D01*
X0070095Y0088933D01*
X0071345Y0087683D01*
X0076345Y0087683D01*
X0073220Y0090808D02*
X0074298Y0091886D01*
X0082024Y0091886D01*
X0077772Y0095833D02*
X0052419Y0095833D01*
X0052419Y0094835D02*
X0069701Y0094835D01*
X0069466Y0094600D02*
X0069466Y0094600D01*
X0068703Y0093836D02*
X0052419Y0093836D01*
X0052419Y0092838D02*
X0068295Y0092838D01*
X0068295Y0091839D02*
X0052419Y0091839D01*
X0052419Y0090841D02*
X0068295Y0090841D01*
X0068295Y0089842D02*
X0052419Y0089842D01*
X0052419Y0088844D02*
X0068295Y0088844D01*
X0068637Y0087845D02*
X0052419Y0087845D01*
X0052571Y0086847D02*
X0069636Y0086847D01*
X0068263Y0085848D02*
X0052619Y0085848D01*
X0048166Y0084012D02*
X0041202Y0084012D01*
X0040095Y0082905D01*
X0040095Y0082683D01*
X0040095Y0082905D02*
X0040095Y0087683D01*
X0042483Y0088844D02*
X0043913Y0088844D01*
X0043913Y0089842D02*
X0041684Y0089842D01*
X0042759Y0090841D02*
X0043913Y0090841D01*
X0043913Y0091839D02*
X0043528Y0091839D01*
X0043564Y0092838D02*
X0043913Y0092838D01*
X0043913Y0093836D02*
X0043564Y0093836D01*
X0043564Y0094835D02*
X0043913Y0094835D01*
X0043913Y0095833D02*
X0043564Y0095833D01*
X0040579Y0093836D02*
X0039611Y0093836D01*
X0039611Y0092838D02*
X0040579Y0092838D01*
X0040579Y0091839D02*
X0039611Y0091839D01*
X0039611Y0090841D02*
X0040579Y0090841D01*
X0042745Y0087845D02*
X0043913Y0087845D01*
X0043761Y0086847D02*
X0042617Y0086847D01*
X0043124Y0085848D02*
X0043713Y0085848D01*
X0043913Y0081854D02*
X0043364Y0081854D01*
X0043364Y0080856D02*
X0043913Y0080856D01*
X0043913Y0079857D02*
X0043020Y0079857D01*
X0043487Y0078859D02*
X0043913Y0078859D01*
X0043913Y0077860D02*
X0043564Y0077860D01*
X0043564Y0076862D02*
X0044127Y0076862D01*
X0048166Y0084012D02*
X0070016Y0084012D01*
X0070095Y0083933D01*
X0067595Y0077683D02*
X0066079Y0076167D01*
X0066079Y0072004D01*
X0064111Y0072004D02*
X0064111Y0076167D01*
X0062595Y0077683D01*
X0053786Y0077683D01*
X0045036Y0068933D01*
X0041493Y0068933D01*
X0040095Y0067536D01*
X0040095Y0063530D01*
X0036827Y0058888D02*
X0036595Y0058888D01*
X0036595Y0057890D02*
X0036827Y0057890D01*
X0036827Y0056891D02*
X0036595Y0056891D01*
X0036595Y0055893D02*
X0036827Y0055893D01*
X0036827Y0054894D02*
X0036595Y0054894D01*
X0036595Y0053896D02*
X0037064Y0053896D01*
X0036595Y0052897D02*
X0038295Y0052897D01*
X0038295Y0051899D02*
X0036595Y0051899D01*
X0036595Y0050900D02*
X0038295Y0050900D01*
X0038295Y0049902D02*
X0036595Y0049902D01*
X0036595Y0048903D02*
X0038295Y0048903D01*
X0038295Y0047905D02*
X0036595Y0047905D01*
X0036595Y0046906D02*
X0038295Y0046906D01*
X0038295Y0045908D02*
X0036595Y0045908D01*
X0036595Y0044909D02*
X0037814Y0044909D01*
X0036827Y0043911D02*
X0036595Y0043911D01*
X0036595Y0042912D02*
X0036827Y0042912D01*
X0036827Y0041914D02*
X0036595Y0041914D01*
X0036595Y0040915D02*
X0036827Y0040915D01*
X0036827Y0039917D02*
X0036595Y0039917D01*
X0036595Y0038918D02*
X0037508Y0038918D01*
X0037457Y0037920D02*
X0036595Y0037920D01*
X0036595Y0036921D02*
X0036737Y0036921D01*
X0036627Y0035923D02*
X0036595Y0035923D01*
X0041895Y0047905D02*
X0042717Y0047905D01*
X0042717Y0048903D02*
X0041895Y0048903D01*
X0041895Y0049902D02*
X0042717Y0049902D01*
X0042717Y0050900D02*
X0041895Y0050900D01*
X0041895Y0051899D02*
X0042717Y0051899D01*
X0041895Y0052897D02*
X0088295Y0052897D01*
X0088295Y0051899D02*
X0068377Y0051899D01*
X0068916Y0050900D02*
X0088295Y0050900D01*
X0088295Y0049902D02*
X0068995Y0049902D01*
X0066345Y0050183D02*
X0065095Y0048933D01*
X0065095Y0044991D01*
X0062536Y0044991D02*
X0062536Y0049617D01*
X0061970Y0050183D01*
X0064002Y0051899D02*
X0064313Y0051899D01*
X0065276Y0054894D02*
X0067176Y0054894D01*
X0067176Y0055893D02*
X0066275Y0055893D01*
X0070095Y0060183D02*
X0070839Y0060927D01*
X0070839Y0063923D01*
X0077514Y0063923D01*
X0077908Y0063530D01*
X0083845Y0063530D01*
X0083845Y0068933D01*
X0083845Y0075183D02*
X0090095Y0068933D01*
X0090095Y0063530D01*
X0092720Y0066877D02*
X0093595Y0066877D01*
X0093595Y0067875D02*
X0091895Y0067875D01*
X0091895Y0068874D02*
X0093595Y0068874D01*
X0093595Y0069872D02*
X0091702Y0069872D01*
X0090703Y0070871D02*
X0093595Y0070871D01*
X0093595Y0071869D02*
X0089705Y0071869D01*
X0088706Y0072868D02*
X0093595Y0072868D01*
X0093595Y0073866D02*
X0092073Y0073866D01*
X0090618Y0073866D02*
X0087708Y0073866D01*
X0086709Y0074865D02*
X0089166Y0074865D01*
X0088713Y0075863D02*
X0085711Y0075863D01*
X0086063Y0076862D02*
X0088695Y0076862D01*
X0089068Y0077860D02*
X0086277Y0077860D01*
X0086277Y0078859D02*
X0088295Y0078859D01*
X0088295Y0079857D02*
X0086277Y0079857D01*
X0086277Y0080856D02*
X0088295Y0080856D01*
X0088295Y0081854D02*
X0086277Y0081854D01*
X0086277Y0082853D02*
X0088295Y0082853D01*
X0088138Y0083851D02*
X0086277Y0083851D01*
X0086277Y0084850D02*
X0088095Y0084850D01*
X0088095Y0086847D02*
X0086277Y0086847D01*
X0086277Y0087845D02*
X0088159Y0087845D01*
X0086277Y0085848D02*
X0091045Y0085848D01*
X0091345Y0080808D02*
X0091345Y0076433D01*
X0093524Y0074865D02*
X0093595Y0074865D01*
X0093595Y0065878D02*
X0093364Y0065878D01*
X0093364Y0064879D02*
X0093595Y0064879D01*
X0093595Y0063881D02*
X0093364Y0063881D01*
X0093364Y0062882D02*
X0093595Y0062882D01*
X0093595Y0061884D02*
X0093364Y0061884D01*
X0093364Y0060885D02*
X0093595Y0060885D01*
X0093595Y0059887D02*
X0093017Y0059887D01*
X0093364Y0058888D02*
X0093595Y0058888D01*
X0093595Y0057890D02*
X0093364Y0057890D01*
X0093364Y0056891D02*
X0093595Y0056891D01*
X0093595Y0055893D02*
X0093364Y0055893D01*
X0093364Y0054894D02*
X0093595Y0054894D01*
X0093595Y0053896D02*
X0093127Y0053896D01*
X0093595Y0052897D02*
X0091895Y0052897D01*
X0091895Y0051899D02*
X0093595Y0051899D01*
X0093595Y0050900D02*
X0091895Y0050900D01*
X0091895Y0049902D02*
X0093595Y0049902D01*
X0093595Y0048903D02*
X0091895Y0048903D01*
X0091895Y0047905D02*
X0093595Y0047905D01*
X0093595Y0046906D02*
X0091895Y0046906D01*
X0091895Y0045908D02*
X0093595Y0045908D01*
X0093595Y0044909D02*
X0092376Y0044909D01*
X0093364Y0043911D02*
X0093595Y0043911D01*
X0093595Y0042912D02*
X0093364Y0042912D01*
X0093364Y0041914D02*
X0093595Y0041914D01*
X0093595Y0040915D02*
X0093364Y0040915D01*
X0093364Y0039917D02*
X0093595Y0039917D01*
X0093595Y0038918D02*
X0092682Y0038918D01*
X0092280Y0038181D02*
X0091748Y0038324D01*
X0090579Y0038324D01*
X0090579Y0035340D01*
X0089611Y0035340D01*
X0089611Y0038324D01*
X0088442Y0038324D01*
X0087910Y0038181D01*
X0087434Y0037906D01*
X0087044Y0037517D01*
X0086769Y0037040D01*
X0086627Y0036508D01*
X0086627Y0035340D01*
X0089611Y0035340D01*
X0089611Y0034371D01*
X0090579Y0034371D01*
X0090579Y0031387D01*
X0091748Y0031387D01*
X0092280Y0031529D01*
X0092757Y0031805D01*
X0093146Y0032194D01*
X0093421Y0032670D01*
X0093564Y0033202D01*
X0093564Y0034371D01*
X0090579Y0034371D01*
X0090579Y0035340D01*
X0093564Y0035340D01*
X0093564Y0036508D01*
X0093421Y0037040D01*
X0093146Y0037517D01*
X0092757Y0037906D01*
X0092280Y0038181D01*
X0092733Y0037920D02*
X0093595Y0037920D01*
X0093595Y0036921D02*
X0093453Y0036921D01*
X0093564Y0035923D02*
X0093595Y0035923D01*
X0093595Y0034924D02*
X0090579Y0034924D01*
X0089611Y0034924D02*
X0081343Y0034924D01*
X0081343Y0035058D02*
X0085886Y0035058D01*
X0085886Y0038496D01*
X0085784Y0038877D01*
X0085587Y0039219D01*
X0085307Y0039499D01*
X0084965Y0039696D01*
X0084584Y0039798D01*
X0081343Y0039798D01*
X0081343Y0035058D01*
X0081343Y0035923D02*
X0080343Y0035923D01*
X0080343Y0035058D02*
X0080343Y0039798D01*
X0077102Y0039798D01*
X0076721Y0039696D01*
X0076379Y0039499D01*
X0076100Y0039219D01*
X0075902Y0038877D01*
X0075800Y0038496D01*
X0075800Y0035058D01*
X0080343Y0035058D01*
X0080343Y0034924D02*
X0075135Y0034924D01*
X0075135Y0033926D02*
X0075800Y0033926D01*
X0075800Y0032927D02*
X0075135Y0032927D01*
X0075135Y0031929D02*
X0075800Y0031929D01*
X0075800Y0035923D02*
X0075135Y0035923D01*
X0075135Y0036921D02*
X0075800Y0036921D01*
X0075800Y0037920D02*
X0075135Y0037920D01*
X0075054Y0038918D02*
X0075926Y0038918D01*
X0080343Y0038918D02*
X0081343Y0038918D01*
X0081343Y0037920D02*
X0080343Y0037920D01*
X0080343Y0036921D02*
X0081343Y0036921D01*
X0085886Y0036921D02*
X0086737Y0036921D01*
X0086627Y0035923D02*
X0085886Y0035923D01*
X0086627Y0034371D02*
X0086627Y0033202D01*
X0086769Y0032670D01*
X0087044Y0032194D01*
X0087434Y0031805D01*
X0087910Y0031529D01*
X0088442Y0031387D01*
X0089611Y0031387D01*
X0089611Y0034371D01*
X0086627Y0034371D01*
X0086627Y0033926D02*
X0085886Y0033926D01*
X0085886Y0032927D02*
X0086700Y0032927D01*
X0087309Y0031929D02*
X0085886Y0031929D01*
X0089611Y0031929D02*
X0090579Y0031929D01*
X0090579Y0032927D02*
X0089611Y0032927D01*
X0089611Y0033926D02*
X0090579Y0033926D01*
X0090579Y0035923D02*
X0089611Y0035923D01*
X0089611Y0036921D02*
X0090579Y0036921D01*
X0090579Y0037920D02*
X0089611Y0037920D01*
X0087457Y0037920D02*
X0085886Y0037920D01*
X0085761Y0038918D02*
X0087508Y0038918D01*
X0090095Y0041761D02*
X0090095Y0056837D01*
X0084329Y0055893D02*
X0083361Y0055893D01*
X0083361Y0056352D02*
X0080377Y0056352D01*
X0078392Y0056352D01*
X0078392Y0057321D01*
X0083361Y0057321D01*
X0083361Y0056352D01*
X0083361Y0056891D02*
X0078392Y0056891D01*
X0078392Y0055893D02*
X0077423Y0055893D01*
X0077423Y0054894D02*
X0078392Y0054894D01*
X0078392Y0053896D02*
X0077423Y0053896D01*
X0074655Y0053896D02*
X0043127Y0053896D01*
X0043364Y0054894D02*
X0053039Y0054894D01*
X0052040Y0055893D02*
X0051223Y0055893D01*
X0051223Y0051899D02*
X0059938Y0051899D01*
X0059399Y0050900D02*
X0054848Y0050900D01*
X0055320Y0050428D02*
X0055320Y0050428D01*
X0055846Y0049902D02*
X0059320Y0049902D01*
X0058606Y0048903D02*
X0056845Y0048903D01*
X0057843Y0047905D02*
X0057988Y0047905D01*
X0052902Y0046906D02*
X0051034Y0046906D01*
X0049847Y0038918D02*
X0048847Y0038918D01*
X0048847Y0037920D02*
X0049847Y0037920D01*
X0049847Y0036921D02*
X0048847Y0036921D01*
X0054390Y0033926D02*
X0055055Y0033926D01*
X0055055Y0032927D02*
X0054390Y0032927D01*
X0054390Y0031929D02*
X0055055Y0031929D01*
X0065054Y0038918D02*
X0065136Y0038918D01*
X0060720Y0056324D02*
X0060611Y0056433D01*
X0060602Y0056443D01*
X0060560Y0060142D02*
X0056739Y0060142D01*
X0056739Y0058903D01*
X0056839Y0058533D01*
X0055340Y0058533D01*
X0054695Y0059178D01*
X0053465Y0060408D01*
X0051223Y0060408D01*
X0051223Y0060465D01*
X0052332Y0060465D01*
X0052332Y0063449D01*
X0053301Y0063449D01*
X0053301Y0064417D01*
X0056482Y0064417D01*
X0056482Y0066099D01*
X0056380Y0066481D01*
X0056182Y0066823D01*
X0055903Y0067102D01*
X0055561Y0067299D01*
X0055179Y0067402D01*
X0053301Y0067402D01*
X0053301Y0064417D01*
X0052332Y0064417D01*
X0052332Y0067402D01*
X0050454Y0067402D01*
X0050072Y0067299D01*
X0049730Y0067102D01*
X0049451Y0066823D01*
X0049361Y0066668D01*
X0048828Y0067202D01*
X0045850Y0067202D01*
X0046836Y0068187D01*
X0052476Y0073828D01*
X0052476Y0068513D01*
X0053238Y0067751D01*
X0072713Y0067751D01*
X0072882Y0067653D01*
X0073264Y0067551D01*
X0073953Y0067551D01*
X0073953Y0072004D01*
X0073953Y0072004D01*
X0073953Y0067791D01*
X0072595Y0066433D01*
X0073739Y0066306D02*
X0067938Y0066306D01*
X0067176Y0065544D01*
X0067176Y0064974D01*
X0066596Y0065555D01*
X0065622Y0065958D01*
X0065415Y0065958D01*
X0065350Y0066023D01*
X0063785Y0066023D01*
X0063502Y0066306D01*
X0057701Y0066306D01*
X0056939Y0065544D01*
X0056939Y0062302D01*
X0057047Y0062195D01*
X0057039Y0062187D01*
X0056842Y0061845D01*
X0056739Y0061463D01*
X0056739Y0060224D01*
X0060560Y0060224D01*
X0060560Y0060142D01*
X0057273Y0065878D02*
X0056482Y0065878D01*
X0056482Y0064879D02*
X0056939Y0064879D01*
X0056939Y0063881D02*
X0053301Y0063881D01*
X0053301Y0063449D02*
X0056482Y0063449D01*
X0056482Y0061767D01*
X0056380Y0061386D01*
X0056182Y0061044D01*
X0055903Y0060764D01*
X0055561Y0060567D01*
X0055179Y0060465D01*
X0053301Y0060465D01*
X0053301Y0063449D01*
X0053301Y0062882D02*
X0052332Y0062882D01*
X0052332Y0061884D02*
X0053301Y0061884D01*
X0053301Y0060885D02*
X0052332Y0060885D01*
X0053986Y0059887D02*
X0056739Y0059887D01*
X0056739Y0060885D02*
X0056024Y0060885D01*
X0056482Y0061884D02*
X0056864Y0061884D01*
X0056939Y0062882D02*
X0056482Y0062882D01*
X0056743Y0058888D02*
X0054985Y0058888D01*
X0053301Y0064879D02*
X0052332Y0064879D01*
X0052332Y0065878D02*
X0053301Y0065878D01*
X0053301Y0066877D02*
X0052332Y0066877D01*
X0053114Y0067875D02*
X0046524Y0067875D01*
X0047522Y0068874D02*
X0052476Y0068874D01*
X0052476Y0069872D02*
X0048521Y0069872D01*
X0049519Y0070871D02*
X0052476Y0070871D01*
X0052476Y0071869D02*
X0050518Y0071869D01*
X0051516Y0072868D02*
X0052476Y0072868D01*
X0049505Y0066877D02*
X0049153Y0066877D01*
X0056128Y0066877D02*
X0075231Y0066877D01*
X0075257Y0066851D02*
X0074639Y0066233D01*
X0074639Y0065723D01*
X0074322Y0065723D01*
X0073739Y0066306D01*
X0074167Y0065878D02*
X0074639Y0065878D01*
X0075257Y0066851D02*
X0074556Y0067551D01*
X0073953Y0067551D01*
X0073953Y0072004D01*
X0073953Y0071869D02*
X0073953Y0071869D01*
X0073953Y0070871D02*
X0073953Y0070871D01*
X0073953Y0069872D02*
X0073953Y0069872D01*
X0073953Y0068874D02*
X0073953Y0068874D01*
X0073953Y0067875D02*
X0073953Y0067875D01*
X0075922Y0068731D02*
X0077908Y0066746D01*
X0077908Y0063530D01*
X0075922Y0068731D02*
X0075922Y0072004D01*
X0078845Y0075183D02*
X0076345Y0077683D01*
X0067595Y0077683D01*
X0067510Y0065878D02*
X0065816Y0065878D01*
X0078845Y0075183D02*
X0083845Y0075183D01*
X0087595Y0090808D02*
X0091345Y0090808D01*
X0088295Y0097830D02*
X0086477Y0097830D01*
X0082024Y0099760D02*
X0082024Y0103933D01*
X0084606Y0105818D02*
X0085301Y0105818D01*
X0087957Y0105818D02*
X0088926Y0105818D01*
X0088926Y0106817D02*
X0087957Y0106817D01*
X0087957Y0107815D02*
X0088926Y0107815D01*
X0085759Y0123792D02*
X0084395Y0123792D01*
X0084395Y0124790D02*
X0085167Y0124790D01*
X0075922Y0105862D02*
X0075922Y0099760D01*
X0075095Y0098933D01*
X0076742Y0096832D02*
X0077644Y0096832D01*
X0077572Y0097830D02*
X0077507Y0097830D01*
X0077722Y0099827D02*
X0077772Y0099827D01*
X0077807Y0100826D02*
X0077722Y0100826D01*
X0073240Y0100826D02*
X0063942Y0100826D01*
X0063535Y0099827D02*
X0072597Y0099827D01*
X0072445Y0098829D02*
X0062537Y0098829D01*
X0061538Y0097830D02*
X0072684Y0097830D01*
X0073449Y0096832D02*
X0060539Y0096832D01*
X0058444Y0099827D02*
X0052419Y0099827D01*
X0052383Y0100826D02*
X0059442Y0100826D01*
X0056237Y0101824D02*
X0056237Y0101824D01*
X0056237Y0102823D02*
X0056237Y0102823D01*
X0056237Y0103821D02*
X0056237Y0103821D01*
X0056237Y0104820D02*
X0056237Y0104820D01*
X0056237Y0105818D02*
X0056237Y0105818D01*
X0056237Y0106817D02*
X0056237Y0106817D01*
X0056237Y0107815D02*
X0056237Y0107815D01*
X0056237Y0108814D02*
X0056237Y0108814D01*
X0056237Y0109812D02*
X0056237Y0109812D01*
X0056405Y0110811D02*
X0051907Y0110811D01*
X0051907Y0109812D02*
X0052935Y0109812D01*
X0052476Y0108814D02*
X0051907Y0108814D01*
X0051907Y0107815D02*
X0052476Y0107815D01*
X0052476Y0106817D02*
X0051907Y0106817D01*
X0052468Y0105818D02*
X0051299Y0105818D01*
X0054268Y0105862D02*
X0054268Y0104135D01*
X0054067Y0103933D01*
X0048220Y0103933D01*
X0048442Y0103933D01*
X0048442Y0100035D01*
X0048166Y0099760D01*
X0046642Y0101552D02*
X0044675Y0101552D01*
X0043913Y0100790D01*
X0043913Y0099757D01*
X0043364Y0100307D01*
X0043364Y0103733D01*
X0042602Y0104495D01*
X0039175Y0104495D01*
X0038770Y0104900D01*
X0038770Y0105702D01*
X0039004Y0105567D01*
X0039386Y0105465D01*
X0041264Y0105465D01*
X0041264Y0108449D01*
X0042233Y0108449D01*
X0042233Y0105465D01*
X0044112Y0105465D01*
X0044493Y0105567D01*
X0044835Y0105764D01*
X0045114Y0106044D01*
X0045204Y0106199D01*
X0045738Y0105665D01*
X0046204Y0105665D01*
X0045974Y0105434D01*
X0045570Y0104460D01*
X0045570Y0103406D01*
X0045974Y0102432D01*
X0046642Y0101764D01*
X0046642Y0101552D01*
X0046581Y0101824D02*
X0043364Y0101824D01*
X0043364Y0100826D02*
X0043949Y0100826D01*
X0043913Y0099827D02*
X0043843Y0099827D01*
X0043364Y0102823D02*
X0045812Y0102823D01*
X0045570Y0103821D02*
X0043276Y0103821D01*
X0042233Y0105818D02*
X0041264Y0105818D01*
X0041264Y0106817D02*
X0042233Y0106817D01*
X0042233Y0107815D02*
X0041264Y0107815D01*
X0041264Y0109417D02*
X0041264Y0112402D01*
X0039386Y0112402D01*
X0039004Y0112299D01*
X0038770Y0112164D01*
X0038770Y0115187D01*
X0039263Y0114694D01*
X0041101Y0113933D01*
X0043090Y0113933D01*
X0044122Y0114361D01*
X0046281Y0112202D01*
X0045738Y0112202D01*
X0045204Y0111668D01*
X0045114Y0111823D01*
X0044835Y0112102D01*
X0044493Y0112299D01*
X0044112Y0112402D01*
X0042233Y0112402D01*
X0042233Y0109417D01*
X0041264Y0109417D01*
X0041264Y0109812D02*
X0042233Y0109812D01*
X0042233Y0110811D02*
X0041264Y0110811D01*
X0041264Y0111810D02*
X0042233Y0111810D01*
X0045122Y0111810D02*
X0045346Y0111810D01*
X0045675Y0112808D02*
X0038770Y0112808D01*
X0038770Y0113807D02*
X0044676Y0113807D01*
X0046772Y0116802D02*
X0055095Y0116802D01*
X0055095Y0115804D02*
X0047770Y0115804D01*
X0048769Y0114805D02*
X0055095Y0114805D01*
X0055095Y0113807D02*
X0049767Y0113807D01*
X0050242Y0112808D02*
X0056405Y0112808D01*
X0056405Y0111810D02*
X0051537Y0111810D01*
X0048442Y0112587D02*
X0048442Y0108933D01*
X0048442Y0103933D01*
X0050242Y0101824D02*
X0053023Y0101824D01*
X0058205Y0105862D02*
X0058205Y0120823D01*
X0057595Y0121433D01*
X0057595Y0118633D01*
X0055095Y0118799D02*
X0047095Y0118799D01*
X0047095Y0119798D02*
X0055095Y0119798D01*
X0055095Y0120796D02*
X0046735Y0120796D01*
X0046305Y0121795D02*
X0055095Y0121795D01*
X0055095Y0122793D02*
X0045306Y0122793D01*
X0043431Y0123792D02*
X0055365Y0123792D01*
X0055095Y0117801D02*
X0047038Y0117801D01*
X0042095Y0118933D02*
X0048442Y0112587D01*
X0045584Y0105818D02*
X0044889Y0105818D01*
X0045719Y0104820D02*
X0038850Y0104820D01*
X0036970Y0104155D02*
X0036970Y0123308D01*
X0042595Y0128933D01*
X0043095Y0128933D01*
X0039869Y0132778D02*
X0036595Y0132778D01*
X0036595Y0131780D02*
X0038871Y0131780D01*
X0038449Y0130781D02*
X0036595Y0130781D01*
X0036595Y0129783D02*
X0038095Y0129783D01*
X0038095Y0128784D02*
X0036595Y0128784D01*
X0036595Y0127786D02*
X0038158Y0127786D01*
X0037904Y0126787D02*
X0036595Y0126787D01*
X0036595Y0125789D02*
X0036905Y0125789D01*
X0039999Y0123792D02*
X0040759Y0123792D01*
X0039152Y0114805D02*
X0038770Y0114805D01*
X0054639Y0129783D02*
X0064200Y0129783D01*
X0063201Y0130781D02*
X0055239Y0130781D01*
X0055239Y0131780D02*
X0062203Y0131780D01*
X0061204Y0132778D02*
X0055239Y0132778D01*
X0055239Y0133777D02*
X0055380Y0133777D01*
X0057495Y0133777D02*
X0057695Y0133777D01*
X0057695Y0134775D02*
X0057495Y0134775D01*
X0057495Y0135774D02*
X0057695Y0135774D01*
X0057695Y0136772D02*
X0057495Y0136772D01*
X0057495Y0137771D02*
X0057695Y0137771D01*
X0057695Y0138769D02*
X0057495Y0138769D01*
X0059810Y0133777D02*
X0060663Y0133777D01*
X0060130Y0123792D02*
X0059825Y0123792D01*
X0060005Y0112808D02*
X0061105Y0112808D01*
X0070095Y0119798D02*
X0070095Y0119798D01*
X0070095Y0120796D02*
X0070095Y0120796D01*
X0070095Y0121795D02*
X0070095Y0121795D01*
X0070095Y0122793D02*
X0070095Y0122793D01*
X0069887Y0123792D02*
X0070365Y0123792D01*
X0070663Y0133777D02*
X0069527Y0133777D01*
X0070095Y0134775D02*
X0070095Y0134775D01*
X0070095Y0135774D02*
X0070095Y0135774D01*
X0070095Y0136772D02*
X0070095Y0136772D01*
X0070095Y0137771D02*
X0070095Y0137771D01*
X0070095Y0138769D02*
X0070095Y0138769D01*
X0070095Y0139768D02*
X0070095Y0139768D01*
X0070095Y0140766D02*
X0070095Y0140766D01*
X0070095Y0141765D02*
X0070095Y0141765D01*
X0070095Y0142763D02*
X0070095Y0142763D01*
X0070095Y0143762D02*
X0070095Y0143762D01*
X0069456Y0144760D02*
X0070734Y0144760D01*
X0067595Y0148933D02*
X0067595Y0139233D01*
X0060734Y0144760D02*
X0059739Y0144760D01*
X0083361Y0054894D02*
X0084329Y0054894D01*
X0084329Y0053896D02*
X0083361Y0053896D01*
X0093564Y0033926D02*
X0093595Y0033926D01*
X0093595Y0032927D02*
X0093490Y0032927D01*
X0093578Y0031929D02*
X0092881Y0031929D01*
D27*
X0082595Y0042058D03*
X0070095Y0060183D03*
X0065095Y0063308D03*
X0066345Y0050183D03*
X0061970Y0050183D03*
X0055720Y0059558D03*
X0050095Y0069558D03*
X0040095Y0087683D03*
X0048220Y0103933D03*
X0043845Y0104558D03*
X0067595Y0125183D03*
X0072595Y0126433D03*
X0081970Y0103933D03*
X0075095Y0098933D03*
X0073220Y0090808D03*
X0076345Y0087683D03*
X0070095Y0083933D03*
X0083845Y0068933D03*
X0091345Y0076433D03*
X0087595Y0090808D03*
X0047595Y0042058D03*
D28*
X0047014Y0049558D02*
X0046970Y0049602D01*
X0047014Y0049558D02*
X0053220Y0049558D01*
X0057787Y0044991D01*
X0059977Y0044991D01*
X0060611Y0056433D02*
X0054470Y0056433D01*
X0052595Y0058308D01*
X0047014Y0058308D01*
X0046970Y0058264D01*
X0046124Y0059110D01*
X0046124Y0063933D01*
X0060602Y0063923D02*
X0064480Y0063923D01*
X0065095Y0063308D01*
X0065095Y0057683D01*
X0063845Y0056433D01*
X0060611Y0056433D01*
X0067595Y0118633D02*
X0067595Y0125183D01*
X0065720Y0127058D01*
X0053220Y0127058D01*
X0051970Y0128308D01*
X0051970Y0133087D01*
M02*
