G75*
%MOIN*%
%OFA0B0*%
%FSLAX25Y25*%
%IPPOS*%
%LPD*%
%AMOC8*
5,1,8,0,0,1.08239X$1,22.5*
%
%ADD10C,0.00000*%
%ADD11R,0.01378X0.05512*%
%ADD12R,0.07087X0.07480*%
%ADD13R,0.07480X0.07480*%
%ADD14R,0.04724X0.02165*%
%ADD15C,0.01181*%
%ADD16R,0.04331X0.03937*%
%ADD17R,0.03937X0.04331*%
%ADD18R,0.02400X0.08700*%
%ADD19R,0.05906X0.00984*%
%ADD20R,0.00984X0.05906*%
%ADD21R,0.03500X0.03200*%
%ADD22R,0.05906X0.03937*%
D10*
X0035095Y0032058D02*
X0035095Y0176433D01*
X0035097Y0176531D01*
X0035103Y0176629D01*
X0035112Y0176727D01*
X0035126Y0176824D01*
X0035143Y0176921D01*
X0035164Y0177017D01*
X0035189Y0177112D01*
X0035217Y0177206D01*
X0035250Y0177298D01*
X0035285Y0177390D01*
X0035325Y0177480D01*
X0035367Y0177568D01*
X0035414Y0177655D01*
X0035463Y0177739D01*
X0035516Y0177822D01*
X0035572Y0177902D01*
X0035632Y0177981D01*
X0035694Y0178057D01*
X0035759Y0178130D01*
X0035827Y0178201D01*
X0035898Y0178269D01*
X0035971Y0178334D01*
X0036047Y0178396D01*
X0036126Y0178456D01*
X0036206Y0178512D01*
X0036289Y0178565D01*
X0036373Y0178614D01*
X0036460Y0178661D01*
X0036548Y0178703D01*
X0036638Y0178743D01*
X0036730Y0178778D01*
X0036822Y0178811D01*
X0036916Y0178839D01*
X0037011Y0178864D01*
X0037107Y0178885D01*
X0037204Y0178902D01*
X0037301Y0178916D01*
X0037399Y0178925D01*
X0037497Y0178931D01*
X0037595Y0178933D01*
X0092595Y0178933D01*
X0092693Y0178931D01*
X0092791Y0178925D01*
X0092889Y0178916D01*
X0092986Y0178902D01*
X0093083Y0178885D01*
X0093179Y0178864D01*
X0093274Y0178839D01*
X0093368Y0178811D01*
X0093460Y0178778D01*
X0093552Y0178743D01*
X0093642Y0178703D01*
X0093730Y0178661D01*
X0093817Y0178614D01*
X0093901Y0178565D01*
X0093984Y0178512D01*
X0094064Y0178456D01*
X0094143Y0178396D01*
X0094219Y0178334D01*
X0094292Y0178269D01*
X0094363Y0178201D01*
X0094431Y0178130D01*
X0094496Y0178057D01*
X0094558Y0177981D01*
X0094618Y0177902D01*
X0094674Y0177822D01*
X0094727Y0177739D01*
X0094776Y0177655D01*
X0094823Y0177568D01*
X0094865Y0177480D01*
X0094905Y0177390D01*
X0094940Y0177298D01*
X0094973Y0177206D01*
X0095001Y0177112D01*
X0095026Y0177017D01*
X0095047Y0176921D01*
X0095064Y0176824D01*
X0095078Y0176727D01*
X0095087Y0176629D01*
X0095093Y0176531D01*
X0095095Y0176433D01*
X0095095Y0032058D01*
X0095093Y0031960D01*
X0095087Y0031862D01*
X0095078Y0031764D01*
X0095064Y0031667D01*
X0095047Y0031570D01*
X0095026Y0031474D01*
X0095001Y0031379D01*
X0094973Y0031285D01*
X0094940Y0031193D01*
X0094905Y0031101D01*
X0094865Y0031011D01*
X0094823Y0030923D01*
X0094776Y0030836D01*
X0094727Y0030752D01*
X0094674Y0030669D01*
X0094618Y0030589D01*
X0094558Y0030510D01*
X0094496Y0030434D01*
X0094431Y0030361D01*
X0094363Y0030290D01*
X0094292Y0030222D01*
X0094219Y0030157D01*
X0094143Y0030095D01*
X0094064Y0030035D01*
X0093984Y0029979D01*
X0093901Y0029926D01*
X0093817Y0029877D01*
X0093730Y0029830D01*
X0093642Y0029788D01*
X0093552Y0029748D01*
X0093460Y0029713D01*
X0093368Y0029680D01*
X0093274Y0029652D01*
X0093179Y0029627D01*
X0093083Y0029606D01*
X0092986Y0029589D01*
X0092889Y0029575D01*
X0092791Y0029566D01*
X0092693Y0029560D01*
X0092595Y0029558D01*
X0037595Y0029558D01*
X0037497Y0029560D01*
X0037399Y0029566D01*
X0037301Y0029575D01*
X0037204Y0029589D01*
X0037107Y0029606D01*
X0037011Y0029627D01*
X0036916Y0029652D01*
X0036822Y0029680D01*
X0036730Y0029713D01*
X0036638Y0029748D01*
X0036548Y0029788D01*
X0036460Y0029830D01*
X0036373Y0029877D01*
X0036289Y0029926D01*
X0036206Y0029979D01*
X0036126Y0030035D01*
X0036047Y0030095D01*
X0035971Y0030157D01*
X0035898Y0030222D01*
X0035827Y0030290D01*
X0035759Y0030361D01*
X0035694Y0030434D01*
X0035632Y0030510D01*
X0035572Y0030589D01*
X0035516Y0030669D01*
X0035463Y0030752D01*
X0035414Y0030836D01*
X0035367Y0030923D01*
X0035325Y0031011D01*
X0035285Y0031101D01*
X0035250Y0031193D01*
X0035217Y0031285D01*
X0035189Y0031379D01*
X0035164Y0031474D01*
X0035143Y0031570D01*
X0035126Y0031667D01*
X0035112Y0031764D01*
X0035103Y0031862D01*
X0035097Y0031960D01*
X0035095Y0032058D01*
D11*
X0059977Y0044991D03*
X0062536Y0044991D03*
X0065095Y0044991D03*
X0067654Y0044991D03*
X0070213Y0044991D03*
D12*
X0080843Y0034558D03*
X0049347Y0034558D03*
D13*
X0060095Y0034558D03*
X0070095Y0034558D03*
D14*
X0070839Y0056443D03*
X0070839Y0063923D03*
X0060602Y0063923D03*
X0060602Y0060183D03*
X0060602Y0056443D03*
D15*
X0041473Y0043139D02*
X0038717Y0043139D01*
X0041473Y0043139D02*
X0041473Y0040383D01*
X0038717Y0040383D01*
X0038717Y0043139D01*
X0038717Y0041563D02*
X0041473Y0041563D01*
X0041473Y0042743D02*
X0038717Y0042743D01*
X0038717Y0036233D02*
X0041473Y0036233D01*
X0041473Y0033477D01*
X0038717Y0033477D01*
X0038717Y0036233D01*
X0038717Y0034657D02*
X0041473Y0034657D01*
X0041473Y0035837D02*
X0038717Y0035837D01*
X0088717Y0036233D02*
X0091473Y0036233D01*
X0091473Y0033477D01*
X0088717Y0033477D01*
X0088717Y0036233D01*
X0088717Y0034657D02*
X0091473Y0034657D01*
X0091473Y0035837D02*
X0088717Y0035837D01*
X0088717Y0043139D02*
X0091473Y0043139D01*
X0091473Y0040383D01*
X0088717Y0040383D01*
X0088717Y0043139D01*
X0088717Y0041563D02*
X0091473Y0041563D01*
X0091473Y0042743D02*
X0088717Y0042743D01*
D16*
X0052817Y0063933D03*
X0046124Y0063933D03*
X0048442Y0108933D03*
X0041749Y0108933D03*
X0081749Y0108933D03*
X0088442Y0108933D03*
D17*
X0078845Y0119337D03*
X0078845Y0126030D03*
X0051970Y0133087D03*
X0051970Y0139780D03*
X0040095Y0101030D03*
X0040095Y0094337D03*
X0040095Y0082905D03*
X0040095Y0076212D03*
X0040095Y0063530D03*
X0040095Y0056837D03*
X0077908Y0056837D03*
X0077908Y0063530D03*
X0083845Y0063530D03*
X0083845Y0056837D03*
X0090095Y0056837D03*
X0090095Y0063530D03*
D18*
X0072595Y0118633D03*
X0067595Y0118633D03*
X0062595Y0118633D03*
X0057595Y0118633D03*
X0057595Y0139233D03*
X0062595Y0139233D03*
X0067595Y0139233D03*
X0072595Y0139233D03*
D19*
X0082024Y0099760D03*
X0082024Y0097791D03*
X0082024Y0095823D03*
X0082024Y0093854D03*
X0082024Y0091886D03*
X0082024Y0089917D03*
X0082024Y0087949D03*
X0082024Y0085980D03*
X0082024Y0084012D03*
X0082024Y0082043D03*
X0082024Y0080075D03*
X0082024Y0078106D03*
X0048166Y0078106D03*
X0048166Y0080075D03*
X0048166Y0082043D03*
X0048166Y0084012D03*
X0048166Y0085980D03*
X0048166Y0087949D03*
X0048166Y0089917D03*
X0048166Y0091886D03*
X0048166Y0093854D03*
X0048166Y0095823D03*
X0048166Y0097791D03*
X0048166Y0099760D03*
D20*
X0054268Y0105862D03*
X0056237Y0105862D03*
X0058205Y0105862D03*
X0060174Y0105862D03*
X0062142Y0105862D03*
X0064111Y0105862D03*
X0066079Y0105862D03*
X0068048Y0105862D03*
X0070016Y0105862D03*
X0071985Y0105862D03*
X0073953Y0105862D03*
X0075922Y0105862D03*
X0075922Y0072004D03*
X0073953Y0072004D03*
X0071985Y0072004D03*
X0070016Y0072004D03*
X0068048Y0072004D03*
X0066079Y0072004D03*
X0064111Y0072004D03*
X0062142Y0072004D03*
X0060174Y0072004D03*
X0058205Y0072004D03*
X0056237Y0072004D03*
X0054268Y0072004D03*
D21*
X0091345Y0080808D03*
X0091345Y0085808D03*
X0091345Y0090808D03*
X0091345Y0095808D03*
D22*
X0046970Y0058264D03*
X0046970Y0049602D03*
M02*
