G75*
%MOIN*%
%OFA0B0*%
%FSLAX25Y25*%
%IPPOS*%
%LPD*%
%AMOC8*
5,1,8,0,0,1.08239X$1,22.5*
%
%ADD10C,0.00000*%
%ADD11C,0.07400*%
%ADD12R,0.08000X0.08000*%
%ADD13C,0.08000*%
%ADD14C,0.01000*%
%ADD15C,0.02700*%
%ADD16C,0.01600*%
D10*
X0035095Y0032058D02*
X0035095Y0176433D01*
X0035097Y0176531D01*
X0035103Y0176629D01*
X0035112Y0176727D01*
X0035126Y0176824D01*
X0035143Y0176921D01*
X0035164Y0177017D01*
X0035189Y0177112D01*
X0035217Y0177206D01*
X0035250Y0177298D01*
X0035285Y0177390D01*
X0035325Y0177480D01*
X0035367Y0177568D01*
X0035414Y0177655D01*
X0035463Y0177739D01*
X0035516Y0177822D01*
X0035572Y0177902D01*
X0035632Y0177981D01*
X0035694Y0178057D01*
X0035759Y0178130D01*
X0035827Y0178201D01*
X0035898Y0178269D01*
X0035971Y0178334D01*
X0036047Y0178396D01*
X0036126Y0178456D01*
X0036206Y0178512D01*
X0036289Y0178565D01*
X0036373Y0178614D01*
X0036460Y0178661D01*
X0036548Y0178703D01*
X0036638Y0178743D01*
X0036730Y0178778D01*
X0036822Y0178811D01*
X0036916Y0178839D01*
X0037011Y0178864D01*
X0037107Y0178885D01*
X0037204Y0178902D01*
X0037301Y0178916D01*
X0037399Y0178925D01*
X0037497Y0178931D01*
X0037595Y0178933D01*
X0092595Y0178933D01*
X0092693Y0178931D01*
X0092791Y0178925D01*
X0092889Y0178916D01*
X0092986Y0178902D01*
X0093083Y0178885D01*
X0093179Y0178864D01*
X0093274Y0178839D01*
X0093368Y0178811D01*
X0093460Y0178778D01*
X0093552Y0178743D01*
X0093642Y0178703D01*
X0093730Y0178661D01*
X0093817Y0178614D01*
X0093901Y0178565D01*
X0093984Y0178512D01*
X0094064Y0178456D01*
X0094143Y0178396D01*
X0094219Y0178334D01*
X0094292Y0178269D01*
X0094363Y0178201D01*
X0094431Y0178130D01*
X0094496Y0178057D01*
X0094558Y0177981D01*
X0094618Y0177902D01*
X0094674Y0177822D01*
X0094727Y0177739D01*
X0094776Y0177655D01*
X0094823Y0177568D01*
X0094865Y0177480D01*
X0094905Y0177390D01*
X0094940Y0177298D01*
X0094973Y0177206D01*
X0095001Y0177112D01*
X0095026Y0177017D01*
X0095047Y0176921D01*
X0095064Y0176824D01*
X0095078Y0176727D01*
X0095087Y0176629D01*
X0095093Y0176531D01*
X0095095Y0176433D01*
X0095095Y0032058D01*
X0095093Y0031960D01*
X0095087Y0031862D01*
X0095078Y0031764D01*
X0095064Y0031667D01*
X0095047Y0031570D01*
X0095026Y0031474D01*
X0095001Y0031379D01*
X0094973Y0031285D01*
X0094940Y0031193D01*
X0094905Y0031101D01*
X0094865Y0031011D01*
X0094823Y0030923D01*
X0094776Y0030836D01*
X0094727Y0030752D01*
X0094674Y0030669D01*
X0094618Y0030589D01*
X0094558Y0030510D01*
X0094496Y0030434D01*
X0094431Y0030361D01*
X0094363Y0030290D01*
X0094292Y0030222D01*
X0094219Y0030157D01*
X0094143Y0030095D01*
X0094064Y0030035D01*
X0093984Y0029979D01*
X0093901Y0029926D01*
X0093817Y0029877D01*
X0093730Y0029830D01*
X0093642Y0029788D01*
X0093552Y0029748D01*
X0093460Y0029713D01*
X0093368Y0029680D01*
X0093274Y0029652D01*
X0093179Y0029627D01*
X0093083Y0029606D01*
X0092986Y0029589D01*
X0092889Y0029575D01*
X0092791Y0029566D01*
X0092693Y0029560D01*
X0092595Y0029558D01*
X0037595Y0029558D01*
X0037497Y0029560D01*
X0037399Y0029566D01*
X0037301Y0029575D01*
X0037204Y0029589D01*
X0037107Y0029606D01*
X0037011Y0029627D01*
X0036916Y0029652D01*
X0036822Y0029680D01*
X0036730Y0029713D01*
X0036638Y0029748D01*
X0036548Y0029788D01*
X0036460Y0029830D01*
X0036373Y0029877D01*
X0036289Y0029926D01*
X0036206Y0029979D01*
X0036126Y0030035D01*
X0036047Y0030095D01*
X0035971Y0030157D01*
X0035898Y0030222D01*
X0035827Y0030290D01*
X0035759Y0030361D01*
X0035694Y0030434D01*
X0035632Y0030510D01*
X0035572Y0030589D01*
X0035516Y0030669D01*
X0035463Y0030752D01*
X0035414Y0030836D01*
X0035367Y0030923D01*
X0035325Y0031011D01*
X0035285Y0031101D01*
X0035250Y0031193D01*
X0035217Y0031285D01*
X0035189Y0031379D01*
X0035164Y0031474D01*
X0035143Y0031570D01*
X0035126Y0031667D01*
X0035112Y0031764D01*
X0035103Y0031862D01*
X0035097Y0031960D01*
X0035095Y0032058D01*
D11*
X0042095Y0118933D03*
X0043095Y0128933D03*
X0042095Y0138933D03*
X0087095Y0138933D03*
X0088095Y0128933D03*
X0087095Y0118933D03*
D12*
X0043770Y0166433D03*
D13*
X0058950Y0166433D03*
X0071329Y0166433D03*
X0086509Y0166433D03*
D14*
X0087009Y0166728D02*
X0093595Y0166728D01*
X0093595Y0167726D02*
X0091872Y0167726D01*
X0091873Y0167721D02*
X0091606Y0168544D01*
X0091213Y0169316D01*
X0090704Y0170016D01*
X0090092Y0170628D01*
X0089391Y0171137D01*
X0088620Y0171530D01*
X0087797Y0171798D01*
X0087009Y0171922D01*
X0087009Y0166933D01*
X0091998Y0166933D01*
X0091873Y0167721D01*
X0091514Y0168725D02*
X0093595Y0168725D01*
X0093595Y0169723D02*
X0090917Y0169723D01*
X0089963Y0170722D02*
X0093595Y0170722D01*
X0093595Y0171720D02*
X0088035Y0171720D01*
X0087009Y0171720D02*
X0086009Y0171720D01*
X0086009Y0171922D02*
X0085221Y0171798D01*
X0084397Y0171530D01*
X0083626Y0171137D01*
X0082926Y0170628D01*
X0082314Y0170016D01*
X0081805Y0169316D01*
X0081412Y0168544D01*
X0081144Y0167721D01*
X0081019Y0166933D01*
X0086009Y0166933D01*
X0086009Y0171922D01*
X0084982Y0171720D02*
X0072415Y0171720D01*
X0072383Y0171733D02*
X0070275Y0171733D01*
X0068327Y0170926D01*
X0066836Y0169435D01*
X0066029Y0167487D01*
X0066029Y0165379D01*
X0066836Y0163431D01*
X0068327Y0161940D01*
X0070275Y0161133D01*
X0072383Y0161133D01*
X0074331Y0161940D01*
X0075822Y0163431D01*
X0076629Y0165379D01*
X0076629Y0167487D01*
X0075822Y0169435D01*
X0074331Y0170926D01*
X0072383Y0171733D01*
X0070244Y0171720D02*
X0060035Y0171720D01*
X0060004Y0171733D02*
X0057895Y0171733D01*
X0055947Y0170926D01*
X0054457Y0169435D01*
X0053650Y0167487D01*
X0053650Y0165379D01*
X0054457Y0163431D01*
X0055947Y0161940D01*
X0057895Y0161133D01*
X0060004Y0161133D01*
X0061952Y0161940D01*
X0063443Y0163431D01*
X0064250Y0165379D01*
X0064250Y0167487D01*
X0063443Y0169435D01*
X0061952Y0170926D01*
X0060004Y0171733D01*
X0057864Y0171720D02*
X0048321Y0171720D01*
X0048309Y0171733D02*
X0039232Y0171733D01*
X0038470Y0170972D01*
X0038470Y0161895D01*
X0039232Y0161133D01*
X0046100Y0161133D01*
X0065495Y0141738D01*
X0065495Y0126831D01*
X0065349Y0126684D01*
X0064945Y0125710D01*
X0064945Y0125503D01*
X0061725Y0122283D01*
X0060495Y0121053D01*
X0060495Y0064938D01*
X0061725Y0063708D01*
X0062445Y0062988D01*
X0062445Y0062781D01*
X0062849Y0061807D01*
X0063594Y0061062D01*
X0064568Y0060658D01*
X0065622Y0060658D01*
X0066596Y0061062D01*
X0067342Y0061807D01*
X0067745Y0062781D01*
X0067745Y0063835D01*
X0067342Y0064809D01*
X0066596Y0065555D01*
X0065622Y0065958D01*
X0065415Y0065958D01*
X0064695Y0066678D01*
X0064695Y0119313D01*
X0067915Y0122533D01*
X0068122Y0122533D01*
X0069096Y0122937D01*
X0069842Y0123682D01*
X0070245Y0124656D01*
X0070245Y0125710D01*
X0069842Y0126684D01*
X0069695Y0126831D01*
X0069695Y0143478D01*
X0068465Y0144708D01*
X0049070Y0164103D01*
X0049070Y0170972D01*
X0048309Y0171733D01*
X0049070Y0170722D02*
X0055743Y0170722D01*
X0054744Y0169723D02*
X0049070Y0169723D01*
X0049070Y0168725D02*
X0054162Y0168725D01*
X0053749Y0167726D02*
X0049070Y0167726D01*
X0049070Y0166728D02*
X0053650Y0166728D01*
X0053650Y0165729D02*
X0049070Y0165729D01*
X0049070Y0164731D02*
X0053918Y0164731D01*
X0054332Y0163732D02*
X0049441Y0163732D01*
X0050439Y0162734D02*
X0055154Y0162734D01*
X0056442Y0161735D02*
X0051438Y0161735D01*
X0052436Y0160737D02*
X0093595Y0160737D01*
X0093595Y0161735D02*
X0089400Y0161735D01*
X0089391Y0161729D02*
X0090092Y0162238D01*
X0090704Y0162850D01*
X0091213Y0163550D01*
X0091606Y0164322D01*
X0091873Y0165145D01*
X0091998Y0165933D01*
X0087009Y0165933D01*
X0087009Y0166933D01*
X0086009Y0166933D01*
X0086009Y0165933D01*
X0087009Y0165933D01*
X0087009Y0160944D01*
X0087797Y0161069D01*
X0088620Y0161336D01*
X0089391Y0161729D01*
X0090587Y0162734D02*
X0093595Y0162734D01*
X0093595Y0163732D02*
X0091305Y0163732D01*
X0091739Y0164731D02*
X0093595Y0164731D01*
X0093595Y0165729D02*
X0091966Y0165729D01*
X0093595Y0159738D02*
X0053435Y0159738D01*
X0054434Y0158740D02*
X0093595Y0158740D01*
X0093595Y0157741D02*
X0055432Y0157741D01*
X0056431Y0156743D02*
X0093595Y0156743D01*
X0093595Y0155744D02*
X0057429Y0155744D01*
X0058428Y0154745D02*
X0093595Y0154745D01*
X0093595Y0153747D02*
X0059426Y0153747D01*
X0060425Y0152748D02*
X0093595Y0152748D01*
X0093595Y0151750D02*
X0061423Y0151750D01*
X0062422Y0150751D02*
X0093595Y0150751D01*
X0093595Y0149753D02*
X0063420Y0149753D01*
X0064419Y0148754D02*
X0093595Y0148754D01*
X0093595Y0147756D02*
X0065417Y0147756D01*
X0066416Y0146757D02*
X0093595Y0146757D01*
X0093595Y0145759D02*
X0067414Y0145759D01*
X0068413Y0144760D02*
X0093595Y0144760D01*
X0093595Y0143762D02*
X0088503Y0143762D01*
X0088090Y0143933D02*
X0086101Y0143933D01*
X0084263Y0143172D01*
X0082856Y0141765D01*
X0069695Y0141765D01*
X0069695Y0142763D02*
X0083854Y0142763D01*
X0082856Y0141765D02*
X0082095Y0139928D01*
X0082095Y0137938D01*
X0082856Y0136101D01*
X0084263Y0134694D01*
X0086101Y0133933D01*
X0088090Y0133933D01*
X0089927Y0134694D01*
X0091334Y0136101D01*
X0092095Y0137938D01*
X0092095Y0139928D01*
X0091334Y0141765D01*
X0093595Y0141765D01*
X0093595Y0142763D02*
X0090336Y0142763D01*
X0089927Y0143172D02*
X0088090Y0143933D01*
X0089927Y0143172D02*
X0091334Y0141765D01*
X0091748Y0140766D02*
X0093595Y0140766D01*
X0093595Y0139768D02*
X0092095Y0139768D01*
X0092095Y0138769D02*
X0093595Y0138769D01*
X0093595Y0137771D02*
X0092026Y0137771D01*
X0091612Y0136772D02*
X0093595Y0136772D01*
X0093595Y0135774D02*
X0091007Y0135774D01*
X0090008Y0134775D02*
X0093595Y0134775D01*
X0093595Y0133777D02*
X0089467Y0133777D01*
X0089090Y0133933D02*
X0087101Y0133933D01*
X0085263Y0133172D01*
X0083856Y0131765D01*
X0083095Y0129928D01*
X0083095Y0127938D01*
X0083856Y0126101D01*
X0085263Y0124694D01*
X0087101Y0123933D01*
X0089090Y0123933D01*
X0090927Y0124694D01*
X0092334Y0126101D01*
X0093095Y0127938D01*
X0093095Y0129928D01*
X0092334Y0131765D01*
X0090927Y0133172D01*
X0089090Y0133933D01*
X0086723Y0133777D02*
X0069695Y0133777D01*
X0069695Y0134775D02*
X0084182Y0134775D01*
X0083183Y0135774D02*
X0069695Y0135774D01*
X0069695Y0136772D02*
X0082578Y0136772D01*
X0082165Y0137771D02*
X0069695Y0137771D01*
X0069695Y0138769D02*
X0082095Y0138769D01*
X0082095Y0139768D02*
X0069695Y0139768D01*
X0069695Y0140766D02*
X0082443Y0140766D01*
X0085687Y0143762D02*
X0069411Y0143762D01*
X0065469Y0141765D02*
X0046334Y0141765D01*
X0044927Y0143172D01*
X0043090Y0143933D01*
X0041101Y0143933D01*
X0039263Y0143172D01*
X0037856Y0141765D01*
X0036595Y0141765D01*
X0036595Y0142763D02*
X0038854Y0142763D01*
X0037856Y0141765D02*
X0037095Y0139928D01*
X0037095Y0137938D01*
X0037856Y0136101D01*
X0039263Y0134694D01*
X0041101Y0133933D01*
X0043090Y0133933D01*
X0044927Y0134694D01*
X0046334Y0136101D01*
X0047095Y0137938D01*
X0047095Y0139928D01*
X0046334Y0141765D01*
X0046748Y0140766D02*
X0065495Y0140766D01*
X0065495Y0139768D02*
X0047095Y0139768D01*
X0047095Y0138769D02*
X0065495Y0138769D01*
X0065495Y0137771D02*
X0047026Y0137771D01*
X0046612Y0136772D02*
X0065495Y0136772D01*
X0065495Y0135774D02*
X0046007Y0135774D01*
X0045008Y0134775D02*
X0065495Y0134775D01*
X0065495Y0133777D02*
X0044467Y0133777D01*
X0044090Y0133933D02*
X0042101Y0133933D01*
X0040263Y0133172D01*
X0038856Y0131765D01*
X0038095Y0129928D01*
X0038095Y0127938D01*
X0038856Y0126101D01*
X0040263Y0124694D01*
X0042101Y0123933D01*
X0044090Y0123933D01*
X0045927Y0124694D01*
X0047334Y0126101D01*
X0048095Y0127938D01*
X0048095Y0129928D01*
X0047334Y0131765D01*
X0045927Y0133172D01*
X0044090Y0133933D01*
X0046321Y0132778D02*
X0065495Y0132778D01*
X0065495Y0131780D02*
X0047320Y0131780D01*
X0047742Y0130781D02*
X0065495Y0130781D01*
X0065495Y0129783D02*
X0048095Y0129783D01*
X0048095Y0128784D02*
X0065495Y0128784D01*
X0065495Y0127786D02*
X0048032Y0127786D01*
X0047618Y0126787D02*
X0065452Y0126787D01*
X0064978Y0125789D02*
X0047022Y0125789D01*
X0046023Y0124790D02*
X0064232Y0124790D01*
X0063234Y0123792D02*
X0043431Y0123792D01*
X0043090Y0123933D02*
X0041101Y0123933D01*
X0039263Y0123172D01*
X0037856Y0121765D01*
X0037095Y0119928D01*
X0037095Y0117938D01*
X0037856Y0116101D01*
X0039263Y0114694D01*
X0041101Y0113933D01*
X0043090Y0113933D01*
X0044927Y0114694D01*
X0046334Y0116101D01*
X0047095Y0117938D01*
X0047095Y0119928D01*
X0046334Y0121765D01*
X0044927Y0123172D01*
X0043090Y0123933D01*
X0040759Y0123792D02*
X0036595Y0123792D01*
X0036595Y0124790D02*
X0040167Y0124790D01*
X0039168Y0125789D02*
X0036595Y0125789D01*
X0036595Y0126787D02*
X0038572Y0126787D01*
X0038158Y0127786D02*
X0036595Y0127786D01*
X0036595Y0128784D02*
X0038095Y0128784D01*
X0038095Y0129783D02*
X0036595Y0129783D01*
X0036595Y0130781D02*
X0038449Y0130781D01*
X0038871Y0131780D02*
X0036595Y0131780D01*
X0036595Y0132778D02*
X0039869Y0132778D01*
X0039182Y0134775D02*
X0036595Y0134775D01*
X0036595Y0133777D02*
X0041723Y0133777D01*
X0038183Y0135774D02*
X0036595Y0135774D01*
X0036595Y0136772D02*
X0037578Y0136772D01*
X0037165Y0137771D02*
X0036595Y0137771D01*
X0036595Y0138769D02*
X0037095Y0138769D01*
X0037095Y0139768D02*
X0036595Y0139768D01*
X0036595Y0140766D02*
X0037443Y0140766D01*
X0036595Y0143762D02*
X0040687Y0143762D01*
X0043503Y0143762D02*
X0063471Y0143762D01*
X0062473Y0144760D02*
X0036595Y0144760D01*
X0036595Y0145759D02*
X0061474Y0145759D01*
X0060476Y0146757D02*
X0036595Y0146757D01*
X0036595Y0147756D02*
X0059477Y0147756D01*
X0058479Y0148754D02*
X0036595Y0148754D01*
X0036595Y0149753D02*
X0057480Y0149753D01*
X0056482Y0150751D02*
X0036595Y0150751D01*
X0036595Y0151750D02*
X0055483Y0151750D01*
X0054485Y0152748D02*
X0036595Y0152748D01*
X0036595Y0153747D02*
X0053486Y0153747D01*
X0052488Y0154745D02*
X0036595Y0154745D01*
X0036595Y0155744D02*
X0051489Y0155744D01*
X0050491Y0156743D02*
X0036595Y0156743D01*
X0036595Y0157741D02*
X0049492Y0157741D01*
X0048494Y0158740D02*
X0036595Y0158740D01*
X0036595Y0159738D02*
X0047495Y0159738D01*
X0046497Y0160737D02*
X0036595Y0160737D01*
X0036595Y0161735D02*
X0038630Y0161735D01*
X0038470Y0162734D02*
X0036595Y0162734D01*
X0036595Y0163732D02*
X0038470Y0163732D01*
X0038470Y0164731D02*
X0036595Y0164731D01*
X0036595Y0165729D02*
X0038470Y0165729D01*
X0038470Y0166728D02*
X0036595Y0166728D01*
X0036595Y0167726D02*
X0038470Y0167726D01*
X0038470Y0168725D02*
X0036595Y0168725D01*
X0036595Y0169723D02*
X0038470Y0169723D01*
X0038470Y0170722D02*
X0036595Y0170722D01*
X0036595Y0171720D02*
X0039219Y0171720D01*
X0036595Y0172719D02*
X0093595Y0172719D01*
X0093595Y0173717D02*
X0036595Y0173717D01*
X0036595Y0174716D02*
X0093595Y0174716D01*
X0093595Y0175714D02*
X0036595Y0175714D01*
X0036595Y0176433D02*
X0036629Y0176692D01*
X0036888Y0177140D01*
X0037336Y0177399D01*
X0037595Y0177433D01*
X0092595Y0177433D01*
X0092854Y0177399D01*
X0093302Y0177140D01*
X0093561Y0176692D01*
X0093595Y0176433D01*
X0093595Y0077926D01*
X0093592Y0077934D01*
X0092846Y0078680D01*
X0091872Y0079083D01*
X0090818Y0079083D01*
X0089844Y0078680D01*
X0089099Y0077934D01*
X0088695Y0076960D01*
X0088695Y0076329D01*
X0083950Y0071583D01*
X0083318Y0071583D01*
X0082344Y0071180D01*
X0081599Y0070434D01*
X0081195Y0069460D01*
X0081195Y0068406D01*
X0081599Y0067432D01*
X0082344Y0066687D01*
X0083318Y0066283D01*
X0084372Y0066283D01*
X0085346Y0066687D01*
X0086092Y0067432D01*
X0086495Y0068406D01*
X0086495Y0069037D01*
X0091241Y0073783D01*
X0091872Y0073783D01*
X0092846Y0074187D01*
X0093592Y0074932D01*
X0093595Y0074940D01*
X0093595Y0032058D01*
X0093561Y0031799D01*
X0093302Y0031351D01*
X0092854Y0031092D01*
X0092595Y0031058D01*
X0037595Y0031058D01*
X0037336Y0031092D01*
X0036888Y0031351D01*
X0036629Y0031799D01*
X0036595Y0032058D01*
X0036595Y0176433D01*
X0036641Y0176713D02*
X0093549Y0176713D01*
X0087009Y0170722D02*
X0086009Y0170722D01*
X0086009Y0169723D02*
X0087009Y0169723D01*
X0087009Y0168725D02*
X0086009Y0168725D01*
X0086009Y0167726D02*
X0087009Y0167726D01*
X0086009Y0166728D02*
X0076629Y0166728D01*
X0076629Y0165729D02*
X0081052Y0165729D01*
X0081019Y0165933D02*
X0081144Y0165145D01*
X0081412Y0164322D01*
X0081805Y0163550D01*
X0082314Y0162850D01*
X0082926Y0162238D01*
X0083626Y0161729D01*
X0084397Y0161336D01*
X0085221Y0161069D01*
X0086009Y0160944D01*
X0086009Y0165933D01*
X0081019Y0165933D01*
X0081279Y0164731D02*
X0076361Y0164731D01*
X0075947Y0163732D02*
X0081712Y0163732D01*
X0082430Y0162734D02*
X0075125Y0162734D01*
X0073837Y0161735D02*
X0083618Y0161735D01*
X0086009Y0161735D02*
X0087009Y0161735D01*
X0087009Y0162734D02*
X0086009Y0162734D01*
X0086009Y0163732D02*
X0087009Y0163732D01*
X0087009Y0164731D02*
X0086009Y0164731D01*
X0086009Y0165729D02*
X0087009Y0165729D01*
X0083054Y0170722D02*
X0074536Y0170722D01*
X0075534Y0169723D02*
X0082101Y0169723D01*
X0081504Y0168725D02*
X0076117Y0168725D01*
X0076530Y0167726D02*
X0081146Y0167726D01*
X0068122Y0170722D02*
X0062156Y0170722D01*
X0063155Y0169723D02*
X0067124Y0169723D01*
X0066542Y0168725D02*
X0063737Y0168725D01*
X0064151Y0167726D02*
X0066128Y0167726D01*
X0066029Y0166728D02*
X0064250Y0166728D01*
X0064250Y0165729D02*
X0066029Y0165729D01*
X0066298Y0164731D02*
X0063981Y0164731D01*
X0063568Y0163732D02*
X0066711Y0163732D01*
X0067533Y0162734D02*
X0062746Y0162734D01*
X0061457Y0161735D02*
X0068822Y0161735D01*
X0064470Y0142763D02*
X0045336Y0142763D01*
X0045306Y0122793D02*
X0062235Y0122793D01*
X0061237Y0121795D02*
X0046305Y0121795D01*
X0046735Y0120796D02*
X0060495Y0120796D01*
X0060495Y0119798D02*
X0047095Y0119798D01*
X0047095Y0118799D02*
X0060495Y0118799D01*
X0060495Y0117801D02*
X0047038Y0117801D01*
X0046624Y0116802D02*
X0060495Y0116802D01*
X0060495Y0115804D02*
X0046037Y0115804D01*
X0045038Y0114805D02*
X0060495Y0114805D01*
X0060495Y0113807D02*
X0036595Y0113807D01*
X0036595Y0114805D02*
X0039152Y0114805D01*
X0038154Y0115804D02*
X0036595Y0115804D01*
X0036595Y0116802D02*
X0037566Y0116802D01*
X0037152Y0117801D02*
X0036595Y0117801D01*
X0036595Y0118799D02*
X0037095Y0118799D01*
X0037095Y0119798D02*
X0036595Y0119798D01*
X0036595Y0120796D02*
X0037455Y0120796D01*
X0037886Y0121795D02*
X0036595Y0121795D01*
X0036595Y0122793D02*
X0038884Y0122793D01*
X0036595Y0112808D02*
X0060495Y0112808D01*
X0060495Y0111810D02*
X0036595Y0111810D01*
X0036595Y0110811D02*
X0060495Y0110811D01*
X0060495Y0109812D02*
X0036595Y0109812D01*
X0036595Y0108814D02*
X0060495Y0108814D01*
X0060495Y0107815D02*
X0036595Y0107815D01*
X0036595Y0106817D02*
X0060495Y0106817D01*
X0060495Y0105818D02*
X0050082Y0105818D01*
X0049721Y0106180D02*
X0050467Y0105434D01*
X0050870Y0104460D01*
X0050870Y0103406D01*
X0050467Y0102432D01*
X0050020Y0101985D01*
X0050020Y0095062D01*
X0048966Y0094008D01*
X0042745Y0087787D01*
X0042745Y0087156D01*
X0042342Y0086182D01*
X0041596Y0085437D01*
X0040622Y0085033D01*
X0039568Y0085033D01*
X0038594Y0085437D01*
X0037849Y0086182D01*
X0037445Y0087156D01*
X0037445Y0088210D01*
X0037849Y0089184D01*
X0038594Y0089930D01*
X0039568Y0090333D01*
X0040200Y0090333D01*
X0046420Y0096554D01*
X0046420Y0101985D01*
X0045974Y0102432D01*
X0045570Y0103406D01*
X0045570Y0104460D01*
X0045974Y0105434D01*
X0046719Y0106180D01*
X0047693Y0106583D01*
X0048747Y0106583D01*
X0049721Y0106180D01*
X0050721Y0104820D02*
X0060495Y0104820D01*
X0060495Y0103821D02*
X0050870Y0103821D01*
X0050629Y0102823D02*
X0060495Y0102823D01*
X0060495Y0101824D02*
X0050020Y0101824D01*
X0050020Y0100826D02*
X0060495Y0100826D01*
X0060495Y0099827D02*
X0050020Y0099827D01*
X0050020Y0098829D02*
X0060495Y0098829D01*
X0060495Y0097830D02*
X0050020Y0097830D01*
X0050020Y0096832D02*
X0060495Y0096832D01*
X0060495Y0095833D02*
X0050020Y0095833D01*
X0049792Y0094835D02*
X0060495Y0094835D01*
X0060495Y0093836D02*
X0048794Y0093836D01*
X0047795Y0092838D02*
X0060495Y0092838D01*
X0060495Y0091839D02*
X0046797Y0091839D01*
X0045798Y0090841D02*
X0060495Y0090841D01*
X0060495Y0089842D02*
X0044800Y0089842D01*
X0043801Y0088844D02*
X0060495Y0088844D01*
X0060495Y0087845D02*
X0042803Y0087845D01*
X0042617Y0086847D02*
X0060495Y0086847D01*
X0060495Y0085848D02*
X0042008Y0085848D01*
X0040095Y0087683D02*
X0048220Y0095808D01*
X0048220Y0103933D01*
X0046358Y0105818D02*
X0036595Y0105818D01*
X0036595Y0104820D02*
X0045719Y0104820D01*
X0045570Y0103821D02*
X0036595Y0103821D01*
X0036595Y0102823D02*
X0045812Y0102823D01*
X0046420Y0101824D02*
X0036595Y0101824D01*
X0036595Y0100826D02*
X0046420Y0100826D01*
X0046420Y0099827D02*
X0036595Y0099827D01*
X0036595Y0098829D02*
X0046420Y0098829D01*
X0046420Y0097830D02*
X0036595Y0097830D01*
X0036595Y0096832D02*
X0046420Y0096832D01*
X0045700Y0095833D02*
X0036595Y0095833D01*
X0036595Y0094835D02*
X0044701Y0094835D01*
X0043703Y0093836D02*
X0036595Y0093836D01*
X0036595Y0092838D02*
X0042704Y0092838D01*
X0041706Y0091839D02*
X0036595Y0091839D01*
X0036595Y0090841D02*
X0040707Y0090841D01*
X0038507Y0089842D02*
X0036595Y0089842D01*
X0036595Y0088844D02*
X0037708Y0088844D01*
X0037445Y0087845D02*
X0036595Y0087845D01*
X0036595Y0086847D02*
X0037573Y0086847D01*
X0038182Y0085848D02*
X0036595Y0085848D01*
X0036595Y0084850D02*
X0060495Y0084850D01*
X0060495Y0083851D02*
X0036595Y0083851D01*
X0036595Y0082853D02*
X0060495Y0082853D01*
X0060495Y0081854D02*
X0036595Y0081854D01*
X0036595Y0080856D02*
X0060495Y0080856D01*
X0060495Y0079857D02*
X0036595Y0079857D01*
X0036595Y0078859D02*
X0060495Y0078859D01*
X0060495Y0077860D02*
X0036595Y0077860D01*
X0036595Y0076862D02*
X0060495Y0076862D01*
X0060495Y0075863D02*
X0036595Y0075863D01*
X0036595Y0074865D02*
X0060495Y0074865D01*
X0060495Y0073866D02*
X0036595Y0073866D01*
X0036595Y0072868D02*
X0060495Y0072868D01*
X0060495Y0071869D02*
X0036595Y0071869D01*
X0036595Y0070871D02*
X0060495Y0070871D01*
X0060495Y0069872D02*
X0036595Y0069872D01*
X0036595Y0068874D02*
X0060495Y0068874D01*
X0060495Y0067875D02*
X0036595Y0067875D01*
X0036595Y0066877D02*
X0060495Y0066877D01*
X0060495Y0065878D02*
X0036595Y0065878D01*
X0036595Y0064879D02*
X0060554Y0064879D01*
X0061552Y0063881D02*
X0036595Y0063881D01*
X0036595Y0062882D02*
X0062445Y0062882D01*
X0062817Y0061884D02*
X0036595Y0061884D01*
X0036595Y0060885D02*
X0064019Y0060885D01*
X0066171Y0060885D02*
X0067518Y0060885D01*
X0067445Y0060710D02*
X0067445Y0059656D01*
X0067849Y0058682D01*
X0068594Y0057937D01*
X0069568Y0057533D01*
X0070622Y0057533D01*
X0071420Y0057864D01*
X0071420Y0056932D01*
X0070221Y0055733D01*
X0064975Y0055733D01*
X0063920Y0054679D01*
X0063920Y0054679D01*
X0062075Y0052833D01*
X0061443Y0052833D01*
X0060469Y0052430D01*
X0059724Y0051684D01*
X0059320Y0050710D01*
X0059320Y0049656D01*
X0059724Y0048682D01*
X0060469Y0047937D01*
X0061443Y0047533D01*
X0062497Y0047533D01*
X0063471Y0047937D01*
X0064158Y0048623D01*
X0064844Y0047937D01*
X0065818Y0047533D01*
X0066872Y0047533D01*
X0067846Y0047937D01*
X0068293Y0048383D01*
X0071714Y0048383D01*
X0072769Y0049437D01*
X0078145Y0054814D01*
X0078145Y0085735D01*
X0078592Y0086182D01*
X0078995Y0087156D01*
X0078995Y0088210D01*
X0078592Y0089184D01*
X0077846Y0089930D01*
X0076872Y0090333D01*
X0075870Y0090333D01*
X0075870Y0091335D01*
X0075467Y0092309D01*
X0074721Y0093055D01*
X0073747Y0093458D01*
X0072693Y0093458D01*
X0071895Y0093128D01*
X0071895Y0099652D01*
X0074376Y0102133D01*
X0080022Y0102133D01*
X0080469Y0101687D01*
X0081443Y0101283D01*
X0082497Y0101283D01*
X0083471Y0101687D01*
X0084217Y0102432D01*
X0084620Y0103406D01*
X0084620Y0104460D01*
X0084217Y0105434D01*
X0083471Y0106180D01*
X0082497Y0106583D01*
X0081443Y0106583D01*
X0080469Y0106180D01*
X0080022Y0105733D01*
X0072885Y0105733D01*
X0071831Y0104679D01*
X0068295Y0101143D01*
X0068295Y0085881D01*
X0067849Y0085434D01*
X0067445Y0084460D01*
X0067445Y0083406D01*
X0067849Y0082432D01*
X0068295Y0081985D01*
X0068295Y0062131D01*
X0067849Y0061684D01*
X0067445Y0060710D01*
X0067445Y0059887D02*
X0036595Y0059887D01*
X0036595Y0058888D02*
X0067763Y0058888D01*
X0068707Y0057890D02*
X0036595Y0057890D01*
X0036595Y0056891D02*
X0071379Y0056891D01*
X0070381Y0055893D02*
X0036595Y0055893D01*
X0036595Y0054894D02*
X0064136Y0054894D01*
X0063137Y0053896D02*
X0036595Y0053896D01*
X0036595Y0052897D02*
X0062139Y0052897D01*
X0061970Y0050183D02*
X0065720Y0053933D01*
X0070967Y0053933D01*
X0073220Y0056187D01*
X0073220Y0090808D01*
X0074938Y0092838D02*
X0078645Y0092838D01*
X0077646Y0093836D02*
X0071895Y0093836D01*
X0071895Y0094835D02*
X0076648Y0094835D01*
X0075649Y0095833D02*
X0071895Y0095833D01*
X0071895Y0096832D02*
X0073449Y0096832D01*
X0073594Y0096687D02*
X0074568Y0096283D01*
X0075200Y0096283D01*
X0082475Y0089008D01*
X0085647Y0089008D01*
X0086094Y0088562D01*
X0087068Y0088158D01*
X0088122Y0088158D01*
X0089096Y0088562D01*
X0089842Y0089307D01*
X0090245Y0090281D01*
X0090245Y0091335D01*
X0089842Y0092309D01*
X0089096Y0093055D01*
X0088122Y0093458D01*
X0087068Y0093458D01*
X0086094Y0093055D01*
X0085647Y0092608D01*
X0083966Y0092608D01*
X0077745Y0098829D01*
X0093595Y0098829D01*
X0093595Y0099827D02*
X0077593Y0099827D01*
X0077745Y0099460D02*
X0077342Y0100434D01*
X0076596Y0101180D01*
X0075622Y0101583D01*
X0074568Y0101583D01*
X0073594Y0101180D01*
X0072849Y0100434D01*
X0072445Y0099460D01*
X0072445Y0098406D01*
X0072849Y0097432D01*
X0073594Y0096687D01*
X0072684Y0097830D02*
X0071895Y0097830D01*
X0071895Y0098829D02*
X0072445Y0098829D01*
X0072597Y0099827D02*
X0072071Y0099827D01*
X0073069Y0100826D02*
X0073240Y0100826D01*
X0074068Y0101824D02*
X0080331Y0101824D01*
X0081970Y0103933D02*
X0073631Y0103933D01*
X0070095Y0100398D01*
X0070095Y0083933D01*
X0070095Y0060183D01*
X0068048Y0061884D02*
X0067374Y0061884D01*
X0067745Y0062882D02*
X0068295Y0062882D01*
X0068295Y0063881D02*
X0067726Y0063881D01*
X0067271Y0064879D02*
X0068295Y0064879D01*
X0068295Y0065878D02*
X0065816Y0065878D01*
X0064695Y0066877D02*
X0068295Y0066877D01*
X0068295Y0067875D02*
X0064695Y0067875D01*
X0064695Y0068874D02*
X0068295Y0068874D01*
X0068295Y0069872D02*
X0064695Y0069872D01*
X0064695Y0070871D02*
X0068295Y0070871D01*
X0068295Y0071869D02*
X0064695Y0071869D01*
X0064695Y0072868D02*
X0068295Y0072868D01*
X0068295Y0073866D02*
X0064695Y0073866D01*
X0064695Y0074865D02*
X0068295Y0074865D01*
X0068295Y0075863D02*
X0064695Y0075863D01*
X0064695Y0076862D02*
X0068295Y0076862D01*
X0068295Y0077860D02*
X0064695Y0077860D01*
X0064695Y0078859D02*
X0068295Y0078859D01*
X0068295Y0079857D02*
X0064695Y0079857D01*
X0064695Y0080856D02*
X0068295Y0080856D01*
X0068295Y0081854D02*
X0064695Y0081854D01*
X0064695Y0082853D02*
X0067674Y0082853D01*
X0067445Y0083851D02*
X0064695Y0083851D01*
X0064695Y0084850D02*
X0067606Y0084850D01*
X0068263Y0085848D02*
X0064695Y0085848D01*
X0064695Y0086847D02*
X0068295Y0086847D01*
X0068295Y0087845D02*
X0064695Y0087845D01*
X0064695Y0088844D02*
X0068295Y0088844D01*
X0068295Y0089842D02*
X0064695Y0089842D01*
X0064695Y0090841D02*
X0068295Y0090841D01*
X0068295Y0091839D02*
X0064695Y0091839D01*
X0064695Y0092838D02*
X0068295Y0092838D01*
X0068295Y0093836D02*
X0064695Y0093836D01*
X0064695Y0094835D02*
X0068295Y0094835D01*
X0068295Y0095833D02*
X0064695Y0095833D01*
X0064695Y0096832D02*
X0068295Y0096832D01*
X0068295Y0097830D02*
X0064695Y0097830D01*
X0064695Y0098829D02*
X0068295Y0098829D01*
X0068295Y0099827D02*
X0064695Y0099827D01*
X0064695Y0100826D02*
X0068295Y0100826D01*
X0068976Y0101824D02*
X0064695Y0101824D01*
X0064695Y0102823D02*
X0069975Y0102823D01*
X0070973Y0103821D02*
X0064695Y0103821D01*
X0064695Y0104820D02*
X0071972Y0104820D01*
X0075095Y0098933D02*
X0083220Y0090808D01*
X0087595Y0090808D01*
X0085812Y0088844D02*
X0078733Y0088844D01*
X0078995Y0087845D02*
X0093595Y0087845D01*
X0093595Y0086847D02*
X0078867Y0086847D01*
X0078258Y0085848D02*
X0093595Y0085848D01*
X0093595Y0084850D02*
X0078145Y0084850D01*
X0078145Y0083851D02*
X0093595Y0083851D01*
X0093595Y0082853D02*
X0078145Y0082853D01*
X0078145Y0081854D02*
X0093595Y0081854D01*
X0093595Y0080856D02*
X0078145Y0080856D01*
X0078145Y0079857D02*
X0093595Y0079857D01*
X0093595Y0078859D02*
X0092414Y0078859D01*
X0091345Y0076433D02*
X0083845Y0068933D01*
X0085536Y0066877D02*
X0093595Y0066877D01*
X0093595Y0067875D02*
X0086275Y0067875D01*
X0086495Y0068874D02*
X0093595Y0068874D01*
X0093595Y0069872D02*
X0087330Y0069872D01*
X0088328Y0070871D02*
X0093595Y0070871D01*
X0093595Y0071869D02*
X0089327Y0071869D01*
X0090325Y0072868D02*
X0093595Y0072868D01*
X0093595Y0073866D02*
X0092073Y0073866D01*
X0093524Y0074865D02*
X0093595Y0074865D01*
X0090276Y0078859D02*
X0078145Y0078859D01*
X0078145Y0077860D02*
X0089068Y0077860D01*
X0088695Y0076862D02*
X0078145Y0076862D01*
X0078145Y0075863D02*
X0088230Y0075863D01*
X0087231Y0074865D02*
X0078145Y0074865D01*
X0078145Y0073866D02*
X0086233Y0073866D01*
X0085234Y0072868D02*
X0078145Y0072868D01*
X0078145Y0071869D02*
X0084236Y0071869D01*
X0082035Y0070871D02*
X0078145Y0070871D01*
X0078145Y0069872D02*
X0081366Y0069872D01*
X0081195Y0068874D02*
X0078145Y0068874D01*
X0078145Y0067875D02*
X0081415Y0067875D01*
X0082154Y0066877D02*
X0078145Y0066877D01*
X0078145Y0065878D02*
X0093595Y0065878D01*
X0093595Y0064879D02*
X0078145Y0064879D01*
X0078145Y0063881D02*
X0093595Y0063881D01*
X0093595Y0062882D02*
X0078145Y0062882D01*
X0078145Y0061884D02*
X0093595Y0061884D01*
X0093595Y0060885D02*
X0078145Y0060885D01*
X0078145Y0059887D02*
X0093595Y0059887D01*
X0093595Y0058888D02*
X0078145Y0058888D01*
X0078145Y0057890D02*
X0093595Y0057890D01*
X0093595Y0056891D02*
X0078145Y0056891D01*
X0078145Y0055893D02*
X0093595Y0055893D01*
X0093595Y0054894D02*
X0078145Y0054894D01*
X0077227Y0053896D02*
X0093595Y0053896D01*
X0093595Y0052897D02*
X0076229Y0052897D01*
X0075230Y0051899D02*
X0093595Y0051899D01*
X0093595Y0050900D02*
X0074232Y0050900D01*
X0073233Y0049902D02*
X0093595Y0049902D01*
X0093595Y0048903D02*
X0072234Y0048903D01*
X0070969Y0050183D02*
X0066345Y0050183D01*
X0064921Y0047905D02*
X0063395Y0047905D01*
X0060546Y0047905D02*
X0036595Y0047905D01*
X0036595Y0048903D02*
X0059632Y0048903D01*
X0059320Y0049902D02*
X0036595Y0049902D01*
X0036595Y0050900D02*
X0059399Y0050900D01*
X0059938Y0051899D02*
X0036595Y0051899D01*
X0036595Y0046906D02*
X0093595Y0046906D01*
X0093595Y0045908D02*
X0036595Y0045908D01*
X0036595Y0044909D02*
X0093595Y0044909D01*
X0093595Y0043911D02*
X0036595Y0043911D01*
X0036595Y0042912D02*
X0093595Y0042912D01*
X0093595Y0041914D02*
X0036595Y0041914D01*
X0036595Y0040915D02*
X0093595Y0040915D01*
X0093595Y0039917D02*
X0036595Y0039917D01*
X0036595Y0038918D02*
X0093595Y0038918D01*
X0093595Y0037920D02*
X0036595Y0037920D01*
X0036595Y0036921D02*
X0093595Y0036921D01*
X0093595Y0035923D02*
X0036595Y0035923D01*
X0036595Y0034924D02*
X0093595Y0034924D01*
X0093595Y0033926D02*
X0036595Y0033926D01*
X0036595Y0032927D02*
X0093595Y0032927D01*
X0093578Y0031929D02*
X0036612Y0031929D01*
X0067770Y0047905D02*
X0093595Y0047905D01*
X0076345Y0055560D02*
X0070969Y0050183D01*
X0076345Y0055560D02*
X0076345Y0087683D01*
X0077934Y0089842D02*
X0081640Y0089842D01*
X0080642Y0090841D02*
X0075870Y0090841D01*
X0075661Y0091839D02*
X0079643Y0091839D01*
X0081739Y0094835D02*
X0093595Y0094835D01*
X0093595Y0095833D02*
X0080740Y0095833D01*
X0079742Y0096832D02*
X0093595Y0096832D01*
X0093595Y0097830D02*
X0078743Y0097830D01*
X0077745Y0098829D02*
X0077745Y0099460D01*
X0076950Y0100826D02*
X0093595Y0100826D01*
X0093595Y0101824D02*
X0083609Y0101824D01*
X0084379Y0102823D02*
X0093595Y0102823D01*
X0093595Y0103821D02*
X0084620Y0103821D01*
X0084471Y0104820D02*
X0093595Y0104820D01*
X0093595Y0105818D02*
X0083832Y0105818D01*
X0080108Y0105818D02*
X0064695Y0105818D01*
X0064695Y0106817D02*
X0093595Y0106817D01*
X0093595Y0107815D02*
X0064695Y0107815D01*
X0064695Y0108814D02*
X0093595Y0108814D01*
X0093595Y0109812D02*
X0064695Y0109812D01*
X0064695Y0110811D02*
X0093595Y0110811D01*
X0093595Y0111810D02*
X0064695Y0111810D01*
X0064695Y0112808D02*
X0093595Y0112808D01*
X0093595Y0113807D02*
X0064695Y0113807D01*
X0064695Y0114805D02*
X0084152Y0114805D01*
X0084263Y0114694D02*
X0086101Y0113933D01*
X0088090Y0113933D01*
X0089927Y0114694D01*
X0091334Y0116101D01*
X0092095Y0117938D01*
X0092095Y0119928D01*
X0091334Y0121765D01*
X0089927Y0123172D01*
X0088090Y0123933D01*
X0086101Y0123933D01*
X0084263Y0123172D01*
X0082856Y0121765D01*
X0082095Y0119928D01*
X0082095Y0117938D01*
X0082856Y0116101D01*
X0084263Y0114694D01*
X0083154Y0115804D02*
X0064695Y0115804D01*
X0064695Y0116802D02*
X0082566Y0116802D01*
X0082152Y0117801D02*
X0064695Y0117801D01*
X0064695Y0118799D02*
X0082095Y0118799D01*
X0082095Y0119798D02*
X0065180Y0119798D01*
X0066178Y0120796D02*
X0082455Y0120796D01*
X0082886Y0121795D02*
X0067177Y0121795D01*
X0068750Y0122793D02*
X0083884Y0122793D01*
X0085167Y0124790D02*
X0070245Y0124790D01*
X0070213Y0125789D02*
X0084168Y0125789D01*
X0083572Y0126787D02*
X0069739Y0126787D01*
X0069695Y0127786D02*
X0083158Y0127786D01*
X0083095Y0128784D02*
X0069695Y0128784D01*
X0069695Y0129783D02*
X0083095Y0129783D01*
X0083449Y0130781D02*
X0069695Y0130781D01*
X0069695Y0131780D02*
X0083871Y0131780D01*
X0084869Y0132778D02*
X0069695Y0132778D01*
X0069887Y0123792D02*
X0085759Y0123792D01*
X0088431Y0123792D02*
X0093595Y0123792D01*
X0093595Y0124790D02*
X0091023Y0124790D01*
X0092022Y0125789D02*
X0093595Y0125789D01*
X0093595Y0126787D02*
X0092618Y0126787D01*
X0093032Y0127786D02*
X0093595Y0127786D01*
X0093595Y0128784D02*
X0093095Y0128784D01*
X0093095Y0129783D02*
X0093595Y0129783D01*
X0093595Y0130781D02*
X0092742Y0130781D01*
X0092320Y0131780D02*
X0093595Y0131780D01*
X0093595Y0132778D02*
X0091321Y0132778D01*
X0090306Y0122793D02*
X0093595Y0122793D01*
X0093595Y0121795D02*
X0091305Y0121795D01*
X0091735Y0120796D02*
X0093595Y0120796D01*
X0093595Y0119798D02*
X0092095Y0119798D01*
X0092095Y0118799D02*
X0093595Y0118799D01*
X0093595Y0117801D02*
X0092038Y0117801D01*
X0091624Y0116802D02*
X0093595Y0116802D01*
X0093595Y0115804D02*
X0091037Y0115804D01*
X0090038Y0114805D02*
X0093595Y0114805D01*
X0093595Y0093836D02*
X0082737Y0093836D01*
X0083736Y0092838D02*
X0085877Y0092838D01*
X0089313Y0092838D02*
X0093595Y0092838D01*
X0093595Y0091839D02*
X0090036Y0091839D01*
X0090245Y0090841D02*
X0093595Y0090841D01*
X0093595Y0089842D02*
X0090063Y0089842D01*
X0089378Y0088844D02*
X0093595Y0088844D01*
D15*
X0087595Y0090808D03*
X0081970Y0103933D03*
X0075095Y0098933D03*
X0073220Y0090808D03*
X0076345Y0087683D03*
X0070095Y0083933D03*
X0065095Y0063308D03*
X0070095Y0060183D03*
X0066345Y0050183D03*
X0061970Y0050183D03*
X0055720Y0059558D03*
X0050095Y0069558D03*
X0040095Y0087683D03*
X0048220Y0103933D03*
X0043845Y0104558D03*
X0067595Y0125183D03*
X0072595Y0126433D03*
X0091345Y0076433D03*
X0083845Y0068933D03*
X0082595Y0042058D03*
X0047595Y0042058D03*
D16*
X0065095Y0063308D02*
X0062595Y0065808D01*
X0062595Y0120183D01*
X0067595Y0125183D01*
X0067595Y0142608D01*
X0043770Y0166433D01*
M02*
