G04 Layer_Physical_Order=3*
G04 Layer_Color=128*
%FSLAX25Y25*%
%MOIN*%
G70*
G01*
G75*
%ADD32C,0.01000*%
%ADD41C,0.04000*%
%ADD42C,0.07150*%
%ADD43C,0.08094*%
%ADD44C,0.08685*%
%ADD45C,0.16205*%
%ADD46C,0.15811*%
%ADD47C,0.11008*%
%ADD48C,0.07543*%
%ADD49O,0.07937X0.07150*%
%ADD50C,0.04800*%
D32*
X387795Y387795D02*
Y440945D01*
X370079Y458661D02*
X387795Y440945D01*
X370079Y458661D02*
Y486221D01*
X348425D02*
X370079D01*
X348425Y421260D02*
Y486221D01*
Y421260D02*
X356299Y413386D01*
Y387795D02*
X387795D01*
X305512D02*
X356299D01*
X305002D02*
Y403821D01*
X356183D01*
X356299Y403937D01*
Y413386D01*
X305002Y404331D02*
Y427282D01*
X303150Y429134D02*
X305002Y427282D01*
X153543Y429134D02*
X303150D01*
X153543Y338583D02*
Y429134D01*
Y338583D02*
X232283D01*
Y385827D01*
X303033D01*
X305002Y387795D01*
D41*
X98425Y98425D02*
Y492126D01*
X541535D01*
Y334646D02*
Y492126D01*
X492126Y334646D02*
X541535D01*
X492126Y98425D02*
Y334646D01*
X98425Y98425D02*
X492126D01*
D42*
X110236Y394764D02*
D03*
Y384764D02*
D03*
Y408386D02*
D03*
Y418386D02*
D03*
Y361142D02*
D03*
Y435945D02*
D03*
Y445945D02*
D03*
X366142Y275590D02*
D03*
Y265354D02*
D03*
X389764D02*
D03*
Y275590D02*
D03*
X413386D02*
D03*
Y265354D02*
D03*
X437008D02*
D03*
Y275590D02*
D03*
X433071Y153543D02*
D03*
X443307D02*
D03*
X422835D02*
D03*
Y177165D02*
D03*
X443307D02*
D03*
X433071D02*
D03*
Y200787D02*
D03*
X443307D02*
D03*
X422835D02*
D03*
Y224410D02*
D03*
X443307D02*
D03*
X433071D02*
D03*
X370079Y157480D02*
D03*
X380315D02*
D03*
X359842D02*
D03*
Y181102D02*
D03*
X380315D02*
D03*
X370079D02*
D03*
Y204724D02*
D03*
X380315D02*
D03*
X359842D02*
D03*
Y228346D02*
D03*
X380315D02*
D03*
X370079D02*
D03*
X388976Y122835D02*
D03*
D43*
X508858Y458504D02*
D03*
Y446220D02*
D03*
Y426535D02*
D03*
Y406850D02*
D03*
Y387165D02*
D03*
Y367480D02*
D03*
Y438819D02*
D03*
Y419134D02*
D03*
Y399449D02*
D03*
Y379764D02*
D03*
Y465906D02*
D03*
Y360079D02*
D03*
X518858Y360039D02*
D03*
Y367441D02*
D03*
X528858Y367402D02*
D03*
Y360000D02*
D03*
X518858Y379724D02*
D03*
X528858Y379685D02*
D03*
X518858Y387126D02*
D03*
X528858Y387087D02*
D03*
Y406772D02*
D03*
X518858Y406811D02*
D03*
X528858Y399370D02*
D03*
X518858Y399410D02*
D03*
X528858Y426457D02*
D03*
X518858Y426496D02*
D03*
X528858Y419055D02*
D03*
X518858Y419095D02*
D03*
X528858Y446142D02*
D03*
X518858Y446181D02*
D03*
X528858Y438740D02*
D03*
X518858Y438779D02*
D03*
X528858Y465827D02*
D03*
X518858Y465866D02*
D03*
X528858Y458425D02*
D03*
X518858Y458465D02*
D03*
D44*
Y349213D02*
D03*
Y476772D02*
D03*
D45*
X480315Y480315D02*
D03*
Y110236D02*
D03*
X110236D02*
D03*
Y480315D02*
D03*
D46*
X406457Y463583D02*
D03*
X339567D02*
D03*
X315905D02*
D03*
X249016D02*
D03*
X126969Y241102D02*
D03*
Y174213D02*
D03*
X221417Y463583D02*
D03*
X154528D02*
D03*
X126969Y339528D02*
D03*
Y272638D02*
D03*
D47*
X387756Y464567D02*
D03*
Y477087D02*
D03*
X297205Y464567D02*
D03*
Y477087D02*
D03*
X267717D02*
D03*
Y464567D02*
D03*
X125984Y222402D02*
D03*
X113465D02*
D03*
X202716Y464567D02*
D03*
Y477087D02*
D03*
X173228D02*
D03*
Y464567D02*
D03*
X125984Y320827D02*
D03*
X113465D02*
D03*
D48*
X309842Y409291D02*
D03*
X486378Y145669D02*
D03*
X476378Y155669D02*
D03*
X486378D02*
D03*
X476378Y165669D02*
D03*
X486378D02*
D03*
X476378Y175669D02*
D03*
X486378D02*
D03*
X476378Y185669D02*
D03*
X486378D02*
D03*
X344331Y106299D02*
D03*
Y116299D02*
D03*
X334331Y106299D02*
D03*
Y116299D02*
D03*
X324331Y106299D02*
D03*
Y116299D02*
D03*
X314331Y106299D02*
D03*
Y116299D02*
D03*
X304331Y106299D02*
D03*
Y116299D02*
D03*
X294331Y106299D02*
D03*
Y116299D02*
D03*
X284331Y106299D02*
D03*
Y116299D02*
D03*
X274331Y106299D02*
D03*
Y116299D02*
D03*
X264331Y106299D02*
D03*
Y116299D02*
D03*
X254331Y106299D02*
D03*
Y116299D02*
D03*
X244331Y106299D02*
D03*
Y116299D02*
D03*
X234331Y106299D02*
D03*
Y116299D02*
D03*
X224331Y106299D02*
D03*
Y116299D02*
D03*
X214331Y106299D02*
D03*
Y116299D02*
D03*
X204331Y106299D02*
D03*
Y116299D02*
D03*
X194331Y106299D02*
D03*
Y116299D02*
D03*
X184331Y106299D02*
D03*
Y116299D02*
D03*
X174331Y106299D02*
D03*
Y116299D02*
D03*
X164331Y106299D02*
D03*
Y116299D02*
D03*
X340945Y143858D02*
D03*
Y133858D02*
D03*
D49*
X429921Y122835D02*
D03*
D50*
X193307Y155905D02*
D03*
X330807Y186221D02*
D03*
X352755Y181102D02*
D03*
X413386Y241732D02*
D03*
X334330Y205039D02*
D03*
X308563Y150787D02*
D03*
X319685Y148031D02*
D03*
X268504Y173622D02*
D03*
X264960Y198819D02*
D03*
X247244Y176378D02*
D03*
X248819Y173228D02*
D03*
X417323Y405512D02*
D03*
Y409449D02*
D03*
Y413386D02*
D03*
X405512D02*
D03*
Y381890D02*
D03*
Y385827D02*
D03*
X421260Y413386D02*
D03*
Y409449D02*
D03*
Y405512D02*
D03*
X425197Y401575D02*
D03*
X429134D02*
D03*
X433071Y405512D02*
D03*
Y409449D02*
D03*
Y413386D02*
D03*
X444882Y393701D02*
D03*
X440945D02*
D03*
X437008D02*
D03*
X433071D02*
D03*
X429134D02*
D03*
X425197D02*
D03*
X421260D02*
D03*
X417323D02*
D03*
X413386Y401575D02*
D03*
Y397638D02*
D03*
Y393701D02*
D03*
X409449Y401575D02*
D03*
Y397638D02*
D03*
Y393701D02*
D03*
X452756Y385827D02*
D03*
Y389764D02*
D03*
Y393701D02*
D03*
Y397638D02*
D03*
Y401575D02*
D03*
Y405512D02*
D03*
Y409449D02*
D03*
X176378Y260236D02*
D03*
X170079Y263386D02*
D03*
Y351181D02*
D03*
X121260D02*
D03*
X340551Y390945D02*
D03*
Y393307D02*
D03*
X332283D02*
D03*
Y390945D02*
D03*
X359055Y385039D02*
D03*
Y381496D02*
D03*
X367717Y383071D02*
D03*
Y380709D02*
D03*
X345669Y409055D02*
D03*
X352362Y400000D02*
D03*
Y396850D02*
D03*
X348425D02*
D03*
X340158Y413779D02*
D03*
X332283D02*
D03*
X357087Y437008D02*
D03*
X481299Y138779D02*
D03*
X471457Y150591D02*
D03*
X174331Y161299D02*
D03*
X288386Y196850D02*
D03*
X294291Y187992D02*
D03*
X304232Y200689D02*
D03*
X340551Y211614D02*
D03*
X323818Y207677D02*
D03*
X316929Y204724D02*
D03*
X403543Y114173D02*
D03*
X168307Y135827D02*
D03*
X170866Y146063D02*
D03*
X178347Y202756D02*
D03*
X218504Y166535D02*
D03*
Y178150D02*
D03*
X413779Y110630D02*
D03*
X416575Y163425D02*
D03*
X329528Y161811D02*
D03*
X319685Y164173D02*
D03*
X416575Y141732D02*
D03*
X426378Y168110D02*
D03*
X416535Y222441D02*
D03*
X181102Y202362D02*
D03*
X179921Y252464D02*
D03*
X197000Y184890D02*
D03*
X223228Y244094D02*
D03*
X216535Y121653D02*
D03*
X181102Y255906D02*
D03*
X486378Y126614D02*
D03*
X453543Y160630D02*
D03*
Y119685D02*
D03*
X447638Y170472D02*
D03*
X447638Y135827D02*
D03*
X290158Y175197D02*
D03*
Y135433D02*
D03*
X218504Y129921D02*
D03*
X228346D02*
D03*
X202756Y132283D02*
D03*
X194095Y132677D02*
D03*
X330709Y167323D02*
D03*
X331890Y134252D02*
D03*
X252953Y264370D02*
D03*
X243701Y267323D02*
D03*
X227559Y174257D02*
D03*
X237205Y181102D02*
D03*
X243701Y142913D02*
D03*
X225590D02*
D03*
X166929Y195276D02*
D03*
X158661Y102362D02*
D03*
X396575Y282953D02*
D03*
X396457Y268898D02*
D03*
X418110Y182283D02*
D03*
X380315Y217717D02*
D03*
X388976Y182283D02*
D03*
X382480Y260827D02*
D03*
X452756Y247244D02*
D03*
X450394Y162598D02*
D03*
X377953Y174016D02*
D03*
X238189Y262598D02*
D03*
X244094Y285433D02*
D03*
X348031Y291732D02*
D03*
X248031Y287795D02*
D03*
X335827Y289764D02*
D03*
X240551Y259842D02*
D03*
X353150Y243307D02*
D03*
X422835Y243701D02*
D03*
X208661Y223622D02*
D03*
X281102Y183465D02*
D03*
X355118Y157087D02*
D03*
X278346D02*
D03*
X267323Y203150D02*
D03*
X208661Y215354D02*
D03*
X386614Y237795D02*
D03*
X287008Y142913D02*
D03*
X394094Y363386D02*
D03*
Y199213D02*
D03*
X374016Y192913D02*
D03*
X443307Y218898D02*
D03*
X439370Y233465D02*
D03*
X396575Y238976D02*
D03*
X443307Y268898D02*
D03*
Y282283D02*
D03*
X437008Y212598D02*
D03*
X412992Y199606D02*
D03*
X406693Y252362D02*
D03*
X365354Y247638D02*
D03*
X212598Y355512D02*
D03*
X205512Y391339D02*
D03*
X165354D02*
D03*
X259842D02*
D03*
X260433Y375787D02*
D03*
X165354Y375590D02*
D03*
X214567Y249213D02*
D03*
X256693Y178740D02*
D03*
X262587Y201957D02*
D03*
X215354Y255906D02*
D03*
X206299Y336221D02*
D03*
X278740Y335433D02*
D03*
X268701Y198819D02*
D03*
X271260Y216929D02*
D03*
X280709Y175984D02*
D03*
X166535Y365748D02*
D03*
X104724Y366142D02*
D03*
X329705Y436043D02*
D03*
X406575Y145787D02*
D03*
X414370Y186811D02*
D03*
X429134Y204331D02*
D03*
X379134Y164567D02*
D03*
X406575Y163268D02*
D03*
X429134Y184646D02*
D03*
X364567Y182283D02*
D03*
X409449Y200000D02*
D03*
X395276Y161024D02*
D03*
X370472Y294094D02*
D03*
X383071Y289567D02*
D03*
X395276Y118504D02*
D03*
X198819Y290551D02*
D03*
X265354Y251181D02*
D03*
X266142Y236614D02*
D03*
X198819Y191339D02*
D03*
X196850Y346457D02*
D03*
X192913D02*
D03*
X188976D02*
D03*
X186614Y360630D02*
D03*
Y354724D02*
D03*
X187402Y349213D02*
D03*
X141732Y401575D02*
D03*
X137795D02*
D03*
X133858D02*
D03*
X131890Y404331D02*
D03*
X131102Y413386D02*
D03*
X131890Y422835D02*
D03*
X200787Y389764D02*
D03*
X187008Y390158D02*
D03*
X187402Y422441D02*
D03*
X206693Y395669D02*
D03*
X192913Y423228D02*
D03*
X196850D02*
D03*
X186221Y415354D02*
D03*
X198819Y387795D02*
D03*
X141732Y423228D02*
D03*
X137795D02*
D03*
X261811Y395669D02*
D03*
X246063Y403543D02*
D03*
X242126D02*
D03*
X250000D02*
D03*
X251969Y423228D02*
D03*
X248031D02*
D03*
X244094D02*
D03*
X259449Y397244D02*
D03*
X195276Y348425D02*
D03*
X237795Y214961D02*
D03*
X246457D02*
D03*
X185433Y211024D02*
D03*
X243110Y181102D02*
D03*
X246850Y180905D02*
D03*
X241732Y178347D02*
D03*
X341339Y166535D02*
D03*
X340551Y192520D02*
D03*
X292520Y233465D02*
D03*
X331496Y384646D02*
D03*
Y381890D02*
D03*
X340945Y384646D02*
D03*
X341339Y381496D02*
D03*
X340945Y375590D02*
D03*
X337795D02*
D03*
X334252D02*
D03*
X331102D02*
D03*
X340945Y335039D02*
D03*
X337402D02*
D03*
X333858D02*
D03*
X330315D02*
D03*
X231398Y157480D02*
D03*
X236024Y168307D02*
D03*
X191929Y138583D02*
D03*
X200000Y126449D02*
D03*
X193898Y171850D02*
D03*
X188878Y174213D02*
D03*
X301181Y150492D02*
D03*
X308381Y166544D02*
D03*
X297342Y169980D02*
D03*
X296949Y153051D02*
D03*
X303543Y186122D02*
D03*
X267224Y150000D02*
D03*
X264764Y133366D02*
D03*
X302165Y133760D02*
D03*
X257776Y153740D02*
D03*
X248819Y255906D02*
D03*
X261024Y179823D02*
D03*
X261122Y176575D02*
D03*
X258858Y183169D02*
D03*
X262907Y174320D02*
D03*
X277953Y180709D02*
D03*
X275197Y178347D02*
D03*
X249583Y200915D02*
D03*
M02*
