G04 Layer_Physical_Order=4*
G04 Layer_Color=16711680*
%FSLAX25Y25*%
%MOIN*%
G70*
G01*
G75*
%ADD31C,0.00787*%
%ADD32C,0.01000*%
%ADD33C,0.06299*%
%ADD34C,0.05905*%
%ADD35C,0.03937*%
%ADD36C,0.09842*%
%ADD37R,0.05905X0.05905*%
%ADD38R,0.05905X0.05905*%
%ADD39C,0.04724*%
%ADD40C,0.01600*%
%ADD51R,0.05512X0.24803*%
%ADD52R,0.05118X0.13386*%
%ADD53R,0.04331X0.11811*%
%ADD54R,0.07087X0.14567*%
%ADD55R,0.06102X0.05118*%
%ADD56R,0.06181X0.11102*%
G36*
X540331Y335850D02*
X492126D01*
X491665Y335758D01*
X491274Y335497D01*
X491013Y335106D01*
X490922Y334646D01*
Y99629D01*
X99629D01*
Y490922D01*
X540331D01*
Y335850D01*
D02*
G37*
%LPC*%
G36*
X370472Y295713D02*
X369853Y295590D01*
X369328Y295239D01*
X368977Y294714D01*
X368854Y294094D01*
X368977Y293475D01*
X369268Y293039D01*
Y277511D01*
X368768Y277341D01*
X368388Y277837D01*
X367730Y278342D01*
X366964Y278659D01*
X366142Y278767D01*
X365319Y278659D01*
X364553Y278342D01*
X363895Y277837D01*
X363391Y277179D01*
X363073Y276413D01*
X362965Y275590D01*
X363073Y274768D01*
X363391Y274002D01*
X363895Y273344D01*
X364553Y272839D01*
X365319Y272522D01*
X366142Y272414D01*
X366964Y272522D01*
X367730Y272839D01*
X368388Y273344D01*
X368768Y273840D01*
X369268Y273670D01*
Y270184D01*
X367348Y268264D01*
X366964Y268423D01*
X366142Y268531D01*
X365319Y268423D01*
X364553Y268106D01*
X363895Y267601D01*
X363391Y266943D01*
X363073Y266177D01*
X362965Y265354D01*
X363073Y264532D01*
X363391Y263766D01*
X363895Y263108D01*
X364553Y262603D01*
X365319Y262286D01*
X366142Y262177D01*
X366964Y262286D01*
X367730Y262603D01*
X368388Y263108D01*
X368893Y263766D01*
X369210Y264532D01*
X369319Y265354D01*
X369210Y266177D01*
X369051Y266561D01*
X371324Y268833D01*
X371585Y269224D01*
X371677Y269685D01*
X371677Y269685D01*
Y293039D01*
X371968Y293475D01*
X372091Y294094D01*
X371968Y294714D01*
X371617Y295239D01*
X371092Y295590D01*
X370472Y295713D01*
D02*
G37*
G36*
X437008Y278767D02*
X436186Y278659D01*
X435420Y278342D01*
X434761Y277837D01*
X434257Y277179D01*
X433939Y276413D01*
X433831Y275590D01*
X433939Y274768D01*
X434257Y274002D01*
X434761Y273344D01*
X435420Y272839D01*
X436186Y272522D01*
X437008Y272414D01*
X437830Y272522D01*
X438596Y272839D01*
X439254Y273344D01*
X439759Y274002D01*
X440076Y274768D01*
X440185Y275590D01*
X440076Y276413D01*
X439759Y277179D01*
X439254Y277837D01*
X438596Y278342D01*
X437830Y278659D01*
X437008Y278767D01*
D02*
G37*
G36*
X413386D02*
X412564Y278659D01*
X411797Y278342D01*
X411139Y277837D01*
X410635Y277179D01*
X410317Y276413D01*
X410209Y275590D01*
X410317Y274768D01*
X410635Y274002D01*
X411139Y273344D01*
X411797Y272839D01*
X412564Y272522D01*
X413386Y272414D01*
X414208Y272522D01*
X414974Y272839D01*
X415632Y273344D01*
X416137Y274002D01*
X416454Y274768D01*
X416563Y275590D01*
X416454Y276413D01*
X416137Y277179D01*
X415632Y277837D01*
X414974Y278342D01*
X414208Y278659D01*
X413386Y278767D01*
D02*
G37*
G36*
X394094Y365004D02*
X393475Y364881D01*
X392950Y364530D01*
X392599Y364005D01*
X392476Y363386D01*
X392599Y362767D01*
X392890Y362331D01*
Y277511D01*
X392390Y277341D01*
X392010Y277837D01*
X391352Y278342D01*
X390586Y278659D01*
X389764Y278767D01*
X388942Y278659D01*
X388175Y278342D01*
X387517Y277837D01*
X387013Y277179D01*
X386695Y276413D01*
X386587Y275590D01*
X386695Y274768D01*
X387013Y274002D01*
X387517Y273344D01*
X388175Y272839D01*
X388942Y272522D01*
X389764Y272414D01*
X390586Y272522D01*
X391352Y272839D01*
X392010Y273344D01*
X392390Y273840D01*
X392890Y273670D01*
Y267275D01*
X392390Y267105D01*
X392010Y267601D01*
X391352Y268106D01*
X390586Y268423D01*
X389764Y268531D01*
X388942Y268423D01*
X388175Y268106D01*
X387517Y267601D01*
X387013Y266943D01*
X386695Y266177D01*
X386587Y265354D01*
X386695Y264532D01*
X387013Y263766D01*
X387517Y263108D01*
X388175Y262603D01*
X388942Y262286D01*
X389764Y262177D01*
X390586Y262286D01*
X391352Y262603D01*
X392010Y263108D01*
X392390Y263603D01*
X392890Y263434D01*
Y200268D01*
X392599Y199832D01*
X392476Y199213D01*
X392599Y198593D01*
X392950Y198068D01*
X393475Y197717D01*
X394094Y197594D01*
X394714Y197717D01*
X395239Y198068D01*
X395590Y198593D01*
X395713Y199213D01*
X395590Y199832D01*
X395299Y200268D01*
Y237318D01*
X395799Y237586D01*
X395955Y237481D01*
X396575Y237358D01*
X397194Y237481D01*
X397719Y237832D01*
X398070Y238357D01*
X398193Y238976D01*
X398070Y239596D01*
X397779Y240031D01*
Y268019D01*
X397952Y268278D01*
X398075Y268898D01*
X397952Y269517D01*
X397779Y269776D01*
Y281898D01*
X398070Y282333D01*
X398193Y282953D01*
X398070Y283572D01*
X397719Y284097D01*
X397194Y284448D01*
X396575Y284571D01*
X395955Y284448D01*
X395799Y284343D01*
X395299Y284611D01*
Y362331D01*
X395590Y362767D01*
X395713Y363386D01*
X395590Y364005D01*
X395239Y364530D01*
X394714Y364881D01*
X394094Y365004D01*
D02*
G37*
G36*
X113465Y326585D02*
X111974Y326389D01*
X110586Y325813D01*
X109393Y324898D01*
X108478Y323706D01*
X107903Y322317D01*
X107707Y320827D01*
X107903Y319337D01*
X108478Y317948D01*
X109393Y316755D01*
X110586Y315840D01*
X111974Y315265D01*
X113465Y315069D01*
X114955Y315265D01*
X116343Y315840D01*
X117536Y316755D01*
X118451Y317948D01*
X119026Y319337D01*
X119222Y320827D01*
X119026Y322317D01*
X118451Y323706D01*
X117536Y324898D01*
X116343Y325813D01*
X114955Y326389D01*
X113465Y326585D01*
D02*
G37*
G36*
X278740Y337052D02*
X278121Y336928D01*
X277596Y336578D01*
X277245Y336052D01*
X277122Y335433D01*
X277245Y334814D01*
X277536Y334378D01*
Y318898D01*
X277536Y318898D01*
X277628Y318437D01*
X277889Y318046D01*
X299977Y295958D01*
Y283210D01*
X299477Y282876D01*
X299409Y282889D01*
X294291D01*
X293984Y282828D01*
X293724Y282654D01*
X293550Y282394D01*
X293489Y282087D01*
Y268701D01*
X293550Y268394D01*
X293724Y268133D01*
X293984Y267959D01*
X294291Y267898D01*
X299409D01*
X299477Y267911D01*
X299977Y267577D01*
Y259982D01*
X299477Y259648D01*
X299409Y259661D01*
X294291D01*
X293984Y259600D01*
X293724Y259426D01*
X293550Y259166D01*
X293489Y258858D01*
Y245472D01*
X293550Y245165D01*
X293724Y244905D01*
X293984Y244731D01*
X294291Y244670D01*
X299409D01*
X299477Y244683D01*
X299977Y244349D01*
Y228092D01*
X299477Y227758D01*
X299409Y227771D01*
X294291D01*
X293984Y227710D01*
X293724Y227536D01*
X293550Y227276D01*
X293489Y226969D01*
Y213583D01*
X293550Y213276D01*
X293724Y213015D01*
X293984Y212841D01*
X294291Y212780D01*
X299409D01*
X299477Y212793D01*
X299977Y212459D01*
Y204864D01*
X299477Y204530D01*
X299409Y204543D01*
X294291D01*
X293984Y204482D01*
X293724Y204308D01*
X293550Y204047D01*
X293489Y203740D01*
Y190354D01*
X293550Y190047D01*
X293593Y189982D01*
X293646Y189653D01*
X293472Y189354D01*
X293147Y189137D01*
X292796Y188611D01*
X292673Y187992D01*
X292796Y187373D01*
X293127Y186878D01*
Y119849D01*
X292444Y119566D01*
X291663Y118967D01*
X291064Y118185D01*
X290687Y117276D01*
X290558Y116299D01*
X290687Y115323D01*
X291064Y114413D01*
X291663Y113632D01*
X292444Y113032D01*
X293354Y112655D01*
X294331Y112527D01*
X295307Y112655D01*
X296217Y113032D01*
X296760Y113449D01*
X297260Y113203D01*
Y110932D01*
X295989Y109661D01*
X295307Y109943D01*
X294331Y110072D01*
X293354Y109943D01*
X292444Y109566D01*
X291663Y108967D01*
X291064Y108185D01*
X290687Y107276D01*
X290558Y106299D01*
X290687Y105323D01*
X291064Y104413D01*
X291663Y103632D01*
X292444Y103032D01*
X293354Y102655D01*
X294331Y102527D01*
X295307Y102655D01*
X296217Y103032D01*
X296998Y103632D01*
X297598Y104413D01*
X297975Y105323D01*
X298103Y106299D01*
X297975Y107276D01*
X297692Y107957D01*
X299316Y109581D01*
X299577Y109972D01*
X299669Y110433D01*
Y137598D01*
X299577Y138059D01*
X299316Y138450D01*
X299316Y138450D01*
X298157Y139609D01*
X298178Y140103D01*
X298278Y140177D01*
X298653Y140306D01*
X298807Y140203D01*
X299114Y140142D01*
X300961D01*
Y134815D01*
X300670Y134379D01*
X300547Y133760D01*
X300670Y133141D01*
X301021Y132615D01*
X301546Y132264D01*
X302165Y132141D01*
X302785Y132264D01*
X303310Y132615D01*
X303661Y133141D01*
X303784Y133760D01*
X303661Y134379D01*
X303370Y134815D01*
Y140142D01*
X305193D01*
Y126582D01*
X303479Y124867D01*
X303218Y124477D01*
X303127Y124016D01*
X303127Y124016D01*
Y119849D01*
X302445Y119566D01*
X301663Y118967D01*
X301064Y118185D01*
X300687Y117276D01*
X300558Y116299D01*
X300687Y115323D01*
X301064Y114413D01*
X301663Y113632D01*
X302445Y113032D01*
X303354Y112655D01*
X304331Y112527D01*
X305307Y112655D01*
X306217Y113032D01*
X306677Y113385D01*
X307177Y113139D01*
Y110848D01*
X305989Y109661D01*
X305307Y109943D01*
X304331Y110072D01*
X303354Y109943D01*
X302445Y109566D01*
X301663Y108967D01*
X301064Y108185D01*
X300687Y107276D01*
X300558Y106299D01*
X300687Y105323D01*
X301064Y104413D01*
X301663Y103632D01*
X302445Y103032D01*
X303354Y102655D01*
X304331Y102527D01*
X305307Y102655D01*
X306217Y103032D01*
X306998Y103632D01*
X307598Y104413D01*
X307975Y105323D01*
X308103Y106299D01*
X307975Y107276D01*
X307692Y107957D01*
X309233Y109498D01*
X309233Y109498D01*
X309494Y109889D01*
X309585Y110350D01*
Y114168D01*
X309669Y114587D01*
X309669Y114587D01*
Y118095D01*
X309669Y118095D01*
X309585Y118514D01*
Y149561D01*
X309707Y149643D01*
X310058Y150168D01*
X310181Y150787D01*
X310058Y151407D01*
X309707Y151932D01*
X309585Y152013D01*
Y165489D01*
X309876Y165924D01*
X310000Y166544D01*
X309876Y167163D01*
X309526Y167688D01*
X309001Y168039D01*
X308381Y168162D01*
X308102Y168106D01*
X307602Y168488D01*
Y198524D01*
X307602Y198524D01*
X307510Y198985D01*
X307249Y199375D01*
X307249Y199375D01*
X305830Y200795D01*
X305728Y201308D01*
X305377Y201833D01*
X304852Y202184D01*
X304232Y202308D01*
X303613Y202184D01*
X303088Y201833D01*
X302885Y201530D01*
X302385Y201682D01*
Y296457D01*
X302294Y296918D01*
X302033Y297308D01*
X279944Y319396D01*
Y334378D01*
X280236Y334814D01*
X280359Y335433D01*
X280236Y336052D01*
X279885Y336578D01*
X279360Y336928D01*
X278740Y337052D01*
D02*
G37*
G36*
X127047Y279371D02*
X126969Y279363D01*
X126890Y279371D01*
X125732Y279257D01*
X125656Y279234D01*
X125578Y279226D01*
X124465Y278888D01*
X124395Y278851D01*
X124319Y278828D01*
X123293Y278280D01*
X123232Y278230D01*
X123162Y278192D01*
X122263Y277454D01*
X122213Y277393D01*
X122152Y277343D01*
X121414Y276444D01*
X121377Y276374D01*
X121326Y276313D01*
X120778Y275287D01*
X120755Y275212D01*
X120718Y275142D01*
X120380Y274028D01*
X120372Y273950D01*
X120350Y273874D01*
X120236Y272716D01*
X120239Y272677D01*
X120232Y272638D01*
X120239Y272599D01*
X120236Y272559D01*
X120350Y271401D01*
X120372Y271326D01*
X120380Y271247D01*
X120718Y270134D01*
X120755Y270064D01*
X120778Y269988D01*
X121326Y268963D01*
X121377Y268901D01*
X121414Y268832D01*
X122152Y267933D01*
X122213Y267882D01*
X122263Y267821D01*
X123162Y267083D01*
X123232Y267046D01*
X123293Y266996D01*
X124319Y266447D01*
X124395Y266424D01*
X124465Y266387D01*
X125578Y266050D01*
X125656Y266042D01*
X125732Y266019D01*
X126890Y265905D01*
X126969Y265913D01*
X127047Y265905D01*
X128205Y266019D01*
X128280Y266042D01*
X128359Y266050D01*
X129472Y266387D01*
X129542Y266424D01*
X129618Y266447D01*
X130644Y266996D01*
X130705Y267046D01*
X130775Y267083D01*
X131674Y267821D01*
X131724Y267882D01*
X131785Y267933D01*
X132523Y268832D01*
X132560Y268901D01*
X132610Y268963D01*
X133159Y269988D01*
X133182Y270064D01*
X133219Y270134D01*
X133557Y271247D01*
X133565Y271326D01*
X133588Y271401D01*
X133702Y272559D01*
X133698Y272599D01*
X133705Y272638D01*
X133698Y272677D01*
X133702Y272716D01*
X133588Y273874D01*
X133565Y273950D01*
X133557Y274028D01*
X133219Y275142D01*
X133182Y275212D01*
X133159Y275287D01*
X132610Y276313D01*
X132560Y276374D01*
X132523Y276444D01*
X131785Y277343D01*
X131724Y277393D01*
X131674Y277454D01*
X130775Y278192D01*
X130705Y278230D01*
X130644Y278280D01*
X129618Y278828D01*
X129542Y278851D01*
X129472Y278888D01*
X128359Y279226D01*
X128280Y279234D01*
X128205Y279257D01*
X127047Y279371D01*
D02*
G37*
G36*
X383071Y291185D02*
X382452Y291062D01*
X381926Y290711D01*
X381576Y290186D01*
X381452Y289567D01*
X381576Y288948D01*
X381926Y288422D01*
X382452Y288072D01*
X382965Y287969D01*
X383256Y287678D01*
Y262773D01*
X382756Y262390D01*
X382480Y262445D01*
X381861Y262322D01*
X381336Y261971D01*
X380985Y261446D01*
X380862Y260827D01*
X380985Y260207D01*
X381276Y259772D01*
Y231868D01*
X380776Y231463D01*
X380315Y231523D01*
X379493Y231415D01*
X378727Y231098D01*
X378069Y230593D01*
X377564Y229935D01*
X377246Y229169D01*
X377138Y228346D01*
X377246Y227524D01*
X377564Y226758D01*
X378069Y226100D01*
X378727Y225595D01*
X379493Y225278D01*
X380315Y225170D01*
X381137Y225278D01*
X381903Y225595D01*
X382561Y226100D01*
X382756Y226354D01*
X383256Y226185D01*
Y206886D01*
X382756Y206716D01*
X382561Y206971D01*
X381903Y207476D01*
X381519Y207635D01*
Y216662D01*
X381810Y217097D01*
X381933Y217717D01*
X381810Y218336D01*
X381459Y218861D01*
X380934Y219212D01*
X380315Y219335D01*
X379696Y219212D01*
X379170Y218861D01*
X378820Y218336D01*
X378696Y217717D01*
X378820Y217097D01*
X379111Y216662D01*
Y207635D01*
X378727Y207476D01*
X378069Y206971D01*
X377564Y206313D01*
X377246Y205547D01*
X377138Y204724D01*
X377246Y203902D01*
X377564Y203136D01*
X378069Y202478D01*
X378727Y201973D01*
X379493Y201656D01*
X380315Y201548D01*
X381137Y201656D01*
X381903Y201973D01*
X382561Y202478D01*
X382756Y202732D01*
X383256Y202563D01*
Y183264D01*
X382756Y183094D01*
X382561Y183349D01*
X381903Y183853D01*
X381137Y184171D01*
X380315Y184279D01*
X379493Y184171D01*
X379217Y184057D01*
X375328Y187945D01*
Y192021D01*
X375511Y192294D01*
X375634Y192913D01*
X375511Y193533D01*
X375160Y194058D01*
X374635Y194409D01*
X374016Y194532D01*
X373396Y194409D01*
X372871Y194058D01*
X372520Y193533D01*
X372397Y192913D01*
X372520Y192294D01*
X372703Y192021D01*
Y187402D01*
X372803Y186899D01*
X373088Y186473D01*
X377361Y182200D01*
X377246Y181925D01*
X377138Y181102D01*
X377246Y180280D01*
X377564Y179514D01*
X378069Y178856D01*
X378727Y178351D01*
X379493Y178034D01*
X379901Y177980D01*
X380080Y177452D01*
X378211Y175583D01*
X377953Y175634D01*
X377333Y175511D01*
X376808Y175160D01*
X376458Y174635D01*
X376334Y174016D01*
X376458Y173396D01*
X376808Y172871D01*
X377333Y172520D01*
X377953Y172397D01*
X378572Y172520D01*
X379097Y172871D01*
X379448Y173396D01*
X379452Y173419D01*
X385312Y179278D01*
X385312Y179278D01*
X385573Y179669D01*
X385665Y180130D01*
Y235965D01*
X386165Y236266D01*
X386509Y236198D01*
X387772Y234934D01*
Y183338D01*
X387481Y182903D01*
X387358Y182283D01*
X387481Y181664D01*
X387772Y181228D01*
Y180026D01*
X378282Y170537D01*
X378021Y170146D01*
X377930Y169685D01*
X377930Y169685D01*
Y165622D01*
X377639Y165186D01*
X377515Y164567D01*
X377639Y163948D01*
X377989Y163423D01*
X378515Y163072D01*
X379134Y162948D01*
X379753Y163072D01*
X380278Y163423D01*
X380629Y163948D01*
X380752Y164567D01*
X380629Y165186D01*
X380338Y165622D01*
Y169186D01*
X389828Y178676D01*
X389828Y178676D01*
X390089Y179067D01*
X390181Y179528D01*
X390181Y179528D01*
Y181228D01*
X390472Y181664D01*
X390595Y182283D01*
X390472Y182903D01*
X390181Y183338D01*
Y235433D01*
X390181Y235433D01*
X390089Y235894D01*
X389828Y236285D01*
X388212Y237901D01*
X388109Y238415D01*
X387759Y238940D01*
X387233Y239291D01*
X386614Y239414D01*
X386165Y239324D01*
X385665Y239626D01*
Y260002D01*
X385666Y260006D01*
Y261647D01*
X385665Y261651D01*
Y288177D01*
X385573Y288638D01*
X385312Y289029D01*
X384668Y289672D01*
X384566Y290186D01*
X384215Y290711D01*
X383690Y291062D01*
X383071Y291185D01*
D02*
G37*
G36*
X437008Y268531D02*
X436186Y268423D01*
X435420Y268106D01*
X434761Y267601D01*
X434257Y266943D01*
X433939Y266177D01*
X433831Y265354D01*
X433939Y264532D01*
X434257Y263766D01*
X434761Y263108D01*
X435420Y262603D01*
X436186Y262286D01*
X437008Y262177D01*
X437830Y262286D01*
X438596Y262603D01*
X439254Y263108D01*
X439759Y263766D01*
X440076Y264532D01*
X440185Y265354D01*
X440076Y266177D01*
X439759Y266943D01*
X439254Y267601D01*
X438596Y268106D01*
X437830Y268423D01*
X437008Y268531D01*
D02*
G37*
G36*
X443307Y283902D02*
X442688Y283779D01*
X442163Y283428D01*
X441812Y282903D01*
X441689Y282283D01*
X441812Y281664D01*
X442103Y281228D01*
Y269953D01*
X441812Y269517D01*
X441689Y268898D01*
X441812Y268278D01*
X442103Y267843D01*
Y227320D01*
X441719Y227161D01*
X441074Y226666D01*
X440891Y226692D01*
X440574Y226800D01*
Y232410D01*
X440865Y232845D01*
X440989Y233465D01*
X440865Y234084D01*
X440515Y234609D01*
X439990Y234960D01*
X439370Y235083D01*
X438751Y234960D01*
X438226Y234609D01*
X437875Y234084D01*
X437752Y233465D01*
X437875Y232845D01*
X438166Y232410D01*
Y214335D01*
X437666Y214068D01*
X437627Y214094D01*
X437008Y214217D01*
X436388Y214094D01*
X435863Y213743D01*
X435513Y213218D01*
X435389Y212598D01*
X435513Y211979D01*
X435804Y211543D01*
Y203177D01*
X435487Y203070D01*
X435304Y203044D01*
X434659Y203539D01*
X433893Y203856D01*
X433071Y203964D01*
X432249Y203856D01*
X431483Y203539D01*
X431206Y203327D01*
X430900Y203319D01*
X430593Y203486D01*
X430572Y203626D01*
X430629Y203711D01*
X430752Y204331D01*
X430629Y204950D01*
X430278Y205475D01*
X429753Y205826D01*
X429134Y205949D01*
X428514Y205826D01*
X427989Y205475D01*
X427639Y204950D01*
X427515Y204331D01*
X427639Y203711D01*
X427930Y203276D01*
Y197879D01*
X427876Y197858D01*
X427430Y197796D01*
X427229Y198096D01*
X427229Y198096D01*
X425744Y199581D01*
X425903Y199965D01*
X426011Y200787D01*
X425903Y201610D01*
X425586Y202376D01*
X425081Y203034D01*
X424423Y203539D01*
X424039Y203698D01*
Y216142D01*
X423947Y216603D01*
X423686Y216993D01*
X423686Y216993D01*
X418133Y222547D01*
X418031Y223060D01*
X417680Y223585D01*
X417155Y223936D01*
X416535Y224059D01*
X415916Y223936D01*
X415391Y223585D01*
X415090Y223135D01*
X414772Y223154D01*
X414590Y223218D01*
Y240677D01*
X414881Y241113D01*
X415004Y241732D01*
X414881Y242352D01*
X414530Y242877D01*
X414005Y243228D01*
X413386Y243351D01*
X412767Y243228D01*
X412241Y242877D01*
X411891Y242352D01*
X411767Y241732D01*
X411891Y241113D01*
X412182Y240677D01*
Y202827D01*
X412013Y202700D01*
X411703Y202598D01*
X410259Y204042D01*
Y260525D01*
X412180Y262445D01*
X412564Y262286D01*
X413386Y262177D01*
X414208Y262286D01*
X414974Y262603D01*
X415632Y263108D01*
X416137Y263766D01*
X416454Y264532D01*
X416563Y265354D01*
X416454Y266177D01*
X416137Y266943D01*
X415632Y267601D01*
X414974Y268106D01*
X414208Y268423D01*
X413386Y268531D01*
X412564Y268423D01*
X411797Y268106D01*
X411139Y267601D01*
X410635Y266943D01*
X410317Y266177D01*
X410209Y265354D01*
X410317Y264532D01*
X410476Y264148D01*
X408204Y261875D01*
X407942Y261485D01*
X407851Y261024D01*
X407851Y261024D01*
Y254099D01*
X407351Y253832D01*
X407312Y253857D01*
X406693Y253981D01*
X406074Y253857D01*
X405548Y253507D01*
X405198Y252982D01*
X405074Y252362D01*
X405198Y251743D01*
X405489Y251307D01*
Y164451D01*
X405430Y164412D01*
X405080Y163887D01*
X404956Y163268D01*
X405064Y162728D01*
X404826Y162228D01*
X396331D01*
X395895Y162519D01*
X395276Y162642D01*
X394656Y162519D01*
X394131Y162168D01*
X393780Y161643D01*
X393657Y161024D01*
X393780Y160404D01*
X394131Y159879D01*
X394656Y159528D01*
X395276Y159405D01*
X395895Y159528D01*
X396331Y159819D01*
X407256D01*
X407463Y159319D01*
X405647Y157503D01*
X405362Y157077D01*
X405262Y156575D01*
Y146680D01*
X405080Y146407D01*
X404956Y145787D01*
X405080Y145168D01*
X405430Y144643D01*
X405955Y144292D01*
X406575Y144169D01*
X407194Y144292D01*
X407719Y144643D01*
X408070Y145168D01*
X408193Y145787D01*
X408070Y146407D01*
X407887Y146680D01*
Y156031D01*
X414617Y162761D01*
X415196Y162632D01*
X415371Y162370D01*
Y142787D01*
X415079Y142352D01*
X414956Y141732D01*
X415079Y141113D01*
X415430Y140588D01*
X415955Y140237D01*
X416575Y140114D01*
X417194Y140237D01*
X417719Y140588D01*
X418070Y141113D01*
X418193Y141732D01*
X418070Y142352D01*
X417779Y142787D01*
Y162370D01*
X418070Y162806D01*
X418193Y163425D01*
X418070Y164045D01*
X417719Y164570D01*
X417194Y164920D01*
X416575Y165044D01*
X416183Y164966D01*
X415683Y165294D01*
Y185918D01*
X415865Y186192D01*
X415989Y186811D01*
X415865Y187430D01*
X415515Y187955D01*
X414990Y188306D01*
X414370Y188429D01*
X413751Y188306D01*
X413226Y187955D01*
X412875Y187430D01*
X412752Y186811D01*
X412875Y186192D01*
X413058Y185918D01*
Y164914D01*
X411153Y163009D01*
X410653Y163216D01*
Y198945D01*
X410889Y199299D01*
X410973Y199332D01*
X411466Y199143D01*
X411497Y198987D01*
X411848Y198462D01*
X412373Y198111D01*
X412992Y197988D01*
X413612Y198111D01*
X414137Y198462D01*
X414487Y198987D01*
X414530Y199202D01*
X415073Y199366D01*
X421630Y192808D01*
Y180076D01*
X421246Y179917D01*
X420996Y179724D01*
X420496Y179971D01*
Y181102D01*
X420496Y181102D01*
X420404Y181563D01*
X420143Y181954D01*
X420143Y181954D01*
X419708Y182389D01*
X419605Y182903D01*
X419255Y183428D01*
X418730Y183779D01*
X418110Y183902D01*
X417491Y183779D01*
X416966Y183428D01*
X416615Y182903D01*
X416492Y182283D01*
X416615Y181664D01*
X416966Y181139D01*
X417491Y180788D01*
X418005Y180686D01*
X418087Y180604D01*
Y175698D01*
X418087Y175698D01*
X418179Y175237D01*
X418440Y174846D01*
X421630Y171655D01*
Y156454D01*
X421246Y156295D01*
X420588Y155790D01*
X420084Y155132D01*
X419766Y154366D01*
X419658Y153543D01*
X419766Y152721D01*
X420084Y151955D01*
X420588Y151297D01*
X421246Y150792D01*
X422012Y150475D01*
X422835Y150366D01*
X423657Y150475D01*
X424423Y150792D01*
X425081Y151297D01*
X425586Y151955D01*
X425903Y152721D01*
X426011Y153543D01*
X425903Y154366D01*
X425586Y155132D01*
X425081Y155790D01*
X424423Y156295D01*
X424039Y156454D01*
Y172154D01*
X424039Y172154D01*
X423947Y172615D01*
X423686Y173006D01*
X423686Y173006D01*
X423164Y173528D01*
X423344Y174056D01*
X423657Y174097D01*
X424423Y174414D01*
X424674Y174607D01*
X425174Y174360D01*
Y169165D01*
X424883Y168730D01*
X424759Y168110D01*
X424883Y167491D01*
X425234Y166966D01*
X425759Y166615D01*
X426378Y166492D01*
X426997Y166615D01*
X427522Y166966D01*
X427873Y167491D01*
X427996Y168110D01*
X427873Y168730D01*
X427582Y169165D01*
Y183218D01*
X427746Y183332D01*
X428082Y183439D01*
X428514Y183150D01*
X429134Y183027D01*
X429753Y183150D01*
X430278Y183501D01*
X430629Y184026D01*
X430752Y184646D01*
X430629Y185265D01*
X430338Y185701D01*
Y198397D01*
X430654Y198505D01*
X430838Y198531D01*
X431483Y198036D01*
X432249Y197719D01*
X433071Y197611D01*
X433893Y197719D01*
X434659Y198036D01*
X435304Y198531D01*
X435487Y198505D01*
X435804Y198397D01*
Y179599D01*
X435368Y179431D01*
X435304Y179422D01*
X434659Y179917D01*
X433893Y180234D01*
X433071Y180342D01*
X432249Y180234D01*
X431483Y179917D01*
X430825Y179412D01*
X430320Y178754D01*
X430002Y177988D01*
X429894Y177165D01*
X430002Y176343D01*
X430320Y175577D01*
X430825Y174919D01*
X431483Y174414D01*
X432249Y174097D01*
X433071Y173989D01*
X433893Y174097D01*
X434659Y174414D01*
X435317Y174919D01*
X435822Y175577D01*
X436139Y176343D01*
X436248Y177165D01*
X436199Y177532D01*
X436673Y177766D01*
X438559Y175879D01*
Y175698D01*
X438559Y175698D01*
X438651Y175237D01*
X438912Y174846D01*
X442103Y171655D01*
Y156454D01*
X441719Y156295D01*
X441061Y155790D01*
X440556Y155132D01*
X440239Y154366D01*
X440130Y153543D01*
X440239Y152721D01*
X440556Y151955D01*
X441061Y151297D01*
X441719Y150792D01*
X442485Y150475D01*
X443307Y150366D01*
X444129Y150475D01*
X444896Y150792D01*
X445553Y151297D01*
X445934Y151792D01*
X446434Y151623D01*
Y136882D01*
X446142Y136446D01*
X446019Y135827D01*
X446142Y135207D01*
X446434Y134772D01*
Y134646D01*
X446525Y134185D01*
X446786Y133794D01*
X447177Y133533D01*
X447638Y133441D01*
X448099Y133533D01*
X448489Y133794D01*
X448750Y134185D01*
X448842Y134646D01*
Y134772D01*
X449133Y135207D01*
X449256Y135827D01*
X449133Y136446D01*
X448842Y136882D01*
Y161170D01*
X449005Y161284D01*
X449342Y161392D01*
X449774Y161103D01*
X450394Y160980D01*
X451013Y161103D01*
X451538Y161454D01*
X451889Y161979D01*
X451991Y162493D01*
X453607Y164109D01*
X453868Y164500D01*
X453960Y164961D01*
X453960Y164961D01*
Y246189D01*
X454251Y246625D01*
X454374Y247244D01*
X454251Y247864D01*
X453900Y248389D01*
X453375Y248739D01*
X452756Y248863D01*
X452137Y248739D01*
X451612Y248389D01*
X451261Y247864D01*
X451137Y247244D01*
X451261Y246625D01*
X451552Y246189D01*
Y165460D01*
X450288Y164196D01*
X449774Y164094D01*
X449342Y163805D01*
X449005Y163913D01*
X448842Y164026D01*
Y169418D01*
X449133Y169853D01*
X449256Y170472D01*
X449133Y171092D01*
X448782Y171617D01*
X448257Y171968D01*
X447638Y172091D01*
X447018Y171968D01*
X446493Y171617D01*
X446142Y171092D01*
X446019Y170472D01*
X446142Y169853D01*
X446434Y169418D01*
Y155464D01*
X445934Y155294D01*
X445553Y155790D01*
X444896Y156295D01*
X444511Y156454D01*
Y172154D01*
X444511Y172154D01*
X444420Y172615D01*
X444159Y173006D01*
X444159Y173006D01*
X443637Y173528D01*
X443816Y174056D01*
X444129Y174097D01*
X444896Y174414D01*
X445553Y174919D01*
X446058Y175577D01*
X446376Y176343D01*
X446484Y177165D01*
X446376Y177988D01*
X446058Y178754D01*
X445553Y179412D01*
X444896Y179917D01*
X444511Y180076D01*
Y185039D01*
X444420Y185500D01*
X444159Y185891D01*
X444159Y185891D01*
X440574Y189475D01*
Y198397D01*
X440891Y198505D01*
X441074Y198531D01*
X441719Y198036D01*
X442485Y197719D01*
X443307Y197611D01*
X444129Y197719D01*
X444896Y198036D01*
X445553Y198541D01*
X446058Y199199D01*
X446376Y199965D01*
X446484Y200787D01*
X446376Y201610D01*
X446058Y202376D01*
X445553Y203034D01*
X444896Y203539D01*
X444511Y203698D01*
Y217843D01*
X444802Y218278D01*
X444926Y218898D01*
X444802Y219517D01*
X444452Y220042D01*
X443926Y220393D01*
X443307Y220516D01*
X442688Y220393D01*
X442163Y220042D01*
X441812Y219517D01*
X441689Y218898D01*
X441812Y218278D01*
X442103Y217843D01*
Y203698D01*
X441719Y203539D01*
X441074Y203044D01*
X440891Y203070D01*
X440574Y203177D01*
Y222019D01*
X440891Y222127D01*
X441074Y222153D01*
X441719Y221658D01*
X442485Y221341D01*
X443307Y221233D01*
X444129Y221341D01*
X444896Y221658D01*
X445553Y222163D01*
X446058Y222821D01*
X446376Y223587D01*
X446484Y224410D01*
X446376Y225232D01*
X446058Y225998D01*
X445553Y226656D01*
X444896Y227161D01*
X444511Y227320D01*
Y267843D01*
X444802Y268278D01*
X444926Y268898D01*
X444802Y269517D01*
X444511Y269953D01*
Y281228D01*
X444802Y281664D01*
X444926Y282283D01*
X444802Y282903D01*
X444452Y283428D01*
X443926Y283779D01*
X443307Y283902D01*
D02*
G37*
G36*
X189961Y282889D02*
X184843D01*
X184535Y282828D01*
X184275Y282654D01*
X184101Y282394D01*
X184040Y282087D01*
Y268701D01*
X184101Y268394D01*
X184275Y268133D01*
X184535Y267959D01*
X184843Y267898D01*
X189961D01*
X190268Y267959D01*
X190528Y268133D01*
X190702Y268394D01*
X190763Y268701D01*
Y282087D01*
X190702Y282394D01*
X190528Y282654D01*
X190268Y282828D01*
X189961Y282889D01*
D02*
G37*
G36*
X170079Y352800D02*
X169459Y352676D01*
X168934Y352326D01*
X168583Y351800D01*
X168460Y351181D01*
X168583Y350562D01*
X168875Y350126D01*
Y264441D01*
X168583Y264005D01*
X168460Y263386D01*
X168583Y262767D01*
X168934Y262241D01*
X169459Y261891D01*
X170079Y261767D01*
X170327Y261817D01*
X170472Y261788D01*
X170933Y261880D01*
X171324Y262141D01*
X171585Y262531D01*
X171677Y262992D01*
X171648Y263137D01*
X171697Y263386D01*
X171574Y264005D01*
X171283Y264441D01*
Y350126D01*
X171574Y350562D01*
X171697Y351181D01*
X171574Y351800D01*
X171223Y352326D01*
X170698Y352676D01*
X170079Y352800D01*
D02*
G37*
G36*
X256890Y282889D02*
X251772D01*
X251464Y282828D01*
X251204Y282654D01*
X251030Y282394D01*
X250969Y282087D01*
Y268701D01*
X251030Y268394D01*
X251204Y268133D01*
X251464Y267959D01*
X251772Y267898D01*
X256890D01*
X257197Y267959D01*
X257457Y268133D01*
X257631Y268394D01*
X257693Y268701D01*
Y282087D01*
X257631Y282394D01*
X257457Y282654D01*
X257197Y282828D01*
X256890Y282889D01*
D02*
G37*
G36*
X232480D02*
X227362D01*
X227055Y282828D01*
X226795Y282654D01*
X226621Y282394D01*
X226559Y282087D01*
Y268701D01*
X226621Y268394D01*
X226795Y268133D01*
X227055Y267959D01*
X227362Y267898D01*
X232480D01*
X232787Y267959D01*
X233048Y268133D01*
X233222Y268394D01*
X233283Y268701D01*
Y282087D01*
X233222Y282394D01*
X233048Y282654D01*
X232787Y282828D01*
X232480Y282889D01*
D02*
G37*
G36*
X508858Y390938D02*
X507882Y390809D01*
X506972Y390432D01*
X506191Y389833D01*
X505591Y389052D01*
X505214Y388142D01*
X505086Y387165D01*
X505214Y386189D01*
X505591Y385279D01*
X506191Y384498D01*
X506972Y383898D01*
X507366Y383735D01*
Y383194D01*
X506972Y383031D01*
X506191Y382431D01*
X505591Y381650D01*
X505214Y380740D01*
X505086Y379764D01*
X505214Y378787D01*
X505591Y377878D01*
X506191Y377096D01*
X506972Y376497D01*
X507882Y376120D01*
X508858Y375991D01*
X509835Y376120D01*
X510744Y376497D01*
X511526Y377096D01*
X512125Y377878D01*
X512502Y378787D01*
X512631Y379764D01*
X512502Y380740D01*
X512125Y381650D01*
X511526Y382431D01*
X510744Y383031D01*
X510351Y383194D01*
Y383735D01*
X510744Y383898D01*
X511526Y384498D01*
X512125Y385279D01*
X512502Y386189D01*
X512631Y387165D01*
X512502Y388142D01*
X512125Y389052D01*
X511526Y389833D01*
X510744Y390432D01*
X509835Y390809D01*
X508858Y390938D01*
D02*
G37*
G36*
X518858Y390898D02*
X517882Y390770D01*
X516972Y390393D01*
X516191Y389793D01*
X515591Y389012D01*
X515214Y388102D01*
X515086Y387126D01*
X515214Y386150D01*
X515591Y385240D01*
X516191Y384458D01*
X516972Y383859D01*
X517366Y383696D01*
Y383155D01*
X516972Y382991D01*
X516191Y382392D01*
X515591Y381611D01*
X515214Y380701D01*
X515086Y379724D01*
X515214Y378748D01*
X515591Y377838D01*
X516191Y377057D01*
X516972Y376457D01*
X517882Y376080D01*
X518858Y375952D01*
X519835Y376080D01*
X520745Y376457D01*
X521526Y377057D01*
X522125Y377838D01*
X522502Y378748D01*
X522631Y379724D01*
X522502Y380701D01*
X522125Y381611D01*
X521526Y382392D01*
X520745Y382991D01*
X520351Y383155D01*
Y383696D01*
X520745Y383859D01*
X521526Y384458D01*
X522125Y385240D01*
X522502Y386150D01*
X522631Y387126D01*
X522502Y388102D01*
X522125Y389012D01*
X521526Y389793D01*
X520745Y390393D01*
X519835Y390770D01*
X518858Y390898D01*
D02*
G37*
G36*
X528858Y390859D02*
X527882Y390731D01*
X526972Y390354D01*
X526191Y389754D01*
X525591Y388973D01*
X525214Y388063D01*
X525086Y387087D01*
X525214Y386110D01*
X525591Y385200D01*
X526191Y384419D01*
X526972Y383820D01*
X527366Y383656D01*
Y383115D01*
X526972Y382952D01*
X526191Y382352D01*
X525591Y381571D01*
X525214Y380661D01*
X525086Y379685D01*
X525214Y378709D01*
X525591Y377799D01*
X526191Y377017D01*
X526972Y376418D01*
X527882Y376041D01*
X528858Y375913D01*
X529835Y376041D01*
X530745Y376418D01*
X531526Y377017D01*
X532125Y377799D01*
X532502Y378709D01*
X532631Y379685D01*
X532502Y380661D01*
X532125Y381571D01*
X531526Y382352D01*
X530745Y382952D01*
X530350Y383115D01*
Y383656D01*
X530745Y383820D01*
X531526Y384419D01*
X532125Y385200D01*
X532502Y386110D01*
X532631Y387087D01*
X532502Y388063D01*
X532125Y388973D01*
X531526Y389754D01*
X530745Y390354D01*
X529835Y390731D01*
X528858Y390859D01*
D02*
G37*
G36*
X110236Y117171D02*
X110197Y117163D01*
X110158Y117167D01*
X108961Y117049D01*
X108886Y117026D01*
X108807Y117019D01*
X107657Y116670D01*
X107587Y116632D01*
X107511Y116609D01*
X106451Y116043D01*
X106390Y115993D01*
X106320Y115955D01*
X105391Y115193D01*
X105341Y115132D01*
X105280Y115081D01*
X104517Y114152D01*
X104480Y114083D01*
X104430Y114021D01*
X103863Y112961D01*
X103840Y112886D01*
X103803Y112816D01*
X103454Y111665D01*
X103446Y111587D01*
X103423Y111511D01*
X103305Y110315D01*
X103313Y110236D01*
X103305Y110158D01*
X103423Y108961D01*
X103446Y108886D01*
X103454Y108807D01*
X103803Y107657D01*
X103840Y107587D01*
X103863Y107511D01*
X104430Y106451D01*
X104480Y106390D01*
X104517Y106320D01*
X105280Y105391D01*
X105341Y105341D01*
X105391Y105280D01*
X106320Y104517D01*
X106390Y104480D01*
X106451Y104430D01*
X107511Y103863D01*
X107587Y103840D01*
X107657Y103803D01*
X108807Y103454D01*
X108886Y103446D01*
X108961Y103423D01*
X110158Y103305D01*
X110197Y103309D01*
X110236Y103302D01*
X110275Y103309D01*
X110315Y103305D01*
X111511Y103423D01*
X111587Y103446D01*
X111665Y103454D01*
X112816Y103803D01*
X112886Y103840D01*
X112961Y103863D01*
X114021Y104430D01*
X114083Y104480D01*
X114152Y104517D01*
X115081Y105280D01*
X115132Y105341D01*
X115193Y105391D01*
X115955Y106320D01*
X115993Y106390D01*
X116043Y106451D01*
X116609Y107511D01*
X116632Y107587D01*
X116670Y107657D01*
X117019Y108807D01*
X117026Y108886D01*
X117049Y108961D01*
X117167Y110158D01*
X117159Y110236D01*
X117167Y110315D01*
X117049Y111511D01*
X117026Y111587D01*
X117019Y111665D01*
X116670Y112816D01*
X116632Y112886D01*
X116609Y112961D01*
X116043Y114021D01*
X115993Y114083D01*
X115955Y114152D01*
X115193Y115081D01*
X115132Y115132D01*
X115081Y115193D01*
X114152Y115955D01*
X114083Y115993D01*
X114021Y116043D01*
X112961Y116609D01*
X112886Y116632D01*
X112816Y116670D01*
X111665Y117019D01*
X111587Y117026D01*
X111511Y117049D01*
X110315Y117167D01*
X110275Y117163D01*
X110236Y117171D01*
D02*
G37*
G36*
X359055Y386658D02*
X358436Y386535D01*
X357911Y386184D01*
X357560Y385659D01*
X357437Y385039D01*
X357560Y384420D01*
X357911Y383895D01*
X358436Y383544D01*
X358544Y383523D01*
Y383013D01*
X358436Y382991D01*
X357911Y382641D01*
X357560Y382115D01*
X357437Y381496D01*
X357560Y380877D01*
X357911Y380352D01*
X358436Y380001D01*
X359055Y379878D01*
X359675Y380001D01*
X360200Y380352D01*
X360550Y380877D01*
X360674Y381496D01*
X360550Y382115D01*
X360200Y382641D01*
X359675Y382991D01*
X359567Y383013D01*
Y383523D01*
X359675Y383544D01*
X360200Y383895D01*
X360550Y384420D01*
X360674Y385039D01*
X360550Y385659D01*
X360200Y386184D01*
X359675Y386535D01*
X359055Y386658D01*
D02*
G37*
G36*
X367717Y384689D02*
X367097Y384566D01*
X366572Y384215D01*
X366221Y383690D01*
X366098Y383071D01*
X366221Y382452D01*
X366328Y382292D01*
X366552Y381890D01*
X366328Y381488D01*
X366221Y381328D01*
X366098Y380709D01*
X366221Y380089D01*
X366572Y379564D01*
X367097Y379213D01*
X367717Y379090D01*
X368336Y379213D01*
X368861Y379564D01*
X369212Y380089D01*
X369335Y380709D01*
X369212Y381328D01*
X369105Y381488D01*
X368881Y381890D01*
X369105Y382292D01*
X369212Y382452D01*
X369335Y383071D01*
X369212Y383690D01*
X368861Y384215D01*
X368336Y384566D01*
X367717Y384689D01*
D02*
G37*
G36*
X480394Y117167D02*
X480315Y117159D01*
X480236Y117167D01*
X479040Y117049D01*
X478964Y117026D01*
X478886Y117019D01*
X477735Y116670D01*
X477666Y116632D01*
X477590Y116609D01*
X476530Y116043D01*
X476469Y115993D01*
X476399Y115955D01*
X475470Y115193D01*
X475420Y115132D01*
X475358Y115081D01*
X474596Y114152D01*
X474559Y114083D01*
X474508Y114021D01*
X473942Y112961D01*
X473919Y112886D01*
X473882Y112816D01*
X473533Y111665D01*
X473525Y111587D01*
X473502Y111511D01*
X473384Y110315D01*
X473388Y110275D01*
X473380Y110236D01*
X473388Y110197D01*
X473384Y110158D01*
X473502Y108961D01*
X473525Y108886D01*
X473533Y108807D01*
X473882Y107657D01*
X473919Y107587D01*
X473942Y107511D01*
X474508Y106451D01*
X474559Y106390D01*
X474596Y106320D01*
X475358Y105391D01*
X475420Y105341D01*
X475470Y105280D01*
X476399Y104517D01*
X476469Y104480D01*
X476530Y104430D01*
X477590Y103863D01*
X477666Y103840D01*
X477735Y103803D01*
X478886Y103454D01*
X478964Y103446D01*
X479040Y103423D01*
X480236Y103305D01*
X480315Y103313D01*
X480394Y103305D01*
X481590Y103423D01*
X481666Y103446D01*
X481744Y103454D01*
X482895Y103803D01*
X482964Y103840D01*
X483040Y103863D01*
X484100Y104430D01*
X484161Y104480D01*
X484231Y104517D01*
X485160Y105280D01*
X485210Y105341D01*
X485272Y105391D01*
X486034Y106320D01*
X486071Y106390D01*
X486122Y106451D01*
X486688Y107511D01*
X486711Y107587D01*
X486748Y107657D01*
X487097Y108807D01*
X487105Y108886D01*
X487128Y108961D01*
X487246Y110158D01*
X487242Y110197D01*
X487250Y110236D01*
X487242Y110275D01*
X487246Y110315D01*
X487128Y111511D01*
X487105Y111587D01*
X487097Y111665D01*
X486748Y112816D01*
X486711Y112886D01*
X486688Y112961D01*
X486122Y114021D01*
X486071Y114083D01*
X486034Y114152D01*
X485272Y115081D01*
X485210Y115132D01*
X485160Y115193D01*
X484231Y115955D01*
X484161Y115993D01*
X484100Y116043D01*
X483040Y116609D01*
X482964Y116632D01*
X482895Y116670D01*
X481744Y117019D01*
X481666Y117026D01*
X481590Y117049D01*
X480394Y117167D01*
D02*
G37*
G36*
X110236Y365113D02*
X109209Y364977D01*
X108251Y364581D01*
X107428Y363950D01*
X106797Y363127D01*
X106401Y362170D01*
X106265Y361142D01*
X106401Y360114D01*
X106797Y359156D01*
X107428Y358334D01*
X108251Y357703D01*
X109209Y357306D01*
X110236Y357171D01*
X111264Y357306D01*
X112222Y357703D01*
X113044Y358334D01*
X113675Y359156D01*
X114072Y360114D01*
X114207Y361142D01*
X114072Y362170D01*
X113675Y363127D01*
X113044Y363950D01*
X112222Y364581D01*
X111264Y364977D01*
X110236Y365113D01*
D02*
G37*
G36*
X127047Y346261D02*
X126969Y346253D01*
X126890Y346261D01*
X125732Y346147D01*
X125656Y346124D01*
X125578Y346116D01*
X124465Y345778D01*
X124395Y345741D01*
X124319Y345718D01*
X123293Y345170D01*
X123232Y345120D01*
X123162Y345082D01*
X122263Y344344D01*
X122213Y344283D01*
X122152Y344233D01*
X121414Y343334D01*
X121377Y343264D01*
X121326Y343203D01*
X120778Y342177D01*
X120755Y342101D01*
X120718Y342032D01*
X120380Y340918D01*
X120372Y340840D01*
X120350Y340764D01*
X120236Y339606D01*
X120239Y339567D01*
X120232Y339528D01*
X120239Y339489D01*
X120236Y339449D01*
X120350Y338291D01*
X120372Y338215D01*
X120380Y338137D01*
X120718Y337024D01*
X120755Y336954D01*
X120778Y336878D01*
X121326Y335852D01*
X121377Y335791D01*
X121414Y335721D01*
X122152Y334822D01*
X122213Y334772D01*
X122263Y334711D01*
X123162Y333973D01*
X123232Y333936D01*
X123293Y333886D01*
X124319Y333337D01*
X124395Y333314D01*
X124465Y333277D01*
X125578Y332939D01*
X125656Y332931D01*
X125732Y332909D01*
X126890Y332794D01*
X126969Y332802D01*
X127047Y332794D01*
X128205Y332909D01*
X128280Y332931D01*
X128359Y332939D01*
X129472Y333277D01*
X129542Y333314D01*
X129618Y333337D01*
X130644Y333886D01*
X130705Y333936D01*
X130775Y333973D01*
X131674Y334711D01*
X131724Y334772D01*
X131785Y334822D01*
X132523Y335721D01*
X132560Y335791D01*
X132610Y335852D01*
X133159Y336878D01*
X133182Y336954D01*
X133219Y337024D01*
X133557Y338137D01*
X133565Y338215D01*
X133588Y338291D01*
X133702Y339449D01*
X133698Y339489D01*
X133705Y339528D01*
X133698Y339567D01*
X133702Y339606D01*
X133588Y340764D01*
X133565Y340840D01*
X133557Y340918D01*
X133219Y342032D01*
X133182Y342101D01*
X133159Y342177D01*
X132610Y343203D01*
X132560Y343264D01*
X132523Y343334D01*
X131785Y344233D01*
X131724Y344283D01*
X131674Y344344D01*
X130775Y345082D01*
X130705Y345119D01*
X130644Y345170D01*
X129618Y345718D01*
X129542Y345741D01*
X129472Y345778D01*
X128359Y346116D01*
X128280Y346124D01*
X128205Y346147D01*
X127047Y346261D01*
D02*
G37*
G36*
X453543Y162248D02*
X452924Y162125D01*
X452399Y161774D01*
X452048Y161249D01*
X451925Y160630D01*
X452048Y160011D01*
X452339Y159575D01*
Y120740D01*
X452048Y120304D01*
X451925Y119685D01*
X452048Y119066D01*
X452399Y118541D01*
X452924Y118190D01*
X453543Y118067D01*
X454163Y118190D01*
X454688Y118541D01*
X455039Y119066D01*
X455162Y119685D01*
X455039Y120304D01*
X454747Y120740D01*
Y159575D01*
X455039Y160011D01*
X455162Y160630D01*
X455039Y161249D01*
X454688Y161774D01*
X454163Y162125D01*
X453543Y162248D01*
D02*
G37*
G36*
X125984Y326585D02*
X124494Y326389D01*
X123105Y325813D01*
X121913Y324898D01*
X120998Y323706D01*
X120422Y322317D01*
X120226Y320827D01*
X120422Y319337D01*
X120998Y317948D01*
X121913Y316755D01*
X123105Y315840D01*
X124494Y315265D01*
X125984Y315069D01*
X127474Y315265D01*
X128863Y315840D01*
X130056Y316755D01*
X130971Y317948D01*
X131546Y319337D01*
X131742Y320827D01*
X131546Y322317D01*
X130971Y323706D01*
X130056Y324898D01*
X128863Y325813D01*
X127474Y326389D01*
X125984Y326585D01*
D02*
G37*
G36*
X519015Y352388D02*
X518858D01*
X518702D01*
X518702Y352388D01*
X517788Y352207D01*
X517788D01*
X517498Y352087D01*
X516723Y351569D01*
X516723Y351569D01*
X516502Y351347D01*
X515984Y350573D01*
X515864Y350283D01*
X515683Y349369D01*
X515682Y349369D01*
Y349290D01*
X515667Y349213D01*
X515682Y349135D01*
Y349056D01*
X515683Y349056D01*
X515864Y348142D01*
Y348142D01*
X515984Y347853D01*
X516502Y347078D01*
X516502Y347078D01*
X516723Y346856D01*
X517498Y346339D01*
X517788Y346219D01*
X518702Y346037D01*
X518702Y346037D01*
X518858D01*
X519015D01*
X519015Y346037D01*
X519929Y346219D01*
X519929D01*
X520218Y346339D01*
X520993Y346856D01*
X520993Y346856D01*
X521215Y347078D01*
X521732Y347853D01*
X521852Y348142D01*
X522034Y349056D01*
X522034Y349056D01*
Y349135D01*
X522050Y349213D01*
X522034Y349290D01*
Y349369D01*
X522034Y349369D01*
X521852Y350283D01*
Y350283D01*
X521732Y350573D01*
X521215Y351347D01*
X521215Y351347D01*
X520993Y351569D01*
X520218Y352087D01*
X519929Y352207D01*
X519015Y352388D01*
X519015Y352388D01*
D02*
G37*
G36*
X508858Y371253D02*
X507882Y371124D01*
X506972Y370747D01*
X506191Y370148D01*
X505591Y369367D01*
X505214Y368457D01*
X505086Y367480D01*
X505214Y366504D01*
X505591Y365594D01*
X506191Y364813D01*
X506972Y364213D01*
X507366Y364050D01*
Y363509D01*
X506972Y363346D01*
X506191Y362746D01*
X505591Y361965D01*
X505214Y361055D01*
X505086Y360079D01*
X505214Y359102D01*
X505591Y358192D01*
X506191Y357411D01*
X506972Y356812D01*
X507882Y356435D01*
X508858Y356306D01*
X509835Y356435D01*
X510744Y356812D01*
X511526Y357411D01*
X512125Y358192D01*
X512502Y359102D01*
X512631Y360079D01*
X512502Y361055D01*
X512125Y361965D01*
X511526Y362746D01*
X510744Y363346D01*
X510351Y363509D01*
Y364050D01*
X510744Y364213D01*
X511526Y364813D01*
X512125Y365594D01*
X512502Y366504D01*
X512631Y367480D01*
X512502Y368457D01*
X512125Y369367D01*
X511526Y370148D01*
X510744Y370747D01*
X509835Y371124D01*
X508858Y371253D01*
D02*
G37*
G36*
X518858Y371213D02*
X517882Y371085D01*
X516972Y370708D01*
X516191Y370108D01*
X515591Y369327D01*
X515214Y368417D01*
X515086Y367441D01*
X515214Y366465D01*
X515591Y365555D01*
X516191Y364774D01*
X516972Y364174D01*
X517366Y364011D01*
Y363470D01*
X516972Y363306D01*
X516191Y362707D01*
X515591Y361926D01*
X515214Y361016D01*
X515086Y360039D01*
X515214Y359063D01*
X515591Y358153D01*
X516191Y357372D01*
X516972Y356772D01*
X517882Y356396D01*
X518858Y356267D01*
X519835Y356396D01*
X520745Y356772D01*
X521526Y357372D01*
X522125Y358153D01*
X522502Y359063D01*
X522631Y360039D01*
X522502Y361016D01*
X522125Y361926D01*
X521526Y362707D01*
X520745Y363306D01*
X520351Y363470D01*
Y364011D01*
X520745Y364174D01*
X521526Y364774D01*
X522125Y365555D01*
X522502Y366465D01*
X522631Y367441D01*
X522502Y368417D01*
X522125Y369327D01*
X521526Y370108D01*
X520745Y370708D01*
X519835Y371085D01*
X518858Y371213D01*
D02*
G37*
G36*
X528858Y371174D02*
X527882Y371045D01*
X526972Y370669D01*
X526191Y370069D01*
X525591Y369288D01*
X525214Y368378D01*
X525086Y367402D01*
X525214Y366425D01*
X525591Y365515D01*
X526191Y364734D01*
X526972Y364135D01*
X527366Y363971D01*
Y363430D01*
X526972Y363267D01*
X526191Y362667D01*
X525591Y361886D01*
X525214Y360976D01*
X525086Y360000D01*
X525214Y359024D01*
X525591Y358114D01*
X526191Y357332D01*
X526972Y356733D01*
X527882Y356356D01*
X528858Y356228D01*
X529835Y356356D01*
X530745Y356733D01*
X531526Y357332D01*
X532125Y358114D01*
X532502Y359024D01*
X532631Y360000D01*
X532502Y360976D01*
X532125Y361886D01*
X531526Y362667D01*
X530745Y363267D01*
X530350Y363430D01*
Y363971D01*
X530745Y364135D01*
X531526Y364734D01*
X532125Y365515D01*
X532502Y366425D01*
X532631Y367402D01*
X532502Y368378D01*
X532125Y369288D01*
X531526Y370069D01*
X530745Y370669D01*
X529835Y371045D01*
X528858Y371174D01*
D02*
G37*
G36*
X189961Y204543D02*
X184843D01*
X184535Y204482D01*
X184275Y204308D01*
X184101Y204047D01*
X184040Y203740D01*
Y190354D01*
X184101Y190047D01*
X184275Y189787D01*
X184535Y189613D01*
X184843Y189551D01*
X189961D01*
X190268Y189613D01*
X190528Y189787D01*
X190702Y190047D01*
X190763Y190354D01*
Y203740D01*
X190702Y204047D01*
X190528Y204308D01*
X190268Y204482D01*
X189961Y204543D01*
D02*
G37*
G36*
X388976Y125243D02*
X388899Y125228D01*
X388820D01*
X388820Y125228D01*
X388205Y125106D01*
X388205D01*
X387916Y124986D01*
X387395Y124637D01*
X387174Y124416D01*
X386825Y123895D01*
X386705Y123606D01*
X386583Y122991D01*
Y122678D01*
X386583Y122678D01*
X386705Y122064D01*
Y122064D01*
X386825Y121774D01*
X387174Y121253D01*
X387395Y121032D01*
X387916Y120684D01*
X388205Y120564D01*
X388820Y120442D01*
X388899D01*
X388976Y120426D01*
X389054Y120442D01*
X389133D01*
X389133Y120442D01*
X389747Y120564D01*
X389748D01*
X390037Y120684D01*
X390558Y121032D01*
X390779Y121253D01*
X391127Y121774D01*
X391247Y122064D01*
X391369Y122678D01*
Y122991D01*
X391369Y122991D01*
X391247Y123606D01*
Y123606D01*
X391127Y123895D01*
X390779Y124416D01*
X390558Y124637D01*
X390037Y124986D01*
X389748Y125106D01*
X389133Y125228D01*
X389054D01*
X388976Y125243D01*
D02*
G37*
G36*
X430315D02*
X429528D01*
X429450Y125228D01*
X429371D01*
X428757Y125106D01*
X428757D01*
X428467Y124986D01*
X427946Y124637D01*
X427725Y124416D01*
X427377Y123895D01*
X427257Y123606D01*
X427135Y122991D01*
Y122678D01*
X427135Y122678D01*
X427257Y122064D01*
Y122064D01*
X427377Y121774D01*
X427725Y121253D01*
X427946Y121032D01*
X428467Y120684D01*
X428757Y120564D01*
X429371Y120442D01*
X429450D01*
X429528Y120426D01*
X430315D01*
X430393Y120442D01*
X430472D01*
X431086Y120564D01*
X431086D01*
X431376Y120684D01*
X431896Y121032D01*
X432118Y121253D01*
X432466Y121774D01*
X432586Y122064D01*
X432708Y122678D01*
Y122991D01*
X432708Y122991D01*
X432586Y123606D01*
Y123606D01*
X432466Y123895D01*
X432118Y124416D01*
X431896Y124637D01*
X431376Y124986D01*
X431086Y125106D01*
X430472Y125228D01*
X430393D01*
X430315Y125243D01*
D02*
G37*
G36*
X232480Y204543D02*
X227362D01*
X227055Y204482D01*
X226795Y204308D01*
X226621Y204047D01*
X226559Y203740D01*
Y190354D01*
X226621Y190047D01*
X226795Y189787D01*
X227055Y189613D01*
X227362Y189551D01*
X232480D01*
X232787Y189613D01*
X233048Y189787D01*
X233222Y190047D01*
X233283Y190354D01*
Y203740D01*
X233222Y204047D01*
X233048Y204308D01*
X232787Y204482D01*
X232480Y204543D01*
D02*
G37*
G36*
X189961Y227771D02*
X184843D01*
X184535Y227710D01*
X184275Y227536D01*
X184101Y227276D01*
X184040Y226969D01*
Y213583D01*
X184101Y213276D01*
X184275Y213015D01*
X184466Y212888D01*
X184534Y212566D01*
X184533Y212332D01*
X184289Y212168D01*
X183938Y211643D01*
X183815Y211024D01*
X183938Y210404D01*
X184289Y209879D01*
X184814Y209528D01*
X185433Y209405D01*
X186052Y209528D01*
X186577Y209879D01*
X186928Y210404D01*
X187052Y211024D01*
X186928Y211643D01*
X186577Y212168D01*
X186410Y212280D01*
X186562Y212780D01*
X189961D01*
X190268Y212841D01*
X190528Y213015D01*
X190702Y213276D01*
X190763Y213583D01*
Y226969D01*
X190702Y227276D01*
X190528Y227536D01*
X190268Y227710D01*
X189961Y227771D01*
D02*
G37*
G36*
X370079Y207901D02*
X369256Y207793D01*
X368490Y207476D01*
X367832Y206971D01*
X367328Y206313D01*
X367010Y205547D01*
X366902Y204724D01*
X367010Y203902D01*
X367328Y203136D01*
X367832Y202478D01*
X368490Y201973D01*
X369256Y201656D01*
X370079Y201548D01*
X370901Y201656D01*
X371667Y201973D01*
X372325Y202478D01*
X372830Y203136D01*
X373147Y203902D01*
X373255Y204724D01*
X373147Y205547D01*
X372830Y206313D01*
X372325Y206971D01*
X371667Y207476D01*
X370901Y207793D01*
X370079Y207901D01*
D02*
G37*
G36*
X340551Y194138D02*
X339932Y194015D01*
X339407Y193664D01*
X339056Y193139D01*
X338933Y192520D01*
X339056Y191900D01*
X339407Y191375D01*
X339932Y191024D01*
X340551Y190901D01*
X341171Y191024D01*
X341696Y191375D01*
X342046Y191900D01*
X342170Y192520D01*
X342046Y193139D01*
X341696Y193664D01*
X341171Y194015D01*
X340551Y194138D01*
D02*
G37*
G36*
X127047Y180946D02*
X126969Y180938D01*
X126890Y180946D01*
X125732Y180832D01*
X125656Y180809D01*
X125578Y180801D01*
X124465Y180463D01*
X124395Y180426D01*
X124319Y180403D01*
X123293Y179855D01*
X123232Y179805D01*
X123162Y179767D01*
X122263Y179029D01*
X122213Y178968D01*
X122152Y178918D01*
X121414Y178019D01*
X121377Y177949D01*
X121326Y177888D01*
X120778Y176862D01*
X120755Y176786D01*
X120718Y176716D01*
X120380Y175603D01*
X120372Y175525D01*
X120350Y175449D01*
X120236Y174291D01*
X120239Y174252D01*
X120232Y174213D01*
X120239Y174173D01*
X120236Y174134D01*
X120350Y172976D01*
X120372Y172901D01*
X120380Y172822D01*
X120718Y171709D01*
X120755Y171639D01*
X120778Y171563D01*
X121326Y170537D01*
X121377Y170476D01*
X121414Y170406D01*
X122152Y169507D01*
X122213Y169457D01*
X122263Y169396D01*
X123162Y168658D01*
X123232Y168621D01*
X123293Y168571D01*
X124319Y168022D01*
X124395Y167999D01*
X124465Y167962D01*
X125578Y167624D01*
X125656Y167616D01*
X125732Y167594D01*
X126890Y167480D01*
X126969Y167487D01*
X127047Y167480D01*
X128205Y167594D01*
X128280Y167616D01*
X128359Y167624D01*
X129472Y167962D01*
X129542Y167999D01*
X129618Y168022D01*
X130644Y168571D01*
X130705Y168621D01*
X130775Y168658D01*
X131674Y169396D01*
X131724Y169457D01*
X131785Y169507D01*
X132523Y170406D01*
X132560Y170476D01*
X132610Y170537D01*
X133159Y171563D01*
X133182Y171639D01*
X133219Y171709D01*
X133557Y172822D01*
X133565Y172901D01*
X133588Y172976D01*
X133702Y174134D01*
X133698Y174173D01*
X133705Y174213D01*
X133698Y174252D01*
X133702Y174291D01*
X133588Y175449D01*
X133565Y175525D01*
X133557Y175603D01*
X133219Y176716D01*
X133182Y176786D01*
X133159Y176862D01*
X132610Y177888D01*
X132560Y177949D01*
X132523Y178019D01*
X131785Y178918D01*
X131724Y178968D01*
X131674Y179029D01*
X130775Y179767D01*
X130705Y179805D01*
X130644Y179855D01*
X129618Y180403D01*
X129542Y180426D01*
X129472Y180463D01*
X128359Y180801D01*
X128280Y180809D01*
X128205Y180832D01*
X127047Y180946D01*
D02*
G37*
G36*
X380315Y160657D02*
X379493Y160549D01*
X378727Y160231D01*
X378069Y159727D01*
X377564Y159069D01*
X377246Y158302D01*
X377138Y157480D01*
X377246Y156658D01*
X377564Y155892D01*
X378069Y155234D01*
X378727Y154729D01*
X379493Y154412D01*
X380315Y154304D01*
X381137Y154412D01*
X381903Y154729D01*
X382561Y155234D01*
X383066Y155892D01*
X383383Y156658D01*
X383492Y157480D01*
X383383Y158302D01*
X383066Y159069D01*
X382561Y159727D01*
X381903Y160231D01*
X381137Y160549D01*
X380315Y160657D01*
D02*
G37*
G36*
X370079D02*
X369256Y160549D01*
X368490Y160231D01*
X367832Y159727D01*
X367328Y159069D01*
X367010Y158302D01*
X366902Y157480D01*
X367010Y156658D01*
X367328Y155892D01*
X367832Y155234D01*
X368490Y154729D01*
X369256Y154412D01*
X370079Y154304D01*
X370901Y154412D01*
X371667Y154729D01*
X372325Y155234D01*
X372830Y155892D01*
X373147Y156658D01*
X373255Y157480D01*
X373147Y158302D01*
X372830Y159069D01*
X372325Y159727D01*
X371667Y160231D01*
X370901Y160549D01*
X370079Y160657D01*
D02*
G37*
G36*
X433071Y156720D02*
X432249Y156612D01*
X431483Y156295D01*
X430825Y155790D01*
X430320Y155132D01*
X430002Y154366D01*
X429894Y153543D01*
X430002Y152721D01*
X430320Y151955D01*
X430825Y151297D01*
X431483Y150792D01*
X432249Y150475D01*
X433071Y150366D01*
X433893Y150475D01*
X434659Y150792D01*
X435317Y151297D01*
X435822Y151955D01*
X436139Y152721D01*
X436248Y153543D01*
X436139Y154366D01*
X435822Y155132D01*
X435317Y155790D01*
X434659Y156295D01*
X433893Y156612D01*
X433071Y156720D01*
D02*
G37*
G36*
X218504Y179768D02*
X217885Y179645D01*
X217359Y179294D01*
X217009Y178769D01*
X216885Y178150D01*
X217009Y177530D01*
X217300Y177095D01*
Y167590D01*
X217009Y167155D01*
X216885Y166535D01*
X217009Y165916D01*
X217359Y165391D01*
X217885Y165040D01*
X218504Y164917D01*
X219123Y165040D01*
X219648Y165391D01*
X219999Y165916D01*
X220122Y166535D01*
X219999Y167155D01*
X219708Y167590D01*
Y177095D01*
X219999Y177530D01*
X220122Y178150D01*
X219999Y178769D01*
X219648Y179294D01*
X219123Y179645D01*
X218504Y179768D01*
D02*
G37*
G36*
X288386Y198469D02*
X287767Y198346D01*
X287241Y197995D01*
X286891Y197470D01*
X286767Y196850D01*
X286891Y196231D01*
X287182Y195795D01*
Y178963D01*
X283479Y175261D01*
X283218Y174870D01*
X283126Y174409D01*
X283126Y174409D01*
Y119849D01*
X282445Y119566D01*
X281663Y118967D01*
X281064Y118185D01*
X280687Y117276D01*
X280558Y116299D01*
X280687Y115323D01*
X281064Y114413D01*
X281663Y113632D01*
X282445Y113032D01*
X283354Y112655D01*
X284331Y112527D01*
X285307Y112655D01*
X286217Y113032D01*
X286760Y113449D01*
X287260Y113203D01*
Y110932D01*
X285989Y109661D01*
X285307Y109943D01*
X284331Y110072D01*
X283354Y109943D01*
X282445Y109566D01*
X281663Y108967D01*
X281064Y108185D01*
X280687Y107276D01*
X280558Y106299D01*
X280687Y105323D01*
X281064Y104413D01*
X281663Y103632D01*
X282445Y103032D01*
X283354Y102655D01*
X284331Y102527D01*
X285307Y102655D01*
X286217Y103032D01*
X286998Y103632D01*
X287598Y104413D01*
X287975Y105323D01*
X288103Y106299D01*
X287975Y107276D01*
X287692Y107957D01*
X289316Y109581D01*
X289577Y109972D01*
X289669Y110433D01*
Y118011D01*
X289577Y118472D01*
X289316Y118863D01*
X289316Y118863D01*
X288212Y119967D01*
Y134656D01*
X288394Y134720D01*
X288712Y134739D01*
X289013Y134289D01*
X289538Y133938D01*
X290158Y133815D01*
X290777Y133938D01*
X291302Y134289D01*
X291653Y134814D01*
X291776Y135433D01*
X291653Y136052D01*
X291362Y136488D01*
Y174142D01*
X291653Y174577D01*
X291776Y175197D01*
X291653Y175816D01*
X291302Y176341D01*
X290777Y176692D01*
X290158Y176815D01*
X289538Y176692D01*
X289013Y176341D01*
X288662Y175816D01*
X288539Y175197D01*
X288662Y174577D01*
X288953Y174142D01*
Y143691D01*
X288771Y143627D01*
X288453Y143607D01*
X288152Y144058D01*
X287627Y144409D01*
X287008Y144532D01*
X286388Y144409D01*
X286035Y144173D01*
X285535Y144398D01*
Y173911D01*
X289237Y177613D01*
X289237Y177613D01*
X289498Y178004D01*
X289590Y178465D01*
X289590Y178465D01*
Y195795D01*
X289881Y196231D01*
X290004Y196850D01*
X289881Y197470D01*
X289530Y197995D01*
X289005Y198346D01*
X288386Y198469D01*
D02*
G37*
G36*
X370079Y184279D02*
X369256Y184171D01*
X368490Y183853D01*
X367832Y183349D01*
X367328Y182691D01*
X367010Y181925D01*
X366902Y181102D01*
X367010Y180280D01*
X367328Y179514D01*
X367832Y178856D01*
X368490Y178351D01*
X369256Y178034D01*
X370079Y177926D01*
X370901Y178034D01*
X371667Y178351D01*
X372325Y178856D01*
X372830Y179514D01*
X373147Y180280D01*
X373255Y181102D01*
X373147Y181925D01*
X372830Y182691D01*
X372325Y183349D01*
X371667Y183853D01*
X370901Y184171D01*
X370079Y184279D01*
D02*
G37*
G36*
X341339Y168154D02*
X340719Y168031D01*
X340194Y167680D01*
X339843Y167155D01*
X339720Y166535D01*
X339843Y165916D01*
X340194Y165391D01*
X340719Y165040D01*
X341339Y164917D01*
X341958Y165040D01*
X342483Y165391D01*
X342834Y165916D01*
X342957Y166535D01*
X342834Y167155D01*
X342483Y167680D01*
X341958Y168031D01*
X341339Y168154D01*
D02*
G37*
G36*
X127047Y247835D02*
X126969Y247828D01*
X126890Y247835D01*
X125732Y247721D01*
X125656Y247698D01*
X125578Y247691D01*
X124465Y247353D01*
X124395Y247316D01*
X124319Y247293D01*
X123293Y246744D01*
X123232Y246694D01*
X123162Y246657D01*
X122263Y245919D01*
X122213Y245858D01*
X122152Y245808D01*
X121414Y244908D01*
X121377Y244839D01*
X121326Y244778D01*
X120778Y243752D01*
X120755Y243676D01*
X120718Y243606D01*
X120380Y242493D01*
X120372Y242414D01*
X120350Y242339D01*
X120236Y241181D01*
X120239Y241141D01*
X120232Y241102D01*
X120239Y241063D01*
X120236Y241024D01*
X120350Y239866D01*
X120372Y239790D01*
X120380Y239712D01*
X120718Y238598D01*
X120755Y238529D01*
X120778Y238453D01*
X121326Y237427D01*
X121377Y237366D01*
X121414Y237296D01*
X122152Y236397D01*
X122213Y236347D01*
X122263Y236286D01*
X123162Y235548D01*
X123232Y235510D01*
X123293Y235460D01*
X124319Y234912D01*
X124395Y234889D01*
X124465Y234852D01*
X125578Y234514D01*
X125656Y234506D01*
X125732Y234483D01*
X126890Y234369D01*
X126969Y234377D01*
X127047Y234369D01*
X128205Y234483D01*
X128280Y234506D01*
X128359Y234514D01*
X129472Y234852D01*
X129542Y234889D01*
X129618Y234912D01*
X130644Y235460D01*
X130705Y235510D01*
X130775Y235548D01*
X131674Y236286D01*
X131724Y236347D01*
X131785Y236397D01*
X132523Y237296D01*
X132560Y237366D01*
X132610Y237427D01*
X133159Y238453D01*
X133182Y238529D01*
X133219Y238598D01*
X133557Y239712D01*
X133565Y239790D01*
X133588Y239866D01*
X133702Y241024D01*
X133698Y241063D01*
X133705Y241102D01*
X133698Y241141D01*
X133702Y241181D01*
X133588Y242339D01*
X133565Y242414D01*
X133557Y242493D01*
X133219Y243606D01*
X133182Y243676D01*
X133159Y243752D01*
X132610Y244778D01*
X132560Y244839D01*
X132523Y244908D01*
X131785Y245808D01*
X131724Y245858D01*
X131674Y245919D01*
X130775Y246657D01*
X130705Y246694D01*
X130644Y246744D01*
X129618Y247293D01*
X129542Y247316D01*
X129472Y247353D01*
X128359Y247691D01*
X128280Y247698D01*
X128205Y247721D01*
X127047Y247835D01*
D02*
G37*
G36*
X232480Y259661D02*
X227362D01*
X227055Y259600D01*
X226795Y259426D01*
X226621Y259166D01*
X226559Y258858D01*
Y245472D01*
X226621Y245165D01*
X226795Y244905D01*
X227055Y244731D01*
X227362Y244670D01*
X232480D01*
X232787Y244731D01*
X233048Y244905D01*
X233222Y245165D01*
X233283Y245472D01*
Y258858D01*
X233222Y259166D01*
X233048Y259426D01*
X232787Y259600D01*
X232480Y259661D01*
D02*
G37*
G36*
X278346Y266748D02*
X272835D01*
X272527Y266687D01*
X272267Y266513D01*
X272093Y266252D01*
X272032Y265945D01*
Y241142D01*
X272093Y240834D01*
X272267Y240574D01*
X272527Y240400D01*
X272835Y240339D01*
X274386D01*
Y237008D01*
X274386Y237008D01*
X274478Y236547D01*
X274739Y236156D01*
X278282Y232613D01*
X278282Y232613D01*
X278673Y232352D01*
X279134Y232260D01*
X291465D01*
X291900Y231969D01*
X292520Y231846D01*
X293139Y231969D01*
X293664Y232320D01*
X294015Y232845D01*
X294138Y233465D01*
X294015Y234084D01*
X293664Y234609D01*
X293139Y234960D01*
X292520Y235083D01*
X291900Y234960D01*
X291465Y234669D01*
X279633D01*
X276795Y237507D01*
Y240339D01*
X278346D01*
X278654Y240400D01*
X278914Y240574D01*
X279088Y240834D01*
X279149Y241142D01*
Y265945D01*
X279088Y266252D01*
X278914Y266513D01*
X278654Y266687D01*
X278346Y266748D01*
D02*
G37*
G36*
X168307Y137445D02*
X167688Y137322D01*
X167163Y136971D01*
X166812Y136446D01*
X166689Y135827D01*
X166812Y135207D01*
X167103Y134772D01*
Y119517D01*
X166603Y119270D01*
X166217Y119566D01*
X165307Y119943D01*
X164331Y120072D01*
X163354Y119943D01*
X162444Y119566D01*
X161663Y118967D01*
X161064Y118185D01*
X160687Y117276D01*
X160558Y116299D01*
X160687Y115323D01*
X161064Y114413D01*
X161663Y113632D01*
X162444Y113032D01*
X163354Y112655D01*
X164331Y112527D01*
X165307Y112655D01*
X166217Y113032D01*
X166760Y113449D01*
X167260Y113203D01*
Y113031D01*
X167260Y113031D01*
X167352Y112571D01*
X167613Y112180D01*
X171300Y108493D01*
X171064Y108185D01*
X170687Y107276D01*
X170558Y106299D01*
X170687Y105323D01*
X171064Y104413D01*
X171663Y103632D01*
X172444Y103032D01*
X173354Y102655D01*
X174331Y102527D01*
X175307Y102655D01*
X176217Y103032D01*
X176998Y103632D01*
X177598Y104413D01*
X177975Y105323D01*
X178103Y106299D01*
X177975Y107276D01*
X177598Y108185D01*
X176998Y108967D01*
X176217Y109566D01*
X175307Y109943D01*
X174331Y110072D01*
X173354Y109943D01*
X173285Y109914D01*
X169669Y113530D01*
Y118169D01*
X169669Y118169D01*
X169577Y118630D01*
X169511Y118728D01*
Y134772D01*
X169802Y135207D01*
X169926Y135827D01*
X169802Y136446D01*
X169451Y136971D01*
X168927Y137322D01*
X168307Y137445D01*
D02*
G37*
G36*
X198819Y292170D02*
X198199Y292046D01*
X197675Y291696D01*
X197324Y291171D01*
X197200Y290551D01*
X197324Y289932D01*
X197615Y289496D01*
Y287220D01*
X196063D01*
X195756Y287159D01*
X195495Y286985D01*
X195321Y286724D01*
X195260Y286417D01*
Y261614D01*
X195321Y261307D01*
X195495Y261047D01*
X195756Y260873D01*
X196063Y260811D01*
X201575D01*
X201882Y260873D01*
X202143Y261047D01*
X202316Y261307D01*
X202378Y261614D01*
Y286417D01*
X202316Y286724D01*
X202143Y286985D01*
X201882Y287159D01*
X201575Y287220D01*
X200023D01*
Y289496D01*
X200314Y289932D01*
X200437Y290551D01*
X200314Y291171D01*
X199963Y291696D01*
X199438Y292046D01*
X198819Y292170D01*
D02*
G37*
G36*
X166535Y367367D02*
X165916Y367243D01*
X165391Y366893D01*
X165040Y366367D01*
X164917Y365748D01*
X165040Y365129D01*
X165391Y364604D01*
X165916Y364253D01*
X166430Y364151D01*
X175174Y355407D01*
Y261291D01*
X174883Y260856D01*
X174759Y260236D01*
X174883Y259617D01*
X175233Y259092D01*
X175759Y258741D01*
X176378Y258618D01*
X176997Y258741D01*
X177522Y259092D01*
X177873Y259617D01*
X177997Y260236D01*
X177873Y260856D01*
X177582Y261291D01*
Y355906D01*
X177582Y355906D01*
X177490Y356366D01*
X177229Y356757D01*
X177229Y356757D01*
X168133Y365854D01*
X168031Y366367D01*
X167680Y366893D01*
X167155Y367243D01*
X166535Y367367D01*
D02*
G37*
G36*
X189961Y259661D02*
X184843D01*
X184535Y259600D01*
X184275Y259426D01*
X184101Y259166D01*
X184040Y258858D01*
Y255325D01*
X183578Y255133D01*
X182700Y256011D01*
X182598Y256525D01*
X182247Y257050D01*
X181722Y257401D01*
X181102Y257524D01*
X180483Y257401D01*
X179958Y257050D01*
X179607Y256525D01*
X179484Y255906D01*
X179607Y255286D01*
X179958Y254761D01*
X180334Y254510D01*
X180139Y254039D01*
X179921Y254082D01*
X179302Y253959D01*
X178777Y253608D01*
X178426Y253083D01*
X178303Y252464D01*
X178426Y251844D01*
X178717Y251409D01*
Y241969D01*
X178717Y241968D01*
X178809Y241508D01*
X179070Y241117D01*
X193126Y227060D01*
Y183268D01*
X193126Y183268D01*
X193218Y182807D01*
X193479Y182416D01*
X197221Y178674D01*
Y167168D01*
X196949Y166945D01*
X195102D01*
Y170795D01*
X195393Y171231D01*
X195516Y171850D01*
X195393Y172470D01*
X195042Y172995D01*
X194517Y173346D01*
X193898Y173469D01*
X193278Y173346D01*
X192753Y172995D01*
X192402Y172470D01*
X192279Y171850D01*
X192402Y171231D01*
X192693Y170795D01*
Y166945D01*
X190847D01*
X190582Y166892D01*
X190513Y166901D01*
X190082Y167179D01*
Y173158D01*
X190373Y173593D01*
X190497Y174213D01*
X190373Y174832D01*
X190022Y175357D01*
X189497Y175708D01*
X188878Y175831D01*
X188259Y175708D01*
X187733Y175357D01*
X187383Y174832D01*
X187259Y174213D01*
X187383Y173593D01*
X187674Y173158D01*
Y161322D01*
X187674Y161322D01*
X187765Y160861D01*
X188026Y160470D01*
X189506Y158991D01*
X189506Y158991D01*
X189896Y158730D01*
X190357Y158638D01*
X191947D01*
X192710Y157876D01*
X192562Y157317D01*
X192162Y157050D01*
X191811Y156525D01*
X191709Y156011D01*
X188125Y152426D01*
X187864Y152036D01*
X187772Y151575D01*
X187772Y151575D01*
Y145565D01*
X187760Y145505D01*
X187760Y145505D01*
Y143865D01*
X187760Y143865D01*
X187772Y143805D01*
Y118779D01*
X187272Y118610D01*
X186998Y118967D01*
X186217Y119566D01*
X185307Y119943D01*
X184331Y120072D01*
X183354Y119943D01*
X182672Y119661D01*
X175535Y126798D01*
Y160244D01*
X175826Y160680D01*
X175928Y161194D01*
X180970Y166235D01*
X180970Y166235D01*
X181231Y166626D01*
X181322Y167087D01*
Y200787D01*
X181722Y200867D01*
X182247Y201218D01*
X182598Y201743D01*
X182721Y202362D01*
X182598Y202982D01*
X182247Y203507D01*
X181722Y203857D01*
X181102Y203981D01*
X180483Y203857D01*
X179958Y203507D01*
X179560Y203797D01*
X179491Y203900D01*
X178966Y204251D01*
X178347Y204374D01*
X177727Y204251D01*
X177202Y203900D01*
X176851Y203375D01*
X176728Y202756D01*
X176851Y202136D01*
X177142Y201701D01*
Y169003D01*
X170015Y161875D01*
X169754Y161485D01*
X169662Y161024D01*
X169662Y161024D01*
Y147118D01*
X169371Y146682D01*
X169248Y146063D01*
X169371Y145444D01*
X169722Y144919D01*
X170247Y144568D01*
X170866Y144445D01*
X171485Y144568D01*
X172011Y144919D01*
X172361Y145444D01*
X172485Y146063D01*
X172361Y146682D01*
X172070Y147118D01*
Y160468D01*
X172402Y160747D01*
X172883Y160608D01*
X173126Y160244D01*
Y126299D01*
X173126Y126299D01*
X173218Y125838D01*
X173479Y125448D01*
X180969Y117957D01*
X180687Y117276D01*
X180558Y116299D01*
X180687Y115323D01*
X181064Y114413D01*
X181663Y113632D01*
X182445Y113032D01*
X183354Y112655D01*
X184331Y112527D01*
X185307Y112655D01*
X186217Y113032D01*
X186998Y113632D01*
X187272Y113989D01*
X187772Y113819D01*
Y111444D01*
X185989Y109661D01*
X185307Y109943D01*
X184331Y110072D01*
X183354Y109943D01*
X182445Y109566D01*
X181663Y108967D01*
X181064Y108185D01*
X180687Y107276D01*
X180558Y106299D01*
X180687Y105323D01*
X181064Y104413D01*
X181663Y103632D01*
X182445Y103032D01*
X183354Y102655D01*
X184331Y102527D01*
X185307Y102655D01*
X186217Y103032D01*
X186998Y103632D01*
X187598Y104413D01*
X187975Y105323D01*
X188103Y106299D01*
X187975Y107276D01*
X187692Y107957D01*
X189828Y110093D01*
X190089Y110484D01*
X190181Y110945D01*
X190181Y110945D01*
Y115337D01*
X190681Y115370D01*
X190687Y115323D01*
X191064Y114413D01*
X191663Y113632D01*
X192445Y113032D01*
X193354Y112655D01*
X194331Y112527D01*
X195307Y112655D01*
X196217Y113032D01*
X196760Y113449D01*
X197260Y113203D01*
Y110932D01*
X195989Y109661D01*
X195307Y109943D01*
X194331Y110072D01*
X193354Y109943D01*
X192445Y109566D01*
X191663Y108967D01*
X191064Y108185D01*
X190687Y107276D01*
X190558Y106299D01*
X190687Y105323D01*
X191064Y104413D01*
X191663Y103632D01*
X192445Y103032D01*
X193354Y102655D01*
X194331Y102527D01*
X195307Y102655D01*
X196217Y103032D01*
X196998Y103632D01*
X197598Y104413D01*
X197975Y105323D01*
X198103Y106299D01*
X197975Y107276D01*
X197692Y107957D01*
X198995Y109260D01*
X199331Y109568D01*
X199667Y109260D01*
X200969Y107957D01*
X200687Y107276D01*
X200558Y106299D01*
X200687Y105323D01*
X201064Y104413D01*
X201663Y103632D01*
X202445Y103032D01*
X203354Y102655D01*
X204331Y102527D01*
X205307Y102655D01*
X206217Y103032D01*
X206998Y103632D01*
X207598Y104413D01*
X207975Y105323D01*
X208103Y106299D01*
X207975Y107276D01*
X207598Y108185D01*
X206998Y108967D01*
X206217Y109566D01*
X205307Y109943D01*
X204331Y110072D01*
X203354Y109943D01*
X202672Y109661D01*
X201401Y110932D01*
Y113203D01*
X201901Y113449D01*
X202445Y113032D01*
X203354Y112655D01*
X204331Y112527D01*
X205307Y112655D01*
X206217Y113032D01*
X206998Y113632D01*
X207598Y114413D01*
X207975Y115323D01*
X208103Y116299D01*
X207975Y117276D01*
X207598Y118185D01*
X206998Y118967D01*
X206217Y119566D01*
X205307Y119943D01*
X204370Y120066D01*
X204320Y120085D01*
X203951Y120526D01*
X203960Y120571D01*
Y131228D01*
X204251Y131664D01*
X204374Y132283D01*
X204251Y132903D01*
X203960Y133338D01*
Y230709D01*
X203960Y230709D01*
Y231856D01*
X203869Y232317D01*
X203607Y232708D01*
X203607Y232708D01*
X191172Y245143D01*
X190781Y245404D01*
X190751Y245410D01*
X190763Y245472D01*
Y258858D01*
X190702Y259166D01*
X190528Y259426D01*
X190268Y259600D01*
X189961Y259661D01*
D02*
G37*
G36*
X348031Y293351D02*
X347412Y293228D01*
X346887Y292877D01*
X346536Y292352D01*
X346413Y291732D01*
X346536Y291113D01*
X346827Y290677D01*
Y119663D01*
X346379Y119442D01*
X346217Y119566D01*
X345535Y119849D01*
Y129169D01*
X345930Y129565D01*
X345930Y129565D01*
X346191Y129955D01*
X346283Y130416D01*
Y207087D01*
X346283Y207087D01*
X346191Y207547D01*
X345930Y207938D01*
X345930Y207938D01*
X342149Y211720D01*
X342046Y212233D01*
X341696Y212759D01*
X341171Y213109D01*
X340551Y213233D01*
X339932Y213109D01*
X339407Y212759D01*
X339056Y212233D01*
X338933Y211614D01*
X339056Y210995D01*
X339407Y210470D01*
X339932Y210119D01*
X340446Y210017D01*
X343875Y206588D01*
Y146955D01*
X343374Y146708D01*
X342831Y147125D01*
X341921Y147502D01*
X340945Y147631D01*
X339968Y147502D01*
X339059Y147125D01*
X338277Y146526D01*
X338015Y146184D01*
X337515Y146354D01*
Y289280D01*
X337515Y289280D01*
X337432Y289698D01*
X337445Y289764D01*
X337322Y290383D01*
X336971Y290908D01*
X336446Y291259D01*
X335827Y291382D01*
X335207Y291259D01*
X334682Y290908D01*
X334331Y290383D01*
X334208Y289764D01*
X334331Y289144D01*
X334682Y288619D01*
X335107Y288336D01*
Y206985D01*
X334607Y206603D01*
X334330Y206658D01*
X333710Y206535D01*
X333185Y206184D01*
X332834Y205659D01*
X332711Y205039D01*
X332834Y204420D01*
X333125Y203984D01*
Y167304D01*
X332691Y167133D01*
X332304Y167442D01*
X332204Y167942D01*
X332011Y168230D01*
Y185166D01*
X332302Y185601D01*
X332426Y186221D01*
X332302Y186840D01*
X331951Y187365D01*
X331427Y187716D01*
X330807Y187839D01*
X330188Y187716D01*
X329663Y187365D01*
X329312Y186840D01*
X329189Y186221D01*
X329312Y185601D01*
X329603Y185166D01*
Y168493D01*
X329564Y168467D01*
X329213Y167942D01*
X329090Y167323D01*
X329213Y166703D01*
X329564Y166178D01*
X330089Y165828D01*
X330603Y165725D01*
X330685Y165643D01*
Y163548D01*
X330186Y163280D01*
X330147Y163306D01*
X329528Y163429D01*
X328908Y163306D01*
X328383Y162955D01*
X328032Y162430D01*
X327909Y161811D01*
X328032Y161192D01*
X328323Y160756D01*
Y117740D01*
X327823Y117641D01*
X327598Y118185D01*
X326998Y118967D01*
X326217Y119566D01*
X325535Y119849D01*
Y207164D01*
X325535Y207164D01*
X325443Y207625D01*
X325430Y207645D01*
X325437Y207677D01*
X325313Y208296D01*
X324963Y208821D01*
X324438Y209172D01*
X323818Y209295D01*
X323199Y209172D01*
X322674Y208821D01*
X322323Y208296D01*
X322200Y207677D01*
X322323Y207057D01*
X322674Y206532D01*
X323127Y206230D01*
Y119849D01*
X322445Y119566D01*
X321663Y118967D01*
X321389Y118610D01*
X320889Y118779D01*
Y146976D01*
X321180Y147412D01*
X321304Y148031D01*
X321180Y148651D01*
X320889Y149086D01*
Y163118D01*
X321180Y163554D01*
X321304Y164173D01*
X321180Y164793D01*
X320830Y165318D01*
X320304Y165668D01*
X319685Y165792D01*
X319066Y165668D01*
X318541Y165318D01*
X318190Y164793D01*
X318067Y164173D01*
X318190Y163554D01*
X318481Y163118D01*
Y149086D01*
X318190Y148651D01*
X318067Y148031D01*
X318190Y147412D01*
X318481Y146976D01*
Y117261D01*
X317981Y117228D01*
X317975Y117276D01*
X317598Y118185D01*
X316998Y118967D01*
X316217Y119566D01*
X315535Y119849D01*
Y186273D01*
X319749Y190487D01*
X319749Y190487D01*
X320010Y190878D01*
X320102Y191339D01*
Y202756D01*
X320010Y203217D01*
X319749Y203607D01*
X319749Y203607D01*
X318527Y204830D01*
X318424Y205344D01*
X318074Y205869D01*
X317548Y206220D01*
X316929Y206343D01*
X316310Y206220D01*
X315785Y205869D01*
X315434Y205344D01*
X315311Y204724D01*
X315434Y204105D01*
X315785Y203580D01*
X316310Y203229D01*
X316824Y203127D01*
X317693Y202257D01*
Y191837D01*
X313479Y187623D01*
X313218Y187232D01*
X313126Y186772D01*
X313126Y186772D01*
Y119849D01*
X312444Y119566D01*
X311663Y118967D01*
X311064Y118185D01*
X310687Y117276D01*
X310558Y116299D01*
X310687Y115323D01*
X311064Y114413D01*
X311663Y113632D01*
X312444Y113032D01*
X313354Y112655D01*
X314331Y112527D01*
X315307Y112655D01*
X316217Y113032D01*
X316998Y113632D01*
X317598Y114413D01*
X317975Y115323D01*
X317981Y115370D01*
X318481Y115337D01*
Y112152D01*
X315989Y109661D01*
X315307Y109943D01*
X314331Y110072D01*
X313354Y109943D01*
X312444Y109566D01*
X311663Y108967D01*
X311064Y108185D01*
X310687Y107276D01*
X310558Y106299D01*
X310687Y105323D01*
X311064Y104413D01*
X311663Y103632D01*
X312444Y103032D01*
X313354Y102655D01*
X314331Y102527D01*
X315307Y102655D01*
X316217Y103032D01*
X316998Y103632D01*
X317598Y104413D01*
X317975Y105323D01*
X318103Y106299D01*
X317975Y107276D01*
X317692Y107957D01*
X320536Y110802D01*
X320537Y110802D01*
X320798Y111193D01*
X320889Y111653D01*
X320889Y111654D01*
Y113819D01*
X321389Y113989D01*
X321663Y113632D01*
X322445Y113032D01*
X323354Y112655D01*
X324331Y112527D01*
X325307Y112655D01*
X326217Y113032D01*
X326998Y113632D01*
X327598Y114413D01*
X327823Y114958D01*
X328323Y114858D01*
Y111995D01*
X325989Y109661D01*
X325307Y109943D01*
X324331Y110072D01*
X323354Y109943D01*
X322445Y109566D01*
X321663Y108967D01*
X321064Y108185D01*
X320687Y107276D01*
X320558Y106299D01*
X320687Y105323D01*
X321064Y104413D01*
X321663Y103632D01*
X322445Y103032D01*
X323354Y102655D01*
X324331Y102527D01*
X325307Y102655D01*
X326217Y103032D01*
X326998Y103632D01*
X327598Y104413D01*
X327975Y105323D01*
X328103Y106299D01*
X327975Y107276D01*
X327692Y107957D01*
X330379Y110644D01*
X330379Y110644D01*
X330640Y111035D01*
X330732Y111496D01*
X330732Y111496D01*
Y114024D01*
X331232Y114194D01*
X331663Y113632D01*
X332445Y113032D01*
X333354Y112655D01*
X334331Y112527D01*
X335307Y112655D01*
X336217Y113032D01*
X336998Y113632D01*
X337272Y113989D01*
X337772Y113819D01*
Y111444D01*
X335989Y109661D01*
X335307Y109943D01*
X334331Y110072D01*
X333354Y109943D01*
X332445Y109566D01*
X331663Y108967D01*
X331064Y108185D01*
X330687Y107276D01*
X330558Y106299D01*
X330687Y105323D01*
X331064Y104413D01*
X331663Y103632D01*
X332445Y103032D01*
X333354Y102655D01*
X334331Y102527D01*
X335307Y102655D01*
X336217Y103032D01*
X336998Y103632D01*
X337598Y104413D01*
X337975Y105323D01*
X338103Y106299D01*
X337975Y107276D01*
X337692Y107957D01*
X339828Y110093D01*
X340089Y110484D01*
X340181Y110945D01*
X340181Y110945D01*
Y115337D01*
X340681Y115370D01*
X340687Y115323D01*
X341064Y114413D01*
X341663Y113632D01*
X342444Y113032D01*
X343354Y112655D01*
X344331Y112527D01*
X345307Y112655D01*
X346217Y113032D01*
X346760Y113449D01*
X347260Y113203D01*
Y110932D01*
X345989Y109661D01*
X345307Y109943D01*
X344331Y110072D01*
X343354Y109943D01*
X342444Y109566D01*
X341663Y108967D01*
X341064Y108185D01*
X340687Y107276D01*
X340558Y106299D01*
X340687Y105323D01*
X341064Y104413D01*
X341663Y103632D01*
X342444Y103032D01*
X343354Y102655D01*
X344331Y102527D01*
X345307Y102655D01*
X346217Y103032D01*
X346998Y103632D01*
X347598Y104413D01*
X347975Y105323D01*
X348103Y106299D01*
X347975Y107276D01*
X347692Y107957D01*
X349316Y109581D01*
X349577Y109972D01*
X349669Y110433D01*
Y118445D01*
X349577Y118905D01*
X349316Y119296D01*
X349316Y119296D01*
X349236Y119377D01*
Y290677D01*
X349527Y291113D01*
X349650Y291732D01*
X349527Y292352D01*
X349176Y292877D01*
X348651Y293228D01*
X348031Y293351D01*
D02*
G37*
G36*
X113465Y228159D02*
X111974Y227963D01*
X110586Y227388D01*
X109393Y226473D01*
X108478Y225280D01*
X107903Y223892D01*
X107707Y222402D01*
X107903Y220911D01*
X108478Y219523D01*
X109393Y218330D01*
X110586Y217415D01*
X111974Y216840D01*
X113465Y216644D01*
X114955Y216840D01*
X116343Y217415D01*
X117536Y218330D01*
X118451Y219523D01*
X119026Y220911D01*
X119222Y222402D01*
X119026Y223892D01*
X118451Y225280D01*
X117536Y226473D01*
X116343Y227388D01*
X114955Y227963D01*
X113465Y228159D01*
D02*
G37*
G36*
X237795Y216579D02*
X237176Y216456D01*
X236651Y216105D01*
X236300Y215580D01*
X236177Y214961D01*
X236300Y214341D01*
X236651Y213816D01*
X237176Y213465D01*
X237795Y213342D01*
X238415Y213465D01*
X238940Y213816D01*
X239291Y214341D01*
X239414Y214961D01*
X239291Y215580D01*
X238940Y216105D01*
X238415Y216456D01*
X237795Y216579D01*
D02*
G37*
G36*
X232480Y227771D02*
X227362D01*
X227055Y227710D01*
X226795Y227536D01*
X226621Y227276D01*
X226559Y226969D01*
Y213583D01*
X226621Y213276D01*
X226795Y213015D01*
X227055Y212841D01*
X227362Y212780D01*
X232480D01*
X232787Y212841D01*
X233048Y213015D01*
X233222Y213276D01*
X233283Y213583D01*
Y226969D01*
X233222Y227276D01*
X233048Y227536D01*
X232787Y227710D01*
X232480Y227771D01*
D02*
G37*
G36*
X125984Y228159D02*
X124494Y227963D01*
X123105Y227388D01*
X121913Y226473D01*
X120998Y225280D01*
X120422Y223892D01*
X120226Y222402D01*
X120422Y220911D01*
X120998Y219523D01*
X121913Y218330D01*
X123105Y217415D01*
X124494Y216840D01*
X125984Y216644D01*
X127474Y216840D01*
X128863Y217415D01*
X130056Y218330D01*
X130971Y219523D01*
X131546Y220911D01*
X131742Y222402D01*
X131546Y223892D01*
X130971Y225280D01*
X130056Y226473D01*
X128863Y227388D01*
X127474Y227963D01*
X125984Y228159D01*
D02*
G37*
G36*
X365354Y249256D02*
X364735Y249133D01*
X364210Y248782D01*
X363859Y248257D01*
X363736Y247638D01*
X363859Y247018D01*
X364150Y246583D01*
Y210735D01*
X361049Y207634D01*
X360665Y207793D01*
X359842Y207901D01*
X359020Y207793D01*
X358254Y207476D01*
X357596Y206971D01*
X357091Y206313D01*
X357050Y206212D01*
X356550Y206311D01*
Y223197D01*
X358745Y225392D01*
X359020Y225278D01*
X359842Y225170D01*
X360665Y225278D01*
X361431Y225595D01*
X362089Y226100D01*
X362594Y226758D01*
X362911Y227524D01*
X363019Y228346D01*
X362911Y229169D01*
X362594Y229935D01*
X362089Y230593D01*
X361431Y231098D01*
X360665Y231415D01*
X359842Y231523D01*
X359020Y231415D01*
X358254Y231098D01*
X357596Y230593D01*
X357091Y229935D01*
X356774Y229169D01*
X356666Y228346D01*
X356774Y227524D01*
X356888Y227249D01*
X354459Y224820D01*
X353959Y225027D01*
Y241939D01*
X354294Y242163D01*
X354645Y242688D01*
X354768Y243307D01*
X354645Y243927D01*
X354294Y244451D01*
X353769Y244802D01*
X353150Y244926D01*
X352530Y244802D01*
X352005Y244451D01*
X351654Y243927D01*
X351531Y243307D01*
X351580Y243060D01*
X351551Y242913D01*
X351551Y242913D01*
Y182157D01*
X351260Y181721D01*
X351137Y181102D01*
X351260Y180483D01*
X351611Y179957D01*
X352136Y179607D01*
X352755Y179483D01*
X353375Y179607D01*
X353424Y179640D01*
X353924Y179373D01*
Y158157D01*
X353623Y157706D01*
X353500Y157087D01*
X353623Y156467D01*
X353974Y155942D01*
X354499Y155591D01*
X355118Y155468D01*
X355737Y155591D01*
X356263Y155942D01*
X356427Y156189D01*
X356992Y156133D01*
X357091Y155892D01*
X357596Y155234D01*
X358254Y154729D01*
X359020Y154412D01*
X359842Y154304D01*
X360665Y154412D01*
X361431Y154729D01*
X362089Y155234D01*
X362594Y155892D01*
X362911Y156658D01*
X363019Y157480D01*
X362911Y158302D01*
X362752Y158687D01*
X365419Y161353D01*
X365680Y161744D01*
X365771Y162205D01*
Y181228D01*
X366062Y181664D01*
X366185Y182283D01*
X366062Y182903D01*
X365711Y183428D01*
X365186Y183779D01*
X364567Y183902D01*
X363948Y183779D01*
X363422Y183428D01*
X363072Y182903D01*
X363064Y182863D01*
X362825Y182775D01*
X362535Y182767D01*
X362089Y183349D01*
X361431Y183853D01*
X360665Y184171D01*
X359842Y184279D01*
X359020Y184171D01*
X358254Y183853D01*
X357596Y183349D01*
X357091Y182691D01*
X357050Y182590D01*
X356550Y182689D01*
Y203137D01*
X357050Y203237D01*
X357091Y203136D01*
X357596Y202478D01*
X358254Y201973D01*
X359020Y201656D01*
X359842Y201548D01*
X360665Y201656D01*
X361431Y201973D01*
X362089Y202478D01*
X362594Y203136D01*
X362911Y203902D01*
X363019Y204724D01*
X362911Y205547D01*
X362752Y205931D01*
X366206Y209385D01*
X366206Y209385D01*
X366467Y209775D01*
X366559Y210236D01*
Y227308D01*
X367059Y227408D01*
X367328Y226758D01*
X367832Y226100D01*
X368490Y225595D01*
X369256Y225278D01*
X370079Y225170D01*
X370901Y225278D01*
X371667Y225595D01*
X372325Y226100D01*
X372830Y226758D01*
X373147Y227524D01*
X373255Y228346D01*
X373147Y229169D01*
X372830Y229935D01*
X372325Y230593D01*
X371667Y231098D01*
X370901Y231415D01*
X370079Y231523D01*
X369256Y231415D01*
X368490Y231098D01*
X367832Y230593D01*
X367328Y229935D01*
X367059Y229285D01*
X366559Y229385D01*
Y246583D01*
X366850Y247018D01*
X366973Y247638D01*
X366850Y248257D01*
X366499Y248782D01*
X365974Y249133D01*
X365354Y249256D01*
D02*
G37*
G36*
X433071Y227586D02*
X432249Y227478D01*
X431483Y227161D01*
X430825Y226656D01*
X430320Y225998D01*
X430002Y225232D01*
X429894Y224410D01*
X430002Y223587D01*
X430320Y222821D01*
X430825Y222163D01*
X431483Y221658D01*
X432249Y221341D01*
X433071Y221233D01*
X433893Y221341D01*
X434659Y221658D01*
X435317Y222163D01*
X435822Y222821D01*
X436139Y223587D01*
X436248Y224410D01*
X436139Y225232D01*
X435822Y225998D01*
X435317Y226656D01*
X434659Y227161D01*
X433893Y227478D01*
X433071Y227586D01*
D02*
G37*
G36*
X422835Y245319D02*
X422215Y245196D01*
X421690Y244845D01*
X421339Y244320D01*
X421216Y243701D01*
X421339Y243081D01*
X421630Y242646D01*
Y227320D01*
X421246Y227161D01*
X420588Y226656D01*
X420084Y225998D01*
X419766Y225232D01*
X419658Y224410D01*
X419766Y223587D01*
X420084Y222821D01*
X420588Y222163D01*
X421246Y221658D01*
X422012Y221341D01*
X422835Y221233D01*
X423657Y221341D01*
X424423Y221658D01*
X425081Y222163D01*
X425586Y222821D01*
X425903Y223587D01*
X426011Y224410D01*
X425903Y225232D01*
X425586Y225998D01*
X425081Y226656D01*
X424423Y227161D01*
X424039Y227320D01*
Y242646D01*
X424330Y243081D01*
X424453Y243701D01*
X424330Y244320D01*
X423979Y244845D01*
X423454Y245196D01*
X422835Y245319D01*
D02*
G37*
G36*
X173228Y470325D02*
X171738Y470129D01*
X170349Y469553D01*
X169157Y468638D01*
X168242Y467446D01*
X167667Y466057D01*
X167470Y464567D01*
X167667Y463077D01*
X168242Y461688D01*
X169157Y460496D01*
X170349Y459580D01*
X171738Y459005D01*
X173228Y458809D01*
X174719Y459005D01*
X176107Y459580D01*
X177300Y460496D01*
X178215Y461688D01*
X178790Y463077D01*
X178986Y464567D01*
X178790Y466057D01*
X178215Y467446D01*
X177300Y468638D01*
X176107Y469553D01*
X174719Y470129D01*
X173228Y470325D01*
D02*
G37*
G36*
X508858Y469678D02*
X507882Y469549D01*
X506972Y469172D01*
X506191Y468573D01*
X505591Y467792D01*
X505214Y466882D01*
X505086Y465906D01*
X505214Y464929D01*
X505591Y464019D01*
X506191Y463238D01*
X506972Y462639D01*
X507366Y462475D01*
Y461934D01*
X506972Y461771D01*
X506191Y461171D01*
X505591Y460390D01*
X505214Y459480D01*
X505086Y458504D01*
X505214Y457528D01*
X505591Y456618D01*
X506191Y455836D01*
X506972Y455237D01*
X507882Y454860D01*
X508858Y454732D01*
X509835Y454860D01*
X510744Y455237D01*
X511526Y455836D01*
X512125Y456618D01*
X512502Y457528D01*
X512631Y458504D01*
X512502Y459480D01*
X512125Y460390D01*
X511526Y461171D01*
X510744Y461771D01*
X510351Y461934D01*
Y462475D01*
X510744Y462639D01*
X511526Y463238D01*
X512125Y464019D01*
X512502Y464929D01*
X512631Y465906D01*
X512502Y466882D01*
X512125Y467792D01*
X511526Y468573D01*
X510744Y469172D01*
X509835Y469549D01*
X508858Y469678D01*
D02*
G37*
G36*
X518858Y469639D02*
X517882Y469510D01*
X516972Y469133D01*
X516191Y468534D01*
X515591Y467752D01*
X515214Y466843D01*
X515086Y465866D01*
X515214Y464890D01*
X515591Y463980D01*
X516191Y463199D01*
X516972Y462599D01*
X517366Y462436D01*
Y461895D01*
X516972Y461732D01*
X516191Y461132D01*
X515591Y460351D01*
X515214Y459441D01*
X515086Y458465D01*
X515214Y457488D01*
X515591Y456578D01*
X516191Y455797D01*
X516972Y455198D01*
X517882Y454821D01*
X518858Y454692D01*
X519835Y454821D01*
X520745Y455198D01*
X521526Y455797D01*
X522125Y456578D01*
X522502Y457488D01*
X522631Y458465D01*
X522502Y459441D01*
X522125Y460351D01*
X521526Y461132D01*
X520745Y461732D01*
X520351Y461895D01*
Y462436D01*
X520745Y462599D01*
X521526Y463199D01*
X522125Y463980D01*
X522502Y464890D01*
X522631Y465866D01*
X522502Y466843D01*
X522125Y467752D01*
X521526Y468534D01*
X520745Y469133D01*
X519835Y469510D01*
X518858Y469639D01*
D02*
G37*
G36*
X202716Y470325D02*
X201226Y470129D01*
X199838Y469553D01*
X198645Y468638D01*
X197730Y467446D01*
X197155Y466057D01*
X196959Y464567D01*
X197155Y463077D01*
X197730Y461688D01*
X198645Y460496D01*
X199838Y459580D01*
X201226Y459005D01*
X202716Y458809D01*
X204207Y459005D01*
X205595Y459580D01*
X206788Y460496D01*
X207703Y461688D01*
X208278Y463077D01*
X208474Y464567D01*
X208278Y466057D01*
X207703Y467446D01*
X206788Y468638D01*
X205595Y469553D01*
X204207Y470129D01*
X202716Y470325D01*
D02*
G37*
G36*
X358268D02*
X356778Y470129D01*
X355389Y469553D01*
X354196Y468638D01*
X353281Y467446D01*
X352706Y466057D01*
X352510Y464567D01*
X352706Y463077D01*
X353281Y461688D01*
X354196Y460496D01*
X355389Y459580D01*
X356778Y459005D01*
X358268Y458809D01*
X359758Y459005D01*
X361147Y459580D01*
X362339Y460496D01*
X363254Y461688D01*
X363829Y463077D01*
X364026Y464567D01*
X363829Y466057D01*
X363254Y467446D01*
X362339Y468638D01*
X361147Y469553D01*
X359758Y470129D01*
X358268Y470325D01*
D02*
G37*
G36*
X297205D02*
X295714Y470129D01*
X294326Y469553D01*
X293133Y468638D01*
X292218Y467446D01*
X291643Y466057D01*
X291447Y464567D01*
X291643Y463077D01*
X292218Y461688D01*
X293133Y460496D01*
X294326Y459580D01*
X295714Y459005D01*
X297205Y458809D01*
X298695Y459005D01*
X300084Y459580D01*
X301276Y460496D01*
X302191Y461688D01*
X302766Y463077D01*
X302963Y464567D01*
X302766Y466057D01*
X302191Y467446D01*
X301276Y468638D01*
X300084Y469553D01*
X298695Y470129D01*
X297205Y470325D01*
D02*
G37*
G36*
X267717D02*
X266226Y470129D01*
X264838Y469553D01*
X263645Y468638D01*
X262730Y467446D01*
X262155Y466057D01*
X261959Y464567D01*
X262155Y463077D01*
X262730Y461688D01*
X263645Y460496D01*
X264838Y459580D01*
X266226Y459005D01*
X267717Y458809D01*
X269207Y459005D01*
X270596Y459580D01*
X271788Y460496D01*
X272703Y461688D01*
X273278Y463077D01*
X273475Y464567D01*
X273278Y466057D01*
X272703Y467446D01*
X271788Y468638D01*
X270596Y469553D01*
X269207Y470129D01*
X267717Y470325D01*
D02*
G37*
G36*
X528858Y469599D02*
X527882Y469471D01*
X526972Y469094D01*
X526191Y468494D01*
X525591Y467713D01*
X525214Y466803D01*
X525086Y465827D01*
X525214Y464850D01*
X525591Y463941D01*
X526191Y463159D01*
X526972Y462560D01*
X527366Y462397D01*
Y461855D01*
X526972Y461692D01*
X526191Y461093D01*
X525591Y460311D01*
X525214Y459402D01*
X525086Y458425D01*
X525214Y457449D01*
X525591Y456539D01*
X526191Y455758D01*
X526972Y455158D01*
X527882Y454781D01*
X528858Y454653D01*
X529835Y454781D01*
X530745Y455158D01*
X531526Y455758D01*
X532125Y456539D01*
X532502Y457449D01*
X532631Y458425D01*
X532502Y459402D01*
X532125Y460311D01*
X531526Y461093D01*
X530745Y461692D01*
X530350Y461855D01*
Y462397D01*
X530745Y462560D01*
X531526Y463159D01*
X532125Y463941D01*
X532502Y464850D01*
X532631Y465827D01*
X532502Y466803D01*
X532125Y467713D01*
X531526Y468494D01*
X530745Y469094D01*
X529835Y469471D01*
X528858Y469599D01*
D02*
G37*
G36*
X291339Y426000D02*
X263779D01*
X263472Y425939D01*
X263378Y425876D01*
X263284Y425939D01*
X262977Y426000D01*
X240158D01*
X239850Y425939D01*
X239590Y425765D01*
X239416Y425504D01*
X239355Y425197D01*
Y393701D01*
X239416Y393394D01*
X239590Y393133D01*
X239850Y392959D01*
X240158Y392898D01*
X243095D01*
Y383268D01*
X243156Y382961D01*
X243330Y382700D01*
X243590Y382526D01*
X243898Y382465D01*
X249016D01*
X249323Y382526D01*
X249583Y382700D01*
X249758Y382961D01*
X249819Y383268D01*
Y392898D01*
X258420D01*
X258545Y392711D01*
X258641Y392398D01*
X258347Y391958D01*
X258224Y391339D01*
X258347Y390719D01*
X258698Y390194D01*
X259223Y389843D01*
X259842Y389720D01*
X260462Y389843D01*
X260897Y390134D01*
X264158D01*
Y378937D01*
X264219Y378630D01*
X264393Y378369D01*
X264653Y378195D01*
X264961Y378134D01*
X266512D01*
Y288875D01*
X266512Y288875D01*
X266604Y288414D01*
X266865Y288023D01*
X267206Y287682D01*
X267015Y287220D01*
X262992D01*
X262685Y287159D01*
X262424Y286985D01*
X262250Y286724D01*
X262189Y286417D01*
Y262731D01*
X262137Y262697D01*
X261637Y262964D01*
Y374732D01*
X261928Y375168D01*
X262052Y375787D01*
X261928Y376407D01*
X261578Y376932D01*
X261052Y377283D01*
X260433Y377406D01*
X259814Y377283D01*
X259289Y376932D01*
X258938Y376407D01*
X258815Y375787D01*
X258938Y375168D01*
X259229Y374732D01*
Y260546D01*
X258767Y260354D01*
X254526Y264595D01*
X254448Y264989D01*
X254097Y265514D01*
X253572Y265865D01*
X252953Y265989D01*
X252333Y265865D01*
X251808Y265514D01*
X251458Y264989D01*
X251334Y264370D01*
X251458Y263751D01*
X251808Y263226D01*
X252333Y262875D01*
X252953Y262752D01*
X252962Y262753D01*
X255592Y260123D01*
X255401Y259661D01*
X251772D01*
X251464Y259600D01*
X251204Y259426D01*
X251030Y259166D01*
X250969Y258858D01*
Y245472D01*
X251030Y245165D01*
X251204Y244905D01*
X251464Y244731D01*
X251772Y244670D01*
X256890D01*
X256957Y244683D01*
X257457Y244349D01*
Y228092D01*
X256957Y227758D01*
X256890Y227771D01*
X251772D01*
X251464Y227710D01*
X251204Y227536D01*
X251030Y227276D01*
X250969Y226969D01*
Y213583D01*
X251030Y213276D01*
X251204Y213015D01*
X251464Y212841D01*
X251772Y212780D01*
X256890D01*
X256957Y212793D01*
X257457Y212459D01*
Y204864D01*
X256957Y204530D01*
X256890Y204543D01*
X251772D01*
X251464Y204482D01*
X251204Y204308D01*
X251030Y204047D01*
X250969Y203740D01*
Y202500D01*
X250469Y202232D01*
X250202Y202410D01*
X249583Y202534D01*
X248964Y202410D01*
X248439Y202059D01*
X248161Y201644D01*
X247661Y201756D01*
Y203438D01*
X249670Y205448D01*
X249932Y205838D01*
X250023Y206299D01*
X250023Y206299D01*
Y254851D01*
X250314Y255286D01*
X250437Y255906D01*
X250314Y256525D01*
X249963Y257050D01*
X249438Y257401D01*
X248819Y257524D01*
X248200Y257401D01*
X247674Y257050D01*
X247324Y256525D01*
X247200Y255906D01*
X247324Y255286D01*
X247615Y254851D01*
Y216697D01*
X247115Y216430D01*
X247076Y216456D01*
X246457Y216579D01*
X245837Y216456D01*
X245405Y216167D01*
X245068Y216275D01*
X244905Y216389D01*
Y266268D01*
X245196Y266704D01*
X245319Y267323D01*
X245196Y267942D01*
X244845Y268467D01*
X244320Y268818D01*
X243701Y268941D01*
X243081Y268818D01*
X242556Y268467D01*
X242255Y268017D01*
X241937Y268036D01*
X241755Y268100D01*
Y271548D01*
X248883Y278676D01*
X249144Y279067D01*
X249236Y279528D01*
X249236Y279528D01*
Y286740D01*
X249527Y287176D01*
X249650Y287795D01*
X249527Y288415D01*
X249176Y288940D01*
X248651Y289291D01*
X248031Y289414D01*
X247412Y289291D01*
X246887Y288940D01*
X246536Y288415D01*
X246413Y287795D01*
X246536Y287176D01*
X246827Y286740D01*
Y280026D01*
X239893Y273092D01*
X239393Y273299D01*
Y279029D01*
X244200Y283836D01*
X244714Y283938D01*
X245239Y284289D01*
X245590Y284814D01*
X245713Y285433D01*
X245590Y286052D01*
X245239Y286578D01*
X244714Y286928D01*
X244094Y287052D01*
X243475Y286928D01*
X242950Y286578D01*
X242599Y286052D01*
X242497Y285539D01*
X237337Y280379D01*
X237076Y279988D01*
X236985Y279528D01*
X236985Y279527D01*
Y263653D01*
X236694Y263218D01*
X236571Y262598D01*
X236694Y261979D01*
X237045Y261454D01*
X237570Y261103D01*
X238189Y260980D01*
X238808Y261103D01*
X239100Y260697D01*
X239133Y260578D01*
X239056Y260462D01*
X238933Y259842D01*
X239056Y259223D01*
X239407Y258698D01*
X239932Y258347D01*
X240551Y258224D01*
X241171Y258347D01*
X241696Y258698D01*
X241997Y259148D01*
X242315Y259129D01*
X242496Y259065D01*
Y193806D01*
X226708Y178017D01*
X226447Y177626D01*
X226355Y177165D01*
X226355Y177165D01*
Y175312D01*
X226064Y174877D01*
X225941Y174257D01*
X226064Y173638D01*
X226415Y173113D01*
X226649Y172957D01*
X226732Y172332D01*
X224894Y170495D01*
X224433Y170687D01*
Y243039D01*
X224724Y243475D01*
X224847Y244094D01*
X224724Y244714D01*
X224373Y245239D01*
X223848Y245590D01*
X223228Y245713D01*
X222609Y245590D01*
X222084Y245239D01*
X221733Y244714D01*
X221610Y244094D01*
X221733Y243475D01*
X222024Y243039D01*
Y161769D01*
X218755Y158500D01*
X218494Y158109D01*
X218402Y157649D01*
X218402Y157649D01*
Y133885D01*
X217652Y133135D01*
X217391Y132744D01*
X217300Y132283D01*
X217300Y132283D01*
Y130976D01*
X217009Y130541D01*
X216885Y129921D01*
X217009Y129302D01*
X217359Y128777D01*
X217885Y128426D01*
X218504Y128303D01*
X219123Y128426D01*
X219477Y128662D01*
X219977Y128437D01*
Y126798D01*
X216430Y123251D01*
X215916Y123149D01*
X215391Y122798D01*
X215040Y122273D01*
X214917Y121653D01*
X215040Y121034D01*
X215391Y120509D01*
X215626Y120352D01*
X215389Y119909D01*
X215307Y119943D01*
X214331Y120072D01*
X213354Y119943D01*
X212444Y119566D01*
X211901Y119149D01*
X211401Y119396D01*
Y182634D01*
X213450Y184683D01*
X213450Y184683D01*
X213711Y185074D01*
X213803Y185534D01*
X213803Y185534D01*
Y246745D01*
X214672Y247615D01*
X215186Y247717D01*
X215711Y248068D01*
X216062Y248593D01*
X216185Y249213D01*
X216062Y249832D01*
X215711Y250357D01*
X215186Y250708D01*
X214567Y250831D01*
X213948Y250708D01*
X213422Y250357D01*
X213072Y249832D01*
X212983Y249384D01*
X212711Y249201D01*
X212220Y249435D01*
Y256683D01*
X212682Y256875D01*
X213757Y255800D01*
X213859Y255286D01*
X214210Y254761D01*
X214735Y254410D01*
X215354Y254287D01*
X215974Y254410D01*
X216499Y254761D01*
X216850Y255286D01*
X216973Y255906D01*
X216850Y256525D01*
X216499Y257050D01*
X215974Y257401D01*
X215460Y257503D01*
X213803Y259160D01*
Y323016D01*
X215354D01*
X215662Y323077D01*
X215922Y323251D01*
X216096Y323512D01*
X216157Y323819D01*
Y341717D01*
X230347D01*
X230496Y341535D01*
Y328150D01*
X230557Y327842D01*
X230732Y327582D01*
X230992Y327408D01*
X231299Y327347D01*
X236417D01*
X236724Y327408D01*
X236985Y327582D01*
X237159Y327842D01*
X237220Y328150D01*
Y341535D01*
X237159Y341843D01*
X236985Y342103D01*
X236919Y342147D01*
X236962Y342213D01*
X237023Y342520D01*
Y350575D01*
X236978Y350805D01*
X236985Y350810D01*
X237159Y351071D01*
X237220Y351378D01*
Y364764D01*
X237159Y365071D01*
X236985Y365332D01*
X236978Y365336D01*
X237023Y365567D01*
Y370079D01*
X236962Y370386D01*
X236788Y370646D01*
X236528Y370820D01*
X236221Y370882D01*
X208661D01*
X208354Y370820D01*
X208094Y370646D01*
X208049Y370580D01*
X207825Y370516D01*
X207509Y370508D01*
X207456Y370524D01*
X206716Y371264D01*
Y390134D01*
X209040D01*
Y378937D01*
X209101Y378630D01*
X209275Y378369D01*
X209535Y378195D01*
X209842Y378134D01*
X215354D01*
X215662Y378195D01*
X215922Y378369D01*
X216096Y378630D01*
X216157Y378937D01*
Y396835D01*
X230347D01*
X230496Y396654D01*
Y383268D01*
X230557Y382961D01*
X230732Y382700D01*
X230992Y382526D01*
X231299Y382465D01*
X236417D01*
X236724Y382526D01*
X236985Y382700D01*
X237159Y382961D01*
X237220Y383268D01*
Y396654D01*
X237159Y396961D01*
X236985Y397221D01*
X236919Y397266D01*
X236962Y397331D01*
X237023Y397638D01*
Y405693D01*
X236978Y405923D01*
X236985Y405928D01*
X237159Y406189D01*
X237220Y406496D01*
Y419882D01*
X237159Y420189D01*
X236985Y420450D01*
X236978Y420455D01*
X237023Y420685D01*
Y425197D01*
X236962Y425504D01*
X236788Y425765D01*
X236528Y425939D01*
X236221Y426000D01*
X208661D01*
X208354Y425939D01*
X208260Y425876D01*
X208166Y425939D01*
X207859Y426000D01*
X185039D01*
X184732Y425939D01*
X184472Y425765D01*
X184298Y425504D01*
X184237Y425197D01*
Y385827D01*
X184298Y385520D01*
X184472Y385259D01*
X184732Y385085D01*
X185039Y385024D01*
X187977D01*
Y383268D01*
X188038Y382961D01*
X188212Y382700D01*
X188472Y382526D01*
X188779Y382465D01*
X193898D01*
X194205Y382526D01*
X194465Y382700D01*
X194639Y382961D01*
X194701Y383268D01*
Y385024D01*
X204308D01*
Y370882D01*
X185039D01*
X184732Y370820D01*
X184472Y370646D01*
X184298Y370386D01*
X184237Y370079D01*
Y342520D01*
X184298Y342213D01*
X184472Y341952D01*
X184732Y341778D01*
X185039Y341717D01*
X187828D01*
X187977Y341535D01*
Y328150D01*
X188038Y327842D01*
X188212Y327582D01*
X188472Y327408D01*
X188779Y327347D01*
X193898D01*
X194205Y327408D01*
X194465Y327582D01*
X194639Y327842D01*
X194701Y328150D01*
Y341535D01*
X194849Y341717D01*
X205489D01*
Y337588D01*
X205155Y337365D01*
X204804Y336840D01*
X204681Y336221D01*
X204804Y335601D01*
X205155Y335076D01*
X205680Y334725D01*
X206299Y334602D01*
X206919Y334725D01*
X207444Y335076D01*
X207794Y335601D01*
X207918Y336221D01*
X207868Y336469D01*
X207897Y336614D01*
X207897Y336614D01*
Y348064D01*
X207995Y348177D01*
X208150Y348282D01*
X208265Y348327D01*
X208366Y348357D01*
X208424Y348334D01*
X208519Y348316D01*
X208611Y348285D01*
X209040Y348226D01*
Y323819D01*
X209101Y323512D01*
X209275Y323251D01*
X209535Y323077D01*
X209842Y323016D01*
X211394D01*
Y266748D01*
X205906D01*
X205598Y266687D01*
X205338Y266513D01*
X205164Y266252D01*
X205103Y265945D01*
Y241142D01*
X205164Y240834D01*
X205338Y240574D01*
X205598Y240400D01*
X205906Y240339D01*
X207457D01*
Y224677D01*
X207166Y224241D01*
X207043Y223622D01*
X207166Y223003D01*
X207517Y222478D01*
X208042Y222127D01*
X208661Y222004D01*
X209281Y222127D01*
X209806Y222478D01*
X210157Y223003D01*
X210280Y223622D01*
X210157Y224241D01*
X209866Y224677D01*
Y240339D01*
X211394D01*
Y211630D01*
X209974D01*
Y214462D01*
X210157Y214735D01*
X210280Y215354D01*
X210157Y215974D01*
X209806Y216499D01*
X209281Y216850D01*
X208661Y216973D01*
X208042Y216850D01*
X207517Y216499D01*
X207166Y215974D01*
X207043Y215354D01*
X207166Y214735D01*
X207349Y214462D01*
Y211630D01*
X205906D01*
X205598Y211568D01*
X205338Y211395D01*
X205164Y211134D01*
X205103Y210827D01*
Y186024D01*
X205164Y185716D01*
X205338Y185456D01*
X205598Y185282D01*
X205906Y185221D01*
X209928D01*
X210120Y184759D01*
X209345Y183984D01*
X209084Y183594D01*
X208993Y183133D01*
X208993Y183133D01*
Y110433D01*
X208993Y110433D01*
X209084Y109972D01*
X209345Y109581D01*
X210969Y107957D01*
X210687Y107276D01*
X210558Y106299D01*
X210687Y105323D01*
X211064Y104413D01*
X211663Y103632D01*
X212444Y103032D01*
X213354Y102655D01*
X214331Y102527D01*
X215307Y102655D01*
X216217Y103032D01*
X216998Y103632D01*
X217598Y104413D01*
X217975Y105323D01*
X218103Y106299D01*
X217975Y107276D01*
X217598Y108185D01*
X216998Y108967D01*
X216217Y109566D01*
X215307Y109943D01*
X214331Y110072D01*
X213354Y109943D01*
X212672Y109661D01*
X211401Y110932D01*
Y113203D01*
X211901Y113449D01*
X212444Y113032D01*
X213354Y112655D01*
X214331Y112527D01*
X215307Y112655D01*
X216217Y113032D01*
X216998Y113632D01*
X217598Y114413D01*
X217975Y115323D01*
X218103Y116299D01*
X217975Y117276D01*
X217692Y117957D01*
X222664Y122930D01*
X223127Y122739D01*
Y119849D01*
X222445Y119566D01*
X221663Y118967D01*
X221064Y118185D01*
X220687Y117276D01*
X220558Y116299D01*
X220687Y115323D01*
X221064Y114413D01*
X221663Y113632D01*
X222445Y113032D01*
X223354Y112655D01*
X224033Y112566D01*
X224213Y112038D01*
X223479Y111305D01*
X223218Y110914D01*
X223127Y110453D01*
X223127Y110453D01*
Y109849D01*
X222445Y109566D01*
X221663Y108967D01*
X221064Y108185D01*
X220687Y107276D01*
X220558Y106299D01*
X220687Y105323D01*
X221064Y104413D01*
X221663Y103632D01*
X222445Y103032D01*
X223354Y102655D01*
X224331Y102527D01*
X225307Y102655D01*
X226217Y103032D01*
X226998Y103632D01*
X227598Y104413D01*
X227975Y105323D01*
X228103Y106299D01*
X227975Y107276D01*
X227598Y108185D01*
X226998Y108967D01*
X226217Y109566D01*
X225960Y109672D01*
X225843Y110262D01*
X229316Y113735D01*
X229577Y114126D01*
X229669Y114587D01*
Y129043D01*
X229842Y129302D01*
X229965Y129921D01*
X229842Y130541D01*
X229491Y131066D01*
X228966Y131417D01*
X228346Y131540D01*
X227727Y131417D01*
X227202Y131066D01*
X226851Y130541D01*
X226728Y129921D01*
X226851Y129302D01*
X227202Y128777D01*
X227260Y128738D01*
Y119396D01*
X226760Y119149D01*
X226217Y119566D01*
X225535Y119849D01*
Y141155D01*
X225696Y141316D01*
X226210Y141418D01*
X226735Y141769D01*
X226945Y142084D01*
X227445Y141932D01*
Y140945D01*
X227506Y140638D01*
X227680Y140377D01*
X227941Y140203D01*
X228248Y140142D01*
X234350D01*
X234658Y140203D01*
X234918Y140377D01*
X235092Y140638D01*
X235153Y140945D01*
Y145655D01*
X236875Y147377D01*
X237136Y147767D01*
X237228Y148228D01*
Y167252D01*
X237519Y167688D01*
X237642Y168307D01*
X237519Y168927D01*
X237168Y169451D01*
X236643Y169802D01*
X236024Y169926D01*
X235647Y169851D01*
X235400Y170311D01*
X241838Y176749D01*
X242352Y176851D01*
X242877Y177202D01*
X243228Y177727D01*
X243351Y178347D01*
X243228Y178966D01*
X243457Y179078D01*
X243875Y178712D01*
Y171045D01*
X243868Y171036D01*
X243776Y170575D01*
X243776Y170575D01*
Y144692D01*
X243595Y144511D01*
X243081Y144409D01*
X242556Y144058D01*
X242206Y143533D01*
X242082Y142913D01*
X242206Y142294D01*
X242556Y141769D01*
X243081Y141418D01*
X243701Y141295D01*
X244320Y141418D01*
X244845Y141769D01*
X244949Y141925D01*
X245449Y141773D01*
Y129121D01*
X235989Y119661D01*
X235307Y119943D01*
X234331Y120072D01*
X233354Y119943D01*
X232445Y119566D01*
X231663Y118967D01*
X231064Y118185D01*
X230687Y117276D01*
X230558Y116299D01*
X230687Y115323D01*
X231064Y114413D01*
X231663Y113632D01*
X232445Y113032D01*
X233354Y112655D01*
X234331Y112527D01*
X235307Y112655D01*
X236217Y113032D01*
X236998Y113632D01*
X237598Y114413D01*
X237975Y115323D01*
X238103Y116299D01*
X237975Y117276D01*
X237692Y117957D01*
X246798Y127064D01*
X247260Y126873D01*
Y119396D01*
X246760Y119149D01*
X246217Y119566D01*
X245307Y119943D01*
X244331Y120072D01*
X243354Y119943D01*
X242444Y119566D01*
X241663Y118967D01*
X241064Y118185D01*
X240687Y117276D01*
X240558Y116299D01*
X240687Y115323D01*
X241064Y114413D01*
X241481Y113870D01*
X241234Y113370D01*
X240197D01*
X239736Y113278D01*
X239345Y113017D01*
X239345Y113017D01*
X235989Y109661D01*
X235307Y109943D01*
X234331Y110072D01*
X233354Y109943D01*
X232445Y109566D01*
X231663Y108967D01*
X231064Y108185D01*
X230687Y107276D01*
X230558Y106299D01*
X230687Y105323D01*
X231064Y104413D01*
X231663Y103632D01*
X232445Y103032D01*
X233354Y102655D01*
X234331Y102527D01*
X235307Y102655D01*
X236217Y103032D01*
X236998Y103632D01*
X237598Y104413D01*
X237975Y105323D01*
X238103Y106299D01*
X237975Y107276D01*
X237692Y107957D01*
X240696Y110961D01*
X246476D01*
X246476Y110961D01*
X246609Y110987D01*
X246855Y110527D01*
X245989Y109661D01*
X245307Y109943D01*
X244331Y110072D01*
X243354Y109943D01*
X242444Y109566D01*
X241663Y108967D01*
X241064Y108185D01*
X240687Y107276D01*
X240558Y106299D01*
X240687Y105323D01*
X241064Y104413D01*
X241663Y103632D01*
X242444Y103032D01*
X243354Y102655D01*
X244331Y102527D01*
X245307Y102655D01*
X246217Y103032D01*
X246998Y103632D01*
X247598Y104413D01*
X247975Y105323D01*
X248103Y106299D01*
X247975Y107276D01*
X247692Y107957D01*
X248963Y109229D01*
X251234D01*
X251481Y108729D01*
X251064Y108185D01*
X250687Y107276D01*
X250558Y106299D01*
X250687Y105323D01*
X251064Y104413D01*
X251663Y103632D01*
X252445Y103032D01*
X253354Y102655D01*
X254331Y102527D01*
X255307Y102655D01*
X256217Y103032D01*
X256998Y103632D01*
X257598Y104413D01*
X257975Y105323D01*
X258103Y106299D01*
X257975Y107276D01*
X257692Y107957D01*
X261048Y111314D01*
X261048Y111314D01*
X261309Y111705D01*
X261401Y112165D01*
Y113203D01*
X261901Y113449D01*
X262444Y113032D01*
X263354Y112655D01*
X264331Y112527D01*
X265307Y112655D01*
X266217Y113032D01*
X266998Y113632D01*
X267023Y113664D01*
X267496Y113503D01*
Y111168D01*
X265989Y109661D01*
X265307Y109943D01*
X264331Y110072D01*
X263354Y109943D01*
X262444Y109566D01*
X261663Y108967D01*
X261064Y108185D01*
X260687Y107276D01*
X260558Y106299D01*
X260687Y105323D01*
X261064Y104413D01*
X261663Y103632D01*
X262444Y103032D01*
X263354Y102655D01*
X264331Y102527D01*
X265307Y102655D01*
X266217Y103032D01*
X266998Y103632D01*
X267598Y104413D01*
X267975Y105323D01*
X268103Y106299D01*
X267975Y107276D01*
X267692Y107957D01*
X269552Y109818D01*
X269552Y109818D01*
X269813Y110208D01*
X269905Y110669D01*
X269905Y110669D01*
Y116661D01*
X270123Y116824D01*
X270591Y116550D01*
X270558Y116299D01*
X270687Y115323D01*
X271064Y114413D01*
X271663Y113632D01*
X272445Y113032D01*
X273354Y112655D01*
X274331Y112527D01*
X275307Y112655D01*
X276217Y113032D01*
X276998Y113632D01*
X277598Y114413D01*
X277975Y115323D01*
X278103Y116299D01*
X277975Y117276D01*
X277598Y118185D01*
X276998Y118967D01*
X276217Y119566D01*
X275535Y119849D01*
Y170866D01*
X275535Y170866D01*
X275473Y171176D01*
X275934Y171422D01*
X277034Y170322D01*
Y157979D01*
X276851Y157706D01*
X276728Y157087D01*
X276851Y156467D01*
X277202Y155942D01*
X277727Y155591D01*
X278346Y155468D01*
X278966Y155591D01*
X279491Y155942D01*
X279842Y156467D01*
X279965Y157087D01*
X279842Y157706D01*
X279659Y157979D01*
Y170866D01*
X279559Y171369D01*
X279275Y171794D01*
X274765Y176304D01*
X275011Y176765D01*
X275197Y176728D01*
X275816Y176851D01*
X276341Y177202D01*
X276692Y177727D01*
X276815Y178347D01*
X276692Y178966D01*
X276602Y179101D01*
X276962Y179461D01*
X277333Y179213D01*
X277953Y179090D01*
X278572Y179213D01*
X279097Y179564D01*
X279448Y180089D01*
X279571Y180709D01*
X279448Y181328D01*
X279097Y181853D01*
X278572Y182204D01*
X278058Y182306D01*
X276795Y183570D01*
Y185221D01*
X278346D01*
X278717Y184785D01*
Y184646D01*
X278717Y184646D01*
X278809Y184185D01*
X279070Y183794D01*
X279505Y183359D01*
X279607Y182845D01*
X279958Y182320D01*
X280483Y181969D01*
X281102Y181846D01*
X281378Y181901D01*
X281878Y181518D01*
Y178857D01*
X280603Y177582D01*
X280089Y177480D01*
X279564Y177129D01*
X279213Y176604D01*
X279090Y175984D01*
X279213Y175365D01*
X279564Y174840D01*
X280089Y174489D01*
X280709Y174366D01*
X281328Y174489D01*
X281853Y174840D01*
X282204Y175365D01*
X282306Y175879D01*
X283934Y177507D01*
X284195Y177897D01*
X284287Y178358D01*
Y182640D01*
X284288Y182644D01*
Y184285D01*
X284287Y184289D01*
Y204420D01*
X284287Y204420D01*
X284195Y204881D01*
X283934Y205272D01*
X282700Y206506D01*
Y214038D01*
X282609Y214499D01*
X282348Y214890D01*
X282348Y214890D01*
X270889Y226348D01*
Y286907D01*
X270798Y287367D01*
X270537Y287758D01*
X270536Y287758D01*
X268921Y289374D01*
Y378134D01*
X270472D01*
X270780Y378195D01*
X271040Y378369D01*
X271214Y378630D01*
X271275Y378937D01*
Y396835D01*
X285466D01*
X285614Y396654D01*
Y383268D01*
X285676Y382961D01*
X285850Y382700D01*
X286110Y382526D01*
X286417Y382465D01*
X291535D01*
X291843Y382526D01*
X292103Y382700D01*
X292277Y382961D01*
X292338Y383268D01*
Y396654D01*
X292277Y396961D01*
X292103Y397221D01*
X292037Y397266D01*
X292080Y397331D01*
X292141Y397638D01*
Y405693D01*
X292096Y405923D01*
X292103Y405928D01*
X292277Y406189D01*
X292338Y406496D01*
Y419882D01*
X292277Y420189D01*
X292103Y420450D01*
X292096Y420455D01*
X292141Y420685D01*
Y425197D01*
X292080Y425504D01*
X291906Y425765D01*
X291646Y425939D01*
X291339Y426000D01*
D02*
G37*
G36*
X181102D02*
X153543D01*
X153236Y425939D01*
X153142Y425876D01*
X153048Y425939D01*
X152741Y426000D01*
X129921D01*
X129614Y425939D01*
X129354Y425765D01*
X129180Y425504D01*
X129118Y425197D01*
Y397638D01*
X129180Y397331D01*
X129354Y397070D01*
X129614Y396896D01*
X129921Y396835D01*
X132710D01*
X132859Y396654D01*
Y383268D01*
X132920Y382961D01*
X133094Y382700D01*
X133354Y382526D01*
X133661Y382465D01*
X138779D01*
X139087Y382526D01*
X139347Y382700D01*
X139521Y382961D01*
X139582Y383268D01*
Y396654D01*
X139731Y396835D01*
X153543D01*
X153922Y396400D01*
Y378937D01*
X153983Y378630D01*
X154157Y378369D01*
X154417Y378195D01*
X154724Y378134D01*
X160236D01*
X160543Y378195D01*
X160804Y378369D01*
X160978Y378630D01*
X161039Y378937D01*
Y390134D01*
X164150D01*
Y376645D01*
X163859Y376210D01*
X163736Y375590D01*
X163859Y374971D01*
X164210Y374446D01*
X164735Y374095D01*
X165354Y373972D01*
X165974Y374095D01*
X166499Y374446D01*
X166850Y374971D01*
X166973Y375590D01*
X166850Y376210D01*
X166559Y376645D01*
Y390284D01*
X166850Y390719D01*
X166973Y391339D01*
X166850Y391958D01*
X166499Y392483D01*
X165974Y392834D01*
X165354Y392957D01*
X164735Y392834D01*
X164299Y392543D01*
X161039D01*
Y396835D01*
X175229D01*
X175378Y396654D01*
Y383268D01*
X175439Y382961D01*
X175613Y382700D01*
X175874Y382526D01*
X176181Y382465D01*
X181299D01*
X181606Y382526D01*
X181867Y382700D01*
X182041Y382961D01*
X182102Y383268D01*
Y396654D01*
X182041Y396961D01*
X181867Y397221D01*
X181801Y397266D01*
X181844Y397331D01*
X181905Y397638D01*
Y405693D01*
X181859Y405923D01*
X181867Y405928D01*
X182041Y406189D01*
X182102Y406496D01*
Y419882D01*
X182041Y420189D01*
X181867Y420450D01*
X181859Y420455D01*
X181905Y420685D01*
Y425197D01*
X181844Y425504D01*
X181670Y425765D01*
X181410Y425939D01*
X181102Y426000D01*
D02*
G37*
G36*
X472441Y418126D02*
X449622D01*
X449314Y418064D01*
X449220Y418002D01*
X449126Y418064D01*
X448819Y418126D01*
X401575D01*
X401268Y418064D01*
X401007Y417891D01*
X400833Y417630D01*
X400772Y417323D01*
Y377953D01*
X400833Y377645D01*
X401007Y377385D01*
X401268Y377211D01*
X401575Y377150D01*
X448819D01*
X449126Y377211D01*
X449220Y377274D01*
X449314Y377211D01*
X449622Y377150D01*
X472441D01*
X472748Y377211D01*
X473009Y377385D01*
X473183Y377645D01*
X473244Y377953D01*
Y417323D01*
X473183Y417630D01*
X473009Y417891D01*
X472748Y418064D01*
X472441Y418126D01*
D02*
G37*
G36*
X518858Y449954D02*
X517882Y449825D01*
X516972Y449448D01*
X516191Y448849D01*
X515591Y448067D01*
X515214Y447157D01*
X515086Y446181D01*
X515214Y445205D01*
X515591Y444295D01*
X516191Y443514D01*
X516972Y442914D01*
X517366Y442751D01*
Y442210D01*
X516972Y442046D01*
X516191Y441447D01*
X515591Y440666D01*
X515214Y439756D01*
X515086Y438779D01*
X515214Y437803D01*
X515591Y436893D01*
X516191Y436112D01*
X516972Y435512D01*
X517882Y435136D01*
X518858Y435007D01*
X519835Y435136D01*
X520745Y435512D01*
X521526Y436112D01*
X522125Y436893D01*
X522502Y437803D01*
X522631Y438779D01*
X522502Y439756D01*
X522125Y440666D01*
X521526Y441447D01*
X520745Y442046D01*
X520351Y442210D01*
Y442751D01*
X520745Y442914D01*
X521526Y443514D01*
X522125Y444295D01*
X522502Y445205D01*
X522631Y446181D01*
X522502Y447157D01*
X522125Y448067D01*
X521526Y448849D01*
X520745Y449448D01*
X519835Y449825D01*
X518858Y449954D01*
D02*
G37*
G36*
X110236Y449916D02*
X109209Y449781D01*
X108251Y449384D01*
X107428Y448753D01*
X106797Y447930D01*
X106401Y446973D01*
X106265Y445945D01*
X106401Y444917D01*
X106724Y444136D01*
X103873Y441285D01*
X103612Y440894D01*
X103520Y440433D01*
X103520Y440433D01*
Y367197D01*
X103229Y366761D01*
X103106Y366142D01*
X103229Y365522D01*
X103580Y364997D01*
X104105Y364646D01*
X104724Y364523D01*
X105344Y364646D01*
X105869Y364997D01*
X106220Y365522D01*
X106343Y366142D01*
X106220Y366761D01*
X105929Y367197D01*
Y383629D01*
X106401Y383736D01*
X106797Y382778D01*
X107428Y381956D01*
X108251Y381325D01*
X109209Y380928D01*
X110236Y380793D01*
X111264Y380928D01*
X112222Y381325D01*
X113044Y381956D01*
X113675Y382778D01*
X114072Y383736D01*
X114207Y384764D01*
X114072Y385791D01*
X113675Y386749D01*
X113044Y387572D01*
X112222Y388203D01*
X111264Y388599D01*
X110236Y388735D01*
X109209Y388599D01*
X108251Y388203D01*
X107428Y387572D01*
X106797Y386749D01*
X106401Y385792D01*
X105929Y385898D01*
Y393630D01*
X106401Y393736D01*
X106797Y392778D01*
X107428Y391956D01*
X108251Y391325D01*
X109209Y390928D01*
X110236Y390793D01*
X111264Y390928D01*
X112222Y391325D01*
X113044Y391956D01*
X113675Y392778D01*
X114072Y393736D01*
X114207Y394764D01*
X114072Y395792D01*
X113675Y396749D01*
X113044Y397572D01*
X112222Y398203D01*
X111264Y398599D01*
X110236Y398735D01*
X109209Y398599D01*
X108251Y398203D01*
X107428Y397572D01*
X106797Y396749D01*
X106401Y395792D01*
X105929Y395898D01*
Y407252D01*
X106401Y407358D01*
X106797Y406400D01*
X107428Y405578D01*
X108251Y404947D01*
X109209Y404550D01*
X110236Y404415D01*
X111264Y404550D01*
X112222Y404947D01*
X113044Y405578D01*
X113675Y406400D01*
X114072Y407358D01*
X114207Y408386D01*
X114072Y409414D01*
X113675Y410371D01*
X113044Y411194D01*
X112222Y411825D01*
X111264Y412221D01*
X110236Y412357D01*
X109209Y412221D01*
X108251Y411825D01*
X107428Y411194D01*
X106797Y410371D01*
X106401Y409414D01*
X105929Y409520D01*
Y417252D01*
X106401Y417358D01*
X106797Y416400D01*
X107428Y415578D01*
X108251Y414947D01*
X109209Y414550D01*
X110236Y414415D01*
X111264Y414550D01*
X112045Y414874D01*
X120056Y406863D01*
Y352236D01*
X119764Y351800D01*
X119641Y351181D01*
X119764Y350562D01*
X120115Y350037D01*
X120641Y349686D01*
X121260Y349563D01*
X121879Y349686D01*
X122404Y350037D01*
X122755Y350562D01*
X122878Y351181D01*
X122755Y351800D01*
X122464Y352236D01*
Y407362D01*
X122372Y407823D01*
X122111Y408214D01*
X122111Y408214D01*
X113748Y416577D01*
X114072Y417358D01*
X114207Y418386D01*
X114072Y419414D01*
X113675Y420371D01*
X113044Y421194D01*
X112222Y421825D01*
X111264Y422222D01*
X110236Y422357D01*
X109209Y422222D01*
X108251Y421825D01*
X107428Y421194D01*
X106797Y420371D01*
X106401Y419414D01*
X105929Y419520D01*
Y434811D01*
X106401Y434917D01*
X106797Y433959D01*
X107428Y433137D01*
X108251Y432506D01*
X109209Y432109D01*
X110236Y431974D01*
X111264Y432109D01*
X112222Y432506D01*
X113044Y433137D01*
X113675Y433959D01*
X114072Y434917D01*
X114207Y435945D01*
X114072Y436973D01*
X113675Y437930D01*
X113044Y438753D01*
X112222Y439384D01*
X111264Y439781D01*
X110236Y439916D01*
X109209Y439781D01*
X108251Y439384D01*
X107428Y438753D01*
X106797Y437930D01*
X106401Y436973D01*
X105929Y437079D01*
Y439934D01*
X108427Y442433D01*
X109209Y442109D01*
X110236Y441974D01*
X111264Y442109D01*
X112222Y442506D01*
X113044Y443137D01*
X113675Y443959D01*
X114072Y444917D01*
X114207Y445945D01*
X114072Y446973D01*
X113675Y447930D01*
X113044Y448753D01*
X112222Y449384D01*
X111264Y449781D01*
X110236Y449916D01*
D02*
G37*
G36*
X357087Y438626D02*
X356467Y438503D01*
X355942Y438152D01*
X355591Y437627D01*
X355468Y437008D01*
X355591Y436388D01*
X355942Y435863D01*
X356467Y435513D01*
X357087Y435389D01*
X357706Y435513D01*
X358231Y435863D01*
X358582Y436388D01*
X358705Y437008D01*
X358582Y437627D01*
X358231Y438152D01*
X357706Y438503D01*
X357087Y438626D01*
D02*
G37*
G36*
X508858Y449993D02*
X507882Y449864D01*
X506972Y449487D01*
X506191Y448888D01*
X505591Y448107D01*
X505214Y447197D01*
X505086Y446220D01*
X505214Y445244D01*
X505591Y444334D01*
X506191Y443553D01*
X506972Y442953D01*
X507366Y442790D01*
Y442249D01*
X506972Y442086D01*
X506191Y441486D01*
X505591Y440705D01*
X505214Y439795D01*
X505086Y438819D01*
X505214Y437843D01*
X505591Y436933D01*
X506191Y436151D01*
X506972Y435552D01*
X507882Y435175D01*
X508858Y435046D01*
X509835Y435175D01*
X510744Y435552D01*
X511526Y436151D01*
X512125Y436933D01*
X512502Y437843D01*
X512631Y438819D01*
X512502Y439795D01*
X512125Y440705D01*
X511526Y441486D01*
X510744Y442086D01*
X510351Y442249D01*
Y442790D01*
X510744Y442953D01*
X511526Y443553D01*
X512125Y444334D01*
X512502Y445244D01*
X512631Y446220D01*
X512502Y447197D01*
X512125Y448107D01*
X511526Y448888D01*
X510744Y449487D01*
X509835Y449864D01*
X508858Y449993D01*
D02*
G37*
G36*
X387756Y470325D02*
X386266Y470129D01*
X384877Y469553D01*
X383684Y468638D01*
X382769Y467446D01*
X382194Y466057D01*
X381998Y464567D01*
X382194Y463077D01*
X382769Y461688D01*
X383684Y460496D01*
X384877Y459580D01*
X386266Y459005D01*
X387756Y458809D01*
X389246Y459005D01*
X390635Y459580D01*
X391827Y460496D01*
X392742Y461688D01*
X393318Y463077D01*
X393514Y464567D01*
X393318Y466057D01*
X392742Y467446D01*
X391827Y468638D01*
X390635Y469553D01*
X389246Y470129D01*
X387756Y470325D01*
D02*
G37*
G36*
X358268Y482844D02*
X356778Y482648D01*
X355389Y482073D01*
X354196Y481158D01*
X353281Y479966D01*
X352706Y478577D01*
X352510Y477087D01*
X352706Y475596D01*
X353281Y474208D01*
X354196Y473015D01*
X355389Y472100D01*
X356778Y471525D01*
X358268Y471329D01*
X359758Y471525D01*
X361147Y472100D01*
X362339Y473015D01*
X363254Y474208D01*
X363829Y475596D01*
X364026Y477087D01*
X363829Y478577D01*
X363254Y479966D01*
X362339Y481158D01*
X361147Y482073D01*
X359758Y482648D01*
X358268Y482844D01*
D02*
G37*
G36*
X297205D02*
X295714Y482648D01*
X294326Y482073D01*
X293133Y481158D01*
X292218Y479966D01*
X291643Y478577D01*
X291447Y477087D01*
X291643Y475596D01*
X292218Y474208D01*
X293133Y473015D01*
X294326Y472100D01*
X295714Y471525D01*
X297205Y471329D01*
X298695Y471525D01*
X300084Y472100D01*
X301276Y473015D01*
X302191Y474208D01*
X302766Y475596D01*
X302963Y477087D01*
X302766Y478577D01*
X302191Y479966D01*
X301276Y481158D01*
X300084Y482073D01*
X298695Y482648D01*
X297205Y482844D01*
D02*
G37*
G36*
X267717D02*
X266226Y482648D01*
X264838Y482073D01*
X263645Y481158D01*
X262730Y479966D01*
X262155Y478577D01*
X261959Y477087D01*
X262155Y475596D01*
X262730Y474208D01*
X263645Y473015D01*
X264838Y472100D01*
X266226Y471525D01*
X267717Y471329D01*
X269207Y471525D01*
X270596Y472100D01*
X271788Y473015D01*
X272703Y474208D01*
X273278Y475596D01*
X273475Y477087D01*
X273278Y478577D01*
X272703Y479966D01*
X271788Y481158D01*
X270596Y482073D01*
X269207Y482648D01*
X267717Y482844D01*
D02*
G37*
G36*
X387756D02*
X386266Y482648D01*
X384877Y482073D01*
X383684Y481158D01*
X382769Y479966D01*
X382194Y478577D01*
X381998Y477087D01*
X382194Y475596D01*
X382769Y474208D01*
X383684Y473015D01*
X384877Y472100D01*
X386266Y471525D01*
X387756Y471329D01*
X389246Y471525D01*
X390635Y472100D01*
X391827Y473015D01*
X392742Y474208D01*
X393318Y475596D01*
X393514Y477087D01*
X393318Y478577D01*
X392742Y479966D01*
X391827Y481158D01*
X390635Y482073D01*
X389246Y482648D01*
X387756Y482844D01*
D02*
G37*
G36*
X480315Y487250D02*
X480276Y487242D01*
X480236Y487246D01*
X479040Y487128D01*
X478964Y487105D01*
X478886Y487097D01*
X477735Y486748D01*
X477666Y486711D01*
X477590Y486688D01*
X476530Y486122D01*
X476469Y486071D01*
X476399Y486034D01*
X475470Y485272D01*
X475420Y485210D01*
X475358Y485160D01*
X474596Y484231D01*
X474559Y484161D01*
X474508Y484100D01*
X473942Y483040D01*
X473919Y482964D01*
X473882Y482895D01*
X473533Y481744D01*
X473525Y481666D01*
X473502Y481590D01*
X473384Y480394D01*
X473392Y480315D01*
X473384Y480236D01*
X473502Y479040D01*
X473525Y478964D01*
X473533Y478886D01*
X473882Y477735D01*
X473919Y477666D01*
X473942Y477590D01*
X474508Y476530D01*
X474559Y476469D01*
X474596Y476399D01*
X475358Y475470D01*
X475420Y475420D01*
X475470Y475358D01*
X476399Y474596D01*
X476469Y474559D01*
X476530Y474508D01*
X477590Y473942D01*
X477666Y473919D01*
X477735Y473882D01*
X478886Y473533D01*
X478964Y473525D01*
X479040Y473502D01*
X480236Y473384D01*
X480276Y473388D01*
X480315Y473380D01*
X480354Y473388D01*
X480394Y473384D01*
X481590Y473502D01*
X481666Y473525D01*
X481744Y473533D01*
X482895Y473882D01*
X482964Y473919D01*
X483040Y473942D01*
X484100Y474508D01*
X484161Y474559D01*
X484231Y474596D01*
X485160Y475358D01*
X485210Y475420D01*
X485272Y475470D01*
X486034Y476399D01*
X486071Y476469D01*
X486122Y476530D01*
X486688Y477590D01*
X486711Y477666D01*
X486748Y477735D01*
X487097Y478886D01*
X487105Y478964D01*
X487128Y479040D01*
X487246Y480236D01*
X487238Y480315D01*
X487246Y480394D01*
X487128Y481590D01*
X487105Y481666D01*
X487097Y481744D01*
X486748Y482895D01*
X486711Y482964D01*
X486688Y483040D01*
X486122Y484100D01*
X486071Y484161D01*
X486034Y484231D01*
X485272Y485160D01*
X485210Y485210D01*
X485160Y485272D01*
X484231Y486034D01*
X484161Y486071D01*
X484100Y486122D01*
X483040Y486688D01*
X482964Y486711D01*
X482895Y486748D01*
X481744Y487097D01*
X481666Y487105D01*
X481590Y487128D01*
X480394Y487246D01*
X480354Y487242D01*
X480315Y487250D01*
D02*
G37*
G36*
X110236D02*
X110197Y487242D01*
X110158Y487246D01*
X108961Y487128D01*
X108886Y487105D01*
X108807Y487097D01*
X107657Y486748D01*
X107587Y486711D01*
X107511Y486688D01*
X106451Y486122D01*
X106390Y486071D01*
X106320Y486034D01*
X105391Y485272D01*
X105341Y485210D01*
X105280Y485160D01*
X104517Y484231D01*
X104480Y484161D01*
X104430Y484100D01*
X103863Y483040D01*
X103840Y482964D01*
X103803Y482895D01*
X103454Y481744D01*
X103446Y481666D01*
X103423Y481590D01*
X103305Y480394D01*
X103313Y480315D01*
X103305Y480236D01*
X103423Y479040D01*
X103446Y478964D01*
X103454Y478886D01*
X103803Y477735D01*
X103840Y477666D01*
X103863Y477590D01*
X104430Y476530D01*
X104480Y476469D01*
X104517Y476399D01*
X105280Y475470D01*
X105341Y475420D01*
X105391Y475358D01*
X106320Y474596D01*
X106390Y474559D01*
X106451Y474508D01*
X107511Y473942D01*
X107587Y473919D01*
X107657Y473882D01*
X108807Y473533D01*
X108886Y473525D01*
X108961Y473502D01*
X110158Y473384D01*
X110197Y473388D01*
X110236Y473380D01*
X110275Y473388D01*
X110315Y473384D01*
X111511Y473502D01*
X111587Y473525D01*
X111665Y473533D01*
X112816Y473882D01*
X112886Y473919D01*
X112961Y473942D01*
X114021Y474508D01*
X114083Y474559D01*
X114152Y474596D01*
X115081Y475358D01*
X115132Y475420D01*
X115193Y475470D01*
X115955Y476399D01*
X115993Y476469D01*
X116043Y476530D01*
X116609Y477590D01*
X116632Y477666D01*
X116670Y477735D01*
X117019Y478886D01*
X117026Y478964D01*
X117049Y479040D01*
X117167Y480236D01*
X117159Y480315D01*
X117167Y480394D01*
X117049Y481590D01*
X117026Y481666D01*
X117019Y481744D01*
X116670Y482895D01*
X116632Y482964D01*
X116609Y483040D01*
X116043Y484100D01*
X115993Y484161D01*
X115955Y484231D01*
X115193Y485160D01*
X115132Y485210D01*
X115081Y485272D01*
X114152Y486034D01*
X114083Y486071D01*
X114021Y486122D01*
X112961Y486688D01*
X112886Y486711D01*
X112816Y486748D01*
X111665Y487097D01*
X111587Y487105D01*
X111511Y487128D01*
X110315Y487246D01*
X110275Y487242D01*
X110236Y487250D01*
D02*
G37*
G36*
X519015Y479948D02*
X518858D01*
X518702D01*
X518702Y479948D01*
X517788Y479766D01*
X517788D01*
X517498Y479646D01*
X516723Y479128D01*
X516723Y479128D01*
X516502Y478906D01*
X515984Y478132D01*
X515864Y477842D01*
X515683Y476928D01*
X515682Y476928D01*
Y476849D01*
X515667Y476772D01*
X515682Y476694D01*
Y476615D01*
X515683Y476615D01*
X515864Y475701D01*
Y475701D01*
X515984Y475412D01*
X516502Y474637D01*
X516502Y474637D01*
X516723Y474415D01*
X517498Y473898D01*
X517788Y473778D01*
X518702Y473596D01*
X518702Y473596D01*
X518858D01*
X519015D01*
X519015Y473596D01*
X519929Y473778D01*
X519929D01*
X520218Y473898D01*
X520993Y474415D01*
X520993Y474415D01*
X521215Y474637D01*
X521732Y475412D01*
X521852Y475701D01*
X522034Y476615D01*
X522034Y476615D01*
Y476694D01*
X522050Y476772D01*
X522034Y476849D01*
Y476928D01*
X522034Y476928D01*
X521852Y477842D01*
Y477842D01*
X521732Y478132D01*
X521215Y478906D01*
X521215Y478906D01*
X520993Y479128D01*
X520218Y479646D01*
X519929Y479766D01*
X519015Y479948D01*
X519015Y479948D01*
D02*
G37*
G36*
X202716Y482844D02*
X201226Y482648D01*
X199838Y482073D01*
X198645Y481158D01*
X197730Y479966D01*
X197155Y478577D01*
X196959Y477087D01*
X197155Y475596D01*
X197730Y474208D01*
X198645Y473015D01*
X199838Y472100D01*
X201226Y471525D01*
X202716Y471329D01*
X204207Y471525D01*
X205595Y472100D01*
X206788Y473015D01*
X207703Y474208D01*
X208278Y475596D01*
X208474Y477087D01*
X208278Y478577D01*
X207703Y479966D01*
X206788Y481158D01*
X205595Y482073D01*
X204207Y482648D01*
X202716Y482844D01*
D02*
G37*
G36*
X249016Y470320D02*
X248977Y470312D01*
X248937Y470316D01*
X247779Y470202D01*
X247704Y470179D01*
X247625Y470171D01*
X246512Y469833D01*
X246442Y469796D01*
X246366Y469773D01*
X245340Y469225D01*
X245279Y469175D01*
X245210Y469137D01*
X244310Y468399D01*
X244260Y468338D01*
X244199Y468288D01*
X243461Y467389D01*
X243424Y467319D01*
X243374Y467258D01*
X242825Y466232D01*
X242802Y466156D01*
X242765Y466087D01*
X242427Y464973D01*
X242420Y464895D01*
X242397Y464819D01*
X242283Y463661D01*
X242290Y463583D01*
X242283Y463504D01*
X242397Y462346D01*
X242420Y462271D01*
X242427Y462192D01*
X242765Y461079D01*
X242802Y461009D01*
X242825Y460933D01*
X243374Y459907D01*
X243424Y459846D01*
X243461Y459777D01*
X244199Y458877D01*
X244260Y458827D01*
X244310Y458766D01*
X245210Y458028D01*
X245279Y457991D01*
X245340Y457941D01*
X246366Y457392D01*
X246442Y457369D01*
X246512Y457332D01*
X247625Y456994D01*
X247704Y456987D01*
X247779Y456964D01*
X248937Y456850D01*
X248977Y456853D01*
X249016Y456846D01*
X249055Y456853D01*
X249094Y456850D01*
X250252Y456964D01*
X250328Y456987D01*
X250407Y456994D01*
X251520Y457332D01*
X251589Y457369D01*
X251665Y457392D01*
X252691Y457941D01*
X252752Y457991D01*
X252822Y458028D01*
X253721Y458766D01*
X253771Y458827D01*
X253832Y458877D01*
X254570Y459777D01*
X254608Y459846D01*
X254658Y459907D01*
X255206Y460933D01*
X255229Y461009D01*
X255266Y461079D01*
X255604Y462192D01*
X255612Y462271D01*
X255635Y462346D01*
X255749Y463504D01*
X255741Y463583D01*
X255749Y463661D01*
X255635Y464819D01*
X255612Y464895D01*
X255604Y464973D01*
X255266Y466087D01*
X255229Y466156D01*
X255206Y466232D01*
X254658Y467258D01*
X254608Y467319D01*
X254570Y467389D01*
X253832Y468288D01*
X253771Y468338D01*
X253721Y468399D01*
X252822Y469137D01*
X252752Y469174D01*
X252691Y469225D01*
X251665Y469773D01*
X251589Y469796D01*
X251520Y469833D01*
X250407Y470171D01*
X250328Y470179D01*
X250252Y470202D01*
X249094Y470316D01*
X249055Y470312D01*
X249016Y470320D01*
D02*
G37*
G36*
X221417D02*
X221378Y470312D01*
X221339Y470316D01*
X220181Y470202D01*
X220105Y470179D01*
X220027Y470171D01*
X218913Y469833D01*
X218844Y469796D01*
X218768Y469773D01*
X217742Y469225D01*
X217681Y469175D01*
X217611Y469137D01*
X216712Y468399D01*
X216662Y468338D01*
X216601Y468288D01*
X215863Y467389D01*
X215826Y467319D01*
X215775Y467258D01*
X215227Y466232D01*
X215204Y466156D01*
X215167Y466087D01*
X214829Y464973D01*
X214821Y464895D01*
X214798Y464819D01*
X214684Y463661D01*
X214692Y463583D01*
X214684Y463504D01*
X214798Y462346D01*
X214821Y462271D01*
X214829Y462192D01*
X215167Y461079D01*
X215204Y461009D01*
X215227Y460933D01*
X215775Y459907D01*
X215825Y459846D01*
X215863Y459777D01*
X216601Y458877D01*
X216662Y458827D01*
X216712Y458766D01*
X217611Y458028D01*
X217681Y457991D01*
X217742Y457941D01*
X218768Y457392D01*
X218844Y457369D01*
X218913Y457332D01*
X220027Y456994D01*
X220105Y456987D01*
X220181Y456964D01*
X221339Y456850D01*
X221378Y456853D01*
X221417Y456846D01*
X221456Y456853D01*
X221496Y456850D01*
X222654Y456964D01*
X222729Y456987D01*
X222808Y456994D01*
X223921Y457332D01*
X223991Y457369D01*
X224067Y457392D01*
X225093Y457941D01*
X225154Y457991D01*
X225223Y458028D01*
X226123Y458766D01*
X226173Y458827D01*
X226234Y458877D01*
X226972Y459777D01*
X227009Y459846D01*
X227059Y459907D01*
X227608Y460933D01*
X227631Y461009D01*
X227668Y461079D01*
X228006Y462192D01*
X228013Y462271D01*
X228036Y462346D01*
X228150Y463504D01*
X228143Y463583D01*
X228150Y463661D01*
X228036Y464819D01*
X228013Y464895D01*
X228006Y464973D01*
X227668Y466087D01*
X227631Y466156D01*
X227608Y466232D01*
X227059Y467258D01*
X227009Y467319D01*
X226972Y467389D01*
X226234Y468288D01*
X226173Y468338D01*
X226123Y468399D01*
X225223Y469137D01*
X225154Y469174D01*
X225093Y469225D01*
X224067Y469773D01*
X223991Y469796D01*
X223921Y469833D01*
X222808Y470171D01*
X222729Y470179D01*
X222654Y470202D01*
X221496Y470316D01*
X221456Y470312D01*
X221417Y470320D01*
D02*
G37*
G36*
X154528D02*
X154489Y470312D01*
X154449Y470316D01*
X153291Y470202D01*
X153216Y470179D01*
X153137Y470171D01*
X152024Y469833D01*
X151954Y469796D01*
X151878Y469773D01*
X150852Y469225D01*
X150791Y469175D01*
X150722Y469137D01*
X149822Y468399D01*
X149772Y468338D01*
X149711Y468288D01*
X148973Y467389D01*
X148936Y467319D01*
X148886Y467258D01*
X148337Y466232D01*
X148314Y466156D01*
X148277Y466087D01*
X147939Y464973D01*
X147932Y464895D01*
X147908Y464819D01*
X147794Y463661D01*
X147802Y463583D01*
X147794Y463504D01*
X147908Y462346D01*
X147932Y462271D01*
X147939Y462192D01*
X148277Y461079D01*
X148314Y461009D01*
X148337Y460933D01*
X148886Y459907D01*
X148936Y459846D01*
X148973Y459777D01*
X149711Y458877D01*
X149772Y458827D01*
X149822Y458766D01*
X150722Y458028D01*
X150791Y457991D01*
X150852Y457941D01*
X151878Y457392D01*
X151954Y457369D01*
X152024Y457332D01*
X153137Y456994D01*
X153216Y456987D01*
X153291Y456964D01*
X154449Y456850D01*
X154489Y456853D01*
X154528Y456846D01*
X154567Y456853D01*
X154606Y456850D01*
X155764Y456964D01*
X155840Y456987D01*
X155918Y456994D01*
X157032Y457332D01*
X157101Y457369D01*
X157177Y457392D01*
X158203Y457941D01*
X158264Y457991D01*
X158334Y458028D01*
X159233Y458766D01*
X159283Y458827D01*
X159344Y458877D01*
X160082Y459777D01*
X160119Y459846D01*
X160170Y459907D01*
X160718Y460933D01*
X160741Y461009D01*
X160778Y461079D01*
X161116Y462192D01*
X161124Y462271D01*
X161147Y462346D01*
X161261Y463504D01*
X161253Y463583D01*
X161261Y463661D01*
X161147Y464819D01*
X161124Y464895D01*
X161116Y464973D01*
X160778Y466087D01*
X160741Y466156D01*
X160718Y466232D01*
X160170Y467258D01*
X160119Y467319D01*
X160082Y467389D01*
X159344Y468288D01*
X159283Y468338D01*
X159233Y468399D01*
X158334Y469137D01*
X158264Y469174D01*
X158203Y469225D01*
X157177Y469773D01*
X157101Y469796D01*
X157032Y469833D01*
X155918Y470171D01*
X155840Y470179D01*
X155764Y470202D01*
X154606Y470316D01*
X154567Y470312D01*
X154528Y470320D01*
D02*
G37*
G36*
X315905D02*
X315866Y470312D01*
X315827Y470316D01*
X314669Y470202D01*
X314594Y470179D01*
X314515Y470171D01*
X313402Y469833D01*
X313332Y469796D01*
X313256Y469773D01*
X312230Y469225D01*
X312169Y469175D01*
X312099Y469137D01*
X311200Y468399D01*
X311150Y468338D01*
X311089Y468288D01*
X310351Y467389D01*
X310314Y467319D01*
X310263Y467258D01*
X309715Y466232D01*
X309692Y466156D01*
X309655Y466087D01*
X309317Y464973D01*
X309310Y464895D01*
X309286Y464819D01*
X309173Y463661D01*
X309180Y463583D01*
X309173Y463504D01*
X309286Y462346D01*
X309310Y462271D01*
X309317Y462192D01*
X309655Y461079D01*
X309692Y461009D01*
X309715Y460933D01*
X310263Y459907D01*
X310314Y459846D01*
X310351Y459777D01*
X311089Y458877D01*
X311150Y458827D01*
X311200Y458766D01*
X312099Y458028D01*
X312169Y457991D01*
X312230Y457941D01*
X313256Y457392D01*
X313332Y457369D01*
X313402Y457332D01*
X314515Y456994D01*
X314594Y456987D01*
X314669Y456964D01*
X315827Y456850D01*
X315866Y456853D01*
X315905Y456846D01*
X315945Y456853D01*
X315984Y456850D01*
X317142Y456964D01*
X317217Y456987D01*
X317296Y456994D01*
X318409Y457332D01*
X318479Y457369D01*
X318555Y457392D01*
X319581Y457941D01*
X319642Y457991D01*
X319712Y458028D01*
X320611Y458766D01*
X320661Y458827D01*
X320722Y458877D01*
X321460Y459777D01*
X321497Y459846D01*
X321548Y459907D01*
X322096Y460933D01*
X322119Y461009D01*
X322156Y461079D01*
X322494Y462192D01*
X322502Y462271D01*
X322524Y462346D01*
X322639Y463504D01*
X322631Y463583D01*
X322639Y463661D01*
X322524Y464819D01*
X322502Y464895D01*
X322494Y464973D01*
X322156Y466087D01*
X322119Y466156D01*
X322096Y466232D01*
X321548Y467258D01*
X321497Y467319D01*
X321460Y467389D01*
X320722Y468288D01*
X320661Y468338D01*
X320611Y468399D01*
X319712Y469137D01*
X319642Y469174D01*
X319581Y469225D01*
X318555Y469773D01*
X318479Y469796D01*
X318409Y469833D01*
X317296Y470171D01*
X317217Y470179D01*
X317142Y470202D01*
X315984Y470316D01*
X315945Y470312D01*
X315905Y470320D01*
D02*
G37*
G36*
X173228Y482844D02*
X171738Y482648D01*
X170349Y482073D01*
X169157Y481158D01*
X168242Y479966D01*
X167667Y478577D01*
X167470Y477087D01*
X167667Y475596D01*
X168242Y474208D01*
X169157Y473015D01*
X170349Y472100D01*
X171738Y471525D01*
X173228Y471329D01*
X174719Y471525D01*
X176107Y472100D01*
X177300Y473015D01*
X178215Y474208D01*
X178790Y475596D01*
X178986Y477087D01*
X178790Y478577D01*
X178215Y479966D01*
X177300Y481158D01*
X176107Y482073D01*
X174719Y482648D01*
X173228Y482844D01*
D02*
G37*
G36*
X406457Y470320D02*
X406418Y470312D01*
X406378Y470316D01*
X405220Y470202D01*
X405145Y470179D01*
X405066Y470171D01*
X403953Y469833D01*
X403883Y469796D01*
X403807Y469773D01*
X402781Y469225D01*
X402720Y469175D01*
X402651Y469137D01*
X401751Y468399D01*
X401701Y468338D01*
X401640Y468288D01*
X400902Y467389D01*
X400865Y467319D01*
X400815Y467258D01*
X400266Y466232D01*
X400243Y466156D01*
X400206Y466087D01*
X399868Y464973D01*
X399861Y464895D01*
X399838Y464819D01*
X399724Y463661D01*
X399731Y463583D01*
X399724Y463504D01*
X399838Y462346D01*
X399861Y462271D01*
X399868Y462192D01*
X400206Y461079D01*
X400243Y461009D01*
X400266Y460933D01*
X400815Y459907D01*
X400865Y459846D01*
X400902Y459777D01*
X401640Y458877D01*
X401701Y458827D01*
X401751Y458766D01*
X402651Y458028D01*
X402720Y457991D01*
X402781Y457941D01*
X403807Y457392D01*
X403883Y457369D01*
X403953Y457332D01*
X405066Y456994D01*
X405145Y456987D01*
X405220Y456964D01*
X406378Y456850D01*
X406418Y456853D01*
X406457Y456846D01*
X406496Y456853D01*
X406535Y456850D01*
X407693Y456964D01*
X407769Y456987D01*
X407847Y456994D01*
X408961Y457332D01*
X409030Y457369D01*
X409106Y457392D01*
X410132Y457941D01*
X410193Y457991D01*
X410263Y458028D01*
X411162Y458766D01*
X411212Y458827D01*
X411273Y458877D01*
X412011Y459777D01*
X412049Y459846D01*
X412099Y459907D01*
X412647Y460933D01*
X412670Y461009D01*
X412707Y461079D01*
X413045Y462192D01*
X413053Y462271D01*
X413076Y462346D01*
X413190Y463504D01*
X413182Y463583D01*
X413190Y463661D01*
X413076Y464819D01*
X413053Y464895D01*
X413045Y464973D01*
X412707Y466087D01*
X412670Y466156D01*
X412647Y466232D01*
X412099Y467258D01*
X412049Y467319D01*
X412011Y467389D01*
X411273Y468288D01*
X411212Y468338D01*
X411162Y468399D01*
X410263Y469137D01*
X410193Y469174D01*
X410132Y469225D01*
X409106Y469773D01*
X409030Y469796D01*
X408961Y469833D01*
X407847Y470171D01*
X407769Y470179D01*
X407693Y470202D01*
X406535Y470316D01*
X406496Y470312D01*
X406457Y470320D01*
D02*
G37*
G36*
X339567D02*
X339528Y470312D01*
X339488Y470316D01*
X338331Y470202D01*
X338255Y470179D01*
X338176Y470171D01*
X337063Y469833D01*
X336993Y469796D01*
X336918Y469773D01*
X335892Y469225D01*
X335831Y469175D01*
X335761Y469137D01*
X334862Y468399D01*
X334811Y468338D01*
X334750Y468288D01*
X334012Y467389D01*
X333975Y467319D01*
X333925Y467258D01*
X333377Y466232D01*
X333354Y466156D01*
X333316Y466087D01*
X332979Y464973D01*
X332971Y464895D01*
X332948Y464819D01*
X332834Y463661D01*
X332842Y463583D01*
X332834Y463504D01*
X332948Y462346D01*
X332971Y462271D01*
X332979Y462192D01*
X333316Y461079D01*
X333354Y461009D01*
X333377Y460933D01*
X333925Y459907D01*
X333975Y459846D01*
X334012Y459777D01*
X334750Y458877D01*
X334811Y458827D01*
X334862Y458766D01*
X335761Y458028D01*
X335830Y457991D01*
X335892Y457941D01*
X336918Y457392D01*
X336993Y457369D01*
X337063Y457332D01*
X338176Y456994D01*
X338255Y456987D01*
X338331Y456964D01*
X339488Y456850D01*
X339528Y456853D01*
X339567Y456846D01*
X339606Y456853D01*
X339646Y456850D01*
X340803Y456964D01*
X340879Y456987D01*
X340958Y456994D01*
X342071Y457332D01*
X342141Y457369D01*
X342216Y457392D01*
X343242Y457941D01*
X343303Y457991D01*
X343373Y458028D01*
X344272Y458766D01*
X344322Y458827D01*
X344384Y458877D01*
X345122Y459777D01*
X345159Y459846D01*
X345209Y459907D01*
X345757Y460933D01*
X345780Y461009D01*
X345818Y461079D01*
X346155Y462192D01*
X346163Y462271D01*
X346186Y462346D01*
X346300Y463504D01*
X346292Y463583D01*
X346300Y463661D01*
X346186Y464819D01*
X346163Y464895D01*
X346155Y464973D01*
X345818Y466087D01*
X345780Y466156D01*
X345757Y466232D01*
X345209Y467258D01*
X345159Y467319D01*
X345122Y467389D01*
X344384Y468288D01*
X344322Y468338D01*
X344272Y468399D01*
X343373Y469137D01*
X343303Y469174D01*
X343242Y469225D01*
X342216Y469773D01*
X342141Y469796D01*
X342071Y469833D01*
X340958Y470171D01*
X340879Y470179D01*
X340803Y470202D01*
X339646Y470316D01*
X339606Y470312D01*
X339567Y470320D01*
D02*
G37*
G36*
X518858Y410583D02*
X517882Y410455D01*
X516972Y410078D01*
X516191Y409479D01*
X515591Y408697D01*
X515214Y407787D01*
X515086Y406811D01*
X515214Y405835D01*
X515591Y404925D01*
X516191Y404143D01*
X516972Y403544D01*
X517366Y403381D01*
Y402840D01*
X516972Y402676D01*
X516191Y402077D01*
X515591Y401296D01*
X515214Y400386D01*
X515086Y399410D01*
X515214Y398433D01*
X515591Y397523D01*
X516191Y396742D01*
X516972Y396142D01*
X517882Y395766D01*
X518858Y395637D01*
X519835Y395766D01*
X520745Y396142D01*
X521526Y396742D01*
X522125Y397523D01*
X522502Y398433D01*
X522631Y399410D01*
X522502Y400386D01*
X522125Y401296D01*
X521526Y402077D01*
X520745Y402676D01*
X520351Y402840D01*
Y403381D01*
X520745Y403544D01*
X521526Y404143D01*
X522125Y404925D01*
X522502Y405835D01*
X522631Y406811D01*
X522502Y407787D01*
X522125Y408697D01*
X521526Y409479D01*
X520745Y410078D01*
X519835Y410455D01*
X518858Y410583D01*
D02*
G37*
G36*
X528858Y410544D02*
X527882Y410416D01*
X526972Y410039D01*
X526191Y409439D01*
X525591Y408658D01*
X525214Y407748D01*
X525086Y406772D01*
X525214Y405795D01*
X525591Y404885D01*
X526191Y404104D01*
X526972Y403505D01*
X527366Y403341D01*
Y402800D01*
X526972Y402637D01*
X526191Y402038D01*
X525591Y401256D01*
X525214Y400347D01*
X525086Y399370D01*
X525214Y398394D01*
X525591Y397484D01*
X526191Y396703D01*
X526972Y396103D01*
X527882Y395726D01*
X528858Y395598D01*
X529835Y395726D01*
X530745Y396103D01*
X531526Y396703D01*
X532125Y397484D01*
X532502Y398394D01*
X532631Y399370D01*
X532502Y400347D01*
X532125Y401256D01*
X531526Y402038D01*
X530745Y402637D01*
X530350Y402800D01*
Y403341D01*
X530745Y403505D01*
X531526Y404104D01*
X532125Y404885D01*
X532502Y405795D01*
X532631Y406772D01*
X532502Y407748D01*
X532125Y408658D01*
X531526Y409439D01*
X530745Y410039D01*
X529835Y410416D01*
X528858Y410544D01*
D02*
G37*
G36*
X309842Y403064D02*
X308866Y402935D01*
X307956Y402558D01*
X307175Y401959D01*
X306575Y401178D01*
X306199Y400268D01*
X306070Y399291D01*
X306199Y398315D01*
X306575Y397405D01*
X307175Y396624D01*
X307956Y396024D01*
X308866Y395648D01*
X309842Y395519D01*
X310819Y395648D01*
X311729Y396024D01*
X312510Y396624D01*
X313109Y397405D01*
X313486Y398315D01*
X313615Y399291D01*
X313486Y400268D01*
X313109Y401178D01*
X312510Y401959D01*
X311729Y402558D01*
X310819Y402935D01*
X309842Y403064D01*
D02*
G37*
G36*
X508858Y410623D02*
X507882Y410494D01*
X506972Y410117D01*
X506191Y409518D01*
X505591Y408737D01*
X505214Y407827D01*
X505086Y406850D01*
X505214Y405874D01*
X505591Y404964D01*
X506191Y404183D01*
X506972Y403583D01*
X507366Y403420D01*
Y402879D01*
X506972Y402716D01*
X506191Y402116D01*
X505591Y401335D01*
X505214Y400425D01*
X505086Y399449D01*
X505214Y398472D01*
X505591Y397563D01*
X506191Y396781D01*
X506972Y396182D01*
X507882Y395805D01*
X508858Y395676D01*
X509835Y395805D01*
X510744Y396182D01*
X511526Y396781D01*
X512125Y397563D01*
X512502Y398472D01*
X512631Y399449D01*
X512502Y400425D01*
X512125Y401335D01*
X511526Y402116D01*
X510744Y402716D01*
X510351Y402879D01*
Y403420D01*
X510744Y403583D01*
X511526Y404183D01*
X512125Y404964D01*
X512502Y405874D01*
X512631Y406850D01*
X512502Y407827D01*
X512125Y408737D01*
X511526Y409518D01*
X510744Y410117D01*
X509835Y410494D01*
X508858Y410623D01*
D02*
G37*
G36*
X164331Y110072D02*
X163354Y109943D01*
X162444Y109566D01*
X161663Y108967D01*
X161064Y108185D01*
X160687Y107276D01*
X160558Y106299D01*
X160687Y105323D01*
X161064Y104413D01*
X161663Y103632D01*
X162444Y103032D01*
X163354Y102655D01*
X164331Y102527D01*
X165307Y102655D01*
X166217Y103032D01*
X166998Y103632D01*
X167598Y104413D01*
X167975Y105323D01*
X168103Y106299D01*
X167975Y107276D01*
X167598Y108185D01*
X166998Y108967D01*
X166217Y109566D01*
X165307Y109943D01*
X164331Y110072D01*
D02*
G37*
G36*
X274331D02*
X273354Y109943D01*
X272445Y109566D01*
X271663Y108967D01*
X271064Y108185D01*
X270687Y107276D01*
X270558Y106299D01*
X270687Y105323D01*
X271064Y104413D01*
X271663Y103632D01*
X272445Y103032D01*
X273354Y102655D01*
X274331Y102527D01*
X275307Y102655D01*
X276217Y103032D01*
X276998Y103632D01*
X277598Y104413D01*
X277975Y105323D01*
X278103Y106299D01*
X277975Y107276D01*
X277598Y108185D01*
X276998Y108967D01*
X276217Y109566D01*
X275307Y109943D01*
X274331Y110072D01*
D02*
G37*
G36*
X415551Y134661D02*
X411221D01*
X410913Y134600D01*
X410653Y134426D01*
X410479Y134166D01*
X410418Y133858D01*
Y122047D01*
X410479Y121740D01*
X410653Y121479D01*
X410913Y121306D01*
X411221Y121244D01*
X412575D01*
Y111685D01*
X412284Y111249D01*
X412161Y110630D01*
X412284Y110011D01*
X412635Y109485D01*
X413160Y109135D01*
X413779Y109011D01*
X414399Y109135D01*
X414924Y109485D01*
X415275Y110011D01*
X415398Y110630D01*
X415275Y111249D01*
X414984Y111685D01*
Y121244D01*
X415551D01*
X415858Y121306D01*
X416119Y121479D01*
X416293Y121740D01*
X416354Y122047D01*
Y133858D01*
X416293Y134166D01*
X416119Y134426D01*
X415858Y134600D01*
X415551Y134661D01*
D02*
G37*
G36*
X374016Y399256D02*
X373396Y399133D01*
X372871Y398782D01*
X372520Y398257D01*
X372397Y397638D01*
X372520Y397018D01*
X372246Y396529D01*
X372084Y396420D01*
X371733Y395895D01*
X371610Y395276D01*
X371733Y394656D01*
X372022Y394224D01*
X372058Y393898D01*
X372022Y393571D01*
X371733Y393139D01*
X371610Y392520D01*
X371733Y391900D01*
X372084Y391375D01*
X372609Y391024D01*
X373228Y390901D01*
X373848Y391024D01*
X374373Y391375D01*
X374724Y391900D01*
X374847Y392520D01*
X374724Y393139D01*
X374435Y393571D01*
X374399Y393898D01*
X374435Y394224D01*
X374724Y394656D01*
X374847Y395276D01*
X374724Y395895D01*
X374998Y396385D01*
X375160Y396493D01*
X375511Y397018D01*
X375634Y397638D01*
X375511Y398257D01*
X375160Y398782D01*
X374635Y399133D01*
X374016Y399256D01*
D02*
G37*
G36*
X358268Y394138D02*
X357648Y394015D01*
X357123Y393664D01*
X356772Y393139D01*
X356649Y392520D01*
X356772Y391900D01*
X357123Y391375D01*
X357648Y391024D01*
X358268Y390901D01*
X358887Y391024D01*
X359412Y391375D01*
X359763Y391900D01*
X359886Y392520D01*
X359763Y393139D01*
X359412Y393664D01*
X358887Y394015D01*
X358268Y394138D01*
D02*
G37*
G36*
X338583Y441748D02*
X326772D01*
X326464Y441687D01*
X326204Y441513D01*
X326030Y441252D01*
X325969Y440945D01*
Y330709D01*
X326030Y330401D01*
X326204Y330141D01*
X326464Y329967D01*
X326772Y329906D01*
X346457D01*
X346764Y329967D01*
X347024Y330141D01*
X347198Y330401D01*
X347259Y330709D01*
Y385827D01*
X347198Y386134D01*
X347024Y386395D01*
X346764Y386568D01*
X346457Y386630D01*
X331511D01*
Y388996D01*
X332012Y389381D01*
X332283Y389326D01*
X332903Y389450D01*
X333428Y389800D01*
X333779Y390325D01*
X333902Y390945D01*
X333779Y391564D01*
X333672Y391724D01*
X333448Y392126D01*
X333672Y392528D01*
X333779Y392688D01*
X333902Y393307D01*
X334212Y393685D01*
X338622D01*
X338933Y393307D01*
X339056Y392688D01*
X339163Y392528D01*
X339386Y392126D01*
X339163Y391724D01*
X339056Y391564D01*
X338933Y390945D01*
X339056Y390325D01*
X339407Y389800D01*
X339932Y389450D01*
X340551Y389326D01*
X341171Y389450D01*
X341696Y389800D01*
X342046Y390325D01*
X342170Y390945D01*
X342046Y391564D01*
X341940Y391724D01*
X341716Y392126D01*
X341940Y392528D01*
X342046Y392688D01*
X342170Y393307D01*
X342480Y393685D01*
X355906D01*
X356213Y393746D01*
X356473Y393920D01*
X356647Y394181D01*
X356708Y394488D01*
Y403937D01*
X356647Y404244D01*
X356473Y404505D01*
X356213Y404679D01*
X355906Y404740D01*
X342141D01*
Y417323D01*
X342080Y417630D01*
X341906Y417891D01*
X341646Y418064D01*
X341339Y418126D01*
X339386D01*
Y440945D01*
X339324Y441252D01*
X339150Y441513D01*
X338890Y441687D01*
X338583Y441748D01*
D02*
G37*
G36*
X399803Y134661D02*
X395472D01*
X395165Y134600D01*
X394905Y134426D01*
X394731Y134166D01*
X394670Y133858D01*
Y122047D01*
X394731Y121740D01*
X394905Y121479D01*
X395165Y121306D01*
X395472Y121244D01*
X395660D01*
X395851Y120782D01*
X395170Y120101D01*
X394656Y119999D01*
X394131Y119648D01*
X393780Y119123D01*
X393657Y118504D01*
X393780Y117885D01*
X394131Y117359D01*
X394656Y117009D01*
X395276Y116885D01*
X395895Y117009D01*
X396420Y117359D01*
X396771Y117885D01*
X396873Y118398D01*
X398489Y120015D01*
X398489Y120015D01*
X398750Y120405D01*
X398842Y120866D01*
X399145Y121244D01*
X399803D01*
X400110Y121306D01*
X400371Y121479D01*
X400545Y121740D01*
X400606Y122047D01*
Y133858D01*
X400545Y134166D01*
X400371Y134426D01*
X400110Y134600D01*
X399803Y134661D01*
D02*
G37*
G36*
X299843Y403064D02*
X298866Y402935D01*
X297956Y402558D01*
X297175Y401959D01*
X296575Y401178D01*
X296199Y400268D01*
X296070Y399291D01*
X296199Y398315D01*
X296575Y397405D01*
X297175Y396624D01*
X297956Y396024D01*
X298866Y395648D01*
X299843Y395519D01*
X300819Y395648D01*
X301729Y396024D01*
X302510Y396624D01*
X303110Y397405D01*
X303486Y398315D01*
X303615Y399291D01*
X303486Y400268D01*
X303110Y401178D01*
X302510Y401959D01*
X301729Y402558D01*
X300819Y402935D01*
X299843Y403064D01*
D02*
G37*
G36*
X174331Y120072D02*
X173354Y119943D01*
X172444Y119566D01*
X171663Y118967D01*
X171064Y118185D01*
X170687Y117276D01*
X170558Y116299D01*
X170687Y115323D01*
X171064Y114413D01*
X171663Y113632D01*
X172444Y113032D01*
X173354Y112655D01*
X174331Y112527D01*
X175307Y112655D01*
X176217Y113032D01*
X176998Y113632D01*
X177598Y114413D01*
X177975Y115323D01*
X178103Y116299D01*
X177975Y117276D01*
X177598Y118185D01*
X176998Y118967D01*
X176217Y119566D01*
X175307Y119943D01*
X174331Y120072D01*
D02*
G37*
G36*
X407677Y134661D02*
X403346D01*
X403039Y134600D01*
X402779Y134426D01*
X402605Y134166D01*
X402544Y133858D01*
Y122047D01*
X402605Y121740D01*
X402779Y121479D01*
X403039Y121306D01*
X403346Y121244D01*
X404308D01*
Y116640D01*
X403438Y115771D01*
X402924Y115668D01*
X402399Y115318D01*
X402048Y114793D01*
X401925Y114173D01*
X402048Y113554D01*
X402399Y113029D01*
X402924Y112678D01*
X403543Y112555D01*
X404163Y112678D01*
X404688Y113029D01*
X405039Y113554D01*
X405141Y114068D01*
X406363Y115290D01*
X406363Y115290D01*
X406624Y115681D01*
X406716Y116142D01*
X406716Y116142D01*
Y121244D01*
X407677D01*
X407984Y121306D01*
X408245Y121479D01*
X408419Y121740D01*
X408480Y122047D01*
Y133858D01*
X408419Y134166D01*
X408245Y134426D01*
X407984Y134600D01*
X407677Y134661D01*
D02*
G37*
G36*
X309842Y413064D02*
X308866Y412935D01*
X307956Y412558D01*
X307175Y411959D01*
X306575Y411177D01*
X306199Y410268D01*
X306070Y409291D01*
X306199Y408315D01*
X306575Y407405D01*
X307175Y406624D01*
X307956Y406024D01*
X308866Y405648D01*
X309842Y405519D01*
X310819Y405648D01*
X311729Y406024D01*
X312510Y406624D01*
X313109Y407405D01*
X313486Y408315D01*
X313615Y409291D01*
X313486Y410268D01*
X313109Y411177D01*
X312510Y411959D01*
X311729Y412558D01*
X310819Y412935D01*
X309842Y413064D01*
D02*
G37*
G36*
X299843D02*
X298866Y412935D01*
X297956Y412558D01*
X297175Y411959D01*
X296575Y411177D01*
X296199Y410268D01*
X296070Y409291D01*
X296199Y408315D01*
X296575Y407405D01*
X297175Y406624D01*
X297956Y406024D01*
X298866Y405648D01*
X299843Y405519D01*
X300819Y405648D01*
X301729Y406024D01*
X302510Y406624D01*
X303110Y407405D01*
X303486Y408315D01*
X303615Y409291D01*
X303486Y410268D01*
X303110Y411177D01*
X302510Y411959D01*
X301729Y412558D01*
X300819Y412935D01*
X299843Y413064D01*
D02*
G37*
G36*
X528858Y430229D02*
X527882Y430101D01*
X526972Y429724D01*
X526191Y429124D01*
X525591Y428343D01*
X525214Y427433D01*
X525086Y426457D01*
X525214Y425480D01*
X525591Y424571D01*
X526191Y423789D01*
X526972Y423190D01*
X527366Y423027D01*
Y422485D01*
X526972Y422322D01*
X526191Y421723D01*
X525591Y420941D01*
X525214Y420031D01*
X525086Y419055D01*
X525214Y418079D01*
X525591Y417169D01*
X526191Y416388D01*
X526972Y415788D01*
X527882Y415411D01*
X528858Y415283D01*
X529835Y415411D01*
X530745Y415788D01*
X531526Y416388D01*
X532125Y417169D01*
X532502Y418079D01*
X532631Y419055D01*
X532502Y420031D01*
X532125Y420941D01*
X531526Y421723D01*
X530745Y422322D01*
X530350Y422485D01*
Y423027D01*
X530745Y423190D01*
X531526Y423789D01*
X532125Y424571D01*
X532502Y425480D01*
X532631Y426457D01*
X532502Y427433D01*
X532125Y428343D01*
X531526Y429124D01*
X530745Y429724D01*
X529835Y430101D01*
X528858Y430229D01*
D02*
G37*
G36*
X345669Y410674D02*
X345050Y410550D01*
X344525Y410200D01*
X344174Y409675D01*
X344051Y409055D01*
X344174Y408436D01*
X344525Y407911D01*
X345050Y407560D01*
X345669Y407437D01*
X346289Y407560D01*
X346814Y407911D01*
X347165Y408436D01*
X347288Y409055D01*
X347165Y409675D01*
X346814Y410200D01*
X346289Y410550D01*
X345669Y410674D01*
D02*
G37*
G36*
X362205Y409099D02*
X361585Y408976D01*
X361060Y408625D01*
X360709Y408100D01*
X360586Y407480D01*
X360709Y406861D01*
X361060Y406336D01*
X361585Y405985D01*
X362205Y405862D01*
X362824Y405985D01*
X363349Y406336D01*
X363700Y406861D01*
X363823Y407480D01*
X363700Y408100D01*
X363349Y408625D01*
X362824Y408976D01*
X362205Y409099D01*
D02*
G37*
G36*
X166929Y196894D02*
X166310Y196771D01*
X165785Y196420D01*
X165434Y195895D01*
X165332Y195381D01*
X157810Y187859D01*
X157549Y187469D01*
X157457Y187008D01*
X157457Y187008D01*
Y103417D01*
X157166Y102982D01*
X157043Y102362D01*
X157166Y101743D01*
X157517Y101218D01*
X158042Y100867D01*
X158661Y100744D01*
X159281Y100867D01*
X159806Y101218D01*
X160157Y101743D01*
X160280Y102362D01*
X160157Y102982D01*
X159866Y103417D01*
Y186509D01*
X167035Y193678D01*
X167549Y193780D01*
X168074Y194131D01*
X168424Y194656D01*
X168548Y195276D01*
X168424Y195895D01*
X168074Y196420D01*
X167549Y196771D01*
X166929Y196894D01*
D02*
G37*
G36*
X391929Y117535D02*
X384842D01*
X384535Y117474D01*
X384275Y117300D01*
X384101Y117040D01*
X384040Y116732D01*
Y102165D01*
X384101Y101858D01*
X384275Y101598D01*
X384535Y101424D01*
X384842Y101363D01*
X391929D01*
X392236Y101424D01*
X392497Y101598D01*
X392671Y101858D01*
X392732Y102165D01*
Y116732D01*
X392671Y117040D01*
X392497Y117300D01*
X392236Y117474D01*
X391929Y117535D01*
D02*
G37*
G36*
X434055D02*
X426968D01*
X426661Y117474D01*
X426401Y117300D01*
X426227Y117040D01*
X426166Y116732D01*
Y102165D01*
X426227Y101858D01*
X426401Y101598D01*
X426661Y101424D01*
X426968Y101363D01*
X434055D01*
X434362Y101424D01*
X434623Y101598D01*
X434797Y101858D01*
X434858Y102165D01*
Y116732D01*
X434797Y117040D01*
X434623Y117300D01*
X434362Y117474D01*
X434055Y117535D01*
D02*
G37*
G36*
X528858Y449914D02*
X527882Y449786D01*
X526972Y449409D01*
X526191Y448809D01*
X525591Y448028D01*
X525214Y447118D01*
X525086Y446142D01*
X525214Y445165D01*
X525591Y444255D01*
X526191Y443474D01*
X526972Y442875D01*
X527366Y442711D01*
Y442170D01*
X526972Y442007D01*
X526191Y441408D01*
X525591Y440626D01*
X525214Y439716D01*
X525086Y438740D01*
X525214Y437764D01*
X525591Y436854D01*
X526191Y436073D01*
X526972Y435473D01*
X527882Y435096D01*
X528858Y434968D01*
X529835Y435096D01*
X530745Y435473D01*
X531526Y436073D01*
X532125Y436854D01*
X532408Y437536D01*
X533477D01*
X537378Y433635D01*
Y345774D01*
X534934Y343330D01*
X492475D01*
X492284Y343792D01*
X503607Y355116D01*
X503607Y355116D01*
X503868Y355506D01*
X503960Y355967D01*
X503960Y355967D01*
Y412730D01*
X507061Y415830D01*
X507882Y415490D01*
X508858Y415361D01*
X509835Y415490D01*
X510744Y415867D01*
X511526Y416466D01*
X512125Y417248D01*
X512502Y418157D01*
X512631Y419134D01*
X512502Y420110D01*
X512125Y421020D01*
X511526Y421801D01*
X510744Y422401D01*
X510351Y422564D01*
Y423105D01*
X510744Y423268D01*
X511526Y423868D01*
X512125Y424649D01*
X512502Y425559D01*
X512631Y426535D01*
X512502Y427512D01*
X512125Y428422D01*
X511526Y429203D01*
X510744Y429803D01*
X509835Y430179D01*
X508858Y430308D01*
X507882Y430179D01*
X506972Y429803D01*
X506191Y429203D01*
X505591Y428422D01*
X505214Y427512D01*
X505086Y426535D01*
X505214Y425559D01*
X505591Y424649D01*
X506191Y423868D01*
X506972Y423268D01*
X507366Y423105D01*
Y422564D01*
X506972Y422401D01*
X506191Y421801D01*
X505591Y421020D01*
X505214Y420110D01*
X505086Y419134D01*
X505214Y418157D01*
X505439Y417615D01*
X501904Y414080D01*
X501643Y413689D01*
X501552Y413228D01*
X501552Y413228D01*
Y356466D01*
X479660Y334575D01*
X479399Y334184D01*
X479308Y333723D01*
X479308Y333723D01*
Y202271D01*
X470605Y193568D01*
X470344Y193177D01*
X470252Y192717D01*
X470253Y192717D01*
Y151646D01*
X469961Y151210D01*
X469838Y150591D01*
X469961Y149971D01*
X470312Y149446D01*
X470837Y149095D01*
X471457Y148972D01*
X472076Y149095D01*
X472601Y149446D01*
X472952Y149971D01*
X473075Y150591D01*
X472952Y151210D01*
X472661Y151646D01*
Y153580D01*
X472925Y153699D01*
X473161Y153718D01*
X473710Y153002D01*
X474492Y152402D01*
X475402Y152025D01*
X476378Y151897D01*
X477354Y152025D01*
X478264Y152402D01*
X479045Y153002D01*
X479645Y153783D01*
X480022Y154693D01*
X480150Y155669D01*
X480022Y156646D01*
X479645Y157555D01*
X479045Y158337D01*
X478264Y158936D01*
X477354Y159313D01*
X476378Y159442D01*
X475402Y159313D01*
X474492Y158936D01*
X473710Y158337D01*
X473161Y157621D01*
X472925Y157640D01*
X472661Y157759D01*
Y163580D01*
X472925Y163699D01*
X473161Y163718D01*
X473710Y163002D01*
X474492Y162402D01*
X475402Y162025D01*
X476378Y161897D01*
X477354Y162025D01*
X478264Y162402D01*
X479045Y163002D01*
X479645Y163783D01*
X480022Y164693D01*
X480150Y165669D01*
X480022Y166646D01*
X479645Y167555D01*
X479045Y168337D01*
X478264Y168936D01*
X477354Y169313D01*
X476378Y169442D01*
X475402Y169313D01*
X474492Y168936D01*
X473710Y168337D01*
X473161Y167621D01*
X472925Y167640D01*
X472661Y167759D01*
Y173580D01*
X472925Y173699D01*
X473161Y173718D01*
X473710Y173002D01*
X474492Y172402D01*
X475402Y172025D01*
X476378Y171897D01*
X477354Y172025D01*
X478264Y172402D01*
X479045Y173002D01*
X479645Y173783D01*
X480022Y174693D01*
X480150Y175669D01*
X480022Y176646D01*
X479645Y177556D01*
X479045Y178337D01*
X478264Y178936D01*
X477354Y179313D01*
X476378Y179442D01*
X475402Y179313D01*
X474492Y178936D01*
X473710Y178337D01*
X473161Y177621D01*
X472925Y177640D01*
X472661Y177759D01*
Y183580D01*
X472925Y183699D01*
X473161Y183718D01*
X473710Y183002D01*
X474492Y182402D01*
X475402Y182025D01*
X476378Y181897D01*
X477354Y182025D01*
X478264Y182402D01*
X479045Y183002D01*
X479645Y183783D01*
X480022Y184693D01*
X480150Y185669D01*
X480022Y186646D01*
X479645Y187556D01*
X479045Y188337D01*
X478264Y188936D01*
X477354Y189313D01*
X476378Y189442D01*
X475402Y189313D01*
X474492Y188936D01*
X473710Y188337D01*
X473161Y187621D01*
X472925Y187640D01*
X472661Y187759D01*
Y192218D01*
X480420Y199977D01*
X480882Y199786D01*
Y140315D01*
X480680Y140275D01*
X480155Y139924D01*
X479804Y139399D01*
X479681Y138779D01*
X479804Y138160D01*
X480155Y137635D01*
X480680Y137284D01*
X481299Y137161D01*
X481919Y137284D01*
X482444Y137635D01*
X482795Y138160D01*
X482897Y138674D01*
X482938Y138715D01*
X483199Y139106D01*
X483291Y139567D01*
Y142805D01*
X483791Y142940D01*
X484492Y142402D01*
X485174Y142120D01*
Y127669D01*
X484883Y127234D01*
X484760Y126614D01*
X484883Y125995D01*
X485233Y125470D01*
X485759Y125119D01*
X486378Y124996D01*
X486997Y125119D01*
X487522Y125470D01*
X487873Y125995D01*
X487996Y126614D01*
X487873Y127234D01*
X487582Y127669D01*
Y142120D01*
X488264Y142402D01*
X489045Y143002D01*
X489645Y143783D01*
X490022Y144693D01*
X490150Y145669D01*
X490022Y146646D01*
X489645Y147555D01*
X489045Y148337D01*
X488264Y148936D01*
X487354Y149313D01*
X486378Y149442D01*
X485402Y149313D01*
X484492Y148936D01*
X483791Y148398D01*
X483291Y148534D01*
Y152805D01*
X483791Y152940D01*
X484492Y152402D01*
X485402Y152025D01*
X486378Y151897D01*
X487354Y152025D01*
X488264Y152402D01*
X489045Y153002D01*
X489645Y153783D01*
X490022Y154693D01*
X490150Y155669D01*
X490022Y156646D01*
X489645Y157555D01*
X489045Y158337D01*
X488264Y158936D01*
X487354Y159313D01*
X486378Y159442D01*
X485402Y159313D01*
X484492Y158936D01*
X483791Y158398D01*
X483291Y158534D01*
Y162805D01*
X483791Y162940D01*
X484492Y162402D01*
X485402Y162025D01*
X486378Y161897D01*
X487354Y162025D01*
X488264Y162402D01*
X489045Y163002D01*
X489645Y163783D01*
X490022Y164693D01*
X490150Y165669D01*
X490022Y166646D01*
X489645Y167555D01*
X489045Y168337D01*
X488264Y168936D01*
X487354Y169313D01*
X486378Y169442D01*
X485402Y169313D01*
X484492Y168936D01*
X483791Y168398D01*
X483291Y168534D01*
Y172805D01*
X483791Y172940D01*
X484492Y172402D01*
X485402Y172025D01*
X486378Y171897D01*
X487354Y172025D01*
X488264Y172402D01*
X489045Y173002D01*
X489645Y173783D01*
X490022Y174693D01*
X490150Y175669D01*
X490022Y176646D01*
X489645Y177556D01*
X489045Y178337D01*
X488264Y178936D01*
X487354Y179313D01*
X486378Y179442D01*
X485402Y179313D01*
X484492Y178936D01*
X483791Y178399D01*
X483291Y178534D01*
Y182805D01*
X483791Y182940D01*
X484492Y182402D01*
X485402Y182025D01*
X486378Y181897D01*
X487354Y182025D01*
X488264Y182402D01*
X489045Y183002D01*
X489645Y183783D01*
X490022Y184693D01*
X490150Y185669D01*
X490022Y186646D01*
X489645Y187556D01*
X489045Y188337D01*
X488264Y188936D01*
X487354Y189313D01*
X486378Y189442D01*
X485402Y189313D01*
X484492Y188936D01*
X483791Y188399D01*
X483291Y188534D01*
Y332572D01*
X491641Y340922D01*
X535433D01*
X535433Y340922D01*
X535894Y341013D01*
X536285Y341274D01*
X539434Y344424D01*
X539434Y344424D01*
X539695Y344815D01*
X539787Y345276D01*
X539787Y345276D01*
Y434134D01*
X539787Y434134D01*
X539695Y434595D01*
X539434Y434985D01*
X539434Y434985D01*
X534828Y439592D01*
X534437Y439853D01*
X533976Y439944D01*
X533976Y439944D01*
X532408D01*
X532125Y440626D01*
X531526Y441408D01*
X530745Y442007D01*
X530350Y442170D01*
Y442711D01*
X530745Y442875D01*
X531526Y443474D01*
X532125Y444255D01*
X532502Y445165D01*
X532631Y446142D01*
X532502Y447118D01*
X532125Y448028D01*
X531526Y448809D01*
X530745Y449409D01*
X529835Y449786D01*
X528858Y449914D01*
D02*
G37*
G36*
X299843Y423064D02*
X298866Y422935D01*
X297956Y422558D01*
X297175Y421959D01*
X296575Y421177D01*
X296199Y420268D01*
X296070Y419291D01*
X296199Y418315D01*
X296575Y417405D01*
X297175Y416624D01*
X297956Y416024D01*
X298866Y415648D01*
X299843Y415519D01*
X300819Y415648D01*
X301729Y416024D01*
X302510Y416624D01*
X303110Y417405D01*
X303486Y418315D01*
X303615Y419291D01*
X303486Y420268D01*
X303110Y421177D01*
X302510Y421959D01*
X301729Y422558D01*
X300819Y422935D01*
X299843Y423064D01*
D02*
G37*
G36*
X368898Y403587D02*
X368278Y403464D01*
X367753Y403113D01*
X367402Y402588D01*
X367279Y401968D01*
X367402Y401349D01*
X367753Y400824D01*
X368278Y400473D01*
X368898Y400350D01*
X369517Y400473D01*
X370042Y400824D01*
X370393Y401349D01*
X370516Y401968D01*
X370393Y402588D01*
X370042Y403113D01*
X369517Y403464D01*
X368898Y403587D01*
D02*
G37*
G36*
X373622D02*
X373003Y403464D01*
X372478Y403113D01*
X372127Y402588D01*
X372004Y401968D01*
X372127Y401349D01*
X372478Y400824D01*
X373003Y400473D01*
X373622Y400350D01*
X374241Y400473D01*
X374766Y400824D01*
X375117Y401349D01*
X375240Y401968D01*
X375117Y402588D01*
X374766Y403113D01*
X374241Y403464D01*
X373622Y403587D01*
D02*
G37*
G36*
X384252Y406737D02*
X383633Y406613D01*
X383107Y406263D01*
X382757Y405737D01*
X382633Y405118D01*
X382757Y404499D01*
X383107Y403974D01*
X383633Y403623D01*
X384252Y403500D01*
X384871Y403623D01*
X385396Y403974D01*
X385747Y404499D01*
X385871Y405118D01*
X385747Y405737D01*
X385396Y406263D01*
X384871Y406613D01*
X384252Y406737D01*
D02*
G37*
G36*
X518858Y430268D02*
X517882Y430140D01*
X516972Y429763D01*
X516191Y429164D01*
X515591Y428382D01*
X515214Y427472D01*
X515086Y426496D01*
X515214Y425520D01*
X515591Y424610D01*
X516191Y423829D01*
X516972Y423229D01*
X517366Y423066D01*
Y422525D01*
X516972Y422362D01*
X516191Y421762D01*
X515591Y420981D01*
X515214Y420071D01*
X515086Y419095D01*
X515214Y418118D01*
X515591Y417208D01*
X516191Y416427D01*
X516972Y415828D01*
X517882Y415451D01*
X518858Y415322D01*
X519835Y415451D01*
X520745Y415828D01*
X521526Y416427D01*
X522125Y417208D01*
X522502Y418118D01*
X522631Y419095D01*
X522502Y420071D01*
X522125Y420981D01*
X521526Y421762D01*
X520745Y422362D01*
X520351Y422525D01*
Y423066D01*
X520745Y423229D01*
X521526Y423829D01*
X522125Y424610D01*
X522502Y425520D01*
X522631Y426496D01*
X522502Y427472D01*
X522125Y428382D01*
X521526Y429164D01*
X520745Y429763D01*
X519835Y430140D01*
X518858Y430268D01*
D02*
G37*
%LPD*%
G36*
X305193Y146866D02*
X299114D01*
X298807Y146805D01*
X298653Y146702D01*
X298278Y146831D01*
X298153Y146923D01*
Y151996D01*
X298444Y152432D01*
X298567Y153051D01*
X298444Y153671D01*
X298153Y154106D01*
Y157958D01*
X298615Y158149D01*
X299977Y156788D01*
Y151547D01*
X299686Y151111D01*
X299563Y150492D01*
X299686Y149873D01*
X300037Y149348D01*
X300562Y148997D01*
X301181Y148874D01*
X301800Y148997D01*
X302326Y149348D01*
X302676Y149873D01*
X302800Y150492D01*
X302676Y151111D01*
X302385Y151547D01*
Y157480D01*
X302294Y157941D01*
X302033Y158332D01*
X301642Y158593D01*
X301562Y158609D01*
X300412Y159759D01*
X300603Y160221D01*
X305193D01*
Y146866D01*
D02*
G37*
G36*
X296097Y138263D02*
X297260Y137100D01*
Y119396D01*
X296760Y119149D01*
X296217Y119566D01*
X295535Y119849D01*
Y138204D01*
X296035Y138356D01*
X296097Y138263D01*
D02*
G37*
G36*
X299977Y189231D02*
Y170378D01*
X299444Y169845D01*
X299184Y169918D01*
X298946Y170054D01*
X298838Y170600D01*
X298487Y171125D01*
X297962Y171476D01*
X297342Y171599D01*
X296723Y171476D01*
X296198Y171125D01*
X296035Y170881D01*
X295535Y171032D01*
Y186996D01*
X295787Y187373D01*
X295910Y187992D01*
X295787Y188611D01*
X295493Y189051D01*
X295589Y189365D01*
X295714Y189551D01*
X299409D01*
X299477Y189565D01*
X299977Y189231D01*
D02*
G37*
G36*
X303088Y199545D02*
X303613Y199194D01*
X304127Y199091D01*
X305193Y198025D01*
Y187410D01*
X304693Y187258D01*
X304688Y187267D01*
X304163Y187617D01*
X303543Y187741D01*
X302924Y187617D01*
X302885Y187592D01*
X302385Y187859D01*
Y199696D01*
X302885Y199848D01*
X303088Y199545D01*
D02*
G37*
G36*
X415391Y221297D02*
X415916Y220946D01*
X416430Y220843D01*
X421630Y215643D01*
Y203698D01*
X421246Y203539D01*
X420588Y203034D01*
X420084Y202376D01*
X419766Y201610D01*
X419658Y200787D01*
X419766Y199965D01*
X420084Y199199D01*
X420588Y198541D01*
X421246Y198036D01*
X422012Y197719D01*
X422835Y197611D01*
X423657Y197719D01*
X424041Y197878D01*
X425174Y196745D01*
Y179971D01*
X424674Y179724D01*
X424423Y179917D01*
X424039Y180076D01*
Y193307D01*
X424039Y193307D01*
X423947Y193768D01*
X423686Y194159D01*
X414590Y203255D01*
Y221664D01*
X414772Y221727D01*
X415090Y221747D01*
X415391Y221297D01*
D02*
G37*
G36*
X442103Y184541D02*
Y180076D01*
X441719Y179917D01*
X441061Y179412D01*
X440556Y178754D01*
X440334Y178218D01*
X439777Y178068D01*
X438212Y179633D01*
Y187724D01*
X438712Y187931D01*
X442103Y184541D01*
D02*
G37*
G36*
X198796Y135022D02*
Y127504D01*
X198505Y127068D01*
X198381Y126449D01*
X198505Y125829D01*
X198855Y125304D01*
X199381Y124953D01*
X200000Y124830D01*
X200619Y124953D01*
X201052Y125242D01*
X201388Y125135D01*
X201552Y125021D01*
Y121069D01*
X199667Y119184D01*
X199331Y118876D01*
X198995Y119184D01*
X195299Y122880D01*
Y131622D01*
X195590Y132058D01*
X195692Y132572D01*
X198334Y135213D01*
X198796Y135022D01*
D02*
G37*
G36*
X182457Y252848D02*
Y244786D01*
X182457Y244786D01*
X182549Y244325D01*
X182810Y243935D01*
X183305Y243440D01*
X183305Y243440D01*
X183696Y243179D01*
X184156Y243087D01*
X184157Y243087D01*
X189822D01*
X200345Y232564D01*
X200153Y232102D01*
X196063D01*
X195756Y232041D01*
X195495Y231867D01*
X195321Y231606D01*
X195260Y231299D01*
Y229040D01*
X194760Y228833D01*
X181125Y242467D01*
Y251409D01*
X181417Y251844D01*
X181540Y252464D01*
X181417Y253083D01*
X181219Y253379D01*
X181607Y253698D01*
X182457Y252848D01*
D02*
G37*
G36*
X196063Y205693D02*
X197615D01*
Y192394D01*
X197324Y191958D01*
X197200Y191339D01*
X197324Y190719D01*
X197675Y190194D01*
X198199Y189843D01*
X198819Y189720D01*
X199438Y189843D01*
X199963Y190194D01*
X200314Y190719D01*
X200437Y191339D01*
X200314Y191958D01*
X200023Y192394D01*
Y205693D01*
X201552D01*
Y182525D01*
X201498Y182503D01*
X201052Y182442D01*
X200851Y182741D01*
X200851Y182741D01*
X198598Y184995D01*
X198495Y185509D01*
X198144Y186034D01*
X197619Y186385D01*
X197000Y186508D01*
X196381Y186385D01*
X196035Y186154D01*
X195535Y186386D01*
Y205346D01*
X196035Y205699D01*
X196063Y205693D01*
D02*
G37*
G36*
X343136Y129716D02*
X343127Y129668D01*
X343127Y129668D01*
Y119849D01*
X342444Y119566D01*
X341663Y118967D01*
X341064Y118185D01*
X340687Y117276D01*
X340681Y117228D01*
X340181Y117261D01*
Y125197D01*
X340089Y125658D01*
X339828Y126048D01*
X339828Y126048D01*
X337515Y128361D01*
Y129722D01*
X337992Y130103D01*
X342819D01*
X343136Y129716D01*
D02*
G37*
G36*
X333125Y132567D02*
Y119848D01*
X332445Y119566D01*
X331663Y118967D01*
X331232Y118404D01*
X330732Y118574D01*
Y132515D01*
X331232Y132782D01*
X331270Y132757D01*
X331890Y132633D01*
X332509Y132757D01*
X332625Y132834D01*
X333125Y132567D01*
D02*
G37*
G36*
X363363Y180064D02*
Y162704D01*
X361049Y160390D01*
X360665Y160549D01*
X359842Y160657D01*
X359020Y160549D01*
X358254Y160231D01*
X357596Y159727D01*
X357091Y159069D01*
X357050Y158968D01*
X356550Y159067D01*
Y179515D01*
X357050Y179615D01*
X357091Y179514D01*
X357596Y178856D01*
X358254Y178351D01*
X359020Y178034D01*
X359842Y177926D01*
X360665Y178034D01*
X361431Y178351D01*
X362089Y178856D01*
X362594Y179514D01*
X362863Y180163D01*
X363363Y180064D01*
D02*
G37*
G36*
X228248Y160221D02*
X230193D01*
Y158535D01*
X229902Y158100D01*
X229779Y157480D01*
X229902Y156861D01*
X230253Y156336D01*
X230778Y155985D01*
X231398Y155862D01*
X232017Y155985D01*
X232542Y156336D01*
X232893Y156861D01*
X233016Y157480D01*
X232893Y158100D01*
X232602Y158535D01*
Y160221D01*
X234350D01*
X234819Y159834D01*
Y148727D01*
X232958Y146866D01*
X228248D01*
X227941Y146805D01*
X227680Y146631D01*
X227506Y146370D01*
X227445Y146063D01*
Y143895D01*
X226945Y143743D01*
X226735Y144058D01*
X226210Y144409D01*
X225590Y144532D01*
X224971Y144409D01*
X224460Y144067D01*
X224373Y144084D01*
X223960Y144230D01*
Y155845D01*
X227235Y159120D01*
X227235Y159120D01*
X227496Y159511D01*
X227578Y159923D01*
X227680Y160023D01*
X228088Y160253D01*
X228248Y160221D01*
D02*
G37*
G36*
X267792Y152270D02*
X267119Y151597D01*
X266605Y151495D01*
X266080Y151145D01*
X265729Y150619D01*
X265606Y150000D01*
X265729Y149381D01*
X266080Y148855D01*
X266605Y148505D01*
X267224Y148381D01*
X267844Y148505D01*
X268369Y148855D01*
X268720Y149381D01*
X268744Y149503D01*
X268867Y149569D01*
X269367Y149271D01*
Y123038D01*
X265989Y119661D01*
X265307Y119943D01*
X264331Y120072D01*
X263354Y119943D01*
X262444Y119566D01*
X261901Y119149D01*
X261401Y119396D01*
Y139694D01*
X261713Y140142D01*
X263560D01*
Y134421D01*
X263268Y133985D01*
X263145Y133366D01*
X263268Y132747D01*
X263619Y132222D01*
X264144Y131871D01*
X264764Y131748D01*
X265383Y131871D01*
X265908Y132222D01*
X266259Y132747D01*
X266382Y133366D01*
X266259Y133985D01*
X265968Y134421D01*
Y140142D01*
X267815D01*
X268122Y140203D01*
X268383Y140377D01*
X268557Y140638D01*
X268618Y140945D01*
Y146063D01*
X268557Y146370D01*
X268383Y146631D01*
X268122Y146805D01*
X267815Y146866D01*
X261713D01*
X261401Y147314D01*
Y159773D01*
X261713Y160221D01*
X267792D01*
Y152270D01*
D02*
G37*
G36*
X256539Y189051D02*
X255841Y188354D01*
X255580Y187964D01*
X255489Y187503D01*
X255489Y187503D01*
Y179795D01*
X255198Y179359D01*
X255074Y178740D01*
X255198Y178121D01*
X255549Y177596D01*
X256073Y177245D01*
X256435Y177173D01*
X256571Y176969D01*
X256571Y176969D01*
Y154795D01*
X256280Y154359D01*
X256157Y153740D01*
X256280Y153121D01*
X256571Y152685D01*
Y119865D01*
X256071Y119626D01*
X255307Y119943D01*
X254331Y120072D01*
X253354Y119943D01*
X252672Y119661D01*
X252004Y120329D01*
Y172404D01*
X252004Y172408D01*
Y174049D01*
X252004Y174053D01*
Y174903D01*
X252004Y174905D01*
X252004Y174905D01*
Y177850D01*
X252004Y177850D01*
X252004Y177852D01*
Y188976D01*
X252004Y188976D01*
X251989Y189051D01*
X252391Y189551D01*
X256331D01*
X256539Y189051D01*
D02*
G37*
G36*
X207859Y404221D02*
X207860Y404215D01*
X207859Y404209D01*
X207890Y404062D01*
X207920Y403914D01*
X207923Y403909D01*
X207925Y403902D01*
X208010Y403779D01*
X208094Y403654D01*
X208099Y403650D01*
X208103Y403645D01*
X208229Y403563D01*
X208310Y403509D01*
X208314Y403505D01*
X208318Y403504D01*
X208354Y403480D01*
X208361Y403478D01*
X208366Y403475D01*
X208424Y403452D01*
X208519Y403435D01*
X208611Y403403D01*
X208661Y403396D01*
Y392543D01*
X206567D01*
X206131Y392834D01*
X205512Y392957D01*
X204892Y392834D01*
X204367Y392483D01*
X204016Y391958D01*
X203893Y391339D01*
X204016Y390719D01*
X204308Y390284D01*
Y385827D01*
X194701D01*
Y396654D01*
X194639Y396961D01*
X194465Y397221D01*
X194205Y397395D01*
X193898Y397456D01*
X188779D01*
X188472Y397395D01*
X188212Y397221D01*
X188038Y396961D01*
X187977Y396654D01*
Y385827D01*
X185039D01*
Y425197D01*
X207859D01*
Y404221D01*
D02*
G37*
G36*
X204660Y369913D02*
X205489Y369085D01*
Y342520D01*
X185039D01*
Y370079D01*
X204550D01*
X204660Y369913D01*
D02*
G37*
G36*
X236221Y365567D02*
X231299D01*
X230992Y365506D01*
X230732Y365332D01*
X230557Y365071D01*
X230496Y364764D01*
Y351378D01*
X230557Y351071D01*
X230732Y350810D01*
X230992Y350636D01*
X231299Y350575D01*
X236221D01*
Y342520D01*
X216157D01*
Y348622D01*
X216096Y348929D01*
X215922Y349190D01*
X215662Y349364D01*
X215354Y349425D01*
X213803D01*
Y354457D01*
X214094Y354892D01*
X214217Y355512D01*
X214094Y356131D01*
X213743Y356656D01*
X213218Y357007D01*
X212598Y357130D01*
X211979Y357007D01*
X211454Y356656D01*
X211103Y356131D01*
X210980Y355512D01*
X211103Y354892D01*
X211394Y354457D01*
Y349425D01*
X209842D01*
X209535Y349364D01*
X209275Y349190D01*
X209161Y349020D01*
X208719Y349080D01*
X208661Y349103D01*
Y370079D01*
X236221D01*
Y365567D01*
D02*
G37*
G36*
X262977Y404221D02*
X262978Y404215D01*
X262977Y404209D01*
X263008Y404062D01*
X263038Y403914D01*
X263041Y403909D01*
X263043Y403902D01*
X263128Y403779D01*
X263212Y403654D01*
X263217Y403650D01*
X263221Y403645D01*
X263347Y403563D01*
X263428Y403509D01*
X263433Y403505D01*
X263436Y403504D01*
X263472Y403480D01*
X263479Y403478D01*
X263484Y403475D01*
X263542Y403452D01*
X263637Y403435D01*
X263729Y403403D01*
X263779Y403396D01*
Y393701D01*
X249819D01*
Y396654D01*
X249758Y396961D01*
X249583Y397221D01*
X249323Y397395D01*
X249016Y397456D01*
X243898D01*
X243590Y397395D01*
X243330Y397221D01*
X243156Y396961D01*
X243095Y396654D01*
Y393701D01*
X240158D01*
Y425197D01*
X262977D01*
Y404221D01*
D02*
G37*
G36*
X236221Y420685D02*
X231299D01*
X230992Y420624D01*
X230732Y420450D01*
X230557Y420189D01*
X230496Y419882D01*
Y406496D01*
X230557Y406189D01*
X230732Y405928D01*
X230992Y405754D01*
X231299Y405693D01*
X236221D01*
Y397638D01*
X216157D01*
Y403740D01*
X216096Y404047D01*
X215922Y404308D01*
X215662Y404482D01*
X215354Y404543D01*
X209842D01*
X209535Y404482D01*
X209275Y404308D01*
X209161Y404138D01*
X208719Y404198D01*
X208661Y404221D01*
Y425197D01*
X236221D01*
Y420685D01*
D02*
G37*
G36*
X291339D02*
X286417D01*
X286110Y420624D01*
X285850Y420450D01*
X285676Y420189D01*
X285614Y419882D01*
Y406496D01*
X285676Y406189D01*
X285850Y405928D01*
X286110Y405754D01*
X286417Y405693D01*
X291339D01*
Y397638D01*
X271275D01*
Y403740D01*
X271214Y404047D01*
X271040Y404308D01*
X270780Y404482D01*
X270472Y404543D01*
X264961D01*
X264653Y404482D01*
X264393Y404308D01*
X264280Y404138D01*
X263837Y404198D01*
X263779Y404221D01*
Y425197D01*
X291339D01*
Y420685D01*
D02*
G37*
G36*
X261886Y193497D02*
Y181711D01*
X261386Y181369D01*
X261024Y181441D01*
X260562Y181350D01*
X260063Y181645D01*
Y182114D01*
X260354Y182550D01*
X260477Y183169D01*
X260354Y183789D01*
X260003Y184314D01*
X259478Y184665D01*
X258858Y184788D01*
X258397Y184696D01*
X257897Y184992D01*
Y187004D01*
X259513Y188620D01*
X259513Y188620D01*
X259774Y189011D01*
X259866Y189471D01*
Y194865D01*
X260328Y195056D01*
X261886Y193497D01*
D02*
G37*
G36*
X245198Y192693D02*
X245252Y192672D01*
Y190945D01*
X245252Y190945D01*
X245344Y190484D01*
X245605Y190093D01*
X248020Y187679D01*
Y182634D01*
X247520Y182367D01*
X247470Y182400D01*
X246850Y182523D01*
X246231Y182400D01*
X245706Y182049D01*
X245355Y181524D01*
X245320Y181345D01*
X245201Y181289D01*
X244635Y181574D01*
X244605Y181722D01*
X244255Y182247D01*
X243730Y182598D01*
X243110Y182721D01*
X242491Y182598D01*
X242055Y182307D01*
X240849D01*
X240849Y182307D01*
X240388Y182215D01*
X239998Y181954D01*
X239998Y181954D01*
X239302Y181258D01*
X238759Y181423D01*
X238700Y181722D01*
X238349Y182247D01*
X237824Y182598D01*
X237205Y182721D01*
X236585Y182598D01*
X236060Y182247D01*
X235709Y181722D01*
X235607Y181208D01*
X229484Y175085D01*
X228860Y175168D01*
X228763Y175312D01*
Y176666D01*
X244552Y192455D01*
X244552Y192456D01*
X244752Y192755D01*
X245198Y192693D01*
D02*
G37*
G36*
X268481Y232102D02*
X266952D01*
Y235247D01*
X267286Y235470D01*
X267637Y235995D01*
X267760Y236614D01*
X267637Y237233D01*
X267286Y237759D01*
X266761Y238109D01*
X266142Y238233D01*
X265522Y238109D01*
X264997Y237759D01*
X264646Y237233D01*
X264523Y236614D01*
X264573Y236366D01*
X264544Y236221D01*
X264544Y236220D01*
Y232102D01*
X262992D01*
X262685Y232041D01*
X262424Y231867D01*
X262250Y231606D01*
X262189Y231299D01*
Y206496D01*
X262250Y206189D01*
X262424Y205928D01*
X262685Y205754D01*
X262992Y205693D01*
X268504D01*
X268811Y205754D01*
X269072Y205928D01*
X269246Y206189D01*
X269307Y206496D01*
Y216163D01*
X269562Y216245D01*
X269807Y216247D01*
X270115Y215785D01*
X270640Y215434D01*
X271260Y215311D01*
X271879Y215434D01*
X272315Y215725D01*
X275879D01*
X278717Y212887D01*
Y212066D01*
X278346Y211630D01*
X272835D01*
X272527Y211568D01*
X272267Y211395D01*
X272093Y211134D01*
X272032Y210827D01*
Y200950D01*
X271570Y200759D01*
X268882Y203447D01*
X268818Y203769D01*
X268467Y204294D01*
X267942Y204645D01*
X267323Y204768D01*
X266704Y204645D01*
X266178Y204294D01*
X265827Y203769D01*
X265704Y203150D01*
X265827Y202530D01*
X266178Y202005D01*
X266704Y201654D01*
X267026Y201590D01*
X267873Y200744D01*
X267790Y200119D01*
X267556Y199963D01*
X267206Y199438D01*
X267082Y198819D01*
X267206Y198199D01*
X267496Y197764D01*
Y196454D01*
X266997Y196247D01*
X266164Y197080D01*
Y197764D01*
X266455Y198199D01*
X266579Y198819D01*
X266455Y199438D01*
X266105Y199963D01*
X265580Y200314D01*
X264960Y200437D01*
X264403Y200326D01*
X263933Y200597D01*
X263860Y201005D01*
X264082Y201337D01*
X264205Y201957D01*
X264082Y202576D01*
X263731Y203101D01*
X263206Y203452D01*
X262587Y203575D01*
X262137Y203486D01*
X261637Y203787D01*
Y252542D01*
X262099Y252733D01*
X263757Y251076D01*
X263859Y250562D01*
X264210Y250037D01*
X264735Y249686D01*
X265354Y249563D01*
X265974Y249686D01*
X266499Y250037D01*
X266850Y250562D01*
X266973Y251181D01*
X266850Y251800D01*
X266499Y252326D01*
X265974Y252676D01*
X265460Y252779D01*
X263212Y255026D01*
Y259934D01*
X264089Y260811D01*
X268481D01*
Y232102D01*
D02*
G37*
%LPC*%
G36*
X193898Y420685D02*
X188779D01*
X188472Y420624D01*
X188212Y420450D01*
X188038Y420189D01*
X187977Y419882D01*
Y406496D01*
X188038Y406189D01*
X188212Y405928D01*
X188472Y405754D01*
X188779Y405693D01*
X193898D01*
X194205Y405754D01*
X194465Y405928D01*
X194639Y406189D01*
X194701Y406496D01*
Y419882D01*
X194639Y420189D01*
X194465Y420450D01*
X194205Y420624D01*
X193898Y420685D01*
D02*
G37*
G36*
X193898Y365567D02*
X188779D01*
X188472Y365506D01*
X188212Y365332D01*
X188038Y365071D01*
X187977Y364764D01*
Y351378D01*
X188038Y351071D01*
X188212Y350810D01*
X188472Y350636D01*
X188779Y350575D01*
X193898D01*
X194205Y350636D01*
X194465Y350810D01*
X194639Y351071D01*
X194701Y351378D01*
Y364764D01*
X194639Y365071D01*
X194465Y365332D01*
X194205Y365506D01*
X193898Y365567D01*
D02*
G37*
G36*
X249016Y420685D02*
X243898D01*
X243590Y420624D01*
X243330Y420450D01*
X243156Y420189D01*
X243095Y419882D01*
Y406496D01*
X243156Y406189D01*
X243330Y405928D01*
X243590Y405754D01*
X243898Y405693D01*
X249016D01*
X249323Y405754D01*
X249583Y405928D01*
X249758Y406189D01*
X249819Y406496D01*
Y419882D01*
X249758Y420189D01*
X249583Y420450D01*
X249323Y420624D01*
X249016Y420685D01*
D02*
G37*
%LPD*%
G36*
X181102D02*
X176181D01*
X175874Y420624D01*
X175613Y420450D01*
X175439Y420189D01*
X175378Y419882D01*
Y406496D01*
X175439Y406189D01*
X175613Y405928D01*
X175874Y405754D01*
X176181Y405693D01*
X181102D01*
Y397638D01*
X161039D01*
Y403740D01*
X160978Y404047D01*
X160804Y404308D01*
X160543Y404482D01*
X160236Y404543D01*
X154724D01*
X154417Y404482D01*
X154157Y404308D01*
X154043Y404138D01*
X153601Y404198D01*
X153543Y404221D01*
Y425197D01*
X181102D01*
Y420685D01*
D02*
G37*
G36*
X152741Y404221D02*
X152742Y404215D01*
X152741Y404209D01*
X152772Y404062D01*
X152802Y403914D01*
X152805Y403909D01*
X152806Y403902D01*
X152892Y403779D01*
X152976Y403654D01*
X152981Y403650D01*
X152985Y403645D01*
X153111Y403563D01*
X153192Y403509D01*
X153196Y403505D01*
X153200Y403504D01*
X153236Y403480D01*
X153242Y403478D01*
X153248Y403475D01*
X153306Y403452D01*
X153401Y403435D01*
X153493Y403403D01*
X153543Y403396D01*
Y397638D01*
X129921D01*
Y425197D01*
X152741D01*
Y404221D01*
D02*
G37*
%LPC*%
G36*
X138779Y420685D02*
X133661D01*
X133354Y420624D01*
X133094Y420450D01*
X132920Y420189D01*
X132859Y419882D01*
Y406496D01*
X132920Y406189D01*
X133094Y405928D01*
X133354Y405754D01*
X133661Y405693D01*
X138779D01*
X139087Y405754D01*
X139347Y405928D01*
X139521Y406189D01*
X139582Y406496D01*
Y419882D01*
X139521Y420189D01*
X139347Y420450D01*
X139087Y420624D01*
X138779Y420685D01*
D02*
G37*
%LPD*%
G36*
X472441Y377953D02*
X449622D01*
Y417323D01*
X472441D01*
Y377953D01*
D02*
G37*
G36*
X448819D02*
X401575D01*
Y417323D01*
X448819D01*
Y377953D01*
D02*
G37*
G36*
X341339Y403937D02*
X355906D01*
Y394488D01*
X341641D01*
X341171Y394802D01*
X340551Y394926D01*
X339932Y394802D01*
X339462Y394488D01*
X333373D01*
X332903Y394802D01*
X332283Y394926D01*
X331664Y394802D01*
X331602Y394761D01*
X331102Y395028D01*
Y403937D01*
Y417323D01*
X341339D01*
Y403937D01*
D02*
G37*
G36*
X338583Y418126D02*
X331102D01*
X330795Y418064D01*
X330535Y417891D01*
X330361Y417630D01*
X330299Y417323D01*
Y403937D01*
Y395028D01*
X330323Y394913D01*
X330334Y394795D01*
X330353Y394760D01*
X330361Y394721D01*
X330426Y394623D01*
X330482Y394519D01*
X330512Y394494D01*
X330535Y394461D01*
X330633Y394395D01*
X330709Y394333D01*
Y393527D01*
X330665Y393307D01*
X330709Y393087D01*
Y391165D01*
X330665Y390945D01*
X330709Y390725D01*
Y385827D01*
X346457D01*
Y330709D01*
X326772D01*
Y440945D01*
X338583D01*
Y418126D01*
D02*
G37*
D31*
X502756Y413228D02*
X508858Y419331D01*
Y426535D01*
Y419134D02*
Y419331D01*
X518858Y419095D02*
Y426496D01*
X528858Y419055D02*
Y426457D01*
X533976Y438740D02*
X538583Y434134D01*
X528858Y438740D02*
X533976D01*
X528858D02*
Y446142D01*
X508858Y438819D02*
Y446220D01*
X518858Y438779D02*
Y446181D01*
X188878Y161322D02*
Y174213D01*
X190357Y159843D02*
X192446D01*
X188878Y161322D02*
X190357Y159843D01*
X193307Y155905D02*
Y155905D01*
X188976Y151575D02*
X193307Y155905D01*
X330807Y167421D02*
Y186221D01*
X330709Y167323D02*
X330807Y167421D01*
X352755Y181102D02*
Y242913D01*
X353150Y243307D01*
X413386Y202756D02*
Y241732D01*
X336311Y127862D02*
Y289280D01*
Y127862D02*
X338976Y125197D01*
X335827Y289764D02*
X336311Y289280D01*
X334330Y116300D02*
Y205039D01*
Y116300D02*
X334331Y116299D01*
X246457Y190945D02*
X249224Y188178D01*
X246457Y203937D02*
X248819Y206299D01*
X246457Y190945D02*
Y203937D01*
X249224Y177199D02*
Y188178D01*
X248465Y114154D02*
Y173228D01*
X249224Y177199D02*
X249225Y177198D01*
Y175557D02*
Y177198D01*
X249224Y175556D02*
X249225Y175557D01*
X249224Y173633D02*
Y175556D01*
X250799Y174050D02*
Y174904D01*
Y174050D02*
X250800Y174049D01*
Y172408D02*
Y174049D01*
X250799Y172407D02*
X250800Y172408D01*
X250799Y119831D02*
Y172407D01*
Y177851D02*
Y188976D01*
Y177851D02*
X250799Y177850D01*
Y174905D02*
Y177850D01*
X250799Y174904D02*
X250799Y174905D01*
X248819Y173228D02*
X249224Y173633D01*
X384461Y261648D02*
Y288177D01*
X383071Y289567D02*
X384461Y288177D01*
Y261648D02*
X384461Y261647D01*
Y260006D02*
Y261647D01*
X384461Y260005D02*
X384461Y260006D01*
X384461Y180130D02*
Y260005D01*
X377953Y173622D02*
X384461Y180130D01*
X308381Y118178D02*
Y166544D01*
X306398Y126083D02*
Y198524D01*
X314331Y186772D02*
X318898Y191339D01*
X314331Y116299D02*
Y186772D01*
X279134Y233465D02*
X292520D01*
X283083Y184286D02*
Y204420D01*
Y184286D02*
X283084Y184285D01*
Y182644D02*
Y184285D01*
X283083Y182643D02*
X283084Y182644D01*
X283083Y178358D02*
Y182643D01*
X280709Y175984D02*
X283083Y178358D01*
X264887Y170740D02*
Y173498D01*
X264888Y173499D01*
Y175140D01*
X264887Y175141D02*
X264888Y175140D01*
X264887Y175141D02*
Y194427D01*
X262587Y196727D02*
X264887Y194427D01*
X266462Y175793D02*
Y195079D01*
Y175793D02*
X266462Y175792D01*
Y172847D02*
Y175792D01*
X266462Y172846D02*
X266462Y172847D01*
X266462Y171727D02*
Y172846D01*
X264960Y196581D02*
X266462Y195079D01*
X264960Y196581D02*
Y198819D01*
X268504Y173622D02*
Y174016D01*
Y173622D02*
X272441Y169685D01*
X268701Y176496D02*
X274331Y170866D01*
X262587Y196727D02*
Y197997D01*
X262586Y197998D02*
X262587Y197997D01*
X262586Y197998D02*
Y199639D01*
X262587Y199640D01*
Y201957D01*
X247244Y176377D02*
Y176378D01*
X245079Y170673D02*
Y179036D01*
X246654Y128622D02*
Y175787D01*
X243701Y193307D02*
Y267323D01*
X227559Y177165D02*
X243701Y193307D01*
X227559Y174257D02*
Y177165D01*
X502756Y355967D02*
Y413228D01*
X538583Y345276D02*
Y434134D01*
X535433Y342126D02*
X538583Y345276D01*
X491142Y342126D02*
X535433D01*
X480512Y333723D02*
X502756Y355967D01*
X480512Y201772D02*
Y333723D01*
X471457Y192717D02*
X480512Y201772D01*
X482087Y139567D02*
Y333071D01*
X491142Y342126D01*
X471457Y150591D02*
Y192717D01*
X481299Y138779D02*
X482087Y139567D01*
X170079Y263386D02*
X170472Y262992D01*
X170079Y263386D02*
Y351181D01*
X121260D02*
Y407362D01*
X110236Y418386D02*
X121260Y407362D01*
X190945Y119685D02*
X194331Y116299D01*
X174331Y126299D02*
X184331Y116299D01*
X323818Y207677D02*
X324331Y207164D01*
X403543Y114173D02*
X405512Y116142D01*
Y127953D01*
X174331Y106299D02*
Y107165D01*
X184331Y106299D02*
X188976Y110945D01*
X264331Y106299D02*
X268701Y110669D01*
X254331Y106299D02*
X260197Y112165D01*
X256238Y110433D02*
X258622Y112818D01*
X246476Y112165D02*
X248465Y114154D01*
X240197Y112165D02*
X246476D01*
X234331Y106299D02*
X240197Y112165D01*
X234331Y116299D02*
X246654Y128622D01*
X244331Y106299D02*
X248465Y110433D01*
X256238D01*
X170866Y146063D02*
Y161024D01*
X178347Y168504D01*
Y202756D01*
X246654Y175787D02*
X247244Y176377D01*
X250799Y119831D02*
X254331Y116299D01*
X218504Y166535D02*
Y178150D01*
X413386Y127953D02*
X413779Y127559D01*
Y110630D02*
Y127559D01*
X324331Y106299D02*
X329528Y111496D01*
X314331Y106299D02*
X319685Y111653D01*
X416575Y141732D02*
Y163425D01*
X340551Y211614D02*
X345079Y207087D01*
X422835Y200787D02*
X426378Y197244D01*
X416535Y222441D02*
X422835Y216142D01*
Y200787D02*
Y216142D01*
X224331Y106299D02*
Y110453D01*
X228465Y114587D01*
Y129803D01*
X222756Y124724D02*
Y156344D01*
X221181Y126299D02*
Y156996D01*
X218504Y132283D02*
X219606Y133386D01*
X180118Y167087D02*
Y201378D01*
X181102Y202362D01*
X174331Y161299D02*
X180118Y167087D01*
X214331Y116299D02*
X222756Y124724D01*
X216535Y121653D02*
X221181Y126299D01*
X202756Y230709D02*
Y231856D01*
X179921Y241968D02*
Y252464D01*
Y241968D02*
X194331Y227559D01*
X200197Y110433D02*
X204331Y106299D01*
X194331D02*
X198465Y110433D01*
X486378Y126614D02*
Y145669D01*
X210197Y110433D02*
X214331Y106299D01*
X210197Y110433D02*
Y183133D01*
X453543Y119685D02*
Y160630D01*
X447638Y134646D02*
Y170472D01*
X290158Y135433D02*
Y175197D01*
X218504Y129921D02*
Y132283D01*
X228346Y129921D02*
X228465Y129803D01*
X194095Y122382D02*
Y132677D01*
X330709Y167323D02*
X331890Y166142D01*
Y133858D02*
Y134252D01*
Y166142D01*
X219606Y133386D02*
Y157649D01*
X223228Y161271D01*
X221181Y156996D02*
X224809Y160624D01*
X226384Y159972D02*
Y166637D01*
X222756Y156344D02*
X226384Y159972D01*
X229134Y173031D02*
X237205Y181102D01*
X226384Y166637D02*
X240849Y181102D01*
X243701Y142913D02*
X244981Y144193D01*
X224331Y116299D02*
Y141654D01*
X225590Y142913D01*
X168465Y113031D02*
X174331Y107165D01*
X168465Y113031D02*
Y118169D01*
X168307Y118326D02*
X168465Y118169D01*
X168307Y118326D02*
Y135827D01*
X158661Y102362D02*
Y187008D01*
X166929Y195276D01*
X294331Y106299D02*
X298465Y110433D01*
X329528Y111496D02*
Y161811D01*
X344331Y116299D02*
Y129668D01*
X345079Y130416D01*
Y207087D01*
X348031Y118878D02*
X348465Y118445D01*
X344331Y106299D02*
X348465Y110433D01*
Y118445D01*
X334331Y106299D02*
X338976Y110945D01*
Y125197D01*
X426378Y168110D02*
Y197244D01*
X422835Y153543D02*
Y172154D01*
X419291Y175698D02*
X422835Y172154D01*
X419291Y175698D02*
Y181102D01*
X418110Y182283D02*
X419291Y181102D01*
X380315Y204724D02*
Y217717D01*
X388976Y179528D02*
Y182283D01*
X379134Y169685D02*
X388976Y179528D01*
X380315Y228346D02*
X382480Y230512D01*
Y260827D01*
X452756Y164961D02*
Y247244D01*
X450394Y162598D02*
X452756Y164961D01*
X238189Y262598D02*
Y279528D01*
X244094Y285433D01*
X348031Y118878D02*
Y291732D01*
X240551Y272047D02*
X248031Y279528D01*
X240551Y259842D02*
Y272047D01*
X248031Y279528D02*
Y287795D01*
X422835Y224410D02*
Y243701D01*
X208661Y223622D02*
Y253543D01*
X210197Y183133D02*
X212598Y185534D01*
X274331Y116299D02*
Y170866D01*
X275590Y237008D02*
Y253543D01*
Y237008D02*
X279134Y233465D01*
X409055Y203543D02*
Y261024D01*
X413386Y265354D01*
X422835Y177165D02*
Y193307D01*
X386614Y237795D02*
X388976Y235433D01*
Y182283D02*
Y235433D01*
X224809Y160624D02*
Y168707D01*
X228150Y172047D01*
X228211D01*
X229134Y172970D01*
Y173031D01*
X287008Y119468D02*
Y142913D01*
Y119468D02*
X288465Y118011D01*
Y110433D02*
Y118011D01*
X284331Y106299D02*
X288465Y110433D01*
X394094Y199213D02*
Y363386D01*
X443307Y177165D02*
Y185039D01*
Y200787D02*
Y218898D01*
X439370Y188976D02*
X443307Y185039D01*
X439370Y188976D02*
Y233465D01*
X396575Y238976D02*
Y282953D01*
X443307Y224410D02*
Y268898D01*
Y282283D01*
Y153543D02*
Y172154D01*
X439764Y175698D02*
X443307Y172154D01*
X439764Y175698D02*
Y176378D01*
X437008Y179134D02*
X439764Y176378D01*
X437008Y179134D02*
Y212598D01*
X413386Y202756D02*
X422835Y193307D01*
X409055Y203543D02*
X412992Y199606D01*
X406693Y163386D02*
Y252362D01*
X212598Y336221D02*
Y355512D01*
X212598Y355512D02*
X212598Y355512D01*
X157480Y391339D02*
X165354D01*
X157480Y391339D02*
X157480Y391339D01*
X205512D02*
X212598D01*
X212598Y391339D01*
X259842Y391339D02*
X267717D01*
X267717Y391339D01*
X165354Y375590D02*
Y391339D01*
X212598Y185534D02*
Y247244D01*
X214567Y249213D01*
X212598Y258661D02*
X215354Y255906D01*
X250787Y188988D02*
X250799Y188976D01*
X260433Y196653D02*
Y375787D01*
X223228Y161271D02*
Y244094D01*
X205512Y370765D02*
Y391339D01*
Y370765D02*
X206693Y369584D01*
Y336614D02*
Y369584D01*
X206299Y336221D02*
X206693Y336614D01*
X278740Y318898D02*
Y335433D01*
Y318898D02*
X301181Y296457D01*
X267717Y288875D02*
Y391339D01*
X275590Y183071D02*
Y198425D01*
X271260Y216929D02*
X276378D01*
X267717Y288875D02*
X269685Y286907D01*
X276378Y216929D02*
X279921Y213386D01*
X269685Y225849D02*
Y286907D01*
Y225849D02*
X281496Y214038D01*
X279921Y184646D02*
Y213386D01*
Y184646D02*
X281102Y183465D01*
X288386Y178465D02*
Y196850D01*
X284331Y174409D02*
X288386Y178465D01*
X284331Y116299D02*
Y174409D01*
X281496Y206007D02*
X283083Y204420D01*
X281496Y206007D02*
Y214038D01*
X176378Y260236D02*
Y355906D01*
X166535Y365748D02*
X176378Y355906D01*
X104724Y366142D02*
Y440433D01*
X110236Y445945D01*
X212598Y258661D02*
Y336221D01*
X359842Y204724D02*
X365354Y210236D01*
Y247244D01*
X379134Y164567D02*
Y169685D01*
X406575Y163268D02*
X406693Y163386D01*
X429134Y184646D02*
Y204331D01*
X364567Y162205D02*
Y182283D01*
X359842Y157480D02*
X364567Y162205D01*
X409449Y162992D02*
Y200000D01*
X407480Y161024D02*
X409449Y162992D01*
X395276Y161024D02*
X407480D01*
X366142Y265354D02*
X370472Y269685D01*
Y294094D01*
X397638Y120866D02*
Y127953D01*
X395276Y118504D02*
X397638Y120866D01*
X264764Y133366D02*
Y143504D01*
X198819Y274016D02*
Y290551D01*
X265748Y264173D02*
Y274016D01*
X262008Y260433D02*
X265748Y264173D01*
X262008Y254528D02*
Y260433D01*
Y254528D02*
X265354Y251181D01*
X265748Y218898D02*
Y236221D01*
X266142Y236614D01*
X198819Y191339D02*
Y218898D01*
X316929Y204724D02*
X318898Y202756D01*
Y191339D02*
Y202756D01*
X244981Y144193D02*
Y170575D01*
X245079Y170673D01*
X240849Y181102D02*
X243110D01*
X245079Y179036D02*
X246850Y180807D01*
Y180905D01*
X176029Y260236D02*
X176378D01*
X272441Y121063D02*
Y169685D01*
X268701Y117323D02*
X272441Y121063D01*
X268701Y110669D02*
Y117323D01*
X264331Y116299D02*
X270571Y122539D01*
Y167618D01*
X231299Y143504D02*
X236024Y148228D01*
Y168307D01*
X231398Y168012D02*
X241732Y178347D01*
X231398Y157480D02*
Y168012D01*
X200197Y110433D02*
Y118011D01*
X202756Y120571D01*
X194095Y122382D02*
X198465Y118011D01*
Y110433D02*
Y118011D01*
X174331Y126299D02*
Y161299D01*
X188965Y145505D02*
X188976Y145517D01*
Y110945D02*
Y143853D01*
X188965Y143865D02*
X188976Y143853D01*
X188965Y143865D02*
Y145505D01*
X190945Y119685D02*
X191929Y120669D01*
Y138583D01*
X197000Y184890D02*
X200000Y181890D01*
X194331Y183268D02*
X198425Y179173D01*
X194095Y132677D02*
X198425Y137008D01*
X194331Y183268D02*
Y227559D01*
X188976Y145517D02*
Y151575D01*
X202756Y120571D02*
Y230709D01*
X200000Y126449D02*
Y181890D01*
X198425Y137008D02*
Y179173D01*
X193898Y162697D02*
Y171850D01*
X192446Y159843D02*
X195965Y156324D01*
X193898Y143504D02*
X195965Y145571D01*
X193898Y147835D02*
X195965Y149902D01*
X193898Y143504D02*
Y147835D01*
X195965Y149902D02*
Y156324D01*
X324331Y116299D02*
Y207164D01*
X319685Y111653D02*
Y164173D01*
X297933Y160534D02*
Y166631D01*
X304331Y106299D02*
X308381Y110350D01*
Y114504D01*
X308465Y114587D01*
X308381Y118178D02*
X308465Y118095D01*
Y114587D02*
Y118095D01*
X304232Y200689D02*
X306398Y198524D01*
X304134Y200787D02*
X304232Y200689D01*
X304331Y124016D02*
X306398Y126083D01*
X304331Y116299D02*
Y124016D01*
X294331Y116299D02*
Y187992D01*
X296358Y168996D02*
X297342Y169980D01*
X296358Y159882D02*
Y168996D01*
X296949Y139114D02*
X298465Y137598D01*
X296949Y139114D02*
Y153051D01*
X298465Y110433D02*
Y137598D01*
X296949Y153051D02*
Y159292D01*
X296358Y159882D02*
X296949Y159292D01*
X297933Y166631D02*
X301181Y169879D01*
X300987Y157480D02*
X301181D01*
X297933Y160534D02*
X300987Y157480D01*
X301181Y150492D02*
Y157480D01*
Y169879D02*
Y296457D01*
X303543Y164961D02*
Y186122D01*
X302165Y163583D02*
X303543Y164961D01*
X302165Y133760D02*
Y143504D01*
X256693Y187503D02*
X258661Y189471D01*
X252953Y264370D02*
X253048D01*
X258661Y258757D01*
Y189471D02*
Y258757D01*
X256693Y178740D02*
Y187503D01*
X268701Y176496D02*
Y198819D01*
X262907Y165440D02*
X264764Y163583D01*
X262907Y165440D02*
Y174320D01*
X257776Y118760D02*
Y153740D01*
Y118760D02*
X258622Y117913D01*
Y112818D02*
Y117913D01*
X257776Y176969D02*
X258858Y178051D01*
X257776Y153740D02*
Y176969D01*
X258858Y178051D02*
Y183169D01*
X260197Y112165D02*
Y175650D01*
X261122Y176575D01*
X266462Y171727D02*
X270571Y167618D01*
X261122Y176575D02*
X263090Y178543D01*
Y193996D01*
X260433Y196653D02*
X263090Y193996D01*
X264887Y170740D02*
X268996Y166631D01*
X275590Y183071D02*
X277953Y180709D01*
X267224Y150000D02*
X268996Y151772D01*
Y166631D01*
X248819Y206299D02*
Y255906D01*
X249583Y190192D02*
X250787Y188988D01*
X249583Y190192D02*
Y200915D01*
X183661Y244786D02*
Y253346D01*
X181102Y255906D02*
X183661Y253346D01*
Y244786D02*
X184156Y244291D01*
X190321D01*
X202756Y231856D01*
D32*
X355237Y223741D02*
X359842Y228346D01*
X355237Y157205D02*
Y223741D01*
X355118Y157087D02*
X355237Y157205D01*
X208661Y198425D02*
Y215354D01*
X374016Y187402D02*
Y192913D01*
Y187402D02*
X380315Y181102D01*
X406575Y145787D02*
Y156575D01*
X414370Y164370D01*
Y186811D01*
X267323Y203150D02*
X271161Y199311D01*
Y178051D02*
Y199311D01*
Y178051D02*
X278346Y170866D01*
Y157087D02*
Y170866D01*
D33*
X110236Y394764D02*
D03*
Y384764D02*
D03*
Y408386D02*
D03*
Y418386D02*
D03*
Y371142D02*
D03*
Y361142D02*
D03*
Y435945D02*
D03*
Y445945D02*
D03*
D34*
X508858Y458504D02*
D03*
Y446220D02*
D03*
Y426535D02*
D03*
Y406850D02*
D03*
Y387165D02*
D03*
Y367480D02*
D03*
Y438819D02*
D03*
Y419134D02*
D03*
Y399449D02*
D03*
Y379764D02*
D03*
Y465906D02*
D03*
Y360079D02*
D03*
X518858Y360039D02*
D03*
Y367441D02*
D03*
X528858Y367402D02*
D03*
Y360000D02*
D03*
X518858Y379724D02*
D03*
X528858Y379685D02*
D03*
X518858Y387126D02*
D03*
X528858Y387087D02*
D03*
Y406772D02*
D03*
X518858Y406811D02*
D03*
X528858Y399370D02*
D03*
X518858Y399410D02*
D03*
X528858Y426457D02*
D03*
X518858Y426496D02*
D03*
X528858Y419055D02*
D03*
X518858Y419095D02*
D03*
X528858Y446142D02*
D03*
X518858Y446181D02*
D03*
X528858Y438740D02*
D03*
X518858Y438779D02*
D03*
X528858Y465827D02*
D03*
X518858Y465866D02*
D03*
X528858Y458425D02*
D03*
X518858Y458465D02*
D03*
X299843Y399291D02*
D03*
X309842D02*
D03*
X299843Y409291D02*
D03*
X309842D02*
D03*
X299843Y419291D02*
D03*
X486378Y145669D02*
D03*
X476378Y155669D02*
D03*
X486378D02*
D03*
X476378Y165669D02*
D03*
X486378D02*
D03*
X476378Y175669D02*
D03*
X486378D02*
D03*
X476378Y185669D02*
D03*
X486378D02*
D03*
X354331Y116299D02*
D03*
X344331Y106299D02*
D03*
Y116299D02*
D03*
X334331Y106299D02*
D03*
Y116299D02*
D03*
X324331Y106299D02*
D03*
Y116299D02*
D03*
X314331Y106299D02*
D03*
Y116299D02*
D03*
X304331Y106299D02*
D03*
Y116299D02*
D03*
X294331Y106299D02*
D03*
Y116299D02*
D03*
X284331Y106299D02*
D03*
Y116299D02*
D03*
X274331Y106299D02*
D03*
Y116299D02*
D03*
X264331Y106299D02*
D03*
Y116299D02*
D03*
X254331Y106299D02*
D03*
Y116299D02*
D03*
X244331Y106299D02*
D03*
Y116299D02*
D03*
X234331Y106299D02*
D03*
Y116299D02*
D03*
X224331Y106299D02*
D03*
Y116299D02*
D03*
X214331Y106299D02*
D03*
Y116299D02*
D03*
X204331Y106299D02*
D03*
Y116299D02*
D03*
X194331Y106299D02*
D03*
Y116299D02*
D03*
X184331Y106299D02*
D03*
Y116299D02*
D03*
X174331Y106299D02*
D03*
Y116299D02*
D03*
X164331Y106299D02*
D03*
Y116299D02*
D03*
X340945Y143858D02*
D03*
D35*
X518858Y349213D02*
D03*
Y476772D02*
D03*
D36*
X480315Y480315D02*
D03*
X406457Y463583D02*
D03*
X339567D02*
D03*
X387756Y464567D02*
D03*
Y477087D02*
D03*
X358268D02*
D03*
Y464567D02*
D03*
X315905Y463583D02*
D03*
X249016D02*
D03*
X297205Y464567D02*
D03*
Y477087D02*
D03*
X267717D02*
D03*
Y464567D02*
D03*
X126969Y241102D02*
D03*
Y174213D02*
D03*
X125984Y222402D02*
D03*
X113465D02*
D03*
Y192913D02*
D03*
X125984D02*
D03*
X221417Y463583D02*
D03*
X154528D02*
D03*
X202716Y464567D02*
D03*
Y477087D02*
D03*
X173228D02*
D03*
Y464567D02*
D03*
X126969Y339528D02*
D03*
Y272638D02*
D03*
X125984Y320827D02*
D03*
X113465D02*
D03*
Y291339D02*
D03*
X125984D02*
D03*
X480315Y110236D02*
D03*
X110236D02*
D03*
Y480315D02*
D03*
D37*
X309842Y419291D02*
D03*
X476378Y145669D02*
D03*
X340945Y133858D02*
D03*
D38*
X354331Y106299D02*
D03*
D39*
X366142Y275590D02*
D03*
Y265354D02*
D03*
Y285827D02*
D03*
X389764D02*
D03*
Y265354D02*
D03*
Y275590D02*
D03*
X413386D02*
D03*
Y265354D02*
D03*
Y285827D02*
D03*
X437008D02*
D03*
Y265354D02*
D03*
Y275590D02*
D03*
X433071Y153543D02*
D03*
X443307D02*
D03*
X422835D02*
D03*
Y177165D02*
D03*
X443307D02*
D03*
X433071D02*
D03*
Y200787D02*
D03*
X443307D02*
D03*
X422835D02*
D03*
Y224410D02*
D03*
X443307D02*
D03*
X433071D02*
D03*
X370079Y157480D02*
D03*
X380315D02*
D03*
X359842D02*
D03*
Y181102D02*
D03*
X380315D02*
D03*
X370079D02*
D03*
Y204724D02*
D03*
X380315D02*
D03*
X359842D02*
D03*
Y228346D02*
D03*
X380315D02*
D03*
X370079D02*
D03*
D40*
X386221Y329528D02*
D03*
Y325984D02*
D03*
Y322835D02*
D03*
Y318504D02*
D03*
X193307Y155905D02*
D03*
X330807Y186221D02*
D03*
X352755Y181102D02*
D03*
X413386Y241732D02*
D03*
X334330Y205039D02*
D03*
X308563Y150787D02*
D03*
X319685Y148031D02*
D03*
X268504Y173622D02*
D03*
X264960Y198819D02*
D03*
X247244Y176378D02*
D03*
X248819Y173228D02*
D03*
X417323Y405512D02*
D03*
Y409449D02*
D03*
Y413386D02*
D03*
X405512D02*
D03*
Y381890D02*
D03*
Y385827D02*
D03*
X421260Y413386D02*
D03*
Y409449D02*
D03*
Y405512D02*
D03*
X425197Y401575D02*
D03*
X429134D02*
D03*
X433071Y405512D02*
D03*
Y409449D02*
D03*
Y413386D02*
D03*
X444882Y393701D02*
D03*
X440945D02*
D03*
X437008D02*
D03*
X433071D02*
D03*
X429134D02*
D03*
X425197D02*
D03*
X421260D02*
D03*
X417323D02*
D03*
X413386Y401575D02*
D03*
Y397638D02*
D03*
Y393701D02*
D03*
X409449Y401575D02*
D03*
Y397638D02*
D03*
Y393701D02*
D03*
X452756Y385827D02*
D03*
Y389764D02*
D03*
Y393701D02*
D03*
Y397638D02*
D03*
Y401575D02*
D03*
Y405512D02*
D03*
Y409449D02*
D03*
X176378Y260236D02*
D03*
X170079Y263386D02*
D03*
Y351181D02*
D03*
X121260D02*
D03*
X340551Y390945D02*
D03*
Y393307D02*
D03*
X332283D02*
D03*
Y390945D02*
D03*
X359055Y385039D02*
D03*
Y381496D02*
D03*
X367717Y383071D02*
D03*
Y380709D02*
D03*
X370866Y374016D02*
D03*
X345669Y409055D02*
D03*
X384252Y405118D02*
D03*
X373622Y401968D02*
D03*
X374016Y397638D02*
D03*
X373228Y395276D02*
D03*
Y392520D02*
D03*
X362205Y407480D02*
D03*
X368898Y401968D02*
D03*
X358268Y392520D02*
D03*
X352362Y400000D02*
D03*
Y396850D02*
D03*
X348425D02*
D03*
X340158Y413779D02*
D03*
X332283D02*
D03*
X357087Y437008D02*
D03*
X481299Y138779D02*
D03*
X471457Y150591D02*
D03*
X174331Y161299D02*
D03*
X288386Y196850D02*
D03*
X294291Y187992D02*
D03*
X304232Y200689D02*
D03*
X340551Y211614D02*
D03*
X323818Y207677D02*
D03*
X316929Y204724D02*
D03*
X403543Y114173D02*
D03*
X168307Y135827D02*
D03*
X170866Y146063D02*
D03*
X178347Y202756D02*
D03*
X218504Y166535D02*
D03*
Y178150D02*
D03*
X413779Y110630D02*
D03*
X416575Y163425D02*
D03*
X329528Y161811D02*
D03*
X319685Y164173D02*
D03*
X416575Y141732D02*
D03*
X426378Y168110D02*
D03*
X416535Y222441D02*
D03*
X181102Y202362D02*
D03*
X179921Y252464D02*
D03*
X197000Y184890D02*
D03*
X223228Y244094D02*
D03*
X216535Y121653D02*
D03*
X181102Y255906D02*
D03*
X486378Y126614D02*
D03*
X453543Y160630D02*
D03*
Y119685D02*
D03*
X447638Y170472D02*
D03*
X447638Y135827D02*
D03*
X290158Y175197D02*
D03*
Y135433D02*
D03*
X218504Y129921D02*
D03*
X228346D02*
D03*
X202756Y132283D02*
D03*
X194095Y132677D02*
D03*
X330709Y167323D02*
D03*
X331890Y134252D02*
D03*
X252953Y264370D02*
D03*
X243701Y267323D02*
D03*
X227559Y174257D02*
D03*
X237205Y181102D02*
D03*
X243701Y142913D02*
D03*
X225590D02*
D03*
X166929Y195276D02*
D03*
X158661Y102362D02*
D03*
X396575Y282953D02*
D03*
X396457Y268898D02*
D03*
X418110Y182283D02*
D03*
X380315Y217717D02*
D03*
X388976Y182283D02*
D03*
X382480Y260827D02*
D03*
X452756Y247244D02*
D03*
X450394Y162598D02*
D03*
X377953Y174016D02*
D03*
X238189Y262598D02*
D03*
X244094Y285433D02*
D03*
X348031Y291732D02*
D03*
X248031Y287795D02*
D03*
X335827Y289764D02*
D03*
X240551Y259842D02*
D03*
X353150Y243307D02*
D03*
X422835Y243701D02*
D03*
X208661Y223622D02*
D03*
X281102Y183465D02*
D03*
X355118Y157087D02*
D03*
X278346D02*
D03*
X267323Y203150D02*
D03*
X208661Y215354D02*
D03*
X386614Y237795D02*
D03*
X287008Y142913D02*
D03*
X394094Y363386D02*
D03*
Y199213D02*
D03*
X374016Y192913D02*
D03*
X401575Y203150D02*
D03*
X443307Y218898D02*
D03*
X439370Y233465D02*
D03*
X396575Y238976D02*
D03*
X443307Y268898D02*
D03*
Y282283D02*
D03*
X437008Y212598D02*
D03*
X412992Y199606D02*
D03*
X406693Y252362D02*
D03*
X365354Y247638D02*
D03*
X212598Y355512D02*
D03*
X205512Y391339D02*
D03*
X165354D02*
D03*
X259842D02*
D03*
X260433Y375787D02*
D03*
X165354Y375590D02*
D03*
X214567Y249213D02*
D03*
X256693Y178740D02*
D03*
X262587Y201957D02*
D03*
X215354Y255906D02*
D03*
X206299Y336221D02*
D03*
X278740Y335433D02*
D03*
X268701Y198819D02*
D03*
X271260Y216929D02*
D03*
X280709Y175984D02*
D03*
X166535Y365748D02*
D03*
X104724Y366142D02*
D03*
X216535Y423228D02*
D03*
Y419291D02*
D03*
Y415354D02*
D03*
Y411417D02*
D03*
Y407480D02*
D03*
X230315Y423228D02*
D03*
Y403543D02*
D03*
X285433Y403353D02*
D03*
Y423038D02*
D03*
X271654Y407290D02*
D03*
Y411227D02*
D03*
Y415164D02*
D03*
Y419101D02*
D03*
Y423038D02*
D03*
X177165Y423228D02*
D03*
X159449D02*
D03*
Y419291D02*
D03*
Y415354D02*
D03*
Y411417D02*
D03*
X216535Y358268D02*
D03*
Y354331D02*
D03*
X230315Y346457D02*
D03*
Y368110D02*
D03*
X329705Y436043D02*
D03*
X328740Y268701D02*
D03*
X316929D02*
D03*
X289370Y255906D02*
D03*
X256299Y210630D02*
D03*
X192126Y151181D02*
D03*
X163386Y210039D02*
D03*
X151969Y209842D02*
D03*
X151378Y243504D02*
D03*
X162992Y270669D02*
D03*
X227165Y368110D02*
D03*
X227559Y346457D02*
D03*
X229134Y348819D02*
D03*
X209252Y302165D02*
D03*
X219685Y259055D02*
D03*
X232677Y266535D02*
D03*
X265945Y258071D02*
D03*
X386811Y130905D02*
D03*
X406575Y145787D02*
D03*
X414370Y186811D02*
D03*
X401575Y158661D02*
D03*
X429134Y204331D02*
D03*
X379134Y164567D02*
D03*
X406575Y163268D02*
D03*
X429134Y184646D02*
D03*
X364567Y182283D02*
D03*
X399606Y188583D02*
D03*
X409449Y200000D02*
D03*
X395276Y161024D02*
D03*
X264567Y293701D02*
D03*
X370472Y294094D02*
D03*
X383071Y289567D02*
D03*
X395276Y118504D02*
D03*
X198819Y290551D02*
D03*
X265354Y251181D02*
D03*
X266142Y236614D02*
D03*
X198819Y191339D02*
D03*
X196850Y346457D02*
D03*
X192913D02*
D03*
X188976D02*
D03*
X186614Y360630D02*
D03*
Y354724D02*
D03*
X187402Y349213D02*
D03*
X141732Y401575D02*
D03*
X137795D02*
D03*
X133858D02*
D03*
X131890Y404331D02*
D03*
X131102Y413386D02*
D03*
X131890Y422835D02*
D03*
X200787Y389764D02*
D03*
X187008Y390158D02*
D03*
X187402Y422441D02*
D03*
X206693Y395669D02*
D03*
X192913Y423228D02*
D03*
X196850D02*
D03*
X186221Y415354D02*
D03*
X198819Y387795D02*
D03*
X141732Y423228D02*
D03*
X137795D02*
D03*
X261811Y395669D02*
D03*
X246063Y403543D02*
D03*
X242126D02*
D03*
X250000D02*
D03*
X251969Y423228D02*
D03*
X248031D02*
D03*
X244094D02*
D03*
X208661Y220472D02*
D03*
X316535Y191929D02*
D03*
X470079Y206299D02*
D03*
X259449Y397244D02*
D03*
X195276Y348425D02*
D03*
X237795Y214961D02*
D03*
X246457D02*
D03*
X185433Y211024D02*
D03*
X243110Y181102D02*
D03*
X246850Y180905D02*
D03*
X255118Y161024D02*
D03*
X241732Y178347D02*
D03*
X187795Y240158D02*
D03*
X341339Y166535D02*
D03*
X340551Y192520D02*
D03*
X292520Y233465D02*
D03*
X296457Y236221D02*
D03*
X331496Y384646D02*
D03*
Y381890D02*
D03*
X340945Y384646D02*
D03*
X341339Y381496D02*
D03*
X340945Y375590D02*
D03*
X337795D02*
D03*
X334252D02*
D03*
X331102D02*
D03*
X340945Y335039D02*
D03*
X337402D02*
D03*
X333858D02*
D03*
X330315D02*
D03*
X374016Y334646D02*
D03*
X358268D02*
D03*
X362205D02*
D03*
X366142D02*
D03*
X370079D02*
D03*
X214567Y181890D02*
D03*
X238189Y196457D02*
D03*
X231398Y157480D02*
D03*
X236024Y168307D02*
D03*
X191929Y138583D02*
D03*
X200000Y126449D02*
D03*
X193898Y171850D02*
D03*
X188878Y174213D02*
D03*
X301181Y150492D02*
D03*
X308381Y166544D02*
D03*
X297342Y169980D02*
D03*
X296949Y153051D02*
D03*
X303543Y186122D02*
D03*
X267224Y150000D02*
D03*
X264764Y133366D02*
D03*
X302165Y133760D02*
D03*
X257776Y153740D02*
D03*
X248819Y255906D02*
D03*
X261024Y179823D02*
D03*
X261122Y176575D02*
D03*
X258858Y183169D02*
D03*
X262907Y174320D02*
D03*
X277953Y180709D02*
D03*
X275197Y178347D02*
D03*
X249583Y200915D02*
D03*
D51*
X202756Y356693D02*
D03*
X212598Y336221D02*
D03*
X222441Y356693D02*
D03*
X222441Y411811D02*
D03*
X212598Y391339D02*
D03*
X202756Y411811D02*
D03*
X147638D02*
D03*
X157480Y391339D02*
D03*
X167323Y411811D02*
D03*
X277559D02*
D03*
X267717Y391339D02*
D03*
X257874Y411811D02*
D03*
X198819Y218898D02*
D03*
X208661Y198425D02*
D03*
X218504Y218898D02*
D03*
Y274016D02*
D03*
X208661Y253543D02*
D03*
X198819Y274016D02*
D03*
X265748Y218898D02*
D03*
X275590Y198425D02*
D03*
X285433Y218898D02*
D03*
Y274016D02*
D03*
X275590Y253543D02*
D03*
X265748Y274016D02*
D03*
D52*
X191339Y358071D02*
D03*
X233858D02*
D03*
Y334842D02*
D03*
X191339D02*
D03*
X191339Y389961D02*
D03*
X233858D02*
D03*
Y413189D02*
D03*
X191339D02*
D03*
X136221D02*
D03*
X178740D02*
D03*
Y389961D02*
D03*
X136221D02*
D03*
X246457D02*
D03*
X288976D02*
D03*
Y413189D02*
D03*
X246457D02*
D03*
X187402Y220276D02*
D03*
X229921D02*
D03*
Y197047D02*
D03*
X187402D02*
D03*
Y252165D02*
D03*
X229921D02*
D03*
Y275394D02*
D03*
X187402D02*
D03*
X254331Y220276D02*
D03*
X296850D02*
D03*
Y197047D02*
D03*
X254331D02*
D03*
Y252165D02*
D03*
X296850D02*
D03*
Y275394D02*
D03*
X254331D02*
D03*
D53*
X421260Y127953D02*
D03*
X413386D02*
D03*
X405512D02*
D03*
X397638D02*
D03*
D54*
X430512Y109449D02*
D03*
X388386D02*
D03*
D55*
X264764Y143504D02*
D03*
X302165Y163583D02*
D03*
X264764D02*
D03*
X302165Y143504D02*
D03*
X231299D02*
D03*
X193898Y163583D02*
D03*
X231299D02*
D03*
X193898Y143504D02*
D03*
D56*
X463504Y410079D02*
D03*
Y385197D02*
D03*
X410512D02*
D03*
Y410079D02*
D03*
M02*
