G04 Layer_Color=32896*
%FSLAX25Y25*%
%MOIN*%
G70*
G01*
G75*
%ADD31C,0.00787*%
%ADD32C,0.01000*%
%ADD61C,0.00800*%
%ADD62C,0.00591*%
%ADD98C,0.00500*%
D31*
X314843Y394291D02*
Y413458D01*
Y394291D02*
Y424291D01*
X294843Y394291D02*
Y424291D01*
X314843D01*
X294843Y394291D02*
X314843D01*
X471378Y190669D02*
X491378D01*
X471378Y140669D02*
X491378D01*
Y190669D01*
X471378Y140669D02*
Y190669D01*
X159331Y101299D02*
Y121299D01*
X359331Y101299D02*
Y121299D01*
X159331D02*
X359331D01*
X159331Y101299D02*
X359331D01*
X345945Y128858D02*
Y148858D01*
X335945Y128858D02*
X345945D01*
X335945D02*
Y148858D01*
X345945D01*
D32*
X497638Y491732D02*
X537008D01*
X497638Y334252D02*
X537008D01*
Y412992D01*
Y491732D01*
X497638Y412992D02*
Y491732D01*
Y334252D02*
Y412992D01*
X331512Y445669D02*
X336221D01*
X344488Y470472D02*
X352362D01*
X348425Y466535D02*
Y474409D01*
X336221Y445669D02*
X358268D01*
Y440945D02*
Y445669D01*
Y440945D02*
X387756D01*
Y445630D01*
X407441D01*
X413346D01*
X387756D02*
X413878D01*
Y446949D01*
X331512Y445630D02*
Y491437D01*
X414697D01*
Y447768D02*
Y491437D01*
X413878Y446949D02*
X414697Y447768D01*
X240961Y445669D02*
X245669D01*
X253937Y470472D02*
X261811D01*
X257874Y466535D02*
Y474409D01*
X245669Y445669D02*
X267717D01*
Y440945D02*
Y445669D01*
Y440945D02*
X297205D01*
Y445630D01*
X316890D01*
X322795D01*
X297205D02*
X323327D01*
Y446949D01*
X240961Y445630D02*
Y491437D01*
X324146D01*
Y447768D02*
Y491437D01*
X323327Y446949D02*
X324146Y447768D01*
X144882Y166157D02*
Y170866D01*
X120079Y179134D02*
Y187008D01*
X116142Y183071D02*
X124016D01*
X144882Y170866D02*
Y192913D01*
X149606D01*
Y222402D01*
X144921D02*
X149606D01*
X144921D02*
Y242087D01*
Y247992D01*
Y222402D02*
Y248524D01*
X143602D02*
X144921D01*
X99114Y166157D02*
X144921D01*
X99114D02*
Y249342D01*
X142783D01*
X143602Y248524D01*
X146472Y445669D02*
X151181D01*
X159449Y470472D02*
X167323D01*
X163386Y466535D02*
Y474409D01*
X151181Y445669D02*
X173228D01*
Y440945D02*
Y445669D01*
Y440945D02*
X202716D01*
Y445630D01*
X222402D01*
X228307D01*
X202716D02*
X228839D01*
Y446949D01*
X146472Y445630D02*
Y491437D01*
X229658D01*
Y447768D02*
Y491437D01*
X228839Y446949D02*
X229658Y447768D01*
X144882Y264583D02*
Y269291D01*
X120079Y277559D02*
Y285433D01*
X116142Y281496D02*
X124016D01*
X144882Y269291D02*
Y291339D01*
X149606D01*
Y320827D01*
X144921D02*
X149606D01*
X144921D02*
Y340512D01*
Y346417D01*
Y320827D02*
Y346949D01*
X143602D02*
X144921D01*
X99114Y264583D02*
X144921D01*
X99114D02*
Y347768D01*
X142783D01*
X143602Y346949D01*
X375984Y275590D02*
Y295276D01*
Y255906D02*
Y275590D01*
X356299Y255906D02*
Y275590D01*
Y295276D01*
Y255906D02*
X375984D01*
X356299Y295276D02*
X375984D01*
X379921D02*
X399606D01*
X379921Y255906D02*
X399606D01*
X379921Y275590D02*
Y295276D01*
Y255906D02*
Y275590D01*
X399606Y255906D02*
Y275590D01*
Y295276D01*
X423228Y275590D02*
Y295276D01*
Y255906D02*
Y275590D01*
X403543Y255906D02*
Y275590D01*
Y295276D01*
Y255906D02*
X423228D01*
X403543Y295276D02*
X423228D01*
X427165D02*
X446850D01*
X427165Y255906D02*
X446850D01*
X427165Y275590D02*
Y295276D01*
Y255906D02*
Y275590D01*
X446850Y255906D02*
Y275590D01*
Y295276D01*
X413386Y163386D02*
X433071D01*
X452756D01*
X433071Y143701D02*
X452756D01*
X413386D02*
X433071D01*
X452756D02*
Y163386D01*
X413386Y143701D02*
Y163386D01*
Y167323D02*
Y187008D01*
X452756Y167323D02*
Y187008D01*
X413386Y167323D02*
X433071D01*
X452756D01*
X433071Y187008D02*
X452756D01*
X413386D02*
X433071D01*
X413386Y210630D02*
X433071D01*
X452756D01*
X433071Y190945D02*
X452756D01*
X413386D02*
X433071D01*
X452756D02*
Y210630D01*
X413386Y190945D02*
Y210630D01*
Y214567D02*
Y234252D01*
X452756Y214567D02*
Y234252D01*
X413386Y214567D02*
X433071D01*
X452756D01*
X433071Y234252D02*
X452756D01*
X413386D02*
X433071D01*
X350394Y167323D02*
X370079D01*
X389764D01*
X370079Y147638D02*
X389764D01*
X350394D02*
X370079D01*
X389764D02*
Y167323D01*
X350394Y147638D02*
Y167323D01*
Y171260D02*
Y190945D01*
X389764Y171260D02*
Y190945D01*
X350394Y171260D02*
X370079D01*
X389764D01*
X370079Y190945D02*
X389764D01*
X350394D02*
X370079D01*
X350394Y214567D02*
X370079D01*
X389764D01*
X370079Y194882D02*
X389764D01*
X350394D02*
X370079D01*
X389764D02*
Y214567D01*
X350394Y194882D02*
Y214567D01*
Y218504D02*
Y238189D01*
X389764Y218504D02*
Y238189D01*
X350394Y218504D02*
X370079D01*
X389764D01*
X370079Y238189D02*
X389764D01*
X350394D02*
X370079D01*
X187008Y371063D02*
X238189D01*
Y321850D02*
Y371063D01*
X187008Y321850D02*
X238189D01*
X187008D02*
Y371063D01*
X187008Y376969D02*
Y426181D01*
Y376969D02*
X238189D01*
Y426181D01*
X187008D02*
X238189D01*
X131890D02*
X183071D01*
Y376969D02*
Y426181D01*
X131890Y376969D02*
X183071D01*
X131890D02*
Y426181D01*
X242126Y376969D02*
Y426181D01*
Y376969D02*
X293307D01*
Y426181D01*
X242126D02*
X293307D01*
X183071Y233268D02*
X234252D01*
Y184055D02*
Y233268D01*
X183071Y184055D02*
X234252D01*
X183071D02*
Y233268D01*
Y239173D02*
Y288386D01*
Y239173D02*
X234252D01*
Y288386D01*
X183071D02*
X234252D01*
X250000Y233268D02*
X301181D01*
Y184055D02*
Y233268D01*
X250000Y184055D02*
X301181D01*
X250000D02*
Y233268D01*
Y239173D02*
Y288386D01*
Y239173D02*
X301181D01*
Y288386D01*
X250000D02*
X301181D01*
X381890Y135827D02*
X437008D01*
X381890Y100394D02*
Y135827D01*
Y100394D02*
X437008D01*
Y135827D01*
X259842Y137795D02*
X307480D01*
X259842D02*
Y169685D01*
X307480D01*
Y137795D02*
Y169685D01*
X236614Y137795D02*
Y169685D01*
X188976D02*
X236614D01*
X188976Y137795D02*
Y169685D01*
Y137795D02*
X236614D01*
X476378Y377953D02*
Y417323D01*
X397638D02*
X476378D01*
X397638Y377953D02*
X476378D01*
X397638D02*
Y417323D01*
X448757Y407573D02*
X452756D01*
Y404574D01*
X450757D01*
X452756D01*
Y401575D01*
X442759D02*
X446758D01*
X442759Y405574D01*
Y406573D01*
X443759Y407573D01*
X445758D01*
X446758Y406573D01*
X491437Y468898D02*
X485439D01*
Y465899D01*
X486439Y464899D01*
X488438D01*
X489438Y465899D01*
Y468898D01*
X491437Y459901D02*
X485439D01*
X488438Y462900D01*
Y458901D01*
D61*
X311842Y427291D02*
Y425625D01*
Y426458D01*
X306844D01*
X307677Y427291D01*
X301842Y425959D02*
Y429291D01*
X298510Y425959D01*
X297677D01*
X296844Y426792D01*
Y428458D01*
X297677Y429291D01*
X306844Y389959D02*
Y393291D01*
X309343D01*
X308510Y391625D01*
Y390792D01*
X309343Y389959D01*
X311010D01*
X311842Y390792D01*
Y392458D01*
X311010Y393291D01*
X296844Y389959D02*
X297677Y391625D01*
X299343Y393291D01*
X301009D01*
X301842Y392458D01*
Y390792D01*
X301009Y389959D01*
X300176D01*
X299343Y390792D01*
Y393291D01*
X484378Y139002D02*
Y135669D01*
X487710Y139002D01*
X488543D01*
X489376Y138169D01*
Y136502D01*
X488543Y135669D01*
X474378Y137669D02*
Y139335D01*
Y138502D01*
X479376D01*
X478543Y137669D01*
X475211Y191669D02*
X474378Y192502D01*
Y194168D01*
X475211Y195001D01*
X478543D01*
X479376Y194168D01*
Y192502D01*
X478543Y191669D01*
X477710D01*
X476877Y192502D01*
Y195001D01*
X484378Y191669D02*
Y193335D01*
Y192502D01*
X489376D01*
X488543Y191669D01*
Y195835D02*
X489376Y196668D01*
Y198334D01*
X488543Y199167D01*
X485211D01*
X484378Y198334D01*
Y196668D01*
X485211Y195835D01*
X488543D01*
X156331Y108465D02*
X155498Y109298D01*
X153832D01*
X152998Y108465D01*
Y107632D01*
X153832Y106798D01*
X154665D01*
X153832D01*
X152998Y105965D01*
Y105132D01*
X153832Y104299D01*
X155498D01*
X156331Y105132D01*
X151332D02*
X150499Y104299D01*
X148833D01*
X148000Y105132D01*
Y108465D01*
X148833Y109298D01*
X150499D01*
X151332Y108465D01*
Y107632D01*
X150499Y106798D01*
X148000D01*
X153832Y114299D02*
Y119298D01*
X156331Y116798D01*
X152998D01*
X151332Y118465D02*
X150499Y119298D01*
X148833D01*
X148000Y118465D01*
Y115132D01*
X148833Y114299D01*
X150499D01*
X151332Y115132D01*
Y118465D01*
X360999Y114299D02*
X364331D01*
X360999Y117631D01*
Y118465D01*
X361831Y119298D01*
X363498D01*
X364331Y118465D01*
Y104299D02*
X362665D01*
X363498D01*
Y109298D01*
X364331Y108465D01*
D62*
X368110Y104331D02*
X373030D01*
Y106790D01*
X372210Y107610D01*
X370570D01*
X369750Y106790D01*
Y104331D01*
X368110Y109250D02*
Y110890D01*
Y110070D01*
X373030D01*
X372210Y109250D01*
X121885Y449476D02*
X121065Y450296D01*
Y451936D01*
X121885Y452756D01*
X125164D01*
X125984Y451936D01*
Y450296D01*
X125164Y449476D01*
X121065Y445376D02*
Y447016D01*
X121885Y447836D01*
X125164D01*
X125984Y447016D01*
Y445376D01*
X125164Y444557D01*
X121885D01*
X121065Y445376D01*
X125984Y442917D02*
X121065D01*
X125984Y439637D01*
X121065D01*
X125984Y437997D02*
X121065D01*
X125984Y434717D01*
X121065D01*
X326970Y135303D02*
Y136943D01*
Y136123D01*
X331070D01*
X331890Y136943D01*
Y137763D01*
X331070Y138583D01*
X331890Y133663D02*
X326970D01*
Y131203D01*
X327790Y130383D01*
X329430D01*
X330250Y131203D01*
Y133663D01*
X331890Y128743D02*
Y127103D01*
Y127923D01*
X326970D01*
X327790Y128743D01*
X298031Y387008D02*
Y382088D01*
X300491D01*
X301311Y382908D01*
Y384548D01*
X300491Y385368D01*
X298031D01*
X306231Y387008D02*
X302951D01*
X306231Y383728D01*
Y382908D01*
X305411Y382088D01*
X303771D01*
X302951Y382908D01*
X307871Y382088D02*
X311151D01*
Y382908D01*
X307871Y386188D01*
Y387008D01*
X125984Y374016D02*
X121065D01*
Y371556D01*
X121885Y370736D01*
X123524D01*
X124344Y371556D01*
Y374016D01*
X121065Y369096D02*
X125984D01*
X124344Y367456D01*
X125984Y365816D01*
X121065D01*
X125984Y364176D02*
X121065D01*
Y361717D01*
X121885Y360897D01*
X123524D01*
X124344Y361717D01*
Y364176D01*
Y362537D02*
X125984Y360897D01*
X397800Y219815D02*
X398621Y218995D01*
Y217355D01*
X397800Y216535D01*
X396981D01*
X396161Y217355D01*
Y218995D01*
X395341Y219815D01*
X394521D01*
X393701Y218995D01*
Y217355D01*
X394521Y216535D01*
X393701Y221455D02*
X398621D01*
X396981Y223095D01*
X398621Y224735D01*
X393701D01*
Y226375D02*
X396981D01*
X398621Y228015D01*
X396981Y229655D01*
X393701D01*
X396161D01*
Y226375D01*
X398621Y231294D02*
X393701D01*
Y234574D01*
X398621Y236214D02*
X393701D01*
Y239494D01*
Y241134D02*
Y242774D01*
Y241954D01*
X398621D01*
X397800Y241134D01*
X394293Y212992D02*
X399213D01*
Y210532D01*
X398393Y209712D01*
X397573D01*
X396753Y210532D01*
Y212992D01*
Y210532D01*
X395933Y209712D01*
X395113D01*
X394293Y210532D01*
Y212992D01*
Y208072D02*
Y206433D01*
Y207253D01*
X399213D01*
Y208072D01*
Y206433D01*
X395113Y200693D02*
X394293Y201513D01*
Y203153D01*
X395113Y203973D01*
X398393D01*
X399213Y203153D01*
Y201513D01*
X398393Y200693D01*
X396753D01*
Y202333D01*
X399213Y199053D02*
Y197413D01*
Y198233D01*
X394293D01*
X395113Y199053D01*
X343144Y191208D02*
X342324Y192028D01*
Y193668D01*
X343144Y194488D01*
X343964D01*
X344784Y193668D01*
Y192028D01*
X345604Y191208D01*
X346424D01*
X347244Y192028D01*
Y193668D01*
X346424Y194488D01*
X347244Y189568D02*
X342324D01*
X343964Y187929D01*
X342324Y186289D01*
X347244D01*
Y184649D02*
X343964D01*
X342324Y183009D01*
X343964Y181369D01*
X347244D01*
X344784D01*
Y184649D01*
X342324Y179729D02*
X347244D01*
Y176449D01*
X342324Y174810D02*
X347244D01*
Y171530D01*
Y166610D02*
Y169890D01*
X343964Y166610D01*
X343144D01*
X342324Y167430D01*
Y169070D01*
X343144Y169890D01*
X355118Y139962D02*
Y144882D01*
X357578D01*
X358398Y144062D01*
Y143242D01*
X357578Y142422D01*
X355118D01*
X357578D01*
X358398Y141602D01*
Y140782D01*
X357578Y139962D01*
X355118D01*
X360038D02*
X361678D01*
X360858D01*
Y144882D01*
X360038D01*
X361678D01*
X367417Y140782D02*
X366597Y139962D01*
X364957D01*
X364138Y140782D01*
Y144062D01*
X364957Y144882D01*
X366597D01*
X367417Y144062D01*
Y142422D01*
X365777D01*
X372337Y144882D02*
X369057D01*
X372337Y141602D01*
Y140782D01*
X371517Y139962D01*
X369877D01*
X369057Y140782D01*
X449420Y241400D02*
X450240Y242220D01*
X451880D01*
X452700Y241400D01*
Y240580D01*
X451880Y239760D01*
X450240D01*
X449420Y238940D01*
Y238120D01*
X450240Y237300D01*
X451880D01*
X452700Y238120D01*
X447780Y237300D02*
Y242220D01*
X446140Y240580D01*
X444501Y242220D01*
Y237300D01*
X442861D02*
Y240580D01*
X441221Y242220D01*
X439581Y240580D01*
Y237300D01*
Y239760D01*
X442861D01*
X437941Y242220D02*
Y237300D01*
X434661D01*
X433021Y242220D02*
Y237300D01*
X429741D01*
X428102Y241400D02*
X427282Y242220D01*
X425642D01*
X424822Y241400D01*
Y240580D01*
X425642Y239760D01*
X426462D01*
X425642D01*
X424822Y238940D01*
Y238120D01*
X425642Y237300D01*
X427282D01*
X428102Y238120D01*
X404529Y216535D02*
X409449D01*
Y214076D01*
X408629Y213256D01*
X407809D01*
X406989Y214076D01*
Y216535D01*
Y214076D01*
X406169Y213256D01*
X405349D01*
X404529Y214076D01*
Y216535D01*
Y211616D02*
Y209976D01*
Y210796D01*
X409449D01*
Y211616D01*
Y209976D01*
X405349Y204236D02*
X404529Y205056D01*
Y206696D01*
X405349Y207516D01*
X408629D01*
X409449Y206696D01*
Y205056D01*
X408629Y204236D01*
X406989D01*
Y205876D01*
X405349Y202596D02*
X404529Y201776D01*
Y200136D01*
X405349Y199317D01*
X406169D01*
X406989Y200136D01*
Y200957D01*
Y200136D01*
X407809Y199317D01*
X408629D01*
X409449Y200136D01*
Y201776D01*
X408629Y202596D01*
X460467Y185697D02*
X459647Y186516D01*
Y188156D01*
X460467Y188976D01*
X461287D01*
X462107Y188156D01*
Y186516D01*
X462927Y185697D01*
X463747D01*
X464567Y186516D01*
Y188156D01*
X463747Y188976D01*
X464567Y184057D02*
X459647D01*
X461287Y182417D01*
X459647Y180777D01*
X464567D01*
Y179137D02*
X461287D01*
X459647Y177497D01*
X461287Y175857D01*
X464567D01*
X462107D01*
Y179137D01*
X459647Y174217D02*
X464567D01*
Y170938D01*
X459647Y169298D02*
X464567D01*
Y166018D01*
Y161918D02*
X459647D01*
X462107Y164378D01*
Y161098D01*
X404529Y173228D02*
X409449D01*
Y170768D01*
X408629Y169949D01*
X407809D01*
X406989Y170768D01*
Y173228D01*
Y170768D01*
X406169Y169949D01*
X405349D01*
X404529Y170768D01*
Y173228D01*
Y168309D02*
Y166669D01*
Y167489D01*
X409449D01*
Y168309D01*
Y166669D01*
X405349Y160929D02*
X404529Y161749D01*
Y163389D01*
X405349Y164209D01*
X408629D01*
X409449Y163389D01*
Y161749D01*
X408629Y160929D01*
X406989D01*
Y162569D01*
X409449Y156830D02*
X404529D01*
X406989Y159289D01*
Y156009D01*
X446800Y298400D02*
Y303320D01*
X444340D01*
X443520Y302500D01*
Y300860D01*
X444340Y300040D01*
X446800D01*
X445160D02*
X443520Y298400D01*
X441880D02*
X439421D01*
X438601Y299220D01*
X439421Y300040D01*
X441060D01*
X441880Y300860D01*
X441060Y301680D01*
X438601D01*
X436961Y303320D02*
Y298400D01*
Y300860D01*
X436141Y301680D01*
X434501D01*
X433681Y300860D01*
Y298400D01*
X432041D02*
X430401D01*
X431221D01*
Y301680D01*
X432041D01*
X427121Y298400D02*
Y302500D01*
Y300860D01*
X427941D01*
X426301D01*
X427121D01*
Y302500D01*
X426301Y303320D01*
X423022Y302500D02*
Y301680D01*
X423842D01*
X422202D01*
X423022D01*
Y299220D01*
X422202Y298400D01*
X419742D02*
X418102D01*
X418922D01*
Y303320D01*
X419742Y302500D01*
X401575Y251969D02*
Y247049D01*
X404035D01*
X404855Y247869D01*
Y249509D01*
X404035Y250329D01*
X401575D01*
X403215D02*
X404855Y251969D01*
X406495D02*
X408954D01*
X409774Y251149D01*
X408954Y250329D01*
X407314D01*
X406495Y249509D01*
X407314Y248689D01*
X409774D01*
X411414Y247049D02*
Y251969D01*
Y249509D01*
X412234Y248689D01*
X413874D01*
X414694Y249509D01*
Y251969D01*
X416334D02*
X417974D01*
X417154D01*
Y248689D01*
X416334D01*
X421253Y251969D02*
Y247869D01*
Y249509D01*
X420434D01*
X422073D01*
X421253D01*
Y247869D01*
X422073Y247049D01*
X425353Y247869D02*
Y248689D01*
X424533D01*
X426173D01*
X425353D01*
Y251149D01*
X426173Y251969D01*
X431913D02*
X428633D01*
X431913Y248689D01*
Y247869D01*
X431093Y247049D01*
X429453D01*
X428633Y247869D01*
X399500Y298400D02*
Y303320D01*
X397040D01*
X396220Y302500D01*
Y300860D01*
X397040Y300040D01*
X399500D01*
X397860D02*
X396220Y298400D01*
X394580D02*
X392121D01*
X391301Y299220D01*
X392121Y300040D01*
X393760D01*
X394580Y300860D01*
X393760Y301680D01*
X391301D01*
X389661Y303320D02*
Y298400D01*
Y300860D01*
X388841Y301680D01*
X387201D01*
X386381Y300860D01*
Y298400D01*
X384741D02*
X383101D01*
X383921D01*
Y301680D01*
X384741D01*
X379821Y298400D02*
Y302500D01*
Y300860D01*
X380641D01*
X379001D01*
X379821D01*
Y302500D01*
X379001Y303320D01*
X375722Y302500D02*
Y301680D01*
X376542D01*
X374902D01*
X375722D01*
Y299220D01*
X374902Y298400D01*
X372442Y302500D02*
X371622Y303320D01*
X369982D01*
X369162Y302500D01*
Y301680D01*
X369982Y300860D01*
X370802D01*
X369982D01*
X369162Y300040D01*
Y299220D01*
X369982Y298400D01*
X371622D01*
X372442Y299220D01*
X354331Y251969D02*
Y247049D01*
X356790D01*
X357611Y247869D01*
Y249509D01*
X356790Y250329D01*
X354331D01*
X355971D02*
X357611Y251969D01*
X359250D02*
X361710D01*
X362530Y251149D01*
X361710Y250329D01*
X360070D01*
X359250Y249509D01*
X360070Y248689D01*
X362530D01*
X364170Y247049D02*
Y251969D01*
Y249509D01*
X364990Y248689D01*
X366630D01*
X367450Y249509D01*
Y251969D01*
X369090D02*
X370730D01*
X369910D01*
Y248689D01*
X369090D01*
X374009Y251969D02*
Y247869D01*
Y249509D01*
X373189D01*
X374829D01*
X374009D01*
Y247869D01*
X374829Y247049D01*
X378109Y247869D02*
Y248689D01*
X377289D01*
X378929D01*
X378109D01*
Y251149D01*
X378929Y251969D01*
X383849D02*
Y247049D01*
X381389Y249509D01*
X384669D01*
X169129Y162074D02*
X168309Y162894D01*
Y164534D01*
X169129Y165354D01*
X169949D01*
X170768Y164534D01*
Y162894D01*
X171589Y162074D01*
X172408D01*
X173228Y162894D01*
Y164534D01*
X172408Y165354D01*
X168309Y160435D02*
X173228D01*
X171589Y158795D01*
X173228Y157155D01*
X168309D01*
X173228Y155515D02*
Y153875D01*
Y154695D01*
X168309D01*
X169129Y155515D01*
X121065Y425197D02*
X125164D01*
X125984Y424377D01*
Y422737D01*
X125164Y421917D01*
X121065D01*
X121885Y416997D02*
X121065Y417817D01*
Y419457D01*
X121885Y420277D01*
X122705D01*
X123524Y419457D01*
Y417817D01*
X124344Y416997D01*
X125164D01*
X125984Y417817D01*
Y419457D01*
X125164Y420277D01*
X121065Y412078D02*
Y415357D01*
X125984D01*
Y412078D01*
X123524Y415357D02*
Y413718D01*
X125984Y410438D02*
X121065D01*
Y407978D01*
X121885Y407158D01*
X123524D01*
X124344Y407978D01*
Y410438D01*
Y408798D02*
X125984Y407158D01*
X121065Y397638D02*
X124344D01*
X125984Y395998D01*
X124344Y394358D01*
X121065D01*
Y392718D02*
Y391078D01*
Y391898D01*
X125984D01*
Y392718D01*
Y391078D01*
Y388618D02*
X121065D01*
X125984Y385339D01*
X121065D01*
X463978Y158138D02*
Y159777D01*
Y158958D01*
X468078D01*
X468898Y159777D01*
Y160597D01*
X468078Y161417D01*
X463978Y156498D02*
Y153218D01*
Y154858D01*
X468898D01*
Y151578D02*
X465618D01*
X463978Y149938D01*
X465618Y148298D01*
X468898D01*
X466438D01*
Y151578D01*
X464798Y143378D02*
X463978Y144199D01*
Y145838D01*
X464798Y146658D01*
X468078D01*
X468898Y145838D01*
Y144199D01*
X468078Y143378D01*
X466438D01*
Y145018D01*
X445864Y111417D02*
Y113057D01*
Y112237D01*
X440945D01*
Y111417D01*
Y113057D01*
Y118797D02*
Y115517D01*
X444225Y118797D01*
X445045D01*
X445864Y117977D01*
Y116337D01*
X445045Y115517D01*
Y123716D02*
X445864Y122897D01*
Y121257D01*
X445045Y120437D01*
X441765D01*
X440945Y121257D01*
Y122897D01*
X441765Y123716D01*
X320472Y146457D02*
X325392D01*
Y148916D01*
X324572Y149736D01*
X322932D01*
X322112Y148916D01*
Y146457D01*
Y148097D02*
X320472Y149736D01*
X325392Y154656D02*
Y151376D01*
X320472D01*
Y154656D01*
X322932Y151376D02*
Y153016D01*
X324572Y159576D02*
X325392Y158756D01*
Y157116D01*
X324572Y156296D01*
X323752D01*
X322932Y157116D01*
Y158756D01*
X322112Y159576D01*
X321292D01*
X320472Y158756D01*
Y157116D01*
X321292Y156296D01*
X325392Y164496D02*
Y161216D01*
X320472D01*
Y164496D01*
X322932Y161216D02*
Y162856D01*
X325392Y166135D02*
Y169415D01*
Y167775D01*
X320472D01*
X178347Y220866D02*
X175067D01*
X173427Y219226D01*
X175067Y217586D01*
X178347D01*
X175887D01*
Y220866D01*
X173427Y215947D02*
Y214307D01*
Y215126D01*
X178347D01*
Y215947D01*
Y214307D01*
Y211847D02*
X173427D01*
X178347Y208567D01*
X173427D01*
X174247Y206927D02*
X173427Y206107D01*
Y204467D01*
X174247Y203647D01*
X175067D01*
X175887Y204467D01*
Y205287D01*
Y204467D01*
X176707Y203647D01*
X177526D01*
X178347Y204467D01*
Y206107D01*
X177526Y206927D01*
X218898Y290945D02*
Y294225D01*
X217258Y295865D01*
X215618Y294225D01*
Y290945D01*
Y293405D01*
X218898D01*
X213978Y295865D02*
X212338D01*
X213158D01*
Y290945D01*
X213978D01*
X212338D01*
X209878D02*
Y295865D01*
X206598Y290945D01*
Y295865D01*
X201679Y290945D02*
X204959D01*
X201679Y294225D01*
Y295045D01*
X202499Y295865D01*
X204139D01*
X204959Y295045D01*
X304724Y199213D02*
X308004D01*
X309644Y200852D01*
X308004Y202492D01*
X304724D01*
X307184D01*
Y199213D01*
X309644Y204132D02*
Y205772D01*
Y204952D01*
X304724D01*
Y204132D01*
Y205772D01*
Y208232D02*
X309644D01*
X304724Y211512D01*
X309644D01*
X304724Y213152D02*
Y214792D01*
Y213972D01*
X309644D01*
X308824Y213152D01*
X292520Y291732D02*
Y295012D01*
X290880Y296652D01*
X289240Y295012D01*
Y291732D01*
Y294192D01*
X292520D01*
X287600Y296652D02*
X285960D01*
X286780D01*
Y291732D01*
X287600D01*
X285960D01*
X283500D02*
Y296652D01*
X280221Y291732D01*
Y296652D01*
X278581Y295832D02*
X277761Y296652D01*
X276121D01*
X275301Y295832D01*
Y292552D01*
X276121Y291732D01*
X277761D01*
X278581Y292552D01*
Y295832D01*
X240158Y338976D02*
X245077D01*
Y341436D01*
X244257Y342256D01*
X242617D01*
X241797Y341436D01*
Y338976D01*
X245077Y343896D02*
X240158D01*
X241797Y345536D01*
X240158Y347176D01*
X245077D01*
X240158Y348816D02*
X245077D01*
X243437Y350456D01*
X245077Y352096D01*
X240158D01*
X244257Y353735D02*
X245077Y354555D01*
Y356195D01*
X244257Y357015D01*
X243437D01*
X242617Y356195D01*
Y355375D01*
Y356195D01*
X241797Y357015D01*
X240977D01*
X240158Y356195D01*
Y354555D01*
X240977Y353735D01*
X229921Y428740D02*
Y433660D01*
X227461D01*
X226642Y432840D01*
Y431200D01*
X227461Y430380D01*
X229921D01*
X225002Y433660D02*
Y428740D01*
X223362Y430380D01*
X221722Y428740D01*
Y433660D01*
X220082Y428740D02*
Y433660D01*
X218442Y432020D01*
X216802Y433660D01*
Y428740D01*
X211882D02*
X215162D01*
X211882Y432020D01*
Y432840D01*
X212702Y433660D01*
X214342D01*
X215162Y432840D01*
X155905Y373228D02*
Y368309D01*
X158365D01*
X159185Y369129D01*
Y370768D01*
X158365Y371588D01*
X155905D01*
X160825Y368309D02*
Y373228D01*
X162465Y371588D01*
X164105Y373228D01*
Y368309D01*
X165745Y373228D02*
Y368309D01*
X167385Y369949D01*
X169025Y368309D01*
Y373228D01*
X170665D02*
X172304D01*
X171484D01*
Y368309D01*
X170665Y369129D01*
X264567Y372441D02*
Y367521D01*
X267027D01*
X267847Y368341D01*
Y369981D01*
X267027Y370801D01*
X264567D01*
X269487Y367521D02*
Y372441D01*
X271127Y370801D01*
X272766Y372441D01*
Y367521D01*
X274406Y372441D02*
Y367521D01*
X276046Y369161D01*
X277686Y367521D01*
Y372441D01*
X279326Y368341D02*
X280146Y367521D01*
X281786D01*
X282606Y368341D01*
Y371621D01*
X281786Y372441D01*
X280146D01*
X279326Y371621D01*
Y368341D01*
X273228Y437008D02*
Y432088D01*
X275688D01*
X276508Y432908D01*
Y434548D01*
X275688Y435368D01*
X273228D01*
X278148Y432088D02*
X279788D01*
X278968D01*
Y437008D01*
X278148D01*
X279788D01*
X282248D02*
Y432088D01*
X285527Y437008D01*
Y432088D01*
X287167Y437008D02*
X288807D01*
X287987D01*
Y432088D01*
X287167Y432908D01*
X179528Y437402D02*
Y432482D01*
X181987D01*
X182807Y433302D01*
Y434942D01*
X181987Y435762D01*
X179528D01*
X184447Y432482D02*
X186087D01*
X185267D01*
Y437402D01*
X184447D01*
X186087D01*
X188547D02*
Y432482D01*
X191827Y437402D01*
Y432482D01*
X193467Y437402D02*
X195106D01*
X194287D01*
Y432482D01*
X193467Y433302D01*
X157184Y297638D02*
Y300918D01*
X158824Y299278D02*
X155544D01*
X158824Y302557D02*
X159644Y303377D01*
Y305017D01*
X158824Y305837D01*
X158004D01*
X157184Y305017D01*
Y304197D01*
Y305017D01*
X156364Y305837D01*
X155544D01*
X154724Y305017D01*
Y303377D01*
X155544Y302557D01*
X159644Y307477D02*
X156364D01*
X154724Y309117D01*
X156364Y310757D01*
X159644D01*
X158824Y312397D02*
X159644Y313217D01*
Y314857D01*
X158824Y315677D01*
X158004D01*
X157184Y314857D01*
Y314037D01*
Y314857D01*
X156364Y315677D01*
X155544D01*
X154724Y314857D01*
Y313217D01*
X155544Y312397D01*
X157578Y198819D02*
Y202099D01*
X159218Y200459D02*
X155938D01*
X159218Y203739D02*
X160038Y204558D01*
Y206198D01*
X159218Y207018D01*
X158398D01*
X157578Y206198D01*
Y205379D01*
Y206198D01*
X156758Y207018D01*
X155938D01*
X155118Y206198D01*
Y204558D01*
X155938Y203739D01*
X160038Y208658D02*
X156758D01*
X155118Y210298D01*
X156758Y211938D01*
X160038D01*
X159218Y213578D02*
X160038Y214398D01*
Y216038D01*
X159218Y216858D01*
X158398D01*
X157578Y216038D01*
Y215218D01*
Y216038D01*
X156758Y216858D01*
X155938D01*
X155118Y216038D01*
Y214398D01*
X155938Y213578D01*
X375197Y407492D02*
Y402572D01*
X377657D01*
X378477Y403392D01*
Y405032D01*
X377657Y405852D01*
X375197D01*
X383396Y403392D02*
X382576Y402572D01*
X380936D01*
X380117Y403392D01*
Y406672D01*
X380936Y407492D01*
X382576D01*
X383396Y406672D01*
X387496Y402572D02*
X385856D01*
X385036Y403392D01*
Y406672D01*
X385856Y407492D01*
X387496D01*
X388316Y406672D01*
Y403392D01*
X387496Y402572D01*
X389956Y407492D02*
Y402572D01*
X393236Y407492D01*
Y402572D01*
X394876D02*
Y405852D01*
X396515Y407492D01*
X398155Y405852D01*
Y402572D01*
X472278Y437665D02*
X471458Y438485D01*
Y440125D01*
X472278Y440945D01*
X475558D01*
X476378Y440125D01*
Y438485D01*
X475558Y437665D01*
X476378Y436025D02*
X473098D01*
X471458Y434385D01*
X473098Y432745D01*
X476378D01*
X473918D01*
Y436025D01*
X476378Y431106D02*
X471458D01*
X476378Y427826D01*
X471458D01*
X476378Y426186D02*
X473098Y422906D01*
X476378Y421266D02*
X471458D01*
Y418806D01*
X472278Y417986D01*
X473918D01*
X474738Y418806D01*
Y421266D01*
X471458Y416347D02*
X476378D01*
X474738Y414707D01*
X476378Y413067D01*
X471458D01*
X476378Y411427D02*
X471458D01*
Y408967D01*
X472278Y408147D01*
X473918D01*
X474738Y408967D01*
Y411427D01*
Y409787D02*
X476378Y408147D01*
X422242Y448819D02*
X418963D01*
X417323Y450459D01*
X418963Y452099D01*
X422242D01*
Y453739D02*
Y455378D01*
Y454559D01*
X417323D01*
Y453739D01*
Y455378D01*
Y457838D02*
X422242D01*
X417323Y461118D01*
X422242D01*
D98*
X100394Y394685D02*
G03*
X100394Y384842I4921J-4921D01*
G01*
Y418307D02*
G03*
X100394Y408465I4921J-4921D01*
G01*
Y371063D02*
G03*
X100394Y361221I4921J-4921D01*
G01*
Y445866D02*
G03*
X100394Y436024I4921J-4921D01*
G01*
X118110Y379921D02*
Y399606D01*
X100394D02*
X118110D01*
X100394Y384842D02*
Y394685D01*
Y379921D02*
X118110D01*
X100394D02*
Y384842D01*
Y394685D02*
Y399606D01*
Y418307D02*
Y423228D01*
Y403543D02*
Y408465D01*
Y403543D02*
X118110D01*
X100394Y408465D02*
Y418307D01*
Y423228D02*
X118110D01*
Y403543D02*
Y423228D01*
Y356299D02*
Y375984D01*
X100394D02*
X118110D01*
X100394Y361221D02*
Y371063D01*
Y356299D02*
X118110D01*
X100394D02*
Y361221D01*
Y371063D02*
Y375984D01*
Y445866D02*
Y450787D01*
Y431102D02*
Y436024D01*
Y431102D02*
X118110D01*
X100394Y436024D02*
Y445866D01*
Y450787D02*
X118110D01*
Y431102D02*
Y450787D01*
M02*
