G04 Layer_Color=65535*
%FSLAX25Y25*%
%MOIN*%
G70*
G01*
G75*
%ADD31C,0.00787*%
%ADD32C,0.01000*%
%ADD57C,0.00984*%
%ADD58C,0.00600*%
%ADD59C,0.01575*%
%ADD60C,0.00000*%
%ADD61C,0.00800*%
%ADD62C,0.00591*%
%ADD63R,0.03062X0.10236*%
%ADD64R,0.10236X0.03062*%
D31*
X349606Y404547D02*
G03*
X349606Y404547I-394J0D01*
G01*
X435433Y380118D02*
Y383661D01*
X446457Y380118D02*
Y383661D01*
X429823Y367913D02*
Y380118D01*
X412697Y367913D02*
Y380118D01*
X458268Y341339D02*
Y351575D01*
Y341339D02*
X463527D01*
X458268Y351575D02*
X458268Y351575D01*
X463527D01*
X450394Y453937D02*
X455653D01*
X450394Y453937D02*
X450394Y453937D01*
X450394Y443701D02*
X455653D01*
X450394D02*
Y453937D01*
X202362Y361024D02*
Y371260D01*
Y361024D02*
X207622D01*
X202362Y371260D02*
X202362Y371260D01*
X207622D01*
X187795Y407874D02*
X198031D01*
X187795Y402614D02*
Y407874D01*
X198031D02*
X198031Y407874D01*
Y402614D02*
Y407874D01*
X172047Y407874D02*
X182283D01*
X172047Y402614D02*
Y407874D01*
X182283D02*
X182283Y407874D01*
Y402614D02*
Y407874D01*
X242913Y407874D02*
X253150D01*
X242913Y402614D02*
Y407874D01*
X253150D02*
X253150Y407874D01*
Y402614D02*
Y407874D01*
X188976Y143701D02*
Y163386D01*
X196850Y143701D02*
Y163386D01*
X188976D02*
X196850D01*
X188976Y143701D02*
X196850D01*
X418898Y157874D02*
Y164961D01*
X384252Y157874D02*
Y164961D01*
X418898D01*
X384252Y157874D02*
X418898D01*
X237992Y153150D02*
Y153937D01*
X250197Y153150D02*
Y153937D01*
X237992Y153150D02*
X250197D01*
X237992Y153937D02*
X250197D01*
X418898Y216929D02*
Y224016D01*
X384252Y216929D02*
Y224016D01*
X418898D01*
X384252Y216929D02*
X418898D01*
X359842Y411240D02*
Y417539D01*
X348425Y411240D02*
Y417539D01*
X351969Y447657D02*
X362205D01*
X351969Y426398D02*
X362205D01*
X351969D02*
Y429153D01*
X362205Y426398D02*
Y429153D01*
Y445295D02*
Y447657D01*
X351969Y445295D02*
Y447657D01*
X350000Y430925D02*
Y441161D01*
X328740Y430925D02*
Y441161D01*
X331496D01*
X328740Y430925D02*
X331496D01*
X347638D02*
X350000D01*
X347638Y441161D02*
X350000D01*
X331299Y397461D02*
X341535D01*
X331299Y376201D02*
X341535D01*
X331299D02*
Y378957D01*
X341535Y376201D02*
Y378957D01*
Y395098D02*
Y397461D01*
X331299Y395098D02*
Y397461D01*
X358268Y377177D02*
X368504D01*
X358268Y398437D02*
X368504D01*
Y395681D02*
Y398437D01*
X358268Y395681D02*
Y398437D01*
Y377177D02*
Y379539D01*
X368504Y377177D02*
Y379539D01*
X331102Y407500D02*
X341339D01*
X331102Y428760D02*
X341339D01*
Y426004D02*
Y428760D01*
X331102Y426004D02*
Y428760D01*
Y407500D02*
Y409862D01*
X341339Y407500D02*
Y409862D01*
X388976Y384559D02*
Y386921D01*
X399213Y384559D02*
Y386921D01*
Y365661D02*
Y368417D01*
X388976Y365661D02*
Y368417D01*
Y365661D02*
X399213D01*
X388976Y386921D02*
X399213D01*
X378215Y386130D02*
X382415D01*
X376915Y378830D02*
Y381430D01*
X378215Y374130D02*
X379115D01*
X381515D01*
X382415D01*
D32*
X208661Y199803D02*
G03*
X208661Y199803I-2953J0D01*
G01*
X329528Y338602D02*
Y374035D01*
Y338602D02*
X361024D01*
Y374035D01*
X329528D02*
X361024D01*
X452756Y355906D02*
X484252D01*
Y438976D01*
X452756D02*
X484252D01*
X452756Y355906D02*
Y438976D01*
X243783Y292713D02*
Y305713D01*
X220783D02*
X243783D01*
X220783Y292713D02*
Y305713D01*
Y292713D02*
X243783D01*
X152756Y403150D02*
Y413386D01*
X131496Y403150D02*
Y413386D01*
X134252D01*
X131496Y403150D02*
X134252D01*
X150394D02*
X152756D01*
X150394Y413386D02*
X152756D01*
X152362Y430709D02*
Y440945D01*
X131102Y430709D02*
Y440945D01*
X133858D01*
X131102Y430709D02*
X133858D01*
X150000D02*
X152362D01*
X150000Y440945D02*
X152362D01*
X216339Y145866D02*
X226575D01*
X216339Y167126D02*
X226575D01*
Y164370D02*
Y167126D01*
X216339Y164370D02*
Y167126D01*
Y145866D02*
Y148228D01*
X226575Y145866D02*
Y148228D01*
X151969Y379528D02*
Y389764D01*
X130709Y379528D02*
Y389764D01*
X133465D01*
X130709Y379528D02*
X133465D01*
X149606D02*
X151969D01*
X149606Y389764D02*
X151969D01*
X131102Y355906D02*
Y366142D01*
X152362Y355906D02*
Y366142D01*
X149606Y355906D02*
X152362D01*
X149606Y366142D02*
X152362D01*
X131102D02*
X133465D01*
X131102Y355906D02*
X133465D01*
X254331Y164173D02*
X264567D01*
X254331Y142913D02*
X264567D01*
X254331D02*
Y145669D01*
X264567Y142913D02*
Y145669D01*
Y161811D02*
Y164173D01*
X254331Y161811D02*
Y164173D01*
X371260Y288976D02*
Y299213D01*
X392520Y288976D02*
Y299213D01*
X389764Y288976D02*
X392520D01*
X389764Y299213D02*
X392520D01*
X371260D02*
X373622D01*
X371260Y288976D02*
X373622D01*
X372835Y270472D02*
X383071D01*
X372835Y249213D02*
X383071D01*
X372835D02*
Y251969D01*
X383071Y249213D02*
Y251969D01*
Y268110D02*
Y270472D01*
X372835Y268110D02*
Y270472D01*
X447638Y199606D02*
X457874D01*
X447638Y178347D02*
X457874D01*
X447638D02*
Y181102D01*
X457874Y178347D02*
Y181102D01*
Y197244D02*
Y199606D01*
X447638Y197244D02*
Y199606D01*
X490945Y201181D02*
Y211417D01*
X469685Y201181D02*
Y211417D01*
X472441D01*
X469685Y201181D02*
X472441D01*
X488583D02*
X490945D01*
X488583Y211417D02*
X490945D01*
X447638Y270472D02*
X457874D01*
X447638Y249213D02*
X457874D01*
X447638D02*
Y251969D01*
X457874Y249213D02*
Y251969D01*
Y268110D02*
Y270472D01*
X447638Y268110D02*
Y270472D01*
X361024Y158661D02*
X371260D01*
X361024Y179921D02*
X371260D01*
Y177165D02*
Y179921D01*
X361024Y177165D02*
Y179921D01*
Y158661D02*
Y161024D01*
X371260Y158661D02*
Y161024D01*
X434252Y235039D02*
Y245276D01*
X455512Y235039D02*
Y245276D01*
X452756Y235039D02*
X455512D01*
X452756Y245276D02*
X455512D01*
X434252D02*
X436614D01*
X434252Y235039D02*
X436614D01*
X459449Y199606D02*
X469685D01*
X459449Y178347D02*
X469685D01*
X459449D02*
Y181102D01*
X469685Y178347D02*
Y181102D01*
Y197244D02*
Y199606D01*
X459449Y197244D02*
Y199606D01*
X443701Y156299D02*
Y166535D01*
X422441Y156299D02*
Y166535D01*
X425197D01*
X422441Y156299D02*
X425197D01*
X441339D02*
X443701D01*
X441339Y166535D02*
X443701D01*
X345276Y245276D02*
X355512D01*
Y263779D02*
Y266535D01*
X345276Y263779D02*
Y266535D01*
Y245276D02*
Y247638D01*
X355512Y245276D02*
Y247638D01*
X345276Y266535D02*
X355512D01*
X354724Y251575D02*
Y259842D01*
X355906Y258661D01*
X353543D02*
X354724Y259842D01*
X345276Y268898D02*
X355512D01*
Y287402D02*
Y290158D01*
X345276Y287402D02*
Y290158D01*
Y268898D02*
Y271260D01*
X355512Y268898D02*
Y271260D01*
X345276Y290158D02*
X355512D01*
X354724Y275197D02*
Y283465D01*
X355906Y282283D01*
X353543D02*
X354724Y283465D01*
X351575Y187795D02*
Y198031D01*
X370079Y187795D02*
X372835D01*
X370079Y198031D02*
X372835D01*
X351575D02*
X353937D01*
X351575Y187795D02*
X353937D01*
X372835D02*
Y198031D01*
X357874Y188583D02*
X366142D01*
X364961Y187402D02*
X366142Y188583D01*
X364961Y189764D02*
X366142Y188583D01*
X375197Y187795D02*
Y198031D01*
X393701Y187795D02*
X396457D01*
X393701Y198031D02*
X396457D01*
X375197D02*
X377559D01*
X375197Y187795D02*
X377559D01*
X396457D02*
Y198031D01*
X381496Y188583D02*
X389764D01*
X388583Y187402D02*
X389764Y188583D01*
X388583Y189764D02*
X389764Y188583D01*
X420079Y253150D02*
X430315D01*
Y271654D02*
Y274410D01*
X420079Y271654D02*
Y274410D01*
Y253150D02*
Y255512D01*
X430315Y253150D02*
Y255512D01*
X420079Y274410D02*
X430315D01*
X429528Y259449D02*
Y267717D01*
X430709Y266535D01*
X428346D02*
X429528Y267717D01*
X420079Y276772D02*
X430315D01*
Y295276D02*
Y298031D01*
X420079Y295276D02*
Y298031D01*
Y276772D02*
Y279134D01*
X430315Y276772D02*
Y279134D01*
X420079Y298031D02*
X430315D01*
X429528Y283071D02*
Y291339D01*
X430709Y290158D01*
X428346D02*
X429528Y291339D01*
X396457Y253150D02*
X406693D01*
Y271654D02*
Y274410D01*
X396457Y271654D02*
Y274410D01*
Y253150D02*
Y255512D01*
X406693Y253150D02*
Y255512D01*
X396457Y274410D02*
X406693D01*
X405905Y259449D02*
Y267717D01*
X407087Y266535D01*
X404724D02*
X405905Y267717D01*
X396457Y276772D02*
X406693D01*
Y295276D02*
Y298031D01*
X396457Y295276D02*
Y298031D01*
Y276772D02*
Y279134D01*
X406693Y276772D02*
Y279134D01*
X396457Y298031D02*
X406693D01*
X405905Y283071D02*
Y291339D01*
X407087Y290158D01*
X404724D02*
X405905Y291339D01*
X410236Y352165D02*
Y362402D01*
X388976Y352165D02*
Y362402D01*
X391732D01*
X388976Y352165D02*
X391732D01*
X407874D02*
X410236D01*
X407874Y362402D02*
X410236D01*
X281496Y297244D02*
Y307480D01*
X260236Y297244D02*
Y307480D01*
X262992D01*
X260236Y297244D02*
X262992D01*
X279134D02*
X281496D01*
X279134Y307480D02*
X281496D01*
X341339Y209842D02*
X351575D01*
X341339Y231102D02*
X351575D01*
Y228346D02*
Y231102D01*
X341339Y228346D02*
Y231102D01*
Y209842D02*
Y212205D01*
X351575Y209842D02*
Y212205D01*
X396457Y136614D02*
X406693D01*
X396457Y115354D02*
X406693D01*
X396457D02*
Y118110D01*
X406693Y115354D02*
Y118110D01*
Y134252D02*
Y136614D01*
X396457Y134252D02*
Y136614D01*
X398819Y187795D02*
Y198031D01*
X420079Y187795D02*
Y198031D01*
X417323Y187795D02*
X420079D01*
X417323Y198031D02*
X420079D01*
X398819D02*
X401181D01*
X398819Y187795D02*
X401181D01*
X317717Y207480D02*
X327953D01*
X317717Y186221D02*
X327953D01*
X317717D02*
Y188976D01*
X327953Y186221D02*
Y188976D01*
Y205118D02*
Y207480D01*
X317717Y205118D02*
Y207480D01*
X140551Y225591D02*
X150787D01*
X140551Y204331D02*
X150787D01*
X140551D02*
Y207087D01*
X150787Y204331D02*
Y207087D01*
Y223228D02*
Y225591D01*
X140551Y223228D02*
Y225591D01*
X152362D02*
X162598D01*
X152362Y204331D02*
X162598D01*
X152362D02*
Y207087D01*
X162598Y204331D02*
Y207087D01*
Y223228D02*
Y225591D01*
X152362Y223228D02*
Y225591D01*
X164173D02*
X174409D01*
X164173Y204331D02*
X174409D01*
X164173D02*
Y207087D01*
X174409Y204331D02*
Y207087D01*
Y223228D02*
Y225591D01*
X164173Y223228D02*
Y225591D01*
X152756Y259055D02*
X162992D01*
X152756Y237795D02*
X162992D01*
X152756D02*
Y240551D01*
X162992Y237795D02*
Y240551D01*
Y256693D02*
Y259055D01*
X152756Y256693D02*
Y259055D01*
X329528Y209842D02*
X339764D01*
X329528Y231102D02*
X339764D01*
Y228346D02*
Y231102D01*
X329528Y228346D02*
Y231102D01*
Y209842D02*
Y212205D01*
X339764Y209842D02*
Y212205D01*
X329528Y253150D02*
X339764D01*
X329528Y274410D02*
X339764D01*
Y271654D02*
Y274410D01*
X329528Y271654D02*
Y274410D01*
Y253150D02*
Y255512D01*
X339764Y253150D02*
Y255512D01*
X151969Y286221D02*
X162205D01*
X151969Y264961D02*
X162205D01*
X151969D02*
Y267717D01*
X162205Y264961D02*
Y267717D01*
Y283858D02*
Y286221D01*
X151969Y283858D02*
Y286221D01*
X317717Y209842D02*
X327953D01*
X317717Y231102D02*
X327953D01*
Y228346D02*
Y231102D01*
X317717Y228346D02*
Y231102D01*
Y209842D02*
Y212205D01*
X327953Y209842D02*
Y212205D01*
X317717Y253150D02*
X327953D01*
X317717Y274410D02*
X327953D01*
Y271654D02*
Y274410D01*
X317717Y271654D02*
Y274410D01*
Y253150D02*
Y255512D01*
X327953Y253150D02*
Y255512D01*
X164173Y286221D02*
X174409D01*
X164173Y264961D02*
X174409D01*
X164173D02*
Y267717D01*
X174409Y264961D02*
Y267717D01*
Y283858D02*
Y286221D01*
X164173Y283858D02*
Y286221D01*
X164961Y259055D02*
X175197D01*
X164961Y237795D02*
X175197D01*
X164961D02*
Y240551D01*
X175197Y237795D02*
Y240551D01*
Y256693D02*
Y259055D01*
X164961Y256693D02*
Y259055D01*
X152362Y162598D02*
X162598D01*
X152362Y183858D02*
X162598D01*
Y181102D02*
Y183858D01*
X152362Y181102D02*
Y183858D01*
Y162598D02*
Y164961D01*
X162598Y162598D02*
Y164961D01*
X305906Y253150D02*
X316142D01*
X305906Y274410D02*
X316142D01*
Y271654D02*
Y274410D01*
X305906Y271654D02*
Y274410D01*
Y253150D02*
Y255512D01*
X316142Y253150D02*
Y255512D01*
X305906Y207480D02*
X316142D01*
X305906Y186221D02*
X316142D01*
X305906D02*
Y188976D01*
X316142Y186221D02*
Y188976D01*
Y205118D02*
Y207480D01*
X305906Y205118D02*
Y207480D01*
Y209842D02*
X316142D01*
X305906Y231102D02*
X316142D01*
Y228346D02*
Y231102D01*
X305906Y228346D02*
Y231102D01*
Y209842D02*
Y212205D01*
X316142Y209842D02*
Y212205D01*
X164173Y162598D02*
X174409D01*
X164173Y183858D02*
X174409D01*
Y181102D02*
Y183858D01*
X164173Y181102D02*
Y183858D01*
Y162598D02*
Y164961D01*
X174409Y162598D02*
Y164961D01*
X209842Y309842D02*
Y320079D01*
X231102Y309842D02*
Y320079D01*
X228346Y309842D02*
X231102D01*
X228346Y320079D02*
X231102D01*
X209842D02*
X212205D01*
X209842Y309842D02*
X212205D01*
X254724D02*
Y320079D01*
X233465Y309842D02*
Y320079D01*
X236221D01*
X233465Y309842D02*
X236221D01*
X252362D02*
X254724D01*
X252362Y320079D02*
X254724D01*
X346850Y167717D02*
Y177953D01*
X325590Y167717D02*
Y177953D01*
X328346D01*
X325590Y167717D02*
X328346D01*
X344488D02*
X346850D01*
X344488Y177953D02*
X346850D01*
X447638Y272835D02*
X457874D01*
X447638Y294094D02*
X457874D01*
Y291339D02*
Y294094D01*
X447638Y291339D02*
Y294094D01*
Y272835D02*
Y275197D01*
X457874Y272835D02*
Y275197D01*
X195669Y317717D02*
X205906D01*
X195669Y296457D02*
X205906D01*
X195669D02*
Y299213D01*
X205906Y296457D02*
Y299213D01*
Y315354D02*
Y317717D01*
X195669Y315354D02*
Y317717D01*
X380315Y314961D02*
Y334646D01*
X322047D02*
X380315D01*
X322047Y314961D02*
Y334646D01*
Y314961D02*
X380315D01*
X387008Y390071D02*
X394882D01*
X387008Y401882D02*
X394882D01*
X448757Y365080D02*
X449757Y364081D01*
X451756D01*
X452756Y365080D01*
Y369079D01*
X451756Y370079D01*
X449757D01*
X448757Y369079D01*
X442759Y370079D02*
X446758D01*
X442759Y366080D01*
Y365080D01*
X443759Y364081D01*
X445758D01*
X446758Y365080D01*
X440760D02*
X439760Y364081D01*
X437761D01*
X436761Y365080D01*
Y369079D01*
X437761Y370079D01*
X439760D01*
X440760Y369079D01*
Y365080D01*
X434762Y370079D02*
X432762D01*
X433762D01*
Y364081D01*
X434762Y365080D01*
X416074Y399260D02*
X415074Y400259D01*
X413074D01*
X412075Y399260D01*
Y395261D01*
X413074Y394261D01*
X415074D01*
X416074Y395261D01*
X422072Y394261D02*
X418073D01*
X422072Y398260D01*
Y399260D01*
X421072Y400259D01*
X419072D01*
X418073Y399260D01*
X424071D02*
X425071Y400259D01*
X427070D01*
X428070Y399260D01*
Y395261D01*
X427070Y394261D01*
X425071D01*
X424071Y395261D01*
Y399260D01*
X430069D02*
X431069Y400259D01*
X433068D01*
X434068Y399260D01*
Y395261D01*
X433068Y394261D01*
X431069D01*
X430069Y395261D01*
Y399260D01*
X442821Y409511D02*
Y407511D01*
Y408511D01*
X447819D01*
X448819Y407511D01*
Y406511D01*
X447819Y405512D01*
X448819Y411510D02*
X442821D01*
Y414509D01*
X443820Y415509D01*
X445820D01*
X446820Y414509D01*
Y411510D01*
X448819Y417508D02*
Y419507D01*
Y418508D01*
X442821D01*
X443820Y417508D01*
Y422506D02*
X442821Y423506D01*
Y425505D01*
X443820Y426505D01*
X447819D01*
X448819Y425505D01*
Y423506D01*
X447819Y422506D01*
X443820D01*
X443602Y462691D02*
Y456693D01*
X446601D01*
X447601Y457693D01*
Y461691D01*
X446601Y462691D01*
X443602D01*
X449600Y456693D02*
X451600D01*
X450600D01*
Y462691D01*
X449600Y461691D01*
X458598Y462691D02*
X454599D01*
Y459692D01*
X456598Y460692D01*
X457598D01*
X458598Y459692D01*
Y457693D01*
X457598Y456693D01*
X455598D01*
X454599Y457693D01*
X313293Y325652D02*
Y321654D01*
X316292D01*
Y323653D01*
Y321654D01*
X319291D01*
Y327652D02*
Y329651D01*
Y328651D01*
X313293D01*
X314293Y327652D01*
D57*
X447146Y346457D02*
G03*
X447146Y346457I-492J0D01*
G01*
X439272Y448819D02*
G03*
X439272Y448819I-492J0D01*
G01*
X191240Y366142D02*
G03*
X191240Y366142I-492J0D01*
G01*
X193405Y419488D02*
G03*
X193405Y419488I-492J0D01*
G01*
X177657D02*
G03*
X177657Y419488I-492J0D01*
G01*
X248524D02*
G03*
X248524Y419488I-492J0D01*
G01*
X184153Y164390D02*
G03*
X184153Y164390I-492J0D01*
G01*
X383720Y151969D02*
G03*
X383720Y151969I-492J0D01*
G01*
X237500Y149016D02*
G03*
X237500Y149016I-492J0D01*
G01*
X383720Y211024D02*
G03*
X383720Y211024I-492J0D01*
G01*
D58*
X157990Y189809D02*
G03*
X156990Y189818I-510J-1093D01*
G01*
X381515Y374130D02*
G03*
X379115Y374130I-1200J0D01*
G01*
X156580Y188713D02*
X158380D01*
X154680Y192313D02*
Y193513D01*
X156580Y197113D02*
X158380D01*
D59*
X192913Y160236D02*
G03*
X192913Y160236I-787J0D01*
G01*
D60*
X201772Y189961D02*
G03*
X201772Y189961I-1969J0D01*
G01*
D61*
X199803Y193898D02*
Y197047D01*
Y193898D02*
X202953D01*
X275394D02*
X278543D01*
Y197047D01*
Y269488D02*
Y272638D01*
X275394D02*
X278543D01*
X199803D02*
X202953D01*
X199803Y269488D02*
Y272638D01*
D62*
X379331Y367336D02*
Y371436D01*
X378511Y372256D01*
X376871D01*
X376051Y371436D01*
Y367336D01*
X374411Y368156D02*
X373591Y367336D01*
X371951D01*
X371131Y368156D01*
Y368976D01*
X371951Y369796D01*
X371131Y370616D01*
Y371436D01*
X371951Y372256D01*
X373591D01*
X374411Y371436D01*
Y370616D01*
X373591Y369796D01*
X374411Y368976D01*
Y368156D01*
X373591Y369796D02*
X371951D01*
X374016Y405512D02*
Y410431D01*
X376476D01*
X377295Y409612D01*
Y407972D01*
X376476Y407152D01*
X374016D01*
X375656D02*
X377295Y405512D01*
X378935D02*
X381395D01*
X382215Y406332D01*
X381395Y407152D01*
X379755D01*
X378935Y407972D01*
X379755Y408792D01*
X382215D01*
X386315Y405512D02*
X384675D01*
X383855Y406332D01*
Y407972D01*
X384675Y408792D01*
X386315D01*
X387135Y407972D01*
Y407152D01*
X383855D01*
X388775Y405512D02*
Y408792D01*
X391235D01*
X392055Y407972D01*
Y405512D01*
X393694D02*
X396154D01*
X396974Y406332D01*
X396154Y407152D01*
X394514D01*
X393694Y407972D01*
X394514Y408792D01*
X396974D01*
X401074Y405512D02*
X399434D01*
X398614Y406332D01*
Y407972D01*
X399434Y408792D01*
X401074D01*
X401894Y407972D01*
Y407152D01*
X398614D01*
X398622Y380906D02*
X403542D01*
Y378446D01*
X402722Y377626D01*
X401082D01*
X400262Y378446D01*
Y380906D01*
Y379266D02*
X398622Y377626D01*
X403542Y375986D02*
X398622D01*
Y372706D01*
X327722Y425067D02*
X328542Y425887D01*
Y427527D01*
X327722Y428346D01*
X324442D01*
X323622Y427527D01*
Y425887D01*
X324442Y425067D01*
X328542Y423427D02*
X323622D01*
Y420967D01*
X324442Y420147D01*
X325262D01*
X326082D01*
X326902Y420967D01*
Y423427D01*
X323622Y418507D02*
Y416047D01*
X324442Y415227D01*
X325262Y416047D01*
Y417687D01*
X326082Y418507D01*
X326902Y417687D01*
Y415227D01*
X327722Y412768D02*
X326902D01*
Y413587D01*
Y411948D01*
Y412768D01*
X324442D01*
X323622Y411948D01*
X351806Y381233D02*
X350986Y380413D01*
Y378773D01*
X351806Y377953D01*
X355086D01*
X355906Y378773D01*
Y380413D01*
X355086Y381233D01*
X355906Y382872D02*
Y384512D01*
Y383692D01*
X352626D01*
Y382872D01*
X355906Y386972D02*
X352626D01*
Y389432D01*
X353446Y390252D01*
X355906D01*
X324247Y380445D02*
X323427Y379625D01*
Y377985D01*
X324247Y377165D01*
X327526D01*
X328346Y377985D01*
Y379625D01*
X327526Y380445D01*
X328346Y382905D02*
Y384545D01*
X327526Y385365D01*
X325887D01*
X325067Y384545D01*
Y382905D01*
X325887Y382085D01*
X327526D01*
X328346Y382905D01*
X325067Y387005D02*
X327526D01*
X328346Y387825D01*
Y390284D01*
X325067D01*
X324247Y392744D02*
X325067D01*
Y391924D01*
Y393564D01*
Y392744D01*
X327526D01*
X328346Y393564D01*
X368935Y360177D02*
X364016D01*
Y356897D01*
Y355258D02*
Y353618D01*
Y354438D01*
X368935D01*
X368115Y355258D01*
X328740Y444095D02*
Y449014D01*
X331200D01*
X332020Y448194D01*
Y446554D01*
X331200Y445734D01*
X328740D01*
X330380D02*
X332020Y444095D01*
X334480D02*
Y448194D01*
Y446554D01*
X333660D01*
X335300D01*
X334480D01*
Y448194D01*
X335300Y449014D01*
X337759D02*
Y444095D01*
X340219D01*
X341039Y444914D01*
Y445734D01*
Y446554D01*
X340219Y447374D01*
X337759D01*
X342679Y449014D02*
Y444095D01*
X345139D01*
X345959Y444914D01*
Y445734D01*
Y446554D01*
X345139Y447374D01*
X342679D01*
X370276Y427177D02*
X365356D01*
Y429637D01*
X366176Y430457D01*
X367816D01*
X368636Y429637D01*
Y427177D01*
Y428817D02*
X370276Y430457D01*
Y432917D02*
X366176D01*
X367816D01*
Y432097D01*
Y433737D01*
Y432917D01*
X366176D01*
X365356Y433737D01*
Y436197D02*
X370276D01*
Y438656D01*
X369456Y439476D01*
X368636D01*
X367816D01*
X366996Y438656D01*
Y436197D01*
X366176Y441936D02*
X366996D01*
Y441116D01*
Y442756D01*
Y441936D01*
X369456D01*
X370276Y442756D01*
X192600Y287920D02*
Y283820D01*
X193420Y283000D01*
X195060D01*
X195880Y283820D01*
Y287920D01*
X197520Y283000D02*
X199160D01*
X198340D01*
Y287920D01*
X197520Y287100D01*
X354331Y397443D02*
Y401542D01*
X353511Y402362D01*
X351871D01*
X351051Y401542D01*
Y397443D01*
X346131D02*
X347771Y398263D01*
X349411Y399902D01*
Y401542D01*
X348591Y402362D01*
X346951D01*
X346131Y401542D01*
Y400722D01*
X346951Y399902D01*
X349411D01*
X199080Y324900D02*
X198260Y325720D01*
X196620D01*
X195800Y324900D01*
Y321620D01*
X196620Y320800D01*
X198260D01*
X199080Y321620D01*
X200720Y324900D02*
X201540Y325720D01*
X203180D01*
X203999Y324900D01*
Y324080D01*
X203180Y323260D01*
X203999Y322440D01*
Y321620D01*
X203180Y320800D01*
X201540D01*
X200720Y321620D01*
Y322440D01*
X201540Y323260D01*
X200720Y324080D01*
Y324900D01*
X201540Y323260D02*
X203180D01*
X450980Y301300D02*
X450160Y302120D01*
X448520D01*
X447700Y301300D01*
Y298020D01*
X448520Y297200D01*
X450160D01*
X450980Y298020D01*
X452620Y297200D02*
X454260D01*
X453440D01*
Y302120D01*
X452620Y301300D01*
X459999Y302120D02*
X456719D01*
Y299660D01*
X458359Y300480D01*
X459179D01*
X459999Y299660D01*
Y298020D01*
X459179Y297200D01*
X457539D01*
X456719Y298020D01*
X341208Y161255D02*
X342028Y160435D01*
X343668D01*
X344488Y161255D01*
Y164534D01*
X343668Y165354D01*
X342028D01*
X341208Y164534D01*
X339568Y161255D02*
X338749Y160435D01*
X337109D01*
X336289Y161255D01*
Y162074D01*
X337109Y162894D01*
X337929D01*
X337109D01*
X336289Y163714D01*
Y164534D01*
X337109Y165354D01*
X338749D01*
X339568Y164534D01*
X334649Y161255D02*
X333829Y160435D01*
X332189D01*
X331369Y161255D01*
Y164534D01*
X332189Y165354D01*
X333829D01*
X334649Y164534D01*
Y161255D01*
X236880Y327300D02*
X236060Y328120D01*
X234420D01*
X233600Y327300D01*
Y324020D01*
X234420Y323200D01*
X236060D01*
X236880Y324020D01*
X238520Y327300D02*
X239340Y328120D01*
X240980D01*
X241799Y327300D01*
Y326480D01*
X240980Y325660D01*
X240160D01*
X240980D01*
X241799Y324840D01*
Y324020D01*
X240980Y323200D01*
X239340D01*
X238520Y324020D01*
X243439Y323200D02*
X245079D01*
X244259D01*
Y328120D01*
X243439Y327300D01*
X213180D02*
X212360Y328120D01*
X210720D01*
X209900Y327300D01*
Y324020D01*
X210720Y323200D01*
X212360D01*
X213180Y324020D01*
X214820Y327300D02*
X215640Y328120D01*
X217280D01*
X218099Y327300D01*
Y326480D01*
X217280Y325660D01*
X216460D01*
X217280D01*
X218099Y324840D01*
Y324020D01*
X217280Y323200D01*
X215640D01*
X214820Y324020D01*
X223019Y323200D02*
X219739D01*
X223019Y326480D01*
Y327300D01*
X222199Y328120D01*
X220559D01*
X219739Y327300D01*
X167580Y191000D02*
X166760Y191820D01*
X165120D01*
X164300Y191000D01*
Y187720D01*
X165120Y186900D01*
X166760D01*
X167580Y187720D01*
X169220Y191000D02*
X170040Y191820D01*
X171679D01*
X172500Y191000D01*
Y190180D01*
X171679Y189360D01*
X170860D01*
X171679D01*
X172500Y188540D01*
Y187720D01*
X171679Y186900D01*
X170040D01*
X169220Y187720D01*
X177419Y191820D02*
X174139D01*
Y189360D01*
X175779Y190180D01*
X176599D01*
X177419Y189360D01*
Y187720D01*
X176599Y186900D01*
X174959D01*
X174139Y187720D01*
X299050Y215878D02*
X298230Y215058D01*
Y213418D01*
X299050Y212598D01*
X302330D01*
X303150Y213418D01*
Y215058D01*
X302330Y215878D01*
X299050Y217518D02*
X298230Y218338D01*
Y219978D01*
X299050Y220798D01*
X299870D01*
X300690Y219978D01*
Y219158D01*
Y219978D01*
X301510Y220798D01*
X302330D01*
X303150Y219978D01*
Y218338D01*
X302330Y217518D01*
X298230Y225717D02*
X299050Y224078D01*
X300690Y222438D01*
X302330D01*
X303150Y223258D01*
Y224898D01*
X302330Y225717D01*
X301510D01*
X300690Y224898D01*
Y222438D01*
X311681Y177003D02*
X312501Y176183D01*
X314141D01*
X314961Y177003D01*
Y180282D01*
X314141Y181102D01*
X312501D01*
X311681Y180282D01*
X310041Y177003D02*
X309221Y176183D01*
X307581D01*
X306761Y177003D01*
Y177823D01*
X307581Y178642D01*
X308401D01*
X307581D01*
X306761Y179463D01*
Y180282D01*
X307581Y181102D01*
X309221D01*
X310041Y180282D01*
X305121Y176183D02*
X301841D01*
Y177003D01*
X305121Y180282D01*
Y181102D01*
X301344Y259185D02*
X302164Y258365D01*
Y256726D01*
X301344Y255906D01*
X298064D01*
X297244Y256726D01*
Y258365D01*
X298064Y259185D01*
X301344Y260825D02*
X302164Y261645D01*
Y263285D01*
X301344Y264105D01*
X300524D01*
X299704Y263285D01*
Y262465D01*
Y263285D01*
X298884Y264105D01*
X298064D01*
X297244Y263285D01*
Y261645D01*
X298064Y260825D01*
X301344Y265745D02*
X302164Y266565D01*
Y268205D01*
X301344Y269025D01*
X300524D01*
X299704Y268205D01*
X298884Y269025D01*
X298064D01*
X297244Y268205D01*
Y266565D01*
X298064Y265745D01*
X298884D01*
X299704Y266565D01*
X300524Y265745D01*
X301344D01*
X299704Y266565D02*
Y268205D01*
X162074Y153381D02*
X162894Y152561D01*
X164534D01*
X165354Y153381D01*
Y156660D01*
X164534Y157480D01*
X162894D01*
X162074Y156660D01*
X160435Y153381D02*
X159615Y152561D01*
X157975D01*
X157155Y153381D01*
Y154200D01*
X157975Y155020D01*
X158795D01*
X157975D01*
X157155Y155840D01*
Y156660D01*
X157975Y157480D01*
X159615D01*
X160435Y156660D01*
X155515D02*
X154695Y157480D01*
X153055D01*
X152235Y156660D01*
Y153381D01*
X153055Y152561D01*
X154695D01*
X155515Y153381D01*
Y154200D01*
X154695Y155020D01*
X152235D01*
X181265Y253807D02*
X182085Y254627D01*
Y256267D01*
X181265Y257087D01*
X177985D01*
X177165Y256267D01*
Y254627D01*
X177985Y253807D01*
X177165Y249707D02*
X182085D01*
X179625Y252167D01*
Y248887D01*
X181265Y247247D02*
X182085Y246427D01*
Y244787D01*
X181265Y243968D01*
X177985D01*
X177165Y244787D01*
Y246427D01*
X177985Y247247D01*
X181265D01*
Y280185D02*
X182085Y281005D01*
Y282645D01*
X181265Y283465D01*
X177985D01*
X177165Y282645D01*
Y281005D01*
X177985Y280185D01*
X177165Y276085D02*
X182085D01*
X179625Y278545D01*
Y275265D01*
X177165Y273625D02*
Y271985D01*
Y272805D01*
X182085D01*
X181265Y273625D01*
X328413Y244916D02*
X329233Y244096D01*
X330873D01*
X331693Y244916D01*
Y248196D01*
X330873Y249016D01*
X329233D01*
X328413Y248196D01*
X324313Y249016D02*
Y244096D01*
X326773Y246556D01*
X323494D01*
X318574Y249016D02*
X321854D01*
X318574Y245736D01*
Y244916D01*
X319394Y244096D01*
X321034D01*
X321854Y244916D01*
X314303Y236383D02*
X313483Y237203D01*
X311844D01*
X311024Y236383D01*
Y233103D01*
X311844Y232283D01*
X313483D01*
X314303Y233103D01*
X318403Y232283D02*
Y237203D01*
X315943Y234743D01*
X319223D01*
X323323Y232283D02*
Y237203D01*
X320863Y234743D01*
X324143D01*
X145113Y270996D02*
X144293Y270176D01*
Y268536D01*
X145113Y267717D01*
X148393D01*
X149213Y268536D01*
Y270176D01*
X148393Y270996D01*
X149213Y275096D02*
X144293D01*
X146753Y272636D01*
Y275916D01*
X144293Y280836D02*
Y277556D01*
X146753D01*
X145933Y279196D01*
Y280016D01*
X146753Y280836D01*
X148393D01*
X149213Y280016D01*
Y278376D01*
X148393Y277556D01*
X330051Y283627D02*
X329232Y284447D01*
X327592D01*
X326772Y283627D01*
Y280347D01*
X327592Y279528D01*
X329232D01*
X330051Y280347D01*
X334151Y279528D02*
Y284447D01*
X331691Y281987D01*
X334971D01*
X339891Y284447D02*
X338251Y283627D01*
X336611Y281987D01*
Y280347D01*
X337431Y279528D01*
X339071D01*
X339891Y280347D01*
Y281168D01*
X339071Y281987D01*
X336611D01*
X333988Y236383D02*
X333169Y237203D01*
X331529D01*
X330709Y236383D01*
Y233103D01*
X331529Y232283D01*
X333169D01*
X333988Y233103D01*
X338088Y232283D02*
Y237203D01*
X335628Y234743D01*
X338908D01*
X340548Y237203D02*
X343828D01*
Y236383D01*
X340548Y233103D01*
Y232283D01*
X146294Y243437D02*
X145474Y242617D01*
Y240977D01*
X146294Y240158D01*
X149574D01*
X150394Y240977D01*
Y242617D01*
X149574Y243437D01*
X150394Y247537D02*
X145474D01*
X147934Y245077D01*
Y248357D01*
X146294Y249997D02*
X145474Y250817D01*
Y252457D01*
X146294Y253277D01*
X147114D01*
X147934Y252457D01*
X148754Y253277D01*
X149574D01*
X150394Y252457D01*
Y250817D01*
X149574Y249997D01*
X148754D01*
X147934Y250817D01*
X147114Y249997D01*
X146294D01*
X147934Y250817D02*
Y252457D01*
X181265Y219555D02*
X182085Y220375D01*
Y222015D01*
X181265Y222835D01*
X177985D01*
X177165Y222015D01*
Y220375D01*
X177985Y219555D01*
X177165Y215455D02*
X182085D01*
X179625Y217915D01*
Y214635D01*
X177985Y212995D02*
X177165Y212175D01*
Y210536D01*
X177985Y209716D01*
X181265D01*
X182085Y210536D01*
Y212175D01*
X181265Y212995D01*
X180445D01*
X179625Y212175D01*
Y209716D01*
X155780Y232800D02*
X154960Y233620D01*
X153320D01*
X152500Y232800D01*
Y229520D01*
X153320Y228700D01*
X154960D01*
X155780Y229520D01*
X160699Y233620D02*
X157420D01*
Y231160D01*
X159060Y231980D01*
X159880D01*
X160699Y231160D01*
Y229520D01*
X159880Y228700D01*
X158240D01*
X157420Y229520D01*
X162339Y232800D02*
X163159Y233620D01*
X164799D01*
X165619Y232800D01*
Y229520D01*
X164799Y228700D01*
X163159D01*
X162339Y229520D01*
Y232800D01*
X133696Y206429D02*
X132876Y205609D01*
Y203970D01*
X133696Y203150D01*
X136975D01*
X137795Y203970D01*
Y205609D01*
X136975Y206429D01*
X132876Y211349D02*
Y208069D01*
X135335D01*
X134516Y209709D01*
Y210529D01*
X135335Y211349D01*
X136975D01*
X137795Y210529D01*
Y208889D01*
X136975Y208069D01*
X133696Y212989D02*
X132876Y213809D01*
Y215449D01*
X133696Y216269D01*
X134516D01*
X135335Y215449D01*
Y214629D01*
Y215449D01*
X136155Y216269D01*
X136975D01*
X137795Y215449D01*
Y213809D01*
X136975Y212989D01*
X334808Y197508D02*
X335628Y198328D01*
Y199968D01*
X334808Y200787D01*
X331529D01*
X330709Y199968D01*
Y198328D01*
X331529Y197508D01*
X335628Y192588D02*
Y195868D01*
X333169D01*
X333988Y194228D01*
Y193408D01*
X333169Y192588D01*
X331529D01*
X330709Y193408D01*
Y195048D01*
X331529Y195868D01*
X330709Y188488D02*
X335628D01*
X333169Y190948D01*
Y187668D01*
X402180Y205200D02*
X401360Y206020D01*
X399720D01*
X398900Y205200D01*
Y201920D01*
X399720Y201100D01*
X401360D01*
X402180Y201920D01*
X403820Y206020D02*
X407099D01*
Y205200D01*
X403820Y201920D01*
Y201100D01*
X411199D02*
Y206020D01*
X408739Y203560D01*
X412019D01*
X389601Y121390D02*
X388781Y120570D01*
Y118930D01*
X389601Y118110D01*
X392881D01*
X393701Y118930D01*
Y120570D01*
X392881Y121390D01*
X388781Y123030D02*
Y126310D01*
X389601D01*
X392881Y123030D01*
X393701D01*
X388781Y131229D02*
Y127950D01*
X391241D01*
X390421Y129589D01*
Y130409D01*
X391241Y131229D01*
X392881D01*
X393701Y130409D01*
Y128770D01*
X392881Y127950D01*
X358430Y225067D02*
X359250Y225887D01*
Y227526D01*
X358430Y228346D01*
X355151D01*
X354331Y227526D01*
Y225887D01*
X355151Y225067D01*
X359250Y223427D02*
Y220147D01*
X358430D01*
X355151Y223427D01*
X354331D01*
X359250Y215227D02*
X358430Y216867D01*
X356790Y218507D01*
X355151D01*
X354331Y217687D01*
Y216047D01*
X355151Y215227D01*
X355971D01*
X356790Y216047D01*
Y218507D01*
X263580Y314700D02*
X262760Y315520D01*
X261120D01*
X260300Y314700D01*
Y311420D01*
X261120Y310600D01*
X262760D01*
X263580Y311420D01*
X265220Y314700D02*
X266040Y315520D01*
X267680D01*
X268499Y314700D01*
Y313880D01*
X267680Y313060D01*
X268499Y312240D01*
Y311420D01*
X267680Y310600D01*
X266040D01*
X265220Y311420D01*
Y312240D01*
X266040Y313060D01*
X265220Y313880D01*
Y314700D01*
X266040Y313060D02*
X267680D01*
X270139Y314700D02*
X270959Y315520D01*
X272599D01*
X273419Y314700D01*
Y313880D01*
X272599Y313060D01*
X271779D01*
X272599D01*
X273419Y312240D01*
Y311420D01*
X272599Y310600D01*
X270959D01*
X270139Y311420D01*
X414043Y345310D02*
X414863Y344490D01*
X416503D01*
X417323Y345310D01*
Y348589D01*
X416503Y349409D01*
X414863D01*
X414043Y348589D01*
X412403Y349409D02*
X409943D01*
X409123Y348589D01*
X409943Y347769D01*
X411583D01*
X412403Y346950D01*
X411583Y346130D01*
X409123D01*
X405024Y349409D02*
X406664D01*
X407483Y348589D01*
Y346950D01*
X406664Y346130D01*
X405024D01*
X404204Y346950D01*
Y347769D01*
X407483D01*
X402564Y349409D02*
Y346130D01*
X400104D01*
X399284Y346950D01*
Y349409D01*
X397644D02*
X395184D01*
X394364Y348589D01*
X395184Y347769D01*
X396824D01*
X397644Y346950D01*
X396824Y346130D01*
X394364D01*
X390265Y349409D02*
X391904D01*
X392724Y348589D01*
Y346950D01*
X391904Y346130D01*
X390265D01*
X389445Y346950D01*
Y347769D01*
X392724D01*
X396500Y306020D02*
Y301100D01*
X398960D01*
X399780Y301920D01*
Y305200D01*
X398960Y306020D01*
X396500D01*
X401420Y301100D02*
X403060D01*
X402240D01*
Y306020D01*
X401420Y305200D01*
X392718Y259842D02*
X397638D01*
Y262302D01*
X396818Y263122D01*
X393538D01*
X392718Y262302D01*
Y259842D01*
X397638Y268042D02*
Y264762D01*
X394358Y268042D01*
X393538D01*
X392718Y267222D01*
Y265582D01*
X393538Y264762D01*
X420200Y306020D02*
Y301100D01*
X422660D01*
X423480Y301920D01*
Y305200D01*
X422660Y306020D01*
X420200D01*
X425120Y305200D02*
X425940Y306020D01*
X427579D01*
X428399Y305200D01*
Y304380D01*
X427579Y303560D01*
X426760D01*
X427579D01*
X428399Y302740D01*
Y301920D01*
X427579Y301100D01*
X425940D01*
X425120Y301920D01*
X416340Y259842D02*
X421260D01*
Y262302D01*
X420440Y263122D01*
X417160D01*
X416340Y262302D01*
Y259842D01*
X421260Y267222D02*
X416340D01*
X418800Y264762D01*
Y268042D01*
X375300Y206020D02*
Y201100D01*
X377760D01*
X378580Y201920D01*
Y205200D01*
X377760Y206020D01*
X375300D01*
X383499D02*
X380220D01*
Y203560D01*
X381860Y204380D01*
X382680D01*
X383499Y203560D01*
Y201920D01*
X382680Y201100D01*
X381040D01*
X380220Y201920D01*
X358268Y201770D02*
Y196850D01*
X360728D01*
X361547Y197670D01*
Y200950D01*
X360728Y201770D01*
X358268D01*
X366467D02*
X364827Y200950D01*
X363187Y199310D01*
Y197670D01*
X364007Y196850D01*
X365647D01*
X366467Y197670D01*
Y198490D01*
X365647Y199310D01*
X363187D01*
X345400Y298120D02*
Y293200D01*
X347860D01*
X348680Y294020D01*
Y297300D01*
X347860Y298120D01*
X345400D01*
X350320D02*
X353599D01*
Y297300D01*
X350320Y294020D01*
Y293200D01*
X341537Y251969D02*
X346457D01*
Y254428D01*
X345637Y255248D01*
X342357D01*
X341537Y254428D01*
Y251969D01*
X342357Y256888D02*
X341537Y257708D01*
Y259348D01*
X342357Y260168D01*
X343177D01*
X343997Y259348D01*
X344817Y260168D01*
X345637D01*
X346457Y259348D01*
Y257708D01*
X345637Y256888D01*
X344817D01*
X343997Y257708D01*
X343177Y256888D01*
X342357D01*
X343997Y257708D02*
Y259348D01*
X429134Y165354D02*
Y170274D01*
X431594D01*
X432414Y169454D01*
Y167814D01*
X431594Y166994D01*
X429134D01*
X430774D02*
X432414Y165354D01*
X437333D02*
X434054D01*
X437333Y168634D01*
Y169454D01*
X436513Y170274D01*
X434873D01*
X434054Y169454D01*
X468504Y173228D02*
Y168309D01*
X466044D01*
X465224Y169129D01*
Y170768D01*
X466044Y171589D01*
X468504D01*
X466864D02*
X465224Y173228D01*
X461124D02*
Y168309D01*
X463584Y170768D01*
X460304D01*
X460630Y244094D02*
X465550D01*
Y241635D01*
X464730Y240815D01*
X463090D01*
X462270Y241635D01*
Y244094D01*
Y242455D02*
X460630Y240815D01*
X461450Y239175D02*
X460630Y238355D01*
Y236715D01*
X461450Y235895D01*
X464730D01*
X465550Y236715D01*
Y238355D01*
X464730Y239175D01*
X463910D01*
X463090Y238355D01*
Y235895D01*
X358661Y162598D02*
X353742D01*
Y165058D01*
X354562Y165878D01*
X356202D01*
X357021Y165058D01*
Y162598D01*
Y164238D02*
X358661Y165878D01*
Y167518D02*
Y169158D01*
Y168338D01*
X353742D01*
X354562Y167518D01*
X358661Y174078D02*
X353742D01*
X356202Y171618D01*
Y174898D01*
X460630Y267717D02*
X465550D01*
Y265257D01*
X464730Y264437D01*
X463090D01*
X462270Y265257D01*
Y267717D01*
Y266077D02*
X460630Y264437D01*
Y262797D02*
Y261157D01*
Y261977D01*
X465550D01*
X464730Y262797D01*
X465550Y255417D02*
X464730Y257057D01*
X463090Y258697D01*
X461450D01*
X460630Y257877D01*
Y256237D01*
X461450Y255417D01*
X462270D01*
X463090Y256237D01*
Y258697D01*
X464567Y202362D02*
X459647D01*
Y204822D01*
X460467Y205642D01*
X462107D01*
X462927Y204822D01*
Y202362D01*
Y204002D02*
X464567Y205642D01*
Y210562D02*
Y207282D01*
X461287Y210562D01*
X460467D01*
X459647Y209742D01*
Y208102D01*
X460467Y207282D01*
Y212201D02*
X459647Y213021D01*
Y214661D01*
X460467Y215481D01*
X461287D01*
X462107Y214661D01*
X462927Y215481D01*
X463747D01*
X464567Y214661D01*
Y213021D01*
X463747Y212201D01*
X462927D01*
X462107Y213021D01*
X461287Y212201D01*
X460467D01*
X462107Y213021D02*
Y214661D01*
X444882Y181102D02*
X439962D01*
Y183562D01*
X440782Y184382D01*
X442422D01*
X443242Y183562D01*
Y181102D01*
Y182742D02*
X444882Y184382D01*
Y188482D02*
X439962D01*
X442422Y186022D01*
Y189302D01*
X444882Y193402D02*
X439962D01*
X442422Y190942D01*
Y194221D01*
X369685Y272047D02*
Y276967D01*
X372145D01*
X372965Y276147D01*
Y274507D01*
X372145Y273687D01*
X369685D01*
X371325D02*
X372965Y272047D01*
X377064D02*
Y276967D01*
X374605Y274507D01*
X377885D01*
X382804Y276967D02*
X379524D01*
Y274507D01*
X381164Y275327D01*
X381984D01*
X382804Y274507D01*
Y272867D01*
X381984Y272047D01*
X380344D01*
X379524Y272867D01*
X371400Y302300D02*
Y307220D01*
X373860D01*
X374680Y306400D01*
Y304760D01*
X373860Y303940D01*
X371400D01*
X373040D02*
X374680Y302300D01*
X378780D02*
Y307220D01*
X376320Y304760D01*
X379599D01*
X384519Y307220D02*
X382879Y306400D01*
X381239Y304760D01*
Y303120D01*
X382059Y302300D01*
X383699D01*
X384519Y303120D01*
Y303940D01*
X383699Y304760D01*
X381239D01*
X254400Y167300D02*
Y172220D01*
X256860D01*
X257680Y171400D01*
Y169760D01*
X256860Y168940D01*
X254400D01*
X256040D02*
X257680Y167300D01*
X261779D02*
Y172220D01*
X259320Y169760D01*
X262599D01*
X264239Y171400D02*
X265059Y172220D01*
X266699D01*
X267519Y171400D01*
Y170580D01*
X266699Y169760D01*
X267519Y168940D01*
Y168120D01*
X266699Y167300D01*
X265059D01*
X264239Y168120D01*
Y168940D01*
X265059Y169760D01*
X264239Y170580D01*
Y171400D01*
X265059Y169760D02*
X266699D01*
X131200Y369200D02*
Y374120D01*
X133660D01*
X134480Y373300D01*
Y371660D01*
X133660Y370840D01*
X131200D01*
X132840D02*
X134480Y369200D01*
X136120D02*
X137760D01*
X136940D01*
Y374120D01*
X136120Y373300D01*
X140219D02*
X141039Y374120D01*
X142679D01*
X143499Y373300D01*
Y370020D01*
X142679Y369200D01*
X141039D01*
X140219Y370020D01*
Y373300D01*
X145139D02*
X145959Y374120D01*
X147599D01*
X148419Y373300D01*
Y370020D01*
X147599Y369200D01*
X145959D01*
X145139Y370020D01*
Y373300D01*
X130800Y392900D02*
Y397820D01*
X133260D01*
X134080Y397000D01*
Y395360D01*
X133260Y394540D01*
X130800D01*
X132440D02*
X134080Y392900D01*
X135720D02*
X137360D01*
X136540D01*
Y397820D01*
X135720Y397000D01*
X139819D02*
X140639Y397820D01*
X142279D01*
X143099Y397000D01*
Y393720D01*
X142279Y392900D01*
X140639D01*
X139819Y393720D01*
Y397000D01*
X144739Y392900D02*
X146379D01*
X145559D01*
Y397820D01*
X144739Y397000D01*
X216400Y170200D02*
Y175120D01*
X218860D01*
X219680Y174300D01*
Y172660D01*
X218860Y171840D01*
X216400D01*
X218040D02*
X219680Y170200D01*
X221320D02*
X222960D01*
X222140D01*
Y175120D01*
X221320Y174300D01*
X225419D02*
X226239Y175120D01*
X227879D01*
X228699Y174300D01*
Y171020D01*
X227879Y170200D01*
X226239D01*
X225419Y171020D01*
Y174300D01*
X233619Y170200D02*
X230339D01*
X233619Y173480D01*
Y174300D01*
X232799Y175120D01*
X231159D01*
X230339Y174300D01*
X131200Y444000D02*
Y448920D01*
X133660D01*
X134480Y448100D01*
Y446460D01*
X133660Y445640D01*
X131200D01*
X132840D02*
X134480Y444000D01*
X136120D02*
X137760D01*
X136940D01*
Y448920D01*
X136120Y448100D01*
X140219D02*
X141039Y448920D01*
X142679D01*
X143499Y448100D01*
Y444820D01*
X142679Y444000D01*
X141039D01*
X140219Y444820D01*
Y448100D01*
X145139D02*
X145959Y448920D01*
X147599D01*
X148419Y448100D01*
Y447280D01*
X147599Y446460D01*
X146779D01*
X147599D01*
X148419Y445640D01*
Y444820D01*
X147599Y444000D01*
X145959D01*
X145139Y444820D01*
X131600Y416500D02*
Y421420D01*
X134060D01*
X134880Y420600D01*
Y418960D01*
X134060Y418140D01*
X131600D01*
X133240D02*
X134880Y416500D01*
X136520D02*
X138160D01*
X137340D01*
Y421420D01*
X136520Y420600D01*
X140619D02*
X141439Y421420D01*
X143079D01*
X143899Y420600D01*
Y417320D01*
X143079Y416500D01*
X141439D01*
X140619Y417320D01*
Y420600D01*
X147999Y416500D02*
Y421420D01*
X145539Y418960D01*
X148819D01*
X382800Y242820D02*
Y238720D01*
X383620Y237900D01*
X385260D01*
X386080Y238720D01*
Y242820D01*
X390179Y237900D02*
Y242820D01*
X387720Y240360D01*
X390999D01*
X236600Y169620D02*
Y165520D01*
X237420Y164700D01*
X239060D01*
X239880Y165520D01*
Y169620D01*
X244799D02*
X241520D01*
Y167160D01*
X243160Y167980D01*
X243980D01*
X244799Y167160D01*
Y165520D01*
X243980Y164700D01*
X242340D01*
X241520Y165520D01*
X376970Y161417D02*
X381070D01*
X381890Y162237D01*
Y163877D01*
X381070Y164697D01*
X376970D01*
X381890Y166337D02*
Y167977D01*
Y167157D01*
X376970D01*
X377790Y166337D01*
Y170437D02*
X376970Y171257D01*
Y172897D01*
X377790Y173716D01*
X381070D01*
X381890Y172897D01*
Y171257D01*
X381070Y170437D01*
X377790D01*
X180000Y172920D02*
Y168820D01*
X180820Y168000D01*
X182460D01*
X183280Y168820D01*
Y172920D01*
X184920Y168000D02*
X186560D01*
X185740D01*
Y172920D01*
X184920Y172100D01*
X192299Y172920D02*
X190659Y172100D01*
X189019Y170460D01*
Y168820D01*
X189839Y168000D01*
X191479D01*
X192299Y168820D01*
Y169640D01*
X191479Y170460D01*
X189019D01*
X211616Y295276D02*
X212436D01*
X214076Y296916D01*
X212436Y298555D01*
X211616D01*
X214076Y296916D02*
X216535D01*
Y303475D02*
Y300195D01*
X213256Y303475D01*
X212436D01*
X211616Y302655D01*
Y301015D01*
X212436Y300195D01*
X243000Y428020D02*
Y423100D01*
X245460D01*
X246280Y423920D01*
Y427200D01*
X245460Y428020D01*
X243000D01*
X247920Y423100D02*
X249560D01*
X248740D01*
Y428020D01*
X247920Y427200D01*
X252019D02*
X252839Y428020D01*
X254479D01*
X255299Y427200D01*
Y423920D01*
X254479Y423100D01*
X252839D01*
X252019Y423920D01*
Y427200D01*
X172100Y428020D02*
Y423100D01*
X174560D01*
X175380Y423920D01*
Y427200D01*
X174560Y428020D01*
X172100D01*
X177020Y423100D02*
X178660D01*
X177840D01*
Y428020D01*
X177020Y427200D01*
X181119Y423100D02*
X182759D01*
X181939D01*
Y428020D01*
X181119Y427200D01*
X187900Y428020D02*
Y423100D01*
X190360D01*
X191180Y423920D01*
Y427200D01*
X190360Y428020D01*
X187900D01*
X192820Y423100D02*
X194460D01*
X193640D01*
Y428020D01*
X192820Y427200D01*
X200199Y423100D02*
X196919D01*
X200199Y426380D01*
Y427200D01*
X199379Y428020D01*
X197739D01*
X196919Y427200D01*
X196850Y378935D02*
Y374016D01*
X199310D01*
X200130Y374836D01*
Y378116D01*
X199310Y378935D01*
X196850D01*
X201770Y374016D02*
X203410D01*
X202590D01*
Y378935D01*
X201770Y378116D01*
X205870D02*
X206690Y378935D01*
X208330D01*
X209150Y378116D01*
Y377295D01*
X208330Y376476D01*
X207510D01*
X208330D01*
X209150Y375656D01*
Y374836D01*
X208330Y374016D01*
X206690D01*
X205870Y374836D01*
X140750Y188976D02*
X144849D01*
X145669Y189796D01*
Y191436D01*
X144849Y192256D01*
X140750D01*
Y193896D02*
Y197176D01*
X141570D01*
X144849Y193896D01*
X145669D01*
X467520Y333565D02*
Y338484D01*
X465060D01*
X464240Y337664D01*
Y334384D01*
X465060Y333565D01*
X467520D01*
X462600Y338484D02*
X460960D01*
X461780D01*
Y333565D01*
X462600Y334384D01*
X456040Y338484D02*
Y333565D01*
X458500Y336024D01*
X455221D01*
D63*
X459887Y346457D02*
D03*
X452013Y448819D02*
D03*
X203981Y366142D02*
D03*
D64*
X192915Y406256D02*
D03*
X177164Y406255D02*
D03*
X248031D02*
D03*
M02*
